<?xml version="1.0" standalone="no"?>
<!DOCTYPE svg PUBLIC "-//W3C//DTD SVG 1.1//EN" "http://www.w3.org/Graphics/SVG/1.1/DTD/svg11.dtd" >
<svg xmlns="http://www.w3.org/2000/svg" xmlns:xlink="http://www.w3.org/1999/xlink" version="1.1">
<metadata>
Created by FontForge 20190801 at Sat Feb 15 09:29:51 2014
 By Unknown
Copyright \(c\) 2005 by Frantisek Storm, www.stormtype.com. All rights reserved.
</metadata>
<defs>
<font id="EtelkaWideMediumPro" horiz-adv-x="710" >
  <font-face 
    font-family="Etelka Wide Medium Pro"
    font-weight="400"
    font-stretch="normal"
    units-per-em="1000"
    panose-1="2 0 5 5 0 0 0 2 0 4"
    ascent="800"
    descent="-200"
    x-height="509"
    cap-height="697"
    bbox="-256 -314 1651 917"
    underline-thickness="50"
    underline-position="-150"
    unicode-range="U+0020-FB04"
  />
<missing-glyph horiz-adv-x="500" 
d="M515 0h-530v697h530v-697zM118 615l132 -196l132 196h-264zM430 545l-132 -196l132 -197v393zM250 279l-132 -197h264zM202 349l-132 196v-393z" />
    <glyph glyph-name="ff" unicode="ff" horiz-adv-x="843" 
d="M638 536v-27h210v-108h-210v-401h-130v401h-265v-401h-130v401h-108v108h108v30c0 69 22 117 65 144c44 27 103 41 177 41c81 0 155 -10 222 -31c33 21 84 31 151 31c65 0 119 -6 162 -17l-19 -101c-38 8 -77 12 -116 12c-80 0 -117 -21 -117 -82zM243 532v-23h265v34
c0 23 3 43 9 59c-47 11 -91 16 -132 16c-99 0 -142 -19 -142 -86z" />
    <glyph glyph-name="fi" unicode="fi" horiz-adv-x="724" 
d="M243 509h395v-509h-130v401h-265v-401h-130v401h-108v108h108v30c0 140 102 185 290 185c85 0 161 -10 228 -29l-24 -101c-65 16 -132 24 -200 24c-117 0 -164 -18 -164 -86v-23z" />
    <glyph glyph-name="fl" unicode="fl" horiz-adv-x="731" 
d="M638 695v-552c0 -45 18 -85 53 -121l-124 -42c-39 34 -59 87 -59 158v469c-44 7 -85 11 -123 11c-99 0 -142 -19 -142 -86v-23h172v-108h-172v-401h-130v401h-108v108h108v30c0 151 115 185 275 185c87 0 170 -10 250 -29z" />
    <glyph glyph-name="ffi" unicode="ffi" horiz-adv-x="1119" 
d="M638 509h395v-509h-131v401h-264v-401h-130v401h-265v-401h-130v401h-108v108h108v30c0 152 116 185 248 185c81 0 158 -11 230 -34c47 23 116 34 207 34c87 0 164 -10 231 -29l-21 -103c-67 17 -135 26 -206 26c-117 0 -164 -18 -164 -86v-23zM243 532v-23h265v30
c0 25 4 46 12 63c-46 11 -92 16 -137 16c-97 0 -140 -18 -140 -86z" />
    <glyph glyph-name="ffl" unicode="ffl" horiz-adv-x="1126" 
d="M1033 695v-552c0 -44 18 -84 54 -121l-125 -42c-40 35 -60 87 -60 158v469c-48 7 -91 11 -130 11c-88 0 -134 -18 -134 -86v-23h172v-108h-172v-401h-130v401h-265v-401h-130v401h-108v108h108v30c0 73 26 124 74 149c48 27 100 36 171 36c76 0 153 -11 230 -33
c45 22 110 33 195 33h30c59 0 132 -10 220 -29zM508 509v30c0 27 4 48 12 64c-49 10 -94 15 -135 15c-97 0 -142 -17 -142 -77v-32h265z" />
    <glyph glyph-name="fj" unicode="fj" horiz-adv-x="724" 
d="M243 509h395v-519c0 -73 -19 -124 -58 -151c-39 -28 -99 -42 -181 -42v103c76 0 109 22 109 87v414h-265v-401h-130v401h-108v108h108v30c0 140 102 185 290 185c85 0 161 -10 228 -29l-24 -100c-63 15 -129 23 -200 23c-117 0 -164 -18 -164 -86v-23z" />
    <glyph glyph-name="fk" unicode="fk" horiz-adv-x="1091" 
d="M638 695v-695h-130v607c-41 7 -82 11 -123 11c-99 0 -142 -19 -142 -86v-23h172v-108h-172v-401h-130v401h-108v108h108v30c0 151 115 185 275 185c87 0 170 -10 250 -29zM1101 0h-174c-69 79 -130 143 -181 190c-51 48 -86 74 -104 79c22 12 57 39 105 82
c49 43 102 95 161 158h173c-54 -57 -105 -107 -154 -148c-48 -41 -84 -68 -109 -83c21 -10 58 -40 111 -90c53 -49 110 -112 172 -188z" />
    <glyph glyph-name="ffk" unicode="ffk" horiz-adv-x="1486" 
d="M1033 695v-695h-131v607c-44 7 -85 11 -122 11c-97 0 -142 -21 -142 -86v-23h172v-108h-172v-401h-130v401h-265v-401h-130v401h-108v108h108v30c0 73 27 124 75 149c48 27 100 35 172 35c77 0 151 -11 223 -32c44 22 111 33 202 33c90 0 173 -10 248 -29zM508 509v30
c0 26 4 47 12 64c-50 10 -99 15 -147 15c-93 0 -130 -20 -130 -96v-13h265zM1496 0h-173c-69 79 -130 143 -182 190c-51 48 -86 74 -103 79c22 13 57 40 105 83c49 43 102 95 160 157h173c-54 -57 -105 -107 -154 -148c-48 -41 -84 -68 -108 -83c21 -10 58 -40 110 -90
c53 -49 110 -112 172 -188z" />
    <glyph glyph-name="Th" unicode="Th" horiz-adv-x="1346" 
d="M2 697h851v-216c53 29 117 43 191 43c76 0 123 -11 163 -44s57 -94 57 -187v-293h-130v283c0 53 -9 87 -28 104c-18 17 -53 25 -106 25c-85 0 -148 -23 -148 -55v-178c1 -79 1 -139 1 -179h-131v583h-279v-583h-142v583h-299v114z" />
    <glyph glyph-name=".notdef" horiz-adv-x="500" 
d="M515 0h-530v697h530v-697zM118 615l132 -196l132 196h-264zM430 545l-132 -196l132 -197v393zM250 279l-132 -197h264zM202 349l-132 196v-393z" />
    <glyph glyph-name="NULL" horiz-adv-x="0" 
 />
    <glyph glyph-name="CR" horiz-adv-x="333" 
 />
    <glyph glyph-name="space" unicode=" " horiz-adv-x="338" 
 />
    <glyph glyph-name="exclam" unicode="!" horiz-adv-x="392" 
d="M151 223l-40 474h168l-40 -474h-88zM196 143c69 0 88 -11 88 -70c0 -64 -20 -78 -88 -78c-67 0 -85 14 -85 78c0 59 18 70 85 70z" />
    <glyph glyph-name="quotedbl" unicode="&#x22;" horiz-adv-x="439" 
d="M69 457l-14 240h116l-24 -240h-78zM284 457l-12 240h112l-24 -240h-76z" />
    <glyph glyph-name="numbersign" unicode="#" horiz-adv-x="874" 
d="M214 435h-164l8 100h164l13 162h120l-14 -162h203l13 162h120l-14 -162h174l-8 -100h-174l-13 -159h176l-9 -99h-175l-15 -177h-119l14 177h-202l-15 -177h-119l15 177h-163l9 99h161zM536 435h-203l-13 -159h202z" />
    <glyph glyph-name="dollar" unicode="$" horiz-adv-x="760" 
d="M336 683v142h85v-138c95 -1 175 -10 240 -25l-26 -111c-43 13 -115 21 -214 22v-171c177 -17 260 -76 260 -192c0 -131 -80 -190 -260 -203v-144h-85v142c-107 1 -190 9 -247 24l25 112c53 -13 127 -21 222 -23v180c-177 16 -258 64 -258 176c0 129 82 194 258 209z
M206 488c0 -26 9 -44 26 -55c17 -10 52 -17 104 -20v157c-87 -1 -130 -28 -130 -82zM551 203c0 55 -31 78 -130 83v-166c91 1 130 26 130 83z" />
    <glyph glyph-name="percent" unicode="%" horiz-adv-x="1188" 
d="M243 0l543 697h154l-545 -697h-152zM42 491c0 86 16 145 49 176s90 47 169 47c80 0 136 -16 169 -47s50 -90 50 -176c0 -87 -17 -148 -51 -181c-33 -33 -89 -50 -168 -50s-135 17 -168 50c-33 34 -50 94 -50 181zM260 626c-43 0 -72 -8 -86 -25c-13 -17 -20 -54 -20 -111
s7 -95 21 -114c14 -18 42 -27 85 -27c44 0 73 9 86 27s20 56 20 114s-7 95 -20 111c-13 17 -41 25 -86 25zM927 -14c-79 0 -135 17 -168 50s-50 94 -50 181c0 85 16 144 49 175s90 47 169 47s135 -16 168 -47s50 -90 50 -175c0 -87 -17 -148 -50 -181s-89 -50 -168 -50z
M927 351c-43 0 -72 -8 -86 -25c-13 -16 -20 -53 -20 -110c0 -58 7 -96 21 -115c14 -18 42 -27 85 -27c44 0 73 9 86 27s20 56 20 115c0 58 -7 95 -20 111s-41 24 -86 24z" />
    <glyph glyph-name="ampersand" unicode="&#x26;" horiz-adv-x="981" 
d="M734 238c41 45 62 97 62 158h142c0 -89 -39 -169 -117 -242c35 -37 81 -88 137 -154h-171c-24 31 -47 57 -68 80c-58 -34 -112 -58 -162 -73c-50 -14 -108 -21 -175 -21c-117 0 -200 14 -248 43s-72 80 -72 153c0 114 75 174 226 180c-67 5 -112 20 -135 47
c-22 27 -33 66 -33 119c0 64 21 111 64 141s120 45 230 45c109 0 185 -14 229 -41s66 -72 66 -134c0 -101 -64 -156 -192 -166c60 -7 132 -52 217 -135zM383 94c57 0 104 5 140 15s75 28 116 55c-92 100 -166 142 -262 142c-63 0 -106 -8 -129 -23s-35 -43 -35 -82
c0 -41 11 -70 34 -85s68 -22 136 -22zM406 417c111 0 161 28 161 97c0 68 -38 90 -153 90s-151 -21 -151 -89c0 -72 35 -98 143 -98z" />
    <glyph glyph-name="quotesingle" unicode="'" horiz-adv-x="226" 
d="M69 457l-14 240h116l-24 -240h-78z" />
    <glyph glyph-name="parenleft" unicode="(" horiz-adv-x="355" 
d="M343 811l72 -90c-116 -44 -190 -184 -190 -447c0 -279 84 -407 190 -448l-72 -90c-77 27 -140 86 -188 176c-47 90 -71 211 -71 362s24 272 71 361c48 90 111 149 188 176z" />
    <glyph glyph-name="parenright" unicode=")" horiz-adv-x="355" 
d="M269 274c0 -152 -24 -273 -71 -362c-47 -90 -110 -149 -187 -176l-71 90c116 44 190 184 190 448c0 135 -20 244 -56 313c-35 71 -79 113 -134 134l71 90c77 -27 140 -86 187 -176c47 -89 71 -210 71 -361z" />
    <glyph glyph-name="asterisk" unicode="*" horiz-adv-x="598" 
d="M198 479h-162v100h162l-84 115l96 43l87 -122l91 122l96 -44l-86 -114h163v-100h-163l85 -114l-96 -43l-88 121l-89 -121l-96 44z" />
    <glyph glyph-name="plus" unicode="+" 
d="M291 303h-232v118h232v184h125v-184h233v-118h-233v-184h-125v184z" />
    <glyph glyph-name="comma" unicode="," horiz-adv-x="332" 
d="M110 103h163l-147 -262h-116z" />
    <glyph glyph-name="hyphen" unicode="-" horiz-adv-x="356" 
d="M321 222h-286v118h286v-118z" />
    <glyph glyph-name="hyphen" unicode="&#xad;" horiz-adv-x="356" 
d="M321 222h-286v118h286v-118z" />
    <glyph glyph-name="period" unicode="." horiz-adv-x="332" 
d="M164 143c69 0 88 -11 88 -70c0 -64 -19 -78 -88 -78c-65 0 -84 14 -84 78c0 59 17 70 84 70z" />
    <glyph glyph-name="slash" unicode="/" horiz-adv-x="563" 
d="M15 0l452 697h149l-453 -697h-148z" />
    <glyph glyph-name="zero" unicode="0" horiz-adv-x="765" 
d="M702 358c0 -138 -26 -235 -77 -290s-132 -82 -243 -82c-216 0 -314 86 -319 372c0 140 25 231 81 284s127 72 238 72s183 -19 239 -72s81 -144 81 -284zM382 105c73 0 121 16 144 48c24 33 36 101 36 205c0 87 -7 138 -22 175c-27 56 -70 62 -158 64
c-50 0 -87 -5 -110 -16c-47 -21 -68 -80 -68 -223c5 -215 33 -248 178 -253z" />
    <glyph glyph-name="one" unicode="1" horiz-adv-x="765" 
d="M492 721v-721h-137v557l-208 -71l-39 114z" />
    <glyph glyph-name="two" unicode="2" horiz-adv-x="765" 
d="M266 114h408v-114h-615v110c79 47 142 85 189 114c95 57 178 114 211 142c17 14 32 29 43 46c23 33 23 49 23 86c0 38 -13 64 -38 77s-72 20 -140 20c-39 0 -81 -3 -128 -9c-46 -5 -80 -11 -103 -18l-26 116c89 20 179 30 272 30c110 0 190 -15 239 -45
c49 -29 74 -83 74 -160c0 -39 -5 -71 -15 -98c-9 -27 -30 -55 -62 -86s-73 -61 -123 -92c-49 -31 -119 -70 -209 -119z" />
    <glyph glyph-name="three" unicode="3" horiz-adv-x="765" 
d="M487 369c147 -11 195 -69 195 -181c0 -75 -27 -127 -80 -157s-140 -45 -263 -45c-94 0 -187 8 -278 24l25 117c60 -15 134 -22 221 -22c189 3 218 22 220 101c0 39 -12 66 -37 81s-70 23 -135 23h-112v112h109c119 0 162 20 162 89c-2 67 -30 82 -204 85
c-29 0 -66 -3 -113 -8c-46 -5 -81 -10 -104 -15l-26 117c95 16 186 24 275 24c120 0 204 -14 251 -41s71 -73 71 -137c0 -101 -41 -158 -177 -167z" />
    <glyph glyph-name="four" unicode="4" horiz-adv-x="760" 
d="M204 288h258v306c-41 -41 -86 -92 -136 -151c-49 -59 -90 -110 -122 -155zM404 697h191v-409h119v-109h-119v-179h-133v179h-441v45c57 78 123 163 198 256s137 166 185 217z" />
    <glyph glyph-name="five" unicode="5" horiz-adv-x="765" 
d="M642 583h-390v-158c54 5 94 7 119 7c117 0 198 -16 243 -49s68 -89 68 -168c0 -87 -25 -147 -74 -180s-136 -49 -259 -49c-92 0 -181 8 -268 23l25 117c56 -14 126 -21 210 -21c185 4 208 18 212 103c-4 94 -18 107 -204 112c-87 0 -154 -4 -203 -12v389h521v-114z" />
    <glyph glyph-name="six" unicode="6" horiz-adv-x="765" 
d="M454 714c85 0 162 -8 232 -24l-20 -120c-64 15 -135 23 -213 23c-88 0 -148 -12 -179 -35s-50 -70 -55 -141c57 10 117 15 181 15c118 0 200 -16 245 -49c46 -33 69 -89 69 -168c0 -87 -24 -147 -71 -180s-129 -49 -248 -49c-247 3 -323 80 -328 368c0 143 26 232 90 287
c65 55 153 73 297 73zM395 105c68 0 113 7 136 22s35 42 35 81c-2 88 -24 109 -184 113c-62 0 -117 -4 -165 -13c1 -58 8 -102 21 -131c27 -59 68 -72 157 -72z" />
    <glyph glyph-name="seven" unicode="7" horiz-adv-x="765" 
d="M84 697h652v-44c-59 -74 -127 -177 -205 -310s-137 -247 -178 -343h-165c50 107 108 216 173 327c66 112 125 197 176 256h-453v114z" />
    <glyph glyph-name="eight" unicode="8" horiz-adv-x="765" 
d="M245 116c23 -15 69 -22 138 -22s115 7 137 22c23 15 34 44 34 85s-12 70 -37 87c-24 17 -69 26 -134 26s-110 -9 -135 -26s-37 -46 -37 -87s11 -70 34 -85zM540 515c0 35 -11 58 -32 70c-21 13 -62 19 -125 19s-105 -6 -126 -19c-21 -12 -32 -35 -32 -70
c0 -71 42 -98 158 -98s157 26 157 98zM63 188c0 112 50 174 195 181c-68 5 -114 21 -139 48c-25 28 -37 68 -37 119c0 63 21 109 64 136c43 28 122 42 236 42c237 -3 300 -52 301 -178c0 -51 -12 -91 -37 -119c-25 -27 -71 -43 -138 -48c144 -7 194 -69 194 -181
c0 -74 -24 -126 -72 -157c-48 -30 -130 -45 -247 -45s-199 15 -248 45c-48 31 -72 83 -72 157z" />
    <glyph glyph-name="nine" unicode="9" horiz-adv-x="765" 
d="M378 268c-119 0 -201 15 -246 46s-68 85 -68 164c0 88 24 149 71 184s130 52 248 52c262 -5 318 -47 324 -241c0 -97 -32 -188 -92 -267s-122 -137 -213 -206h-192c141 101 238 194 291 277c-43 -6 -84 -9 -123 -9zM557 459c0 59 -11 97 -33 113c-21 16 -68 24 -141 24
c-155 -4 -170 -24 -172 -112c0 -43 11 -72 34 -85s74 -19 151 -19c49 0 100 3 151 10c7 18 10 41 10 69z" />
    <glyph glyph-name="colon" unicode=":" horiz-adv-x="332" 
d="M164 143c69 0 88 -11 88 -70c0 -64 -19 -78 -88 -78c-65 0 -84 14 -84 78c0 59 17 70 84 70zM164 515c69 0 88 -11 88 -71c0 -64 -19 -77 -88 -77c-65 0 -84 13 -84 77c0 60 17 71 84 71z" />
    <glyph glyph-name="semicolon" unicode=";" horiz-adv-x="332" 
d="M110 103h163l-147 -262h-116zM164 515c69 0 88 -11 88 -71c0 -64 -19 -77 -88 -77c-65 0 -84 13 -84 77c0 60 17 71 84 71z" />
    <glyph glyph-name="less" unicode="&#x3c;" 
d="M551 669l79 -83l-339 -224l339 -226l-77 -84l-447 274v69z" />
    <glyph glyph-name="equal" unicode="=" 
d="M649 168h-590v118h590v-118zM649 435h-590v118h590v-118z" />
    <glyph glyph-name="greater" unicode="&#x3e;" 
d="M181 53l-79 82l339 224l-339 227l77 84l447 -275v-69z" />
    <glyph glyph-name="question" unicode="?" horiz-adv-x="675" 
d="M274 143c69 0 87 -11 87 -70c0 -64 -19 -77 -87 -77c-67 0 -85 13 -85 77c0 59 18 70 85 70zM339 210h-131v170h62c187 4 207 18 211 108c0 44 -13 73 -39 86c-26 14 -83 21 -171 21c-82 0 -152 -7 -210 -20l-21 119c75 13 164 20 265 20c124 0 210 -15 258 -46
c48 -30 72 -88 72 -175c0 -155 -85 -216 -296 -216v-67z" />
    <glyph glyph-name="at" unicode="@" horiz-adv-x="1162" 
d="M530 528c-47 0 -87 -1 -119 -4c-64 -4 -122 -19 -154 -43c-51 -36 -70 -101 -70 -213s20 -180 77 -220c62 -37 156 -52 317 -51c110 0 193 9 248 26c56 18 95 48 117 90c23 42 34 105 34 188s-10 145 -29 187h119c17 -44 25 -108 25 -191c0 -156 -36 -257 -123 -318
c-87 -63 -206 -86 -390 -86c-188 0 -305 20 -392 77c-87 56 -123 149 -123 296c0 143 40 239 121 292c83 53 185 73 337 73c120 0 184 -10 237 -50c55 -40 73 -109 73 -228c0 -113 -13 -174 -58 -213c-44 -37 -99 -45 -210 -45c-94 0 -159 12 -194 35s-52 68 -52 134
c0 67 16 112 48 133c33 22 91 33 175 33c63 0 120 -4 172 -12c-1 42 -14 71 -40 86c-26 16 -75 24 -146 24zM583 342c-57 0 -93 -4 -110 -13s-25 -29 -25 -61s9 -53 26 -63s54 -15 110 -15c51 0 85 7 104 20s28 39 28 78v45c-36 6 -80 9 -133 9z" />
    <glyph glyph-name="A" unicode="A" horiz-adv-x="836" 
d="M863 0h-159c-19 35 -47 93 -84 174h-413c-20 -47 -43 -105 -68 -174h-153c91 230 197 462 320 697h239c44 -111 96 -231 155 -361s114 -242 163 -336zM448 585h-59c-45 -88 -90 -187 -137 -298h319c-37 82 -78 181 -123 298z" />
    <glyph glyph-name="B" unicode="B" horiz-adv-x="874" 
d="M251 111h293c66 0 99 33 99 98c0 69 -35 103 -104 103h-288v-201zM251 419h285c60 0 90 28 90 84c0 57 -25 82 -90 82h-285v-166zM605 369c139 -5 191 -62 191 -178c0 -127 -72 -191 -215 -191h-470v697h463c77 0 130 -14 159 -42c29 -27 44 -69 44 -125
c0 -51 -12 -90 -35 -116c-23 -25 -68 -40 -137 -45z" />
    <glyph glyph-name="C" unicode="C" horiz-adv-x="722" 
d="M467 714c85 0 163 -8 235 -24l-21 -119c-49 14 -110 21 -185 21c-38 0 -69 -1 -93 -3c-48 -3 -99 -15 -124 -36c-42 -34 -61 -91 -61 -199s15 -168 62 -203c48 -35 104 -42 216 -42c73 0 134 7 185 20l21 -121c-70 -15 -148 -22 -235 -22c-140 0 -233 22 -302 78
c-68 56 -99 150 -99 291s31 233 100 286c69 55 160 73 301 73z" />
    <glyph glyph-name="D" unicode="D" horiz-adv-x="905" 
d="M111 0v697h323c141 0 234 -19 303 -71c71 -52 102 -140 102 -275c0 -131 -32 -222 -96 -274c-64 -51 -167 -77 -309 -77h-323zM687 350c0 84 -11 135 -34 170c-11 18 -27 31 -50 40c-45 17 -94 23 -185 23h-167v-469h167c111 0 169 9 213 44c44 36 56 91 56 192z" />
    <glyph glyph-name="E" unicode="E" horiz-adv-x="758" 
d="M111 0v697h615v-114h-475v-161h339v-113h-339v-195h475v-114h-615z" />
    <glyph glyph-name="F" unicode="F" horiz-adv-x="711" 
d="M111 0v697h602v-114h-462v-197h339v-113h-339v-273h-140z" />
    <glyph glyph-name="G" unicode="G" horiz-adv-x="859" 
d="M625 116v180h-194v111h338v-394c-75 -18 -176 -27 -302 -27c-140 0 -233 22 -302 78c-68 56 -99 150 -99 291s34 234 109 287s169 72 316 72c103 0 189 -7 257 -21l-21 -121c-19 5 -54 9 -103 14s-88 8 -119 8c-39 0 -72 -1 -97 -3c-51 -4 -101 -16 -128 -37
c-43 -34 -62 -92 -62 -200s15 -168 62 -204c48 -36 105 -44 216 -44c46 0 89 3 129 10z" />
    <glyph glyph-name="H" unicode="H" horiz-adv-x="905" 
d="M656 309h-405v-309h-140v697h140v-266h405v266h139v-697h-139v309z" />
    <glyph glyph-name="I" unicode="I" horiz-adv-x="361" 
d="M111 0v697h140v-697h-140z" />
    <glyph glyph-name="J" unicode="J" horiz-adv-x="556" 
d="M306 697h142l1 -505c0 -137 -85 -206 -255 -206c-69 0 -132 8 -187 25l29 118c36 -13 83 -19 141 -19c86 0 129 33 129 99v488z" />
    <glyph glyph-name="K" unicode="K" horiz-adv-x="811" 
d="M111 697h140v-697h-140v697zM829 0h-182c-83 106 -160 191 -232 256c-71 65 -124 102 -157 111c37 20 89 60 157 119s137 130 207 211h180c-76 -83 -146 -154 -209 -212c-63 -57 -108 -93 -135 -108c29 -14 78 -54 147 -121c69 -66 143 -151 224 -256z" />
    <glyph glyph-name="L" unicode="L" horiz-adv-x="669" 
d="M111 0v697h140v-582h418v-115h-558z" />
    <glyph glyph-name="M" unicode="M" horiz-adv-x="1133" 
d="M572 244c76 143 163 294 261 453h190v-697h-136v550c-90 -143 -180 -306 -270 -489h-110c-107 219 -195 382 -262 489v-550h-134v697h201c107 -174 194 -325 260 -453z" />
    <glyph glyph-name="N" unicode="N" horiz-adv-x="953" 
d="M248 549v-549h-137v697h194c133 -161 266 -336 397 -525v525h140v-697h-183c-124 186 -261 369 -411 549z" />
    <glyph glyph-name="O" unicode="O" horiz-adv-x="948" 
d="M474 714c141 0 233 -20 304 -73c72 -53 103 -146 103 -286c0 -143 -31 -237 -102 -293c-71 -55 -164 -76 -305 -76s-234 21 -305 76c-71 56 -103 150 -103 293c0 140 31 233 102 286c72 53 163 73 306 73zM474 105c87 0 137 7 178 26c63 34 75 95 78 222
c0 108 -9 164 -52 199c-21 18 -46 30 -76 35s-73 8 -128 8c-88 0 -135 -5 -178 -24c-63 -31 -75 -90 -78 -218c0 -210 50 -248 256 -248z" />
    <glyph glyph-name="P" unicode="P" horiz-adv-x="824" 
d="M251 340h260c79 0 123 40 123 119c0 84 -40 126 -120 126h-263v-245zM251 230v-230h-140v697h449c153 0 231 -88 231 -239c0 -65 -19 -120 -58 -163c-38 -43 -95 -65 -171 -65h-311z" />
    <glyph glyph-name="Q" unicode="Q" horiz-adv-x="964" 
d="M909 -192h-176c-92 112 -185 173 -253 178c-141 0 -233 22 -304 77c-69 56 -101 151 -101 292c0 140 31 233 102 286c72 53 164 73 305 73s233 -20 304 -73c72 -53 103 -146 103 -286c0 -203 -79 -317 -237 -340c56 -12 142 -81 257 -207zM227 353c0 -87 10 -138 30 -178
c37 -58 99 -68 225 -70c138 0 205 17 236 90c16 39 21 86 21 158c0 106 -14 165 -51 200c-23 21 -67 35 -115 39c-24 2 -54 3 -91 3s-67 -1 -91 -3c-47 -4 -91 -18 -114 -39c-37 -35 -50 -95 -50 -200z" />
    <glyph glyph-name="R" unicode="R" horiz-adv-x="867" 
d="M111 0v697h447c85 0 145 -18 180 -54s53 -86 53 -149c0 -124 -75 -188 -224 -191c27 -8 61 -34 103 -79c43 -45 105 -119 187 -224h-186c-73 98 -131 167 -173 206c-41 40 -78 60 -110 60h-137v-266h-140zM518 585h-267v-210h236c96 0 144 19 144 102
c0 76 -36 108 -113 108z" />
    <glyph glyph-name="S" unicode="S" horiz-adv-x="760" 
d="M679 687l-25 -120c-72 18 -149 27 -230 27s-137 -6 -168 -19c-30 -13 -45 -37 -45 -72c0 -29 13 -50 40 -62s82 -21 167 -27c199 -15 285 -77 285 -209c0 -81 -29 -137 -86 -170s-151 -49 -282 -49c-105 0 -192 9 -261 27l27 120c68 -18 145 -27 231 -27
c82 0 139 6 170 19c32 13 48 37 48 73c0 58 -29 80 -214 97c-188 13 -276 68 -276 192c0 161 116 227 365 227c103 0 187 -9 254 -27z" />
    <glyph glyph-name="T" unicode="T" horiz-adv-x="743" 
d="M741 583h-298v-583h-142v583h-299v114h739v-114z" />
    <glyph glyph-name="U" unicode="U" horiz-adv-x="913" 
d="M674 697h140v-486c0 -86 -29 -145 -88 -177s-149 -48 -270 -48s-211 16 -270 48s-88 91 -88 177v486h141v-406c0 -41 2 -72 5 -93c4 -20 13 -38 28 -54c31 -31 81 -37 185 -37c103 0 153 6 184 37c15 16 25 34 28 54s5 51 5 92v407z" />
    <glyph glyph-name="V" unicode="V" horiz-adv-x="794" 
d="M399 119c98 191 184 384 257 578h151c-92 -236 -200 -468 -323 -697h-190c-45 115 -98 238 -157 367s-113 239 -164 330h161c98 -185 186 -377 265 -578z" />
    <glyph glyph-name="W" unicode="W" horiz-adv-x="1208" 
d="M610 494c-43 -149 -100 -313 -172 -494h-188c-98 306 -183 538 -255 697h157c33 -76 68 -168 107 -275s71 -202 96 -284c33 83 68 178 105 286s66 199 85 273h131c83 -225 146 -412 187 -559c80 193 146 380 197 559h146c-68 -225 -153 -457 -255 -697h-189
c-41 170 -92 335 -152 494z" />
    <glyph glyph-name="X" unicode="X" horiz-adv-x="826" 
d="M327 352c-125 135 -236 250 -333 345h196c43 -43 121 -125 234 -248c73 79 143 161 211 248h186l-306 -342l319 -355h-188c-71 86 -146 171 -225 255c-131 -138 -212 -223 -245 -255h-186c101 99 213 216 337 352z" />
    <glyph glyph-name="Y" unicode="Y" horiz-adv-x="780" 
d="M327 0v300c-101 121 -228 253 -381 397h200c89 -87 174 -181 256 -280c105 113 187 206 245 280h182c-129 -151 -249 -283 -361 -396v-301h-141z" />
    <glyph glyph-name="Z" unicode="Z" horiz-adv-x="759" 
d="M730 0h-710v36c178 190 339 372 482 547h-454v114h690v-34c-71 -88 -154 -186 -248 -294s-172 -193 -233 -255h473v-114z" />
    <glyph glyph-name="bracketleft" unicode="[" horiz-adv-x="403" 
d="M112 -260v1065h316v-108h-179v-850h179v-107h-316z" />
    <glyph glyph-name="backslash" unicode="\" horiz-adv-x="563" 
d="M411 0l-452 697h149l451 -697h-148z" />
    <glyph glyph-name="bracketright" unicode="]" horiz-adv-x="403" 
d="M-26 697v108h316v-1065h-316v107h179v850h-179z" />
    <glyph glyph-name="asciicircum" unicode="^" horiz-adv-x="644" 
d="M631 296h-146l-166 283l-163 -283h-142l243 401h128z" />
    <glyph glyph-name="underscore" unicode="_" horiz-adv-x="567" 
d="M532 -166h-497v118h497v-118z" />
    <glyph glyph-name="grave" unicode="`" horiz-adv-x="581" 
d="M262 697l154 -129h-122l-183 129h151z" />
    <glyph glyph-name="a" unicode="a" horiz-adv-x="681" 
d="M599 326v-303c-81 -25 -174 -37 -279 -37c-98 0 -166 12 -203 35c-37 24 -56 69 -56 135c0 69 22 115 67 138c47 23 94 29 173 29c53 0 110 -5 173 -14c0 46 -11 76 -33 90c-21 15 -68 22 -141 22c-69 0 -132 -8 -188 -23l-21 102c75 16 156 24 242 24
c95 0 163 -15 204 -44s62 -80 62 -154zM474 97v128c-44 7 -91 10 -140 10c-55 0 -91 -5 -109 -14c-17 -9 -26 -29 -26 -60c0 -33 8 -55 25 -65c17 -9 53 -14 108 -14c53 0 100 5 142 15z" />
    <glyph glyph-name="b" unicode="b" horiz-adv-x="716" 
d="M398 524c89 0 153 -20 193 -59c41 -39 61 -108 61 -207c0 -102 -23 -173 -69 -213c-46 -39 -122 -59 -227 -59c-107 0 -196 11 -269 34v702h130v-242c54 29 114 44 181 44zM356 89c67 0 110 10 131 30s31 66 31 137c0 63 -10 105 -31 126s-63 32 -128 32
c-80 0 -142 -21 -142 -50v-261c40 -9 86 -14 139 -14z" />
    <glyph glyph-name="c" unicode="c" horiz-adv-x="567" 
d="M528 114l20 -104c-49 -16 -109 -24 -178 -24c-101 0 -177 20 -229 61c-51 41 -77 111 -77 210s26 168 77 207c52 40 128 60 229 60c67 0 127 -7 178 -21l-21 -106c-41 13 -89 19 -146 19c-71 0 -119 -10 -145 -30c-25 -20 -38 -64 -38 -131c0 -65 13 -109 39 -130
c27 -21 75 -31 144 -31c55 0 104 7 147 20z" />
    <glyph glyph-name="d" unicode="d" horiz-adv-x="716" 
d="M331 524c61 0 117 -12 168 -37v235h131v-702c-73 -23 -163 -34 -269 -34c-105 0 -181 19 -228 58c-46 39 -69 110 -69 211c0 99 22 168 66 208c44 41 111 61 201 61zM361 90c50 0 96 5 138 15v263c0 29 -60 49 -140 49c-65 0 -108 -11 -129 -33s-32 -65 -32 -129
c0 -69 10 -113 31 -134s65 -31 132 -31z" />
    <glyph glyph-name="e" unicode="e" horiz-adv-x="671" 
d="M350 524c100 0 160 -13 205 -54c47 -40 64 -110 64 -222v-26h-418c1 -53 14 -88 40 -105c27 -17 74 -26 141 -26c61 0 120 8 177 24l24 -104c-71 -17 -145 -25 -220 -25c-97 0 -171 20 -222 61s-77 111 -77 210c0 195 97 267 286 267zM351 426c-53 0 -90 -8 -111 -23
s-33 -44 -37 -86h283c-2 44 -12 73 -31 87c-19 15 -53 22 -104 22z" />
    <glyph glyph-name="f" unicode="f" horiz-adv-x="448" 
d="M243 536v-27h210v-108h-210v-401h-130v401h-108v108h108v34c0 73 24 123 68 147c44 25 89 34 152 34h27c37 0 82 -5 134 -16l-21 -103c-38 9 -76 13 -113 13c-83 0 -117 -17 -117 -82z" />
    <glyph glyph-name="g" unicode="g" horiz-adv-x="716" 
d="M630 489v-450c0 -96 -31 -162 -94 -195c-61 -35 -133 -47 -238 -47c-81 0 -153 9 -216 27l21 102c53 -16 118 -24 193 -24c137 0 203 30 203 119v10c-45 -29 -104 -43 -177 -43c-89 0 -155 19 -196 58s-62 108 -62 207c0 101 23 172 69 211c47 40 123 60 228 60
c107 0 197 -12 269 -35zM361 419c-68 0 -112 -10 -133 -29c-20 -19 -30 -65 -30 -136c0 -64 10 -107 31 -128s64 -31 129 -31c80 0 141 19 141 48v259c-47 11 -93 17 -138 17z" />
    <glyph glyph-name="h" unicode="h" 
d="M408 524c76 0 123 -11 163 -44s57 -94 57 -187v-293h-130v283c0 53 -9 88 -28 104c-18 17 -53 25 -106 25c-85 0 -147 -23 -147 -55v-357h-130v722h130v-240c52 28 116 42 191 42z" />
    <glyph glyph-name="i" unicode="i" horiz-adv-x="303" 
d="M153 721c60 0 77 -10 77 -61c0 -57 -17 -69 -77 -69c-61 0 -79 12 -79 69c0 51 18 61 79 61zM87 509h130v-509h-130v509z" />
    <glyph glyph-name="j" unicode="j" horiz-adv-x="303" 
d="M-38 -202v103c3 0 12 -1 16 -1c75 0 109 22 109 87v522h130v-519c0 -75 -19 -125 -56 -152s-103 -40 -199 -40zM153 721c60 0 77 -10 77 -61c0 -57 -17 -69 -77 -69c-61 0 -79 12 -79 69c0 51 18 61 79 61z" />
    <glyph glyph-name="k" unicode="k" horiz-adv-x="670" 
d="M87 722h130v-722h-130v722zM681 0h-174c-69 79 -130 143 -181 190c-51 48 -86 74 -104 79c22 12 57 39 105 82c49 43 102 95 161 158h173c-54 -57 -105 -107 -154 -148c-48 -41 -84 -68 -109 -83c21 -10 58 -40 111 -90c53 -49 110 -112 172 -188z" />
    <glyph glyph-name="l" unicode="l" horiz-adv-x="311" 
d="M87 722h130v-579c0 -45 18 -85 54 -121l-125 -42c-39 34 -59 87 -59 158v584z" />
    <glyph glyph-name="m" unicode="m" horiz-adv-x="1078" 
d="M217 396v-396h-130v483c91 27 184 41 279 41c69 0 123 -12 163 -37c81 25 157 37 227 37c87 0 149 -18 185 -53c37 -35 55 -97 55 -187v-284h-130v272c0 57 -9 94 -26 111c-17 18 -55 27 -112 27c-47 0 -93 -5 -138 -15c11 -34 17 -72 17 -114v-281h-131v272
c0 57 -9 94 -26 111c-17 18 -55 27 -112 27c-40 0 -80 -5 -121 -14z" />
    <glyph glyph-name="n" unicode="n" 
d="M217 397v-397h-130v483c91 27 188 41 292 41c89 0 152 -18 191 -53s58 -98 58 -187v-284h-130v271c0 58 -9 96 -28 113s-60 26 -124 26c-42 0 -85 -4 -129 -13z" />
    <glyph glyph-name="o" unicode="o" horiz-adv-x="717" 
d="M358 -14c-103 0 -177 20 -224 59c-47 40 -70 111 -70 212c0 100 23 169 70 208s121 59 224 59s177 -20 224 -59s71 -108 71 -208c0 -101 -23 -172 -70 -212c-47 -39 -122 -59 -225 -59zM358 424c-67 0 -99 -5 -126 -30c-27 -24 -34 -64 -34 -139c0 -69 11 -115 32 -137
c22 -21 65 -32 128 -32s106 11 127 32c21 22 32 68 32 137c0 71 -11 117 -32 138s-63 31 -127 31z" />
    <glyph glyph-name="p" unicode="p" horiz-adv-x="716" 
d="M398 -14c-67 0 -127 15 -181 44v-222h-130v681c71 23 161 35 269 35c106 0 182 -19 227 -57c46 -38 69 -107 69 -208s-20 -171 -61 -212s-105 -61 -193 -61zM356 418c-49 0 -96 -5 -139 -15v-260c0 -31 62 -51 142 -51c65 0 107 10 128 31s31 64 31 127
c0 71 -10 117 -31 137c-21 21 -64 31 -131 31z" />
    <glyph glyph-name="q" unicode="q" horiz-adv-x="716" 
d="M319 -14c-89 0 -153 20 -194 61s-61 111 -61 212s23 170 69 208s122 57 228 57c107 0 197 -12 269 -35v-681h-131v222c-53 -29 -113 -44 -180 -44zM361 418c-67 0 -111 -10 -132 -31c-21 -20 -31 -66 -31 -137c0 -63 10 -106 31 -127s64 -31 129 -31c79 0 141 20 141 51
v260c-42 10 -88 15 -138 15z" />
    <glyph glyph-name="r" unicode="r" horiz-adv-x="451" 
d="M400 524c16 0 33 -1 52 -2v-119c-19 3 -42 4 -69 4c-80 0 -149 -16 -161 -44c-3 -11 -5 -26 -5 -44v-319h-130v509h130v-53c37 45 98 68 183 68z" />
    <glyph glyph-name="s" unicode="s" horiz-adv-x="593" 
d="M314 524c73 0 142 -7 207 -22l-21 -102c-54 15 -119 23 -194 23c-95 0 -122 -8 -122 -59c0 -18 9 -31 27 -39c19 -7 58 -13 117 -16c149 -9 214 -52 214 -153c0 -127 -82 -170 -259 -170c-86 0 -160 7 -221 22l21 101c44 -15 109 -22 195 -22c55 0 91 4 108 11
c18 8 27 25 27 51c0 19 -10 33 -30 41c-20 9 -61 15 -122 20c-136 9 -206 48 -206 145c0 127 83 169 259 169z" />
    <glyph glyph-name="t" unicode="t" horiz-adv-x="497" 
d="M464 401h-215v-218c0 -35 7 -58 21 -71c15 -12 45 -18 91 -18c40 0 75 4 104 12l17 -102c-53 -12 -107 -18 -161 -18c-72 0 -124 13 -155 38c-31 26 -47 75 -47 147v230h-108v108h108v89l130 42v-131h215v-108z" />
    <glyph glyph-name="u" unicode="u" 
d="M494 111v398h130v-482c-88 -27 -186 -41 -293 -41c-89 0 -152 17 -191 52c-38 35 -57 98 -57 187v284h130v-271c0 -57 9 -95 28 -114c19 -18 60 -27 123 -27c40 0 83 5 130 14z" />
    <glyph glyph-name="v" unicode="v" horiz-adv-x="619" 
d="M309 96c82 174 140 312 173 413h134c-61 -163 -138 -333 -231 -509h-170c-73 202 -145 372 -216 509h137c64 -126 122 -264 173 -413z" />
    <glyph glyph-name="w" unicode="w" horiz-adv-x="1024" 
d="M511 359c-31 -107 -77 -226 -136 -359h-169c-66 187 -135 357 -208 509h141c62 -131 115 -266 160 -407c26 60 55 132 86 215c32 84 54 148 67 192h127c46 -107 94 -242 144 -407c79 173 133 309 163 407h134c-67 -186 -140 -356 -221 -509h-169
c-37 136 -76 256 -119 359z" />
    <glyph glyph-name="x" unicode="x" horiz-adv-x="631" 
d="M630 0h-156c-42 53 -91 110 -147 171c-49 -53 -105 -110 -168 -171h-157c63 59 147 143 252 254c-74 82 -157 167 -250 255h169c54 -54 106 -110 157 -169c47 51 96 108 145 169h153c-67 -81 -140 -165 -221 -251c67 -73 141 -159 223 -258z" />
    <glyph glyph-name="y" unicode="y" horiz-adv-x="619" 
d="M226 -25c-74 209 -150 387 -227 534h137c65 -124 122 -262 173 -414c77 159 135 297 173 414h134c-91 -247 -205 -480 -344 -701h-152c34 48 69 104 106 167z" />
    <glyph glyph-name="z" unicode="z" horiz-adv-x="601" 
d="M565 0h-543v29c59 59 122 126 188 199c67 74 116 132 148 173h-315v108h531v-28c-45 -57 -100 -122 -167 -197c-66 -75 -120 -133 -163 -176h321v-108z" />
    <glyph glyph-name="braceleft" unicode="{" horiz-adv-x="400" 
d="M177 -3c0 144 -58 221 -139 225v103c81 0 139 75 139 226c0 143 63 230 188 263l74 -92c-31 -9 -56 -20 -74 -33c-36 -25 -61 -83 -61 -178c0 -67 -11 -121 -33 -163c-22 -41 -45 -66 -69 -74c24 -8 47 -33 69 -75s33 -97 33 -164c0 -69 10 -118 31 -147s56 -51 104 -64
l-74 -91c-125 34 -188 122 -188 264z" />
    <glyph glyph-name="bar" unicode="|" horiz-adv-x="441" 
d="M150 -256v1011h140v-1011h-140z" />
    <glyph glyph-name="braceright" unicode="}" horiz-adv-x="400" 
d="M222 551c0 -147 59 -223 140 -226v-102c-81 -3 -140 -78 -140 -226c0 -142 -63 -230 -188 -264l-73 92c47 13 81 34 102 64c22 29 33 79 33 148c0 67 11 122 32 163c22 41 45 66 69 74c-24 8 -47 33 -69 75c-21 42 -32 97 -32 164c0 69 -11 118 -32 147
c-21 30 -56 51 -103 64l73 90c125 -33 188 -120 188 -263z" />
    <glyph glyph-name="asciitilde" unicode="~" 
d="M590 436l77 -52c-33 -69 -100 -117 -183 -117c-33 0 -80 14 -141 43s-108 43 -142 43c-41 0 -70 -16 -87 -49l-70 56c49 66 104 99 163 99c37 0 87 -14 149 -42c63 -27 109 -41 139 -41c48 0 74 15 95 60z" />
    <glyph glyph-name="nbspace" unicode="&#xa0;" horiz-adv-x="338" 
 />
    <glyph glyph-name="exclamdown" unicode="&#xa1;" horiz-adv-x="392" 
d="M241 296l40 -474h-168l40 474h88zM196 376c-69 0 -87 11 -87 70c0 64 19 78 87 78c67 0 86 -14 86 -78c0 -59 -19 -70 -86 -70z" />
    <glyph glyph-name="cent" unicode="&#xa2;" horiz-adv-x="552" 
d="M308 645v106h98v-104c55 -2 99 -8 134 -19l-19 -103c-31 11 -69 16 -115 16v-321c41 0 80 6 115 17l19 -102c-42 -14 -87 -21 -134 -21v-121h-98v121c-165 15 -244 90 -244 269c0 89 19 153 58 192c39 40 101 63 186 70zM185 380c0 -115 34 -156 123 -156v314
c-91 0 -123 -42 -123 -158z" />
    <glyph glyph-name="sterling" unicode="&#xa3;" horiz-adv-x="745" 
d="M120 293h-76v105h76v79c0 160 105 237 341 237c99 0 184 -10 255 -29l-22 -114c-60 15 -138 23 -234 23c-75 0 -128 -8 -157 -24s-44 -44 -44 -84v-88h251v-105h-251v-179h431v-114h-570v293z" />
    <glyph glyph-name="currency" unicode="&#xa4;" horiz-adv-x="826" 
d="M420 82c-52 0 -99 6 -141 19l-98 -97l-116 70l102 104c-27 39 -41 98 -41 177c0 73 12 129 36 168l-99 103l129 68l88 -92c44 13 91 20 140 20s95 -7 139 -20l82 91l128 -66l-94 -101c27 -39 40 -96 40 -171c0 -77 -13 -136 -40 -176l99 -105l-122 -70l-92 97
c-43 -13 -89 -19 -140 -19zM255 352c0 -67 11 -111 34 -132s67 -31 131 -31s107 10 130 31s35 65 35 132c0 73 -9 115 -38 136c-28 23 -60 27 -127 27s-99 -4 -128 -27c-28 -21 -37 -63 -37 -136z" />
    <glyph glyph-name="yen" unicode="&#xa5;" horiz-adv-x="780" 
d="M327 278h-225v92h158c-80 94 -185 203 -314 327h200c65 -65 150 -158 254 -277c87 83 170 176 247 277h182c-99 -116 -196 -225 -293 -327h149v-92h-217v-78h217v-92h-217v-108h-141v108h-225v92h225v78z" />
    <glyph glyph-name="brokenbar" unicode="&#xa6;" horiz-adv-x="441" 
d="M150 388v367h140v-367h-140zM150 -256v367h140v-367h-140z" />
    <glyph glyph-name="section" unicode="&#xa7;" horiz-adv-x="761" 
d="M669 685l-23 -109c-65 16 -139 24 -222 24c-79 0 -133 -7 -162 -20s-44 -36 -44 -68c0 -49 28 -69 199 -81c195 -15 292 -72 292 -191c0 -45 -19 -86 -56 -121c29 -27 43 -62 43 -106c0 -144 -120 -216 -360 -216c-95 0 -176 10 -244 29l23 108c68 -15 142 -23 222 -23
c79 0 133 7 162 20s44 36 44 68c0 25 -13 43 -38 54s-78 21 -161 28c-197 16 -291 70 -291 189c0 48 17 89 50 124c-25 24 -38 58 -38 103c0 145 120 217 360 217c95 0 176 -10 244 -29zM217 338c-15 -15 -23 -34 -23 -59c0 -24 13 -42 40 -55s76 -22 147 -28
c41 -3 95 -12 161 -25c17 15 25 35 25 61c0 47 -49 72 -196 84c-65 5 -117 12 -154 22z" />
    <glyph glyph-name="dieresis" unicode="&#xa8;" horiz-adv-x="557" 
d="M147 681c48 0 62 -8 62 -55c0 -51 -14 -62 -62 -62c-49 0 -63 11 -63 62c0 47 14 55 63 55zM398 681c48 0 61 -8 61 -55c0 -51 -13 -62 -61 -62c-49 0 -63 10 -63 62c0 47 12 55 63 55z" />
    <glyph glyph-name="copyright" unicode="&#xa9;" horiz-adv-x="1033" 
d="M958 355c0 -143 -35 -237 -112 -293c-77 -55 -178 -76 -330 -76s-253 21 -330 76c-76 56 -111 150 -111 293c0 140 35 233 112 286s177 73 329 73s253 -20 330 -73s112 -146 112 -286zM515 78c104 0 166 7 221 30c81 33 110 108 110 246c0 116 -18 182 -75 221
c-28 19 -61 32 -100 38c-38 6 -90 9 -156 9c-65 0 -117 -3 -155 -9s-71 -19 -99 -38c-56 -39 -74 -105 -74 -221c0 -117 18 -185 73 -225c56 -40 126 -51 255 -51zM665 243l25 -86c-47 -15 -98 -22 -154 -22c-89 0 -154 15 -193 46s-59 88 -59 172s19 141 58 170
c39 30 104 45 194 45c55 0 106 -6 153 -19l-24 -87c-30 9 -70 13 -121 13c-55 0 -93 -8 -113 -23s-30 -49 -30 -100c0 -49 10 -82 31 -99s58 -25 112 -25c47 0 87 5 121 15z" />
    <glyph glyph-name="ordfeminine" unicode="&#xaa;" horiz-adv-x="523" 
d="M448 577v-218c-57 -17 -122 -25 -196 -25c-67 0 -114 8 -140 25c-25 17 -38 48 -38 95c0 95 56 118 165 118c34 0 75 -4 122 -12c0 32 -8 53 -23 63c-15 11 -49 16 -100 16c-53 0 -96 -5 -130 -15l-13 74c55 11 110 16 167 16c131 0 186 -34 186 -137zM361 413v87
c-42 6 -77 9 -105 9c-38 0 -62 -3 -73 -9s-16 -20 -16 -42c0 -23 5 -38 16 -46c11 -7 35 -11 73 -11c33 0 68 4 105 12z" />
    <glyph glyph-name="guillemotleft" unicode="&#xab;" horiz-adv-x="819" 
d="M362 585l82 -66l-225 -205l224 -209l-80 -66l-336 273zM709 585l81 -66l-224 -205l224 -209l-80 -66l-336 273z" />
    <glyph glyph-name="logicalnot" unicode="&#xac;" horiz-adv-x="629" 
d="M589 428v-428h-139v311h-415v117h554z" />
    <glyph glyph-name="registered" unicode="&#xae;" horiz-adv-x="695" 
d="M499 517c0 -52 -28 -79 -84 -81c43 -14 73 -48 92 -102h-90c-25 63 -51 84 -83 84h-53v-84h-81v266h203c64 0 96 -28 96 -83zM416 508c0 24 -8 30 -37 30h-98v-62h110c17 0 25 11 25 32zM637 466c0 -93 -23 -157 -69 -194c-45 -37 -119 -55 -221 -55s-176 18 -221 55
s-68 101 -68 194s23 158 68 193c45 36 119 54 221 54c103 0 177 -18 222 -53s68 -100 68 -194zM560 466c0 76 -12 118 -48 143s-80 31 -165 31c-81 0 -137 -11 -166 -33s-44 -69 -44 -141c0 -69 15 -115 45 -139c31 -23 86 -35 165 -35c81 0 137 12 167 35
c31 24 46 70 46 139z" />
    <glyph glyph-name="overscore" unicode="&#xaf;" horiz-adv-x="631" 
d="M480 576h-325v90h325v-90z" />
    <glyph glyph-name="overscore" unicode="&#x2c9;" horiz-adv-x="631" 
d="M480 576h-325v90h325v-90z" />
    <glyph glyph-name="degree" unicode="&#xb0;" horiz-adv-x="521" 
d="M260 714c80 0 136 -16 169 -47s50 -90 50 -176c0 -87 -17 -148 -51 -181c-33 -33 -89 -50 -168 -50s-135 17 -168 50c-33 34 -50 94 -50 181c0 86 16 145 49 176s90 47 169 47zM260 349c44 0 73 9 86 27s20 56 20 114s-7 95 -20 111c-13 17 -41 25 -86 25
c-43 0 -72 -8 -86 -25c-13 -17 -20 -54 -20 -111s7 -95 21 -114c14 -18 42 -27 85 -27z" />
    <glyph glyph-name="plusminus" unicode="&#xb1;" 
d="M291 380h-232v118h232v184h125v-184h233v-118h-233v-184h-125v184zM649 19h-590v118h590v-118z" />
    <glyph glyph-name="twosuperior" unicode="&#xb2;" horiz-adv-x="515" 
d="M176 363h272v-89h-404c7 71 25 124 54 157c29 34 77 58 143 71c75 16 96 34 96 70c0 32 -27 46 -115 46c-68 0 -116 -5 -144 -14l-16 94c57 11 114 16 171 16c153 0 213 -37 213 -134c0 -80 -32 -125 -143 -149c-87 -17 -122 -35 -127 -68z" />
    <glyph glyph-name="threesuperior" unicode="&#xb3;" horiz-adv-x="507" 
d="M328 499c85 -5 119 -43 119 -112c0 -91 -74 -125 -227 -125c-63 0 -119 5 -168 15l18 84c33 -7 76 -11 129 -11c52 0 86 4 103 11c17 8 25 23 25 46c0 37 -25 47 -110 47h-52v83h50c42 0 69 3 82 8s19 18 19 39c0 17 -7 28 -22 33c-15 6 -47 9 -96 9
c-41 0 -83 -3 -125 -10l-18 83c49 9 104 14 165 14c149 0 213 -31 213 -110c0 -67 -24 -99 -105 -104z" />
    <glyph glyph-name="acute" unicode="&#xb4;" horiz-adv-x="581" 
d="M418 697l-184 -129h-122l154 129h152z" />
    <glyph glyph-name="mu" unicode="&#xb5;" horiz-adv-x="730" 
d="M518 58c-50 -48 -113 -72 -188 -72c-58 0 -99 11 -122 33c-3 -83 -9 -154 -18 -211h-124c17 125 26 251 26 380v321h132v-294c0 -77 40 -106 117 -106c68 0 122 18 161 53v348h132v-349c0 -40 20 -55 84 -55l-22 -120c-105 0 -155 16 -178 72z" />
    <glyph glyph-name="mu" unicode="&#x3bc;" horiz-adv-x="730" 
d="M518 58c-50 -48 -113 -72 -188 -72c-58 0 -99 11 -122 33c-3 -83 -9 -154 -18 -211h-124c17 125 26 251 26 380v321h132v-294c0 -77 40 -106 117 -106c68 0 122 18 161 53v348h132v-349c0 -40 20 -55 84 -55l-22 -120c-105 0 -155 16 -178 72z" />
    <glyph glyph-name="paragraph" unicode="&#xb6;" horiz-adv-x="824" 
d="M713 697v-697h-120v230h-136v-230h-122v230h-72c-76 0 -133 22 -172 65c-38 43 -57 98 -57 163c0 159 77 239 232 239h447z" />
    <glyph glyph-name="middot" unicode="&#xb7;" horiz-adv-x="347" 
d="M172 379c76 0 96 -13 96 -76c0 -35 -7 -57 -20 -68s-38 -16 -76 -16c-72 0 -92 15 -92 84c0 63 20 76 92 76z" />
    <glyph glyph-name="middot" unicode="&#x2219;" horiz-adv-x="347" 
d="M172 379c76 0 96 -13 96 -76c0 -35 -7 -57 -20 -68s-38 -16 -76 -16c-72 0 -92 15 -92 84c0 63 20 76 92 76z" />
    <glyph glyph-name="cedilla" unicode="&#xb8;" horiz-adv-x="785" 
d="M366 -93l45 93h47v-42c107 0 139 -18 139 -78c0 -61 -50 -83 -170 -83c-50 0 -88 5 -114 14l28 55c26 -7 56 -11 90 -11c45 0 61 6 61 26c0 21 -16 28 -72 28c-15 0 -33 -1 -54 -2z" />
    <glyph glyph-name="onesuperior" unicode="&#xb9;" horiz-adv-x="449" 
d="M306 721v-443h-106v308l-124 -38l-30 88z" />
    <glyph glyph-name="ordmasculine" unicode="&#xba;" horiz-adv-x="555" 
d="M276 324c-140 0 -207 53 -207 196s67 194 207 194c143 0 210 -51 210 -194s-67 -196 -210 -196zM276 638c-44 0 -74 -8 -89 -23s-23 -47 -23 -96c0 -47 8 -78 23 -95c16 -16 46 -24 89 -24c44 0 74 8 90 24c16 17 24 48 24 95c0 49 -8 81 -24 96c-15 15 -45 23 -90 23z
" />
    <glyph glyph-name="guillemotright" unicode="&#xbb;" horiz-adv-x="819" 
d="M457 39l-82 66l225 204l-224 209l80 67l336 -273zM110 39l-82 66l225 204l-224 209l80 67l336 -273z" />
    <glyph glyph-name="onequarter" unicode="&#xbc;" horiz-adv-x="1062" 
d="M134 0l546 697h134l-546 -697h-134zM677 189h154v176c-66 -68 -117 -127 -154 -176zM785 432h150v-243h73v-91h-73v-98h-104v98h-289v47c73 97 154 192 243 287zM286 721v-443h-106v308l-124 -38l-30 88z" />
    <glyph glyph-name="onehalf" unicode="&#xbd;" horiz-adv-x="1062" 
d="M129 0l546 697h134l-546 -697h-134zM286 721v-443h-106v308l-124 -38l-30 88zM745 89h272v-89h-404c7 71 25 124 54 157s77 57 144 70c73 15 95 35 95 70s-27 46 -126 46c-59 0 -103 -4 -133 -13l-16 93c52 11 109 16 171 16c153 0 214 -37 214 -133
c0 -80 -33 -126 -144 -149c-91 -20 -122 -35 -127 -68z" />
    <glyph glyph-name="threequarters" unicode="&#xbe;" horiz-adv-x="1062" 
d="M215 0l546 697h134l-547 -697h-133zM306 499c85 -5 119 -43 119 -112c0 -91 -74 -125 -227 -125c-63 0 -119 5 -168 15l18 84c33 -7 76 -11 129 -11c52 0 86 4 103 11c17 8 25 23 25 46c0 37 -25 47 -110 47h-52v83h50c33 0 53 3 62 10c31 5 39 16 39 37
c0 17 -7 28 -22 33c-15 6 -47 9 -96 9h-24c-25 0 -59 -3 -101 -10l-18 83c49 9 104 14 165 14c149 0 213 -31 213 -110c0 -67 -24 -99 -105 -104zM677 189h154v176c-66 -68 -117 -127 -154 -176zM785 432h150v-243h73v-91h-73v-98h-104v98h-289v47c73 97 154 192 243 287z
" />
    <glyph glyph-name="questiondown" unicode="&#xbf;" horiz-adv-x="675" 
d="M401 376c-69 0 -87 11 -87 70c0 64 19 78 87 78c67 0 85 -14 85 -78c0 -59 -18 -70 -85 -70zM336 309h131v-170h-62c-187 -5 -207 -18 -211 -108c4 -89 29 -104 210 -107c82 0 152 7 210 20l21 -118c-70 -13 -158 -20 -265 -20c-124 0 -210 15 -258 45s-72 88 -72 175
c0 155 85 216 296 216v67z" />
    <glyph glyph-name="Agrave" unicode="&#xc0;" horiz-adv-x="836" 
d="M863 0h-159c-19 35 -47 93 -84 174h-413c-20 -47 -43 -105 -68 -174h-153c91 230 197 462 320 697h239c44 -111 96 -231 155 -361s114 -242 163 -336zM448 585h-59c-45 -88 -90 -187 -137 -298h319c-37 82 -78 181 -123 298zM361 876l171 -129h-130l-200 129h159z" />
    <glyph glyph-name="Aacute" unicode="&#xc1;" horiz-adv-x="836" 
d="M863 0h-159c-19 35 -47 93 -84 174h-413c-20 -47 -43 -105 -68 -174h-153c91 230 197 462 320 697h239c44 -111 96 -231 155 -361s114 -242 163 -336zM448 585h-59c-45 -88 -90 -187 -137 -298h319c-37 82 -78 181 -123 298zM436 747h-122l164 129h158z" />
    <glyph glyph-name="Acircumflex" unicode="&#xc2;" horiz-adv-x="836" 
d="M863 0h-159c-19 35 -47 93 -84 174h-413c-20 -47 -43 -105 -68 -174h-153c91 230 197 462 320 697h239c44 -111 96 -231 155 -361s114 -242 163 -336zM448 585h-59c-45 -88 -90 -187 -137 -298h319c-37 82 -78 181 -123 298zM519 747l-102 83l-96 -83h-120l150 129h137
l155 -129h-124z" />
    <glyph glyph-name="Atilde" unicode="&#xc3;" horiz-adv-x="836" 
d="M863 0h-159c-19 35 -47 93 -84 174h-413c-20 -47 -43 -105 -68 -174h-153c91 230 197 462 320 697h239c44 -111 96 -231 155 -361s114 -242 163 -336zM448 585h-59c-45 -88 -90 -187 -137 -298h319c-37 82 -78 181 -123 298zM585 869l57 -37c-27 -57 -78 -96 -142 -96
c-21 0 -52 10 -91 29c-39 20 -69 30 -92 30c-33 0 -57 -15 -72 -44l-53 42c40 54 82 81 126 81c23 0 54 -9 95 -28s72 -28 94 -28c36 0 62 17 78 51z" />
    <glyph glyph-name="Adieresis" unicode="&#xc4;" horiz-adv-x="836" 
d="M863 0h-159c-19 35 -47 93 -84 174h-413c-20 -47 -43 -105 -68 -174h-153c91 230 197 462 320 697h239c44 -111 96 -231 155 -361s114 -242 163 -336zM448 585h-59c-45 -88 -90 -187 -137 -298h319c-37 82 -78 181 -123 298zM352 808c0 -51 -13 -61 -62 -61
s-62 10 -62 61c0 47 13 56 62 56s62 -9 62 -56zM551 864c48 0 62 -9 62 -56c0 -51 -14 -61 -62 -61c-49 0 -62 10 -62 61c0 47 13 56 62 56z" />
    <glyph glyph-name="Aring" unicode="&#xc5;" horiz-adv-x="836" 
d="M420 890c96 0 143 -29 143 -98c0 -55 -31 -87 -93 -95h75c44 -111 96 -231 155 -361s114 -242 163 -336h-159c-19 35 -47 93 -84 174h-413c-20 -47 -43 -105 -68 -174h-153c91 230 197 462 320 697h63c-61 8 -92 40 -92 95c0 71 43 98 143 98zM448 585h-59
c-45 -88 -90 -187 -137 -298h319c-37 82 -78 181 -123 298zM420 837c-60 0 -73 -10 -73 -46s13 -46 73 -46c61 0 74 10 74 46s-13 46 -74 46z" />
    <glyph glyph-name="AE" unicode="&#xc6;" horiz-adv-x="1201" 
d="M433 697h735v-114h-475v-161h282v-112h-282v-196h475v-114h-615v174h-417c-52 -57 -100 -115 -144 -174h-180c206 247 413 480 621 697zM553 585h-58l-266 -298h324v298z" />
    <glyph glyph-name="Ccedilla" unicode="&#xc7;" horiz-adv-x="722" 
d="M66 355c0 141 31 233 100 286c69 55 160 73 301 73c85 0 163 -8 235 -24l-21 -119c-49 14 -110 21 -185 21c-38 0 -69 -1 -93 -3c-48 -3 -99 -15 -124 -36c-42 -34 -61 -91 -61 -199s15 -168 62 -203c48 -35 104 -42 216 -42c73 0 134 7 185 20l21 -121
c-68 -13 -143 -21 -225 -22v-28c107 0 139 -18 139 -78c0 -61 -50 -83 -170 -83c-50 0 -88 5 -114 14l28 55c25 -7 55 -11 90 -11c45 0 61 6 61 26c0 21 -16 28 -72 28c-15 0 -33 -1 -54 -2l38 80c-125 5 -215 34 -272 89s-85 148 -85 279z" />
    <glyph glyph-name="Egrave" unicode="&#xc8;" horiz-adv-x="758" 
d="M111 0v697h615v-114h-475v-161h339v-113h-339v-195h475v-114h-615zM406 876l171 -129h-130l-200 129h159z" />
    <glyph glyph-name="Eacute" unicode="&#xc9;" horiz-adv-x="758" 
d="M111 0v697h615v-114h-475v-161h339v-113h-339v-195h475v-114h-615zM435 747h-122l164 129h158z" />
    <glyph glyph-name="Ecircumflex" unicode="&#xca;" horiz-adv-x="758" 
d="M526 747l-102 83l-96 -83h-120l150 129h137l155 -129h-124zM111 0v697h615v-114h-475v-161h339v-113h-339v-195h475v-114h-615z" />
    <glyph glyph-name="Edieresis" unicode="&#xcb;" horiz-adv-x="758" 
d="M358 808c0 -51 -13 -61 -62 -61s-62 10 -62 61c0 47 13 56 62 56s62 -9 62 -56zM557 864c48 0 62 -9 62 -56c0 -51 -14 -61 -62 -61c-49 0 -62 10 -62 61c0 47 13 56 62 56zM111 0v697h615v-114h-475v-161h339v-113h-339v-195h475v-114h-615z" />
    <glyph glyph-name="Igrave" unicode="&#xcc;" horiz-adv-x="361" 
d="M113 876l171 -129h-130l-200 129h159zM111 0v697h140v-697h-140z" />
    <glyph glyph-name="Iacute" unicode="&#xcd;" horiz-adv-x="361" 
d="M111 0v697h140v-697h-140zM204 747h-122l164 129h158z" />
    <glyph glyph-name="Icircumflex" unicode="&#xce;" horiz-adv-x="361" 
d="M279 747l-102 83l-96 -83h-120l150 129h137l155 -129h-124zM111 0v697h140v-697h-140z" />
    <glyph glyph-name="Idieresis" unicode="&#xcf;" horiz-adv-x="361" 
d="M111 0v697h140v-697h-140zM114 808c0 -51 -13 -61 -62 -61s-62 10 -62 61c0 47 13 56 62 56s62 -9 62 -56zM313 864c48 0 62 -9 62 -56c0 -51 -14 -61 -62 -61c-49 0 -62 10 -62 61c0 47 13 56 62 56z" />
    <glyph glyph-name="Eth" unicode="&#xd0;" horiz-adv-x="905" 
d="M111 311h-67v92h67v294h323c141 0 234 -19 303 -71c71 -52 102 -140 102 -275c0 -131 -32 -222 -96 -274c-64 -51 -167 -77 -309 -77h-323v311zM687 350c0 104 -12 160 -57 193c-22 17 -49 27 -80 32s-75 7 -132 7h-167v-179h201v-92h-201v-197h167c111 0 169 9 213 44
c44 36 56 91 56 192z" />
    <glyph glyph-name="Ntilde" unicode="&#xd1;" horiz-adv-x="953" 
d="M248 549v-549h-137v697h194c133 -161 266 -336 397 -525v525h140v-697h-183c-124 186 -261 369 -411 549zM650 869l57 -37c-27 -57 -78 -96 -142 -96c-21 0 -52 10 -91 29c-39 20 -69 30 -92 30c-33 0 -57 -15 -72 -44l-53 42c40 54 82 81 126 81c23 0 54 -9 95 -28
s72 -28 94 -28c36 0 62 17 78 51z" />
    <glyph glyph-name="Ograve" unicode="&#xd2;" horiz-adv-x="948" 
d="M474 714c141 0 233 -20 304 -73c72 -53 103 -146 103 -286c0 -143 -31 -237 -102 -293c-71 -55 -164 -76 -305 -76s-234 21 -305 76c-71 56 -103 150 -103 293c0 140 31 233 102 286c72 53 163 73 306 73zM474 105c87 0 137 7 178 26c63 34 75 95 78 222
c0 108 -9 164 -52 199c-21 18 -46 30 -76 35s-73 8 -128 8c-88 0 -135 -5 -178 -24c-63 -31 -75 -90 -78 -218c0 -210 50 -248 256 -248zM435 876l171 -129h-130l-200 129h159z" />
    <glyph glyph-name="Oacute" unicode="&#xd3;" horiz-adv-x="948" 
d="M474 714c141 0 233 -20 304 -73c72 -53 103 -146 103 -286c0 -143 -31 -237 -102 -293c-71 -55 -164 -76 -305 -76s-234 21 -305 76c-71 56 -103 150 -103 293c0 140 31 233 102 286c72 53 163 73 306 73zM474 105c87 0 137 7 178 26c63 34 75 95 78 222
c0 108 -9 164 -52 199c-21 18 -46 30 -76 35s-73 8 -128 8c-88 0 -135 -5 -178 -24c-63 -31 -75 -90 -78 -218c0 -210 50 -248 256 -248zM450 747h-122l164 129h158z" />
    <glyph glyph-name="Ocircumflex" unicode="&#xd4;" horiz-adv-x="948" 
d="M474 714c141 0 233 -20 304 -73c72 -53 103 -146 103 -286c0 -143 -31 -237 -102 -293c-71 -55 -164 -76 -305 -76s-234 21 -305 76c-71 56 -103 150 -103 293c0 140 31 233 102 286c72 53 163 73 306 73zM474 105c87 0 137 7 178 26c63 34 75 95 78 222
c0 108 -9 164 -52 199c-21 18 -46 30 -76 35s-73 8 -128 8c-88 0 -135 -5 -178 -24c-63 -31 -75 -90 -78 -218c0 -210 50 -248 256 -248zM570 747l-102 83l-96 -83h-120l150 129h137l155 -129h-124z" />
    <glyph glyph-name="Otilde" unicode="&#xd5;" horiz-adv-x="948" 
d="M474 714c141 0 233 -20 304 -73c72 -53 103 -146 103 -286c0 -143 -31 -237 -102 -293c-71 -55 -164 -76 -305 -76s-234 21 -305 76c-71 56 -103 150 -103 293c0 140 31 233 102 286c72 53 163 73 306 73zM474 105c87 0 137 7 178 26c63 34 75 95 78 222
c0 108 -9 164 -52 199c-21 18 -46 30 -76 35s-73 8 -128 8c-88 0 -135 -5 -178 -24c-63 -31 -75 -90 -78 -218c0 -210 50 -248 256 -248zM642 869l57 -37c-27 -57 -78 -96 -142 -96c-21 0 -52 10 -91 29c-39 20 -69 30 -92 30c-33 0 -57 -15 -72 -44l-53 42
c40 54 82 81 126 81c23 0 54 -9 95 -28s72 -28 94 -28c36 0 62 17 78 51z" />
    <glyph glyph-name="Odieresis" unicode="&#xd6;" horiz-adv-x="948" 
d="M474 714c141 0 233 -20 304 -73c72 -53 103 -146 103 -286c0 -143 -31 -237 -102 -293c-71 -55 -164 -76 -305 -76s-234 21 -305 76c-71 56 -103 150 -103 293c0 140 31 233 102 286c72 53 163 73 306 73zM474 105c87 0 137 7 178 26c63 34 75 95 78 222
c0 108 -9 164 -52 199c-21 18 -46 30 -76 35s-73 8 -128 8c-88 0 -135 -5 -178 -24c-63 -31 -75 -90 -78 -218c0 -210 50 -248 256 -248zM404 808c0 -51 -13 -61 -62 -61s-62 10 -62 61c0 47 13 56 62 56s62 -9 62 -56zM603 864c48 0 62 -9 62 -56c0 -51 -14 -61 -62 -61
c-49 0 -62 10 -62 61c0 47 13 56 62 56z" />
    <glyph glyph-name="multiply" unicode="&#xd7;" 
d="M91 233l164 130l-165 129l98 77l167 -131l163 132l99 -78l-166 -130l165 -130l-97 -76l-165 131l-165 -132z" />
    <glyph glyph-name="Oslash" unicode="&#xd8;" horiz-adv-x="948" 
d="M474 714c121 0 211 -18 271 -53l39 36h151l-113 -102c39 -55 59 -135 59 -240c0 -143 -31 -237 -102 -293c-71 -55 -164 -76 -305 -76c-117 0 -206 17 -266 51l-41 -37h-151l114 103c-43 55 -64 139 -64 252c0 140 31 233 102 286c72 53 163 73 306 73zM218 353
c0 -67 8 -117 24 -149l399 364c-32 18 -88 27 -167 27c-88 0 -135 -5 -178 -24c-63 -31 -75 -90 -78 -218zM474 105c87 0 137 7 178 26c63 34 75 95 78 222c0 61 -7 108 -22 139l-395 -361c31 -17 85 -26 161 -26z" />
    <glyph glyph-name="Ugrave" unicode="&#xd9;" horiz-adv-x="913" 
d="M674 697h140v-486c0 -86 -29 -145 -88 -177s-149 -48 -270 -48s-211 16 -270 48s-88 91 -88 177v486h141v-406c0 -41 2 -72 5 -93c4 -20 13 -38 28 -54c31 -31 81 -37 185 -37c103 0 153 6 184 37c15 16 25 34 28 54s5 51 5 92v407zM423 876l171 -129h-130l-200 129h159z
" />
    <glyph glyph-name="Uacute" unicode="&#xda;" horiz-adv-x="913" 
d="M674 697h140v-486c0 -86 -29 -145 -88 -177s-149 -48 -270 -48s-211 16 -270 48s-88 91 -88 177v486h141v-406c0 -41 2 -72 5 -93c4 -20 13 -38 28 -54c31 -31 81 -37 185 -37c103 0 153 6 184 37c15 16 25 34 28 54s5 51 5 92v407zM456 747h-122l164 129h158z" />
    <glyph glyph-name="Ucircumflex" unicode="&#xdb;" horiz-adv-x="913" 
d="M674 697h140v-486c0 -86 -29 -145 -88 -177s-149 -48 -270 -48s-211 16 -270 48s-88 91 -88 177v486h141v-406c0 -41 2 -72 5 -93c4 -20 13 -38 28 -54c31 -31 81 -37 185 -37c103 0 153 6 184 37c15 16 25 34 28 54s5 51 5 92v407zM550 747l-102 83l-96 -83h-120
l150 129h137l155 -129h-124z" />
    <glyph glyph-name="Udieresis" unicode="&#xdc;" horiz-adv-x="913" 
d="M674 697h140v-486c0 -86 -29 -145 -88 -177s-149 -48 -270 -48s-211 16 -270 48s-88 91 -88 177v486h141v-406c0 -41 2 -72 5 -93c4 -20 13 -38 28 -54c31 -31 81 -37 185 -37c103 0 153 6 184 37c15 16 25 34 28 54s5 51 5 92v407zM386 808c0 -51 -13 -61 -62 -61
s-62 10 -62 61c0 47 13 56 62 56s62 -9 62 -56zM585 864c48 0 62 -9 62 -56c0 -51 -14 -61 -62 -61c-49 0 -62 10 -62 61c0 47 13 56 62 56z" />
    <glyph glyph-name="Yacute" unicode="&#xdd;" horiz-adv-x="780" 
d="M327 0v300c-101 121 -228 253 -381 397h200c89 -87 174 -181 256 -280c105 113 187 206 245 280h182c-129 -151 -249 -283 -361 -396v-301h-141zM416 747h-122l164 129h158z" />
    <glyph glyph-name="Thorn" unicode="&#xde;" horiz-adv-x="824" 
d="M111 0v697h140v-103h307c155 0 233 -80 233 -239c0 -65 -19 -120 -58 -163c-38 -43 -95 -65 -171 -65h-311v-127h-140zM251 237h265c81 0 118 39 118 119c0 87 -34 125 -115 125h-268v-244z" />
    <glyph glyph-name="germandbls" unicode="&#xdf;" horiz-adv-x="800" 
d="M397 714c223 0 320 -53 320 -178c0 -51 -12 -91 -37 -119c-24 -27 -70 -43 -137 -48c144 -7 194 -69 194 -181c0 -75 -26 -127 -79 -157s-140 -45 -263 -45c-26 0 -50 1 -72 3l8 107c21 -2 44 -3 69 -3c75 0 126 8 151 23c25 16 38 44 38 85c0 44 -12 74 -35 89
c-23 16 -70 24 -140 24h-35v103h32c66 0 110 7 131 21c22 15 33 40 33 77c0 33 -13 56 -38 69s-72 19 -141 19c-132 0 -179 -29 -179 -93v-510h-130v527c0 125 103 187 310 187z" />
    <glyph glyph-name="agrave" unicode="&#xe0;" horiz-adv-x="681" 
d="M599 326v-303c-81 -25 -174 -37 -279 -37c-98 0 -166 12 -203 35c-37 24 -56 69 -56 135c0 69 22 115 67 138c47 23 94 29 173 29c53 0 110 -5 173 -14c0 46 -11 76 -33 90c-21 15 -68 22 -141 22c-69 0 -132 -8 -188 -23l-21 102c75 16 156 24 242 24
c95 0 163 -15 204 -44s62 -80 62 -154zM474 97v128c-44 7 -91 10 -140 10c-55 0 -91 -5 -109 -14c-17 -9 -26 -29 -26 -60c0 -33 8 -55 25 -65c17 -9 53 -14 108 -14c53 0 100 5 142 15zM290 697l154 -129h-122l-183 129h151z" />
    <glyph glyph-name="aacute" unicode="&#xe1;" horiz-adv-x="681" 
d="M599 326v-303c-81 -25 -174 -37 -279 -37c-98 0 -166 12 -203 35c-37 24 -56 69 -56 135c0 69 22 115 67 138c47 23 94 29 173 29c53 0 110 -5 173 -14c0 46 -11 76 -33 90c-21 15 -68 22 -141 22c-69 0 -132 -8 -188 -23l-21 102c75 16 156 24 242 24
c95 0 163 -15 204 -44s62 -80 62 -154zM474 97v128c-44 7 -91 10 -140 10c-55 0 -91 -5 -109 -14c-17 -9 -26 -29 -26 -60c0 -33 8 -55 25 -65c17 -9 53 -14 108 -14c53 0 100 5 142 15zM540 697l-184 -129h-122l154 129h152z" />
    <glyph glyph-name="acircumflex" unicode="&#xe2;" horiz-adv-x="681" 
d="M599 326v-303c-81 -25 -174 -37 -279 -37c-98 0 -166 12 -203 35c-37 24 -56 69 -56 135c0 69 22 115 67 138c47 23 94 29 173 29c53 0 110 -5 173 -14c0 46 -11 76 -33 90c-21 15 -68 22 -141 22c-69 0 -132 -8 -188 -23l-21 102c75 16 156 24 242 24
c95 0 163 -15 204 -44s62 -80 62 -154zM474 97v128c-44 7 -91 10 -140 10c-55 0 -91 -5 -109 -14c-17 -9 -26 -29 -26 -60c0 -33 8 -55 25 -65c17 -9 53 -14 108 -14c53 0 100 5 142 15zM565 568h-127l-99 81l-95 -81h-122l150 129h138z" />
    <glyph glyph-name="atilde" unicode="&#xe3;" horiz-adv-x="681" 
d="M599 326v-303c-81 -25 -174 -37 -279 -37c-98 0 -166 12 -203 35c-37 24 -56 69 -56 135c0 69 22 115 67 138c47 23 94 29 173 29c53 0 110 -5 173 -14c0 46 -11 76 -33 90c-21 15 -68 22 -141 22c-69 0 -132 -8 -188 -23l-21 102c75 16 156 24 242 24
c95 0 163 -15 204 -44s62 -80 62 -154zM474 97v128c-44 7 -91 10 -140 10c-55 0 -91 -5 -109 -14c-17 -9 -26 -29 -26 -60c0 -33 8 -55 25 -65c17 -9 53 -14 108 -14c53 0 100 5 142 15zM498 692l55 -38c-29 -63 -74 -95 -135 -95c-23 0 -55 10 -94 29s-70 29 -92 29
c-33 0 -57 -15 -72 -45l-50 43c39 55 73 82 125 82c25 0 57 -10 96 -29c40 -19 71 -29 92 -29c39 0 58 14 75 53z" />
    <glyph glyph-name="adieresis" unicode="&#xe4;" horiz-adv-x="681" 
d="M599 326v-303c-81 -25 -174 -37 -279 -37c-98 0 -166 12 -203 35c-37 24 -56 69 -56 135c0 69 22 115 67 138c47 23 94 29 173 29c53 0 110 -5 173 -14c0 46 -11 76 -33 90c-21 15 -68 22 -141 22c-69 0 -132 -8 -188 -23l-21 102c75 16 156 24 242 24
c95 0 163 -15 204 -44s62 -80 62 -154zM474 97v128c-44 7 -91 10 -140 10c-55 0 -91 -5 -109 -14c-17 -9 -26 -29 -26 -60c0 -33 8 -55 25 -65c17 -9 53 -14 108 -14c53 0 100 5 142 15zM207 681c48 0 62 -8 62 -55c0 -51 -14 -62 -62 -62c-49 0 -63 11 -63 62
c0 47 14 55 63 55zM458 681c48 0 61 -8 61 -55c0 -51 -13 -62 -61 -62c-49 0 -63 10 -63 62c0 47 12 55 63 55z" />
    <glyph glyph-name="aring" unicode="&#xe5;" horiz-adv-x="681" 
d="M599 326v-303c-81 -25 -174 -37 -279 -37c-98 0 -166 12 -203 35c-37 24 -56 69 -56 135c0 69 22 115 67 138c47 23 94 29 173 29c53 0 110 -5 173 -14c0 46 -11 76 -33 90c-21 15 -68 22 -141 22c-69 0 -132 -8 -188 -23l-21 102c75 16 156 24 242 24
c95 0 163 -15 204 -44s62 -80 62 -154zM474 97v128c-44 7 -91 10 -140 10c-55 0 -91 -5 -109 -14c-17 -9 -26 -29 -26 -60c0 -33 8 -55 25 -65c17 -9 53 -14 108 -14c53 0 100 5 142 15zM342 741c103 0 141 -26 141 -98c0 -75 -40 -98 -141 -98c-103 0 -142 22 -142 98
c0 73 35 98 142 98zM416 641c0 36 -13 47 -74 47s-73 -11 -73 -47s12 -45 73 -45s74 10 74 45z" />
    <glyph glyph-name="ae" unicode="&#xe6;" horiz-adv-x="1071" 
d="M750 524c97 0 156 -12 203 -51c48 -39 67 -106 67 -213c0 -8 -1 -29 -1 -38h-418c1 -52 14 -87 41 -105c27 -17 74 -26 140 -26c23 0 54 2 91 7s66 11 87 17c5 -23 12 -57 23 -104c-70 -17 -143 -25 -220 -25c-74 0 -134 12 -179 37c-91 -25 -179 -37 -264 -37
c-98 0 -166 12 -203 35c-37 24 -56 69 -56 135c0 69 22 115 67 138c47 23 94 29 173 29c56 0 114 -5 173 -16c0 46 -11 76 -33 90c-21 15 -68 22 -141 22s-136 -8 -191 -23l-20 103c75 16 144 24 206 24c135 0 203 -14 251 -61c46 41 114 62 204 62zM333 82
c61 0 117 7 168 22c-19 31 -28 71 -28 119c-41 8 -87 12 -138 12c-53 0 -88 -5 -107 -14s-28 -29 -28 -60c0 -33 9 -55 26 -65c17 -9 53 -14 107 -14zM757 426c-55 0 -94 -8 -115 -23s-34 -44 -39 -86h283c-3 44 -13 73 -31 87c-18 15 -51 22 -98 22z" />
    <glyph glyph-name="ccedilla" unicode="&#xe7;" horiz-adv-x="567" 
d="M528 114l20 -104c-49 -16 -109 -24 -178 -24h-2v-28c107 0 139 -18 139 -78c0 -61 -50 -83 -170 -83c-50 0 -88 5 -114 14l28 55c26 -7 56 -11 90 -11c45 0 61 6 61 26c0 21 -16 28 -72 28c-15 0 -33 -1 -54 -2l39 81c-165 12 -251 89 -251 269c0 99 26 168 77 207
c52 40 128 60 229 60c67 0 127 -7 178 -21l-21 -106c-41 13 -89 19 -146 19c-71 0 -119 -10 -145 -30c-25 -20 -38 -64 -38 -131c0 -65 13 -109 39 -130c27 -21 75 -31 144 -31c55 0 104 7 147 20z" />
    <glyph glyph-name="egrave" unicode="&#xe8;" horiz-adv-x="671" 
d="M350 524c100 0 160 -13 205 -54c47 -40 64 -110 64 -222v-26h-418c1 -53 14 -88 40 -105c27 -17 74 -26 141 -26c61 0 120 8 177 24l24 -104c-71 -17 -145 -25 -220 -25c-97 0 -171 20 -222 61s-77 111 -77 210c0 195 97 267 286 267zM351 426c-53 0 -90 -8 -111 -23
s-33 -44 -37 -86h283c-2 44 -12 73 -31 87c-19 15 -53 22 -104 22zM317 697l154 -129h-122l-183 129h151z" />
    <glyph glyph-name="eacute" unicode="&#xe9;" horiz-adv-x="671" 
d="M350 524c100 0 160 -13 205 -54c47 -40 64 -110 64 -222v-26h-418c1 -53 14 -88 40 -105c27 -17 74 -26 141 -26c61 0 120 8 177 24l24 -104c-71 -17 -145 -25 -220 -25c-97 0 -171 20 -222 61s-77 111 -77 210c0 195 97 267 286 267zM351 426c-53 0 -90 -8 -111 -23
s-33 -44 -37 -86h283c-2 44 -12 73 -31 87c-19 15 -53 22 -104 22zM555 697l-184 -129h-122l154 129h152z" />
    <glyph glyph-name="ecircumflex" unicode="&#xea;" horiz-adv-x="671" 
d="M350 524c100 0 160 -13 205 -54c47 -40 64 -110 64 -222v-26h-418c1 -53 14 -88 40 -105c27 -17 74 -26 141 -26c61 0 120 8 177 24l24 -104c-71 -17 -145 -25 -220 -25c-97 0 -171 20 -222 61s-77 111 -77 210c0 195 97 267 286 267zM583 568h-127l-99 81l-95 -81h-122
l150 129h138zM351 426c-53 0 -90 -8 -111 -23s-33 -44 -37 -86h283c-2 44 -12 73 -31 87c-19 15 -53 22 -104 22z" />
    <glyph glyph-name="edieresis" unicode="&#xeb;" horiz-adv-x="671" 
d="M350 524c100 0 160 -13 205 -54c47 -40 64 -110 64 -222v-26h-418c1 -53 14 -88 40 -105c27 -17 74 -26 141 -26c61 0 120 8 177 24l24 -104c-71 -17 -145 -25 -220 -25c-97 0 -171 20 -222 61s-77 111 -77 210c0 195 97 267 286 267zM351 426c-53 0 -90 -8 -111 -23
s-33 -44 -37 -86h283c-2 44 -12 73 -31 87c-19 15 -53 22 -104 22zM234 681c48 0 62 -8 62 -55c0 -51 -14 -62 -62 -62c-49 0 -63 11 -63 62c0 47 14 55 63 55zM485 681c48 0 61 -8 61 -55c0 -51 -13 -62 -61 -62c-49 0 -63 10 -63 62c0 47 12 55 63 55z" />
    <glyph glyph-name="igrave" unicode="&#xec;" horiz-adv-x="303" 
d="M87 509h130v-509h-130v509zM93 697l154 -129h-122l-183 129h151z" />
    <glyph glyph-name="iacute" unicode="&#xed;" horiz-adv-x="303" 
d="M87 509h130v-509h-130v509zM355 697l-184 -129h-122l154 129h152z" />
    <glyph glyph-name="icircumflex" unicode="&#xee;" horiz-adv-x="303" 
d="M87 509h130v-509h-130v509zM373 568h-127l-99 81l-95 -81h-122l150 129h138z" />
    <glyph glyph-name="idieresis" unicode="&#xef;" horiz-adv-x="303" 
d="M27 681c48 0 62 -8 62 -55c0 -51 -14 -62 -62 -62c-49 0 -63 11 -63 62c0 47 14 55 63 55zM278 681c48 0 61 -8 61 -55c0 -51 -13 -62 -61 -62c-49 0 -63 10 -63 62c0 47 12 55 63 55zM87 509h130v-509h-130v509z" />
    <glyph glyph-name="eth" unicode="&#xf0;" horiz-adv-x="765" 
d="M407 530l-93 -45l-59 61l90 43c-35 30 -80 66 -135 108h192c39 -29 61 -45 66 -50l74 38l58 -61l-71 -34c119 -114 178 -236 178 -366c0 -94 -23 -157 -68 -190s-131 -49 -259 -49c-117 0 -199 17 -246 51s-70 95 -70 182c0 79 23 133 68 164s127 46 246 46
c41 0 82 -3 124 -9c-23 37 -54 74 -95 111zM557 237c0 25 -4 48 -11 69c-61 7 -111 11 -150 11c-164 -4 -180 -16 -185 -105c1 -83 19 -106 172 -111c70 0 116 8 139 24s35 53 35 112z" />
    <glyph glyph-name="ntilde" unicode="&#xf1;" 
d="M217 397v-397h-130v483c91 27 188 41 292 41c89 0 152 -18 191 -53s58 -98 58 -187v-284h-130v271c0 58 -9 96 -28 113s-60 26 -124 26c-42 0 -85 -4 -129 -13zM520 692l55 -38c-29 -63 -74 -95 -135 -95c-23 0 -55 10 -94 29s-70 29 -92 29c-33 0 -57 -15 -72 -45
l-50 43c39 55 73 82 125 82c25 0 57 -10 96 -29c40 -19 71 -29 92 -29c39 0 58 14 75 53z" />
    <glyph glyph-name="ograve" unicode="&#xf2;" horiz-adv-x="717" 
d="M358 -14c-103 0 -177 20 -224 59c-47 40 -70 111 -70 212c0 100 23 169 70 208s121 59 224 59s177 -20 224 -59s71 -108 71 -208c0 -101 -23 -172 -70 -212c-47 -39 -122 -59 -225 -59zM358 424c-67 0 -99 -5 -126 -30c-27 -24 -34 -64 -34 -139c0 -69 11 -115 32 -137
c22 -21 65 -32 128 -32s106 11 127 32c21 22 32 68 32 137c0 71 -11 117 -32 138s-63 31 -127 31zM325 697l154 -129h-122l-183 129h151z" />
    <glyph glyph-name="oacute" unicode="&#xf3;" horiz-adv-x="717" 
d="M358 -14c-103 0 -177 20 -224 59c-47 40 -70 111 -70 212c0 100 23 169 70 208s121 59 224 59s177 -20 224 -59s71 -108 71 -208c0 -101 -23 -172 -70 -212c-47 -39 -122 -59 -225 -59zM358 424c-67 0 -99 -5 -126 -30c-27 -24 -34 -64 -34 -139c0 -69 11 -115 32 -137
c22 -21 65 -32 128 -32s106 11 127 32c21 22 32 68 32 137c0 71 -11 117 -32 138s-63 31 -127 31zM552 697l-184 -129h-122l154 129h152z" />
    <glyph glyph-name="ocircumflex" unicode="&#xf4;" horiz-adv-x="717" 
d="M358 -14c-103 0 -177 20 -224 59c-47 40 -70 111 -70 212c0 100 23 169 70 208s121 59 224 59s177 -20 224 -59s71 -108 71 -208c0 -101 -23 -172 -70 -212c-47 -39 -122 -59 -225 -59zM358 424c-67 0 -99 -5 -126 -30c-27 -24 -34 -64 -34 -139c0 -69 11 -115 32 -137
c22 -21 65 -32 128 -32s106 11 127 32c21 22 32 68 32 137c0 71 -11 117 -32 138s-63 31 -127 31zM578 568h-127l-99 81l-95 -81h-122l150 129h138z" />
    <glyph glyph-name="otilde" unicode="&#xf5;" horiz-adv-x="717" 
d="M358 -14c-103 0 -177 20 -224 59c-47 40 -70 111 -70 212c0 100 23 169 70 208s121 59 224 59s177 -20 224 -59s71 -108 71 -208c0 -101 -23 -172 -70 -212c-47 -39 -122 -59 -225 -59zM358 424c-67 0 -99 -5 -126 -30c-27 -24 -34 -64 -34 -139c0 -69 11 -115 32 -137
c22 -21 65 -32 128 -32s106 11 127 32c21 22 32 68 32 137c0 71 -11 117 -32 138s-63 31 -127 31zM522 692l55 -38c-29 -63 -74 -95 -135 -95c-23 0 -55 10 -94 29s-70 29 -92 29c-33 0 -57 -15 -72 -45l-50 43c39 55 73 82 125 82c25 0 57 -10 96 -29c40 -19 71 -29 92 -29
c39 0 58 14 75 53z" />
    <glyph glyph-name="odieresis" unicode="&#xf6;" horiz-adv-x="717" 
d="M358 -14c-103 0 -177 20 -224 59c-47 40 -70 111 -70 212c0 100 23 169 70 208s121 59 224 59s177 -20 224 -59s71 -108 71 -208c0 -101 -23 -172 -70 -212c-47 -39 -122 -59 -225 -59zM358 424c-67 0 -99 -5 -126 -30c-27 -24 -34 -64 -34 -139c0 -69 11 -115 32 -137
c22 -21 65 -32 128 -32s106 11 127 32c21 22 32 68 32 137c0 71 -11 117 -32 138s-63 31 -127 31zM233 681c48 0 62 -8 62 -55c0 -51 -14 -62 -62 -62c-49 0 -63 11 -63 62c0 47 14 55 63 55zM484 681c48 0 61 -8 61 -55c0 -51 -13 -62 -61 -62c-49 0 -63 10 -63 62
c0 47 12 55 63 55z" />
    <glyph glyph-name="divide" unicode="&#xf7;" 
d="M649 303h-590v118h590v-118zM353 648c68 0 87 -12 87 -71c0 -64 -19 -77 -87 -77c-67 0 -85 13 -85 77c0 59 18 71 85 71zM353 226c69 0 87 -11 87 -70c0 -64 -19 -77 -87 -77c-67 0 -85 13 -85 77c0 59 18 70 85 70z" />
    <glyph glyph-name="oslash" unicode="&#xf8;" horiz-adv-x="717" 
d="M358 -14c-84 0 -147 12 -190 36l-25 -22h-128l89 80c-27 41 -40 100 -40 177c0 100 23 169 70 208s121 59 224 59c86 0 150 -12 193 -37l24 22h128l-89 -81c26 -40 39 -97 39 -171c0 -101 -23 -172 -70 -212c-47 -39 -122 -59 -225 -59zM358 424c-67 0 -99 -5 -126 -30
c-13 -12 -22 -29 -27 -51c-5 -21 -7 -51 -7 -88s4 -64 12 -80l252 233c-21 11 -55 16 -104 16zM358 86c63 0 106 11 127 32c21 22 32 68 32 137c0 37 -4 62 -11 77l-250 -230c21 -11 55 -16 102 -16z" />
    <glyph glyph-name="ugrave" unicode="&#xf9;" 
d="M494 111v398h130v-482c-88 -27 -186 -41 -293 -41c-89 0 -152 17 -191 52c-38 35 -57 98 -57 187v284h130v-271c0 -57 9 -95 28 -114c19 -18 60 -27 123 -27c40 0 83 5 130 14zM316 697l154 -129h-122l-183 129h151z" />
    <glyph glyph-name="uacute" unicode="&#xfa;" 
d="M494 111v398h130v-482c-88 -27 -186 -41 -293 -41c-89 0 -152 17 -191 52c-38 35 -57 98 -57 187v284h130v-271c0 -57 9 -95 28 -114c19 -18 60 -27 123 -27c40 0 83 5 130 14zM554 697l-184 -129h-122l154 129h152z" />
    <glyph glyph-name="ucircumflex" unicode="&#xfb;" 
d="M494 111v398h130v-482c-88 -27 -186 -41 -293 -41c-89 0 -152 17 -191 52c-38 35 -57 98 -57 187v284h130v-271c0 -57 9 -95 28 -114c19 -18 60 -27 123 -27c40 0 83 5 130 14zM584 568h-127l-99 81l-95 -81h-122l150 129h138z" />
    <glyph glyph-name="udieresis" unicode="&#xfc;" 
d="M234 681c48 0 62 -8 62 -55c0 -51 -14 -62 -62 -62c-49 0 -63 11 -63 62c0 47 14 55 63 55zM485 681c48 0 61 -8 61 -55c0 -51 -13 -62 -61 -62c-49 0 -63 10 -63 62c0 47 12 55 63 55zM494 111v398h130v-482c-88 -27 -186 -41 -293 -41c-89 0 -152 17 -191 52
c-38 35 -57 98 -57 187v284h130v-271c0 -57 9 -95 28 -114c19 -18 60 -27 123 -27c40 0 83 5 130 14z" />
    <glyph glyph-name="yacute" unicode="&#xfd;" horiz-adv-x="619" 
d="M226 -25c-74 209 -150 387 -227 534h137c65 -124 122 -262 173 -414c77 159 135 297 173 414h134c-91 -247 -205 -480 -344 -701h-152c34 48 69 104 106 167zM533 697l-184 -129h-122l154 129h152z" />
    <glyph glyph-name="thorn" unicode="&#xfe;" horiz-adv-x="716" 
d="M385 -14c-65 0 -121 12 -168 37v-215h-130v901h130v-200c51 10 102 15 151 15c100 0 172 -20 217 -59s67 -109 67 -210c0 -99 -23 -168 -68 -209c-45 -40 -111 -60 -199 -60zM356 419c-46 0 -92 -5 -139 -15v-259c0 -33 59 -54 140 -54c63 0 106 11 128 33
c22 23 33 65 33 128c0 69 -11 114 -33 135c-21 21 -64 32 -129 32z" />
    <glyph glyph-name="ydieresis" unicode="&#xff;" horiz-adv-x="619" 
d="M200 681c48 0 62 -8 62 -55c0 -51 -14 -62 -62 -62c-49 0 -63 11 -63 62c0 47 14 55 63 55zM451 681c48 0 61 -8 61 -55c0 -51 -13 -62 -61 -62c-49 0 -63 10 -63 62c0 47 12 55 63 55zM226 -25c-74 209 -150 387 -227 534h137c65 -124 122 -262 173 -414
c77 159 135 297 173 414h134c-91 -247 -205 -480 -344 -701h-152c34 48 69 104 106 167z" />
    <glyph glyph-name="Amacron" unicode="&#x100;" horiz-adv-x="836" 
d="M863 0h-159c-19 35 -47 93 -84 174h-413c-20 -47 -43 -105 -68 -174h-153c91 230 197 462 320 697h239c44 -111 96 -231 155 -361s114 -242 163 -336zM448 585h-59c-45 -88 -90 -187 -137 -298h319c-37 82 -78 181 -123 298zM583 753h-325v92h325v-92z" />
    <glyph glyph-name="amacron" unicode="&#x101;" horiz-adv-x="681" 
d="M599 326v-303c-81 -25 -174 -37 -279 -37c-98 0 -166 12 -203 35c-37 24 -56 69 -56 135c0 69 22 115 67 138c47 23 94 29 173 29c53 0 110 -5 173 -14c0 46 -11 76 -33 90c-21 15 -68 22 -141 22c-69 0 -132 -8 -188 -23l-21 102c75 16 156 24 242 24
c95 0 163 -15 204 -44s62 -80 62 -154zM474 97v128c-44 7 -91 10 -140 10c-55 0 -91 -5 -109 -14c-17 -9 -26 -29 -26 -60c0 -33 8 -55 25 -65c17 -9 53 -14 108 -14c53 0 100 5 142 15zM499 576h-325v90h325v-90z" />
    <glyph glyph-name="Abreve" unicode="&#x102;" horiz-adv-x="836" 
d="M863 0h-159c-19 35 -47 93 -84 174h-413c-20 -47 -43 -105 -68 -174h-153c91 230 197 462 320 697h239c44 -111 96 -231 155 -361s114 -242 163 -336zM448 585h-59c-45 -88 -90 -187 -137 -298h319c-37 82 -78 181 -123 298zM244 871h81c0 -45 29 -58 98 -58
c68 0 97 13 97 58h75c0 -92 -59 -132 -176 -132s-175 44 -175 132z" />
    <glyph glyph-name="abreve" unicode="&#x103;" horiz-adv-x="681" 
d="M599 326v-303c-81 -25 -174 -37 -279 -37c-98 0 -166 12 -203 35c-37 24 -56 69 -56 135c0 69 22 115 67 138c47 23 94 29 173 29c53 0 110 -5 173 -14c0 46 -11 76 -33 90c-21 15 -68 22 -141 22c-69 0 -132 -8 -188 -23l-21 102c75 16 156 24 242 24
c95 0 163 -15 204 -44s62 -80 62 -154zM474 97v128c-44 7 -91 10 -140 10c-55 0 -91 -5 -109 -14c-17 -9 -26 -29 -26 -60c0 -33 8 -55 25 -65c17 -9 53 -14 108 -14c53 0 100 5 142 15zM161 697h80c0 -45 30 -58 99 -58c68 0 97 13 97 58h75c0 -91 -59 -137 -176 -137
s-175 46 -175 137z" />
    <glyph glyph-name="Aogonek" unicode="&#x104;" horiz-adv-x="836" 
d="M863 0h-63c-59 -31 -77 -52 -77 -87c0 -29 17 -39 77 -39c51 0 90 8 117 23l24 -71c-35 -19 -87 -29 -156 -29c-117 0 -155 25 -155 89c0 51 35 89 104 114h-30c-19 35 -47 93 -84 174h-413c-20 -47 -43 -105 -68 -174h-153c91 230 197 462 320 697h239
c44 -111 96 -231 155 -361s114 -242 163 -336zM448 585h-59c-45 -88 -90 -187 -137 -298h319c-37 82 -78 181 -123 298z" />
    <glyph glyph-name="aogonek" unicode="&#x105;" horiz-adv-x="681" 
d="M599 326v-303c-20 -6 -39 -11 -57 -14c-73 -36 -95 -59 -95 -96c0 -29 17 -39 77 -39c51 0 90 8 117 23l24 -71c-35 -19 -87 -29 -156 -29c-117 0 -155 25 -155 89c0 46 29 82 86 107c-48 -5 -88 -7 -120 -7c-98 0 -166 12 -203 35c-37 24 -56 69 -56 135
c0 69 22 115 67 138c47 23 94 29 173 29c53 0 110 -5 173 -14c0 46 -11 76 -33 90c-21 15 -68 22 -141 22c-69 0 -132 -8 -188 -23l-21 102c75 16 156 24 242 24c95 0 163 -15 204 -44s62 -80 62 -154zM474 97v128c-44 7 -91 10 -140 10c-55 0 -91 -5 -109 -14
c-17 -9 -26 -29 -26 -60c0 -33 8 -55 25 -65c17 -9 53 -14 108 -14c53 0 100 5 142 15z" />
    <glyph glyph-name="Cacute" unicode="&#x106;" horiz-adv-x="722" 
d="M467 714c85 0 163 -8 235 -24l-21 -119c-49 14 -110 21 -185 21c-38 0 -69 -1 -93 -3c-48 -3 -99 -15 -124 -36c-42 -34 -61 -91 -61 -199s15 -168 62 -203c48 -35 104 -42 216 -42c73 0 134 7 185 20l21 -121c-70 -15 -148 -22 -235 -22c-140 0 -233 22 -302 78
c-68 56 -99 150 -99 291s31 233 100 286c69 55 160 73 301 73zM427 747h-122l164 129h158z" />
    <glyph glyph-name="cacute" unicode="&#x107;" horiz-adv-x="567" 
d="M528 114l20 -104c-49 -16 -109 -24 -178 -24c-101 0 -177 20 -229 61c-51 41 -77 111 -77 210s26 168 77 207c52 40 128 60 229 60c67 0 127 -7 178 -21l-21 -106c-41 13 -89 19 -146 19c-71 0 -119 -10 -145 -30c-25 -20 -38 -64 -38 -131c0 -65 13 -109 39 -130
c27 -21 75 -31 144 -31c55 0 104 7 147 20zM539 697l-184 -129h-122l154 129h152z" />
    <glyph glyph-name="Ccircumflex" unicode="&#x108;" horiz-adv-x="722" 
d="M467 714c85 0 163 -8 235 -24l-21 -119c-49 14 -110 21 -185 21c-38 0 -69 -1 -93 -3c-48 -3 -99 -15 -124 -36c-42 -34 -61 -91 -61 -199s15 -168 62 -203c48 -35 104 -42 216 -42c73 0 134 7 185 20l21 -121c-70 -15 -148 -22 -235 -22c-140 0 -233 22 -302 78
c-68 56 -99 150 -99 291s31 233 100 286c69 55 160 73 301 73zM558 747l-102 83l-96 -83h-120l150 129h137l155 -129h-124z" />
    <glyph glyph-name="ccircumflex" unicode="&#x109;" horiz-adv-x="567" 
d="M528 114l20 -104c-49 -16 -109 -24 -178 -24c-101 0 -177 20 -229 61c-51 41 -77 111 -77 210s26 168 77 207c52 40 128 60 229 60c67 0 127 -7 178 -21l-21 -106c-41 13 -89 19 -146 19c-71 0 -119 -10 -145 -30c-25 -20 -38 -64 -38 -131c0 -65 13 -109 39 -130
c27 -21 75 -31 144 -31c55 0 104 7 147 20zM578 568h-127l-99 81l-95 -81h-122l150 129h138z" />
    <glyph glyph-name="Cdotaccent" unicode="&#x10a;" horiz-adv-x="722" 
d="M467 714c85 0 163 -8 235 -24l-21 -119c-49 14 -110 21 -185 21c-38 0 -69 -1 -93 -3c-48 -3 -99 -15 -124 -36c-42 -34 -61 -91 -61 -199s15 -168 62 -203c48 -35 104 -42 216 -42c73 0 134 7 185 20l21 -121c-70 -15 -148 -22 -235 -22c-140 0 -233 22 -302 78
c-68 56 -99 150 -99 291s31 233 100 286c69 55 160 73 301 73zM452 867c48 0 62 -9 62 -56c0 -51 -14 -61 -62 -61c-49 0 -62 10 -62 61c0 47 13 56 62 56z" />
    <glyph glyph-name="cdotaccent" unicode="&#x10b;" horiz-adv-x="567" 
d="M528 114l20 -104c-49 -16 -109 -24 -178 -24c-101 0 -177 20 -229 61c-51 41 -77 111 -77 210s26 168 77 207c52 40 128 60 229 60c67 0 127 -7 178 -21l-21 -106c-41 13 -89 19 -146 19c-71 0 -119 -10 -145 -30c-25 -20 -38 -64 -38 -131c0 -65 13 -109 39 -130
c27 -21 75 -31 144 -31c55 0 104 7 147 20zM360 681c48 0 62 -8 62 -55c0 -51 -14 -62 -62 -62c-49 0 -63 11 -63 62c0 47 14 55 63 55z" />
    <glyph glyph-name="Ccaron" unicode="&#x10c;" horiz-adv-x="722" 
d="M467 714c85 0 163 -8 235 -24l-21 -119c-49 14 -110 21 -185 21c-38 0 -69 -1 -93 -3c-48 -3 -99 -15 -124 -36c-42 -34 -61 -91 -61 -199s15 -168 62 -203c48 -35 104 -42 216 -42c73 0 134 7 185 20l21 -121c-70 -15 -148 -22 -235 -22c-140 0 -233 22 -302 78
c-68 56 -99 150 -99 291s31 233 100 286c69 55 160 73 301 73zM348 876l101 -85l98 85h119l-149 -129h-138l-155 129h124z" />
    <glyph glyph-name="ccaron" unicode="&#x10d;" horiz-adv-x="567" 
d="M528 114l20 -104c-49 -16 -109 -24 -178 -24c-101 0 -177 20 -229 61c-51 41 -77 111 -77 210s26 168 77 207c52 40 128 60 229 60c67 0 127 -7 178 -21l-21 -106c-41 13 -89 19 -146 19c-71 0 -119 -10 -145 -30c-25 -20 -38 -64 -38 -131c0 -65 13 -109 39 -130
c27 -21 75 -31 144 -31c55 0 104 7 147 20zM133 697h127l99 -83l95 83h122l-150 -129h-138z" />
    <glyph glyph-name="Dcaron" unicode="&#x10e;" horiz-adv-x="905" 
d="M321 876l101 -85l98 85h119l-149 -129h-138l-155 129h124zM111 0v697h323c141 0 234 -19 303 -71c71 -52 102 -140 102 -275c0 -131 -32 -222 -96 -274c-64 -51 -167 -77 -309 -77h-323zM687 350c0 84 -11 135 -34 170c-11 18 -27 31 -50 40c-45 17 -94 23 -185 23h-167
v-469h167c111 0 169 9 213 44c44 36 56 91 56 192z" />
    <glyph glyph-name="dcaron" unicode="&#x10f;" horiz-adv-x="716" 
d="M331 524c61 0 117 -12 168 -37v235h131v-702c-73 -23 -163 -34 -269 -34c-105 0 -181 19 -228 58c-46 39 -69 110 -69 211c0 99 22 168 66 208c44 41 111 61 201 61zM361 90c50 0 96 5 138 15v263c0 29 -60 49 -140 49c-65 0 -108 -11 -129 -33s-32 -65 -32 -129
c0 -69 10 -113 31 -134s65 -31 132 -31zM687 530l25 192h115l-73 -192h-67z" />
    <glyph glyph-name="Dcroat" unicode="&#x110;" horiz-adv-x="905" 
d="M111 311h-67v92h67v294h323c141 0 234 -19 303 -71c71 -52 102 -140 102 -275c0 -131 -32 -222 -96 -274c-64 -51 -167 -77 -309 -77h-323v311zM687 350c0 104 -12 160 -57 193c-22 17 -49 27 -80 32s-75 7 -132 7h-167v-179h201v-92h-201v-197h167c111 0 169 9 213 44
c44 36 56 91 56 192z" />
    <glyph glyph-name="dslash" unicode="&#x111;" horiz-adv-x="716" 
d="M331 524c61 0 117 -12 168 -37v90h-113v89h113v56h131v-56h61v-89h-61v-557c-73 -23 -163 -34 -269 -34c-105 0 -181 19 -228 58c-46 39 -69 110 -69 211c0 99 22 168 66 208c44 41 111 61 201 61zM361 90c50 0 96 5 138 15v263c0 29 -60 49 -140 49
c-65 0 -108 -11 -129 -33s-32 -65 -32 -129c0 -69 10 -113 31 -134s65 -31 132 -31z" />
    <glyph glyph-name="Emacron" unicode="&#x112;" horiz-adv-x="758" 
d="M111 0v697h615v-114h-475v-161h339v-113h-339v-195h475v-114h-615zM581 753h-325v92h325v-92z" />
    <glyph glyph-name="emacron" unicode="&#x113;" horiz-adv-x="671" 
d="M350 524c100 0 160 -13 205 -54c47 -40 64 -110 64 -222v-26h-418c1 -53 14 -88 40 -105c27 -17 74 -26 141 -26c61 0 120 8 177 24l24 -104c-71 -17 -145 -25 -220 -25c-97 0 -171 20 -222 61s-77 111 -77 210c0 195 97 267 286 267zM522 576h-325v90h325v-90zM351 426
c-53 0 -90 -8 -111 -23s-33 -44 -37 -86h283c-2 44 -12 73 -31 87c-19 15 -53 22 -104 22z" />
    <glyph glyph-name="Ebreve" unicode="&#x114;" horiz-adv-x="758" 
d="M111 0v697h615v-114h-475v-161h339v-113h-339v-195h475v-114h-615zM254 871h81c0 -45 29 -58 98 -58c68 0 97 13 97 58h75c0 -92 -59 -132 -176 -132s-175 44 -175 132z" />
    <glyph glyph-name="ebreve" unicode="&#x115;" horiz-adv-x="671" 
d="M350 524c100 0 160 -13 205 -54c47 -40 64 -110 64 -222v-26h-418c1 -53 14 -88 40 -105c27 -17 74 -26 141 -26c61 0 120 8 177 24l24 -104c-71 -17 -145 -25 -220 -25c-97 0 -171 20 -222 61s-77 111 -77 210c0 195 97 267 286 267zM181 697h80c0 -45 30 -58 99 -58
c68 0 97 13 97 58h75c0 -91 -59 -137 -176 -137s-175 46 -175 137zM351 426c-53 0 -90 -8 -111 -23s-33 -44 -37 -86h283c-2 44 -12 73 -31 87c-19 15 -53 22 -104 22z" />
    <glyph glyph-name="Edotaccent" unicode="&#x116;" horiz-adv-x="758" 
d="M111 0v697h615v-114h-475v-161h339v-113h-339v-195h475v-114h-615zM445 867c48 0 62 -9 62 -56c0 -51 -14 -61 -62 -61c-49 0 -62 10 -62 61c0 47 13 56 62 56z" />
    <glyph glyph-name="edotaccent" unicode="&#x117;" horiz-adv-x="671" 
d="M350 524c100 0 160 -13 205 -54c47 -40 64 -110 64 -222v-26h-418c1 -53 14 -88 40 -105c27 -17 74 -26 141 -26c61 0 120 8 177 24l24 -104c-71 -17 -145 -25 -220 -25c-97 0 -171 20 -222 61s-77 111 -77 210c0 195 97 267 286 267zM351 426c-53 0 -90 -8 -111 -23
s-33 -44 -37 -86h283c-2 44 -12 73 -31 87c-19 15 -53 22 -104 22zM360 681c48 0 62 -8 62 -55c0 -51 -14 -62 -62 -62c-49 0 -63 11 -63 62c0 47 14 55 63 55z" />
    <glyph glyph-name="Eogonek" unicode="&#x118;" horiz-adv-x="758" 
d="M111 0v697h615v-114h-475v-161h339v-113h-339v-195h475v-114h-79c-59 -31 -77 -52 -77 -87c0 -29 17 -39 77 -39c51 0 90 8 117 23l24 -71c-35 -19 -87 -29 -156 -29c-117 0 -155 25 -155 89c0 51 35 89 104 114h-470z" />
    <glyph glyph-name="eogonek" unicode="&#x119;" horiz-adv-x="671" 
d="M350 524c100 0 160 -13 205 -54c47 -40 64 -110 64 -222v-26h-418c1 -53 14 -88 40 -105c27 -17 74 -26 141 -26c61 0 120 8 177 24l24 -104c-19 -5 -52 -10 -99 -17c-51 -28 -67 -49 -67 -81c0 -29 17 -39 77 -39c51 0 90 8 117 23l24 -71c-35 -19 -87 -29 -156 -29
c-117 0 -155 25 -155 89c0 42 24 76 73 101c-8 -1 -19 -1 -34 -1c-97 0 -171 20 -222 61s-77 111 -77 210c0 195 97 267 286 267zM351 426c-53 0 -90 -8 -111 -23s-33 -44 -37 -86h283c-2 44 -12 73 -31 87c-19 15 -53 22 -104 22z" />
    <glyph glyph-name="Ecaron" unicode="&#x11a;" horiz-adv-x="758" 
d="M332 876l101 -85l98 85h119l-149 -129h-138l-155 129h124zM111 0v697h615v-114h-475v-161h339v-113h-339v-195h475v-114h-615z" />
    <glyph glyph-name="ecaron" unicode="&#x11b;" horiz-adv-x="671" 
d="M350 524c100 0 160 -13 205 -54c47 -40 64 -110 64 -222v-26h-418c1 -53 14 -88 40 -105c27 -17 74 -26 141 -26c61 0 120 8 177 24l24 -104c-71 -17 -145 -25 -220 -25c-97 0 -171 20 -222 61s-77 111 -77 210c0 195 97 267 286 267zM132 697h127l99 -83l95 83h122
l-150 -129h-138zM351 426c-53 0 -90 -8 -111 -23s-33 -44 -37 -86h283c-2 44 -12 73 -31 87c-19 15 -53 22 -104 22z" />
    <glyph glyph-name="Gcircumflex" unicode="&#x11c;" horiz-adv-x="859" 
d="M625 116v180h-194v111h338v-394c-75 -18 -176 -27 -302 -27c-140 0 -233 22 -302 78c-68 56 -99 150 -99 291s34 234 109 287s169 72 316 72c103 0 189 -7 257 -21l-21 -121c-19 5 -54 9 -103 14s-88 8 -119 8c-39 0 -72 -1 -97 -3c-51 -4 -101 -16 -128 -37
c-43 -34 -62 -92 -62 -200s15 -168 62 -204c48 -36 105 -44 216 -44c46 0 89 3 129 10zM569 747l-102 83l-96 -83h-120l150 129h137l155 -129h-124z" />
    <glyph glyph-name="gcircumflex" unicode="&#x11d;" horiz-adv-x="716" 
d="M630 489v-450c0 -96 -31 -162 -94 -195c-61 -35 -133 -47 -238 -47c-81 0 -153 9 -216 27l21 102c53 -16 118 -24 193 -24c137 0 203 30 203 119v10c-45 -29 -104 -43 -177 -43c-89 0 -155 19 -196 58s-62 108 -62 207c0 101 23 172 69 211c47 40 123 60 228 60
c107 0 197 -12 269 -35zM361 419c-68 0 -112 -10 -133 -29c-20 -19 -30 -65 -30 -136c0 -64 10 -107 31 -128s64 -31 129 -31c80 0 141 19 141 48v259c-47 11 -93 17 -138 17zM590 568h-127l-99 81l-95 -81h-122l150 129h138z" />
    <glyph glyph-name="Gbreve" unicode="&#x11e;" horiz-adv-x="859" 
d="M625 116v180h-194v111h338v-394c-75 -18 -176 -27 -302 -27c-140 0 -233 22 -302 78c-68 56 -99 150 -99 291s34 234 109 287s169 72 316 72c103 0 189 -7 257 -21l-21 -121c-19 5 -54 9 -103 14s-88 8 -119 8c-39 0 -72 -1 -97 -3c-51 -4 -101 -16 -128 -37
c-43 -34 -62 -92 -62 -200s15 -168 62 -204c48 -36 105 -44 216 -44c46 0 89 3 129 10zM292 871h81c0 -45 29 -58 98 -58c68 0 97 13 97 58h75c0 -92 -59 -132 -176 -132s-175 44 -175 132z" />
    <glyph glyph-name="gbreve" unicode="&#x11f;" horiz-adv-x="716" 
d="M630 489v-450c0 -96 -31 -162 -94 -195c-61 -35 -133 -47 -238 -47c-81 0 -153 9 -216 27l21 102c53 -16 118 -24 193 -24c137 0 203 30 203 119v10c-45 -29 -104 -43 -177 -43c-89 0 -155 19 -196 58s-62 108 -62 207c0 101 23 172 69 211c47 40 123 60 228 60
c107 0 197 -12 269 -35zM361 419c-68 0 -112 -10 -133 -29c-20 -19 -30 -65 -30 -136c0 -64 10 -107 31 -128s64 -31 129 -31c80 0 141 19 141 48v259c-47 11 -93 17 -138 17zM190 697h80c0 -45 30 -58 99 -58c68 0 97 13 97 58h75c0 -91 -59 -137 -176 -137
s-175 46 -175 137z" />
    <glyph glyph-name="Gdotaccent" unicode="&#x120;" horiz-adv-x="859" 
d="M625 116v180h-194v111h338v-394c-75 -18 -176 -27 -302 -27c-140 0 -233 22 -302 78c-68 56 -99 150 -99 291s34 234 109 287s169 72 316 72c103 0 189 -7 257 -21l-21 -121c-19 5 -54 9 -103 14s-88 8 -119 8c-39 0 -72 -1 -97 -3c-51 -4 -101 -16 -128 -37
c-43 -34 -62 -92 -62 -200s15 -168 62 -204c48 -36 105 -44 216 -44c46 0 89 3 129 10zM488 867c48 0 62 -9 62 -56c0 -51 -14 -61 -62 -61c-49 0 -62 10 -62 61c0 47 13 56 62 56z" />
    <glyph glyph-name="gdotaccent" unicode="&#x121;" horiz-adv-x="716" 
d="M630 489v-450c0 -96 -31 -162 -94 -195c-61 -35 -133 -47 -238 -47c-81 0 -153 9 -216 27l21 102c53 -16 118 -24 193 -24c137 0 203 30 203 119v10c-45 -29 -104 -43 -177 -43c-89 0 -155 19 -196 58s-62 108 -62 207c0 101 23 172 69 211c47 40 123 60 228 60
c107 0 197 -12 269 -35zM361 419c-68 0 -112 -10 -133 -29c-20 -19 -30 -65 -30 -136c0 -64 10 -107 31 -128s64 -31 129 -31c80 0 141 19 141 48v259c-47 11 -93 17 -138 17zM359 681c48 0 62 -8 62 -55c0 -51 -14 -62 -62 -62c-49 0 -63 11 -63 62c0 47 14 55 63 55z" />
    <glyph glyph-name="Gcommaaccent" unicode="&#x122;" horiz-adv-x="859" 
d="M625 116v180h-194v111h338v-394c-75 -18 -176 -27 -302 -27c-140 0 -233 22 -302 78c-68 56 -99 150 -99 291s34 234 109 287s169 72 316 72c103 0 189 -7 257 -21l-21 -121c-19 5 -54 9 -103 14s-88 8 -119 8c-39 0 -72 -1 -97 -3c-51 -4 -101 -16 -128 -37
c-43 -34 -62 -92 -62 -200s15 -168 62 -204c48 -36 105 -44 216 -44c46 0 89 3 129 10zM403 -51h147l-86 -167h-102z" />
    <glyph glyph-name="gcommaaccent" unicode="&#x123;" horiz-adv-x="716" 
d="M421 584h-147l86 167h102zM630 489v-450c0 -96 -31 -162 -94 -195c-61 -35 -133 -47 -238 -47c-81 0 -153 9 -216 27l21 102c53 -16 118 -24 193 -24c137 0 203 30 203 119v10c-45 -29 -104 -43 -177 -43c-89 0 -155 19 -196 58s-62 108 -62 207c0 101 23 172 69 211
c47 40 123 60 228 60c107 0 197 -12 269 -35zM361 419c-68 0 -112 -10 -133 -29c-20 -19 -30 -65 -30 -136c0 -64 10 -107 31 -128s64 -31 129 -31c80 0 141 19 141 48v259c-47 11 -93 17 -138 17z" />
    <glyph glyph-name="Hcircumflex" unicode="&#x124;" horiz-adv-x="905" 
d="M549 747l-102 83l-96 -83h-120l150 129h137l155 -129h-124zM656 309h-405v-309h-140v697h140v-266h405v266h139v-697h-139v309z" />
    <glyph glyph-name="hcircumflex" unicode="&#x125;" 
d="M408 524c76 0 123 -11 163 -44s57 -94 57 -187v-293h-130v283c0 53 -9 88 -28 104c-18 17 -53 25 -106 25c-85 0 -147 -23 -147 -55v-357h-130v722h130v-240c52 28 116 42 191 42zM342 747l-102 83l-96 -83h-120l150 129h137l155 -129h-124z" />
    <glyph glyph-name="Hbar" unicode="&#x126;" horiz-adv-x="905" 
d="M111 524h-76v98h76v75h140v-75h405v75h139v-75h76v-98h-76v-524h-139v309h-405v-309h-140v524zM251 431h405v93h-405v-93z" />
    <glyph glyph-name="hbar" unicode="&#x127;" 
d="M408 524c76 0 123 -11 163 -44s57 -94 57 -187v-293h-130v258c0 65 -9 106 -26 125s-53 29 -108 29c-84 0 -147 -22 -147 -55v-357h-130v581h-66v87h66v54h130v-54h130v-87h-130v-99c52 28 116 42 191 42z" />
    <glyph glyph-name="Itilde" unicode="&#x128;" horiz-adv-x="361" 
d="M349 869l57 -37c-27 -57 -78 -96 -142 -96c-21 0 -52 10 -91 29c-39 20 -69 30 -92 30c-33 0 -57 -15 -72 -44l-53 42c40 54 82 81 126 81c23 0 54 -9 95 -28s72 -28 94 -28c36 0 62 17 78 51zM111 0v697h140v-697h-140z" />
    <glyph glyph-name="itilde" unicode="&#x129;" horiz-adv-x="303" 
d="M318 692l55 -38c-29 -63 -74 -95 -135 -95c-23 0 -55 10 -94 29s-70 29 -92 29c-33 0 -57 -15 -72 -45l-50 43c39 55 73 82 125 82c25 0 57 -10 96 -29c40 -19 71 -29 92 -29c39 0 58 14 75 53zM87 509h130v-509h-130v509z" />
    <glyph glyph-name="Imacron" unicode="&#x12a;" horiz-adv-x="361" 
d="M111 0v697h140v-697h-140zM344 753h-325v92h325v-92z" />
    <glyph glyph-name="imacron" unicode="&#x12b;" horiz-adv-x="303" 
d="M87 509h130v-509h-130v509zM314 576h-325v90h325v-90z" />
    <glyph glyph-name="Ibreve" unicode="&#x12c;" horiz-adv-x="361" 
d="M7 871h81c0 -45 29 -58 98 -58c68 0 97 13 97 58h75c0 -92 -59 -132 -176 -132s-175 44 -175 132zM111 0v697h140v-697h-140z" />
    <glyph glyph-name="ibreve" unicode="&#x12d;" horiz-adv-x="303" 
d="M-23 697h80c0 -45 30 -58 99 -58c68 0 97 13 97 58h75c0 -91 -59 -137 -176 -137s-175 46 -175 137zM87 509h130v-509h-130v509z" />
    <glyph glyph-name="Iogonek" unicode="&#x12e;" horiz-adv-x="361" 
d="M111 0v697h140v-697h-52c-59 -31 -77 -52 -77 -87c0 -29 17 -39 77 -39c51 0 90 8 117 23l24 -71c-35 -19 -87 -29 -156 -29c-117 0 -155 25 -155 89c0 51 35 89 104 114h-22z" />
    <glyph glyph-name="iogonek" unicode="&#x12f;" horiz-adv-x="303" 
d="M87 509h130v-509h-37c-59 -31 -77 -52 -77 -87c0 -29 17 -39 77 -39c51 0 90 8 117 23l24 -71c-35 -19 -87 -29 -156 -29c-117 0 -155 25 -155 89c0 51 35 89 104 114h-27v509zM153 721c60 0 77 -10 77 -61c0 -57 -17 -69 -77 -69c-61 0 -79 12 -79 69c0 51 18 61 79 61z
" />
    <glyph glyph-name="Idot" unicode="&#x130;" horiz-adv-x="361" 
d="M181 867c48 0 62 -9 62 -56c0 -51 -14 -61 -62 -61c-49 0 -62 10 -62 61c0 47 13 56 62 56zM111 0v697h140v-697h-140z" />
    <glyph glyph-name="dotlessi" unicode="&#x131;" horiz-adv-x="303" 
d="M87 509h130v-509h-130v509z" />
    <glyph glyph-name="IJ" unicode="&#x132;" horiz-adv-x="945" 
d="M111 0v697h140v-697h-140zM696 697h142l1 -505c0 -137 -85 -206 -256 -206c-69 0 -131 8 -186 25l28 118c37 -13 84 -19 142 -19c86 0 129 33 129 99v488z" />
    <glyph glyph-name="ij" unicode="&#x133;" horiz-adv-x="635" 
d="M153 721c60 0 77 -10 77 -61c0 -57 -17 -69 -77 -69c-61 0 -79 12 -79 69c0 51 18 61 79 61zM87 509h130v-509h-130v509zM294 -202v103c3 0 13 -1 16 -1c77 0 109 20 109 87v522h130v-519c0 -75 -19 -125 -56 -152s-104 -40 -199 -40zM485 721c60 0 77 -10 77 -61
c0 -57 -17 -69 -77 -69c-61 0 -78 12 -78 69c0 51 17 61 78 61z" />
    <glyph glyph-name="Jcircumflex" unicode="&#x134;" horiz-adv-x="556" 
d="M472 747l-102 83l-96 -83h-120l150 129h137l155 -129h-124zM306 697h142l1 -505c0 -137 -85 -206 -255 -206c-69 0 -132 8 -187 25l29 118c36 -13 83 -19 141 -19c86 0 129 33 129 99v488z" />
    <glyph glyph-name="jcircumflex" unicode="&#x135;" horiz-adv-x="303" 
d="M-38 -202v103c3 0 12 -1 16 -1c75 0 109 22 109 87v522h130v-519c0 -75 -19 -125 -56 -152s-103 -40 -199 -40zM376 568h-127l-99 81l-95 -81h-122l150 129h138z" />
    <glyph glyph-name="Kcommaaccent" unicode="&#x136;" horiz-adv-x="811" 
d="M111 697h140v-697h-140v697zM829 0h-182c-83 106 -160 191 -232 256c-71 65 -124 102 -157 111c37 20 89 60 157 119s137 130 207 211h180c-76 -83 -146 -154 -209 -212c-63 -57 -108 -93 -135 -108c29 -14 78 -54 147 -121c69 -66 143 -151 224 -256zM333 -51h147
l-86 -167h-102z" />
    <glyph glyph-name="kcommaaccent" unicode="&#x137;" horiz-adv-x="670" 
d="M87 722h130v-722h-130v722zM681 0h-174c-69 79 -130 143 -181 190c-51 48 -86 74 -104 79c22 12 57 39 105 82c49 43 102 95 161 158h173c-54 -57 -105 -107 -154 -148c-48 -41 -84 -68 -109 -83c21 -10 58 -40 111 -90c53 -49 110 -112 172 -188zM265 -51h147l-86 -167
h-102z" />
    <glyph glyph-name="Lacute" unicode="&#x139;" horiz-adv-x="669" 
d="M111 0v697h140v-582h418v-115h-558zM241 747h-122l164 129h158z" />
    <glyph glyph-name="lacute" unicode="&#x13a;" horiz-adv-x="311" 
d="M87 722h130v-579c0 -45 18 -85 54 -121l-125 -42c-39 34 -59 87 -59 158v584zM184 747h-122l164 129h158z" />
    <glyph glyph-name="Lcommaaccent" unicode="&#x13b;" horiz-adv-x="669" 
d="M111 0v697h140v-582h418v-115h-558zM304 -51h147l-86 -167h-102z" />
    <glyph glyph-name="lcommaaccent" unicode="&#x13c;" horiz-adv-x="311" 
d="M87 722h130v-579c0 -45 18 -85 54 -121l-125 -42c-39 34 -59 87 -59 158v584zM109 -51h147l-86 -167h-102z" />
    <glyph glyph-name="Lcaron" unicode="&#x13d;" horiz-adv-x="669" 
d="M111 0v697h140v-582h418v-115h-558zM343 530l25 192h115l-73 -192h-67z" />
    <glyph glyph-name="lcaron" unicode="&#x13e;" horiz-adv-x="311" 
d="M87 722h130v-579c0 -45 18 -85 54 -121l-125 -42c-39 34 -59 87 -59 158v584zM266 530l25 192h115l-73 -192h-67z" />
    <glyph glyph-name="Ldot" unicode="&#x13f;" horiz-adv-x="669" 
d="M111 0v697h140v-582h418v-115h-558zM487 407c0 -51 -13 -61 -62 -61s-62 10 -62 61c0 47 13 56 62 56s62 -9 62 -56z" />
    <glyph glyph-name="ldot" unicode="&#x140;" horiz-adv-x="311" 
d="M334 460c48 0 62 -8 62 -55c0 -51 -14 -62 -62 -62c-49 0 -63 11 -63 62c0 47 14 55 63 55zM87 722h130v-579c0 -45 18 -85 54 -121l-125 -42c-39 34 -59 87 -59 158v584z" />
    <glyph glyph-name="Lslash" unicode="&#x141;" horiz-adv-x="669" 
d="M251 405l199 138v-114l-199 -132v-182h418v-115h-558v205l-86 -61v114l86 57v382h140v-292z" />
    <glyph glyph-name="lslash" unicode="&#x142;" horiz-adv-x="311" 
d="M87 722h130v-248l88 76v-109l-88 -75v-223c0 -45 18 -85 54 -121l-125 -42c-23 19 -38 42 -47 67c-8 26 -12 65 -12 117v92l-82 -69v108l82 69v358z" />
    <glyph glyph-name="Nacute" unicode="&#x143;" horiz-adv-x="953" 
d="M248 549v-549h-137v697h194c133 -161 266 -336 397 -525v525h140v-697h-183c-124 186 -261 369 -411 549zM494 747h-122l164 129h158z" />
    <glyph glyph-name="nacute" unicode="&#x144;" 
d="M217 397v-397h-130v483c91 27 188 41 292 41c89 0 152 -18 191 -53s58 -98 58 -187v-284h-130v271c0 58 -9 96 -28 113s-60 26 -124 26c-42 0 -85 -4 -129 -13zM536 697l-184 -129h-122l154 129h152z" />
    <glyph glyph-name="Ncommaaccent" unicode="&#x145;" horiz-adv-x="953" 
d="M248 549v-549h-137v697h194c133 -161 266 -336 397 -525v525h140v-697h-183c-124 186 -261 369 -411 549zM387 -51h147l-86 -167h-102z" />
    <glyph glyph-name="ncommaaccent" unicode="&#x146;" 
d="M217 397v-397h-130v483c91 27 188 41 292 41c89 0 152 -18 191 -53s58 -98 58 -187v-284h-130v271c0 58 -9 96 -28 113s-60 26 -124 26c-42 0 -85 -4 -129 -13zM264 -51h147l-86 -167h-102z" />
    <glyph glyph-name="Ncaron" unicode="&#x147;" horiz-adv-x="953" 
d="M393 876l101 -85l98 85h119l-149 -129h-138l-155 129h124zM248 549v-549h-137v697h194c133 -161 266 -336 397 -525v525h140v-697h-183c-124 186 -261 369 -411 549z" />
    <glyph glyph-name="ncaron" unicode="&#x148;" 
d="M217 397v-397h-130v483c91 27 188 41 292 41c89 0 152 -18 191 -53s58 -98 58 -187v-284h-130v271c0 58 -9 96 -28 113s-60 26 -124 26c-42 0 -85 -4 -129 -13zM131 697h127l99 -83l95 83h122l-150 -129h-138z" />
    <glyph glyph-name="napostrophe" unicode="&#x149;" 
d="M217 397v-397h-130v483c91 27 188 41 292 41c89 0 152 -18 191 -53s58 -98 58 -187v-284h-130v271c0 58 -9 96 -28 113s-60 26 -124 26c-42 0 -85 -4 -129 -13zM114 714h147l-86 -167h-102z" />
    <glyph glyph-name="Omacron" unicode="&#x14c;" horiz-adv-x="948" 
d="M474 714c141 0 233 -20 304 -73c72 -53 103 -146 103 -286c0 -143 -31 -237 -102 -293c-71 -55 -164 -76 -305 -76s-234 21 -305 76c-71 56 -103 150 -103 293c0 140 31 233 102 286c72 53 163 73 306 73zM474 105c87 0 137 7 178 26c63 34 75 95 78 222
c0 108 -9 164 -52 199c-21 18 -46 30 -76 35s-73 8 -128 8c-88 0 -135 -5 -178 -24c-63 -31 -75 -90 -78 -218c0 -210 50 -248 256 -248zM637 753h-325v92h325v-92z" />
    <glyph glyph-name="omacron" unicode="&#x14d;" horiz-adv-x="717" 
d="M358 -14c-103 0 -177 20 -224 59c-47 40 -70 111 -70 212c0 100 23 169 70 208s121 59 224 59s177 -20 224 -59s71 -108 71 -208c0 -101 -23 -172 -70 -212c-47 -39 -122 -59 -225 -59zM358 424c-67 0 -99 -5 -126 -30c-27 -24 -34 -64 -34 -139c0 -69 11 -115 32 -137
c22 -21 65 -32 128 -32s106 11 127 32c21 22 32 68 32 137c0 71 -11 117 -32 138s-63 31 -127 31zM521 576h-325v90h325v-90z" />
    <glyph glyph-name="Obreve" unicode="&#x14e;" horiz-adv-x="948" 
d="M474 714c141 0 233 -20 304 -73c72 -53 103 -146 103 -286c0 -143 -31 -237 -102 -293c-71 -55 -164 -76 -305 -76s-234 21 -305 76c-71 56 -103 150 -103 293c0 140 31 233 102 286c72 53 163 73 306 73zM474 105c87 0 137 7 178 26c63 34 75 95 78 222
c0 108 -9 164 -52 199c-21 18 -46 30 -76 35s-73 8 -128 8c-88 0 -135 -5 -178 -24c-63 -31 -75 -90 -78 -218c0 -210 50 -248 256 -248zM299 871h81c0 -45 29 -58 98 -58c68 0 97 13 97 58h75c0 -92 -59 -132 -176 -132s-175 44 -175 132z" />
    <glyph glyph-name="obreve" unicode="&#x14f;" horiz-adv-x="717" 
d="M358 -14c-103 0 -177 20 -224 59c-47 40 -70 111 -70 212c0 100 23 169 70 208s121 59 224 59s177 -20 224 -59s71 -108 71 -208c0 -101 -23 -172 -70 -212c-47 -39 -122 -59 -225 -59zM358 424c-67 0 -99 -5 -126 -30c-27 -24 -34 -64 -34 -139c0 -69 11 -115 32 -137
c22 -21 65 -32 128 -32s106 11 127 32c21 22 32 68 32 137c0 71 -11 117 -32 138s-63 31 -127 31zM182 697h80c0 -45 30 -58 99 -58c68 0 97 13 97 58h75c0 -91 -59 -137 -176 -137s-175 46 -175 137z" />
    <glyph glyph-name="Ohungarumlaut" unicode="&#x150;" horiz-adv-x="948" 
d="M474 714c141 0 233 -20 304 -73c72 -53 103 -146 103 -286c0 -143 -31 -237 -102 -293c-71 -55 -164 -76 -305 -76s-234 21 -305 76c-71 56 -103 150 -103 293c0 140 31 233 102 286c72 53 163 73 306 73zM474 105c87 0 137 7 178 26c63 34 75 95 78 222
c0 108 -9 164 -52 199c-21 18 -46 30 -76 35s-73 8 -128 8c-88 0 -135 -5 -178 -24c-63 -31 -75 -90 -78 -218c0 -210 50 -248 256 -248zM285 747l115 129h120l-146 -129h-89zM494 747l115 129h120l-145 -129h-90z" />
    <glyph glyph-name="ohungarumlaut" unicode="&#x151;" horiz-adv-x="717" 
d="M358 -14c-103 0 -177 20 -224 59c-47 40 -70 111 -70 212c0 100 23 169 70 208s121 59 224 59s177 -20 224 -59s71 -108 71 -208c0 -101 -23 -172 -70 -212c-47 -39 -122 -59 -225 -59zM358 424c-67 0 -99 -5 -126 -30c-27 -24 -34 -64 -34 -139c0 -69 11 -115 32 -137
c22 -21 65 -32 128 -32s106 11 127 32c21 22 32 68 32 137c0 71 -11 117 -32 138s-63 31 -127 31zM167 568l115 129h120l-146 -129h-89zM376 568l115 129h120l-145 -129h-90z" />
    <glyph glyph-name="OE" unicode="&#x152;" horiz-adv-x="1365" 
d="M658 697h675v-114h-510c29 -33 48 -87 55 -161h261v-112h-260c-3 -90 -23 -155 -61 -196h515v-114h-692c-46 -9 -102 -14 -167 -14c-141 0 -234 21 -305 76c-71 56 -103 150 -103 293c0 140 31 233 102 286c36 27 78 45 126 56c49 11 109 17 180 17s133 -6 184 -17z
M474 105c87 0 137 7 178 26c63 34 75 95 78 222c0 108 -9 164 -52 199c-21 18 -46 30 -76 35s-73 8 -128 8c-88 0 -135 -5 -178 -24c-63 -31 -75 -90 -78 -218c0 -210 50 -248 256 -248z" />
    <glyph glyph-name="oe" unicode="&#x153;" horiz-adv-x="1115" 
d="M794 524c97 0 156 -12 203 -52c47 -39 66 -106 66 -214c0 -15 0 -27 -1 -36h-418c1 -99 49 -130 180 -130c69 0 129 8 179 23l23 -104c-70 -17 -143 -25 -219 -25c-107 0 -182 26 -224 79c-37 -53 -112 -79 -225 -79c-103 0 -177 20 -224 59c-47 40 -70 111 -70 212
c0 100 23 169 70 208s121 59 224 59c111 0 186 -25 223 -76c39 51 110 76 213 76zM358 424c-67 0 -99 -6 -126 -31c-27 -24 -34 -63 -34 -138c0 -69 11 -115 32 -137c22 -21 65 -32 128 -32s106 11 127 32c21 22 32 68 32 137c0 71 -11 117 -32 138s-63 31 -127 31zM795 426
c-53 0 -90 -8 -111 -23s-33 -44 -38 -86h284c-3 44 -13 73 -32 87c-19 15 -53 22 -103 22z" />
    <glyph glyph-name="Racute" unicode="&#x154;" horiz-adv-x="867" 
d="M111 0v697h447c85 0 145 -18 180 -54s53 -86 53 -149c0 -124 -75 -188 -224 -191c27 -8 61 -34 103 -79c43 -45 105 -119 187 -224h-186c-73 98 -131 167 -173 206c-41 40 -78 60 -110 60h-137v-266h-140zM518 585h-267v-210h236c96 0 144 19 144 102
c0 76 -36 108 -113 108zM415 747h-122l164 129h158z" />
    <glyph glyph-name="racute" unicode="&#x155;" horiz-adv-x="451" 
d="M400 524c16 0 33 -1 52 -2v-119c-19 3 -42 4 -69 4c-80 0 -149 -16 -161 -44c-3 -11 -5 -26 -5 -44v-319h-130v509h130v-53c37 45 98 68 183 68zM480 697l-184 -129h-122l154 129h152z" />
    <glyph glyph-name="Rcommaaccent" unicode="&#x156;" horiz-adv-x="867" 
d="M111 0v697h447c85 0 145 -18 180 -54s53 -86 53 -149c0 -124 -75 -188 -224 -191c27 -8 61 -34 103 -79c43 -45 105 -119 187 -224h-186c-73 98 -131 167 -173 206c-41 40 -78 60 -110 60h-137v-266h-140zM518 585h-267v-210h236c96 0 144 19 144 102
c0 76 -36 108 -113 108zM357 -51h147l-86 -167h-102z" />
    <glyph glyph-name="rcommaaccent" unicode="&#x157;" horiz-adv-x="451" 
d="M400 524c16 0 33 -1 52 -2v-119c-19 3 -42 4 -69 4c-80 0 -149 -16 -161 -44c-3 -11 -5 -26 -5 -44v-319h-130v509h130v-53c37 45 98 68 183 68zM101 -51h147l-86 -167h-102z" />
    <glyph glyph-name="Rcaron" unicode="&#x158;" horiz-adv-x="867" 
d="M111 0v697h447c85 0 145 -18 180 -54s53 -86 53 -149c0 -124 -75 -188 -224 -191c27 -8 61 -34 103 -79c43 -45 105 -119 187 -224h-186c-73 98 -131 167 -173 206c-41 40 -78 60 -110 60h-137v-266h-140zM518 585h-267v-210h236c96 0 144 19 144 102
c0 76 -36 108 -113 108zM326 876l101 -85l98 85h119l-149 -129h-138l-155 129h124z" />
    <glyph glyph-name="rcaron" unicode="&#x159;" horiz-adv-x="451" 
d="M400 524c16 0 33 -1 52 -2v-119c-19 3 -42 4 -69 4c-80 0 -149 -16 -161 -44c-3 -11 -5 -26 -5 -44v-319h-130v509h130v-53c37 45 98 68 183 68zM56 697h127l99 -83l95 83h122l-150 -129h-138z" />
    <glyph glyph-name="Sacute" unicode="&#x15a;" horiz-adv-x="760" 
d="M679 687l-25 -120c-72 18 -149 27 -230 27s-137 -6 -168 -19c-30 -13 -45 -37 -45 -72c0 -29 13 -50 40 -62s82 -21 167 -27c199 -15 285 -77 285 -209c0 -81 -29 -137 -86 -170s-151 -49 -282 -49c-105 0 -192 9 -261 27l27 120c68 -18 145 -27 231 -27
c82 0 139 6 170 19c32 13 48 37 48 73c0 58 -29 80 -214 97c-188 13 -276 68 -276 192c0 161 116 227 365 227c103 0 187 -9 254 -27zM392 747h-122l164 129h158z" />
    <glyph glyph-name="sacute" unicode="&#x15b;" horiz-adv-x="593" 
d="M314 524c73 0 142 -7 207 -22l-21 -102c-54 15 -119 23 -194 23c-95 0 -122 -8 -122 -59c0 -18 9 -31 27 -39c19 -7 58 -13 117 -16c149 -9 214 -52 214 -153c0 -127 -82 -170 -259 -170c-86 0 -160 7 -221 22l21 101c44 -15 109 -22 195 -22c55 0 91 4 108 11
c18 8 27 25 27 51c0 19 -10 33 -30 41c-20 9 -61 15 -122 20c-136 9 -206 48 -206 145c0 127 83 169 259 169zM488 697l-184 -129h-122l154 129h152z" />
    <glyph glyph-name="Scircumflex" unicode="&#x15c;" horiz-adv-x="760" 
d="M679 687l-25 -120c-72 18 -149 27 -230 27s-137 -6 -168 -19c-30 -13 -45 -37 -45 -72c0 -29 13 -50 40 -62s82 -21 167 -27c199 -15 285 -77 285 -209c0 -81 -29 -137 -86 -170s-151 -49 -282 -49c-105 0 -192 9 -261 27l27 120c68 -18 145 -27 231 -27
c82 0 139 6 170 19c32 13 48 37 48 73c0 58 -29 80 -214 97c-188 13 -276 68 -276 192c0 161 116 227 365 227c103 0 187 -9 254 -27zM500 747l-102 83l-96 -83h-120l150 129h137l155 -129h-124z" />
    <glyph glyph-name="scircumflex" unicode="&#x15d;" horiz-adv-x="593" 
d="M314 524c73 0 142 -7 207 -22l-21 -102c-54 15 -119 23 -194 23c-95 0 -122 -8 -122 -59c0 -18 9 -31 27 -39c19 -7 58 -13 117 -16c149 -9 214 -52 214 -153c0 -127 -82 -170 -259 -170c-86 0 -160 7 -221 22l21 101c44 -15 109 -22 195 -22c55 0 91 4 108 11
c18 8 27 25 27 51c0 19 -10 33 -30 41c-20 9 -61 15 -122 20c-136 9 -206 48 -206 145c0 127 83 169 259 169zM526 568h-127l-99 81l-95 -81h-122l150 129h138z" />
    <glyph glyph-name="Scedilla" unicode="&#x15e;" horiz-adv-x="760" 
d="M679 687l-25 -120c-72 18 -149 27 -230 27s-137 -6 -168 -19c-30 -13 -45 -37 -45 -72c0 -29 13 -50 40 -62s82 -21 167 -27c199 -15 285 -77 285 -209c0 -148 -92 -209 -308 -218v-29c107 0 139 -18 139 -78c0 -61 -50 -83 -170 -83c-50 0 -88 5 -114 14l28 55
c25 -7 55 -11 90 -11c45 0 61 6 61 26c0 21 -16 28 -72 28c-15 0 -33 -1 -54 -2l38 79h-6c-105 0 -192 9 -261 27l27 120c68 -18 145 -27 231 -27c82 0 139 6 170 19c32 13 48 37 48 73c0 58 -29 80 -214 97c-188 13 -276 68 -276 192c0 161 116 227 365 227
c103 0 187 -9 254 -27z" />
    <glyph glyph-name="Scedilla" unicode="&#xf6c1;" horiz-adv-x="760" 
d="M679 687l-25 -120c-72 18 -149 27 -230 27s-137 -6 -168 -19c-30 -13 -45 -37 -45 -72c0 -29 13 -50 40 -62s82 -21 167 -27c199 -15 285 -77 285 -209c0 -148 -92 -209 -308 -218v-29c107 0 139 -18 139 -78c0 -61 -50 -83 -170 -83c-50 0 -88 5 -114 14l28 55
c25 -7 55 -11 90 -11c45 0 61 6 61 26c0 21 -16 28 -72 28c-15 0 -33 -1 -54 -2l38 79h-6c-105 0 -192 9 -261 27l27 120c68 -18 145 -27 231 -27c82 0 139 6 170 19c32 13 48 37 48 73c0 58 -29 80 -214 97c-188 13 -276 68 -276 192c0 161 116 227 365 227
c103 0 187 -9 254 -27z" />
    <glyph glyph-name="scedilla" unicode="&#x15f;" horiz-adv-x="593" 
d="M314 524c73 0 142 -7 207 -22l-21 -102c-54 15 -119 23 -194 23c-95 0 -122 -8 -122 -59c0 -18 9 -31 27 -39c19 -7 58 -13 117 -16c149 -9 214 -52 214 -153c0 -123 -77 -167 -241 -170v-28c107 0 139 -18 139 -78c0 -61 -50 -83 -170 -83c-50 0 -88 5 -114 14l28 55
c25 -7 55 -11 90 -11c45 0 61 6 61 26c0 21 -16 28 -72 28c-15 0 -33 -1 -54 -2l38 80c-73 3 -135 10 -185 21l21 101c44 -15 109 -22 195 -22c55 0 91 4 108 11c18 8 27 25 27 51c0 19 -10 33 -30 41c-20 9 -61 15 -122 20c-136 9 -206 48 -206 145c0 127 83 169 259 169z
" />
    <glyph glyph-name="scedilla" unicode="&#xf6c2;" horiz-adv-x="593" 
d="M314 524c73 0 142 -7 207 -22l-21 -102c-54 15 -119 23 -194 23c-95 0 -122 -8 -122 -59c0 -18 9 -31 27 -39c19 -7 58 -13 117 -16c149 -9 214 -52 214 -153c0 -123 -77 -167 -241 -170v-28c107 0 139 -18 139 -78c0 -61 -50 -83 -170 -83c-50 0 -88 5 -114 14l28 55
c25 -7 55 -11 90 -11c45 0 61 6 61 26c0 21 -16 28 -72 28c-15 0 -33 -1 -54 -2l38 80c-73 3 -135 10 -185 21l21 101c44 -15 109 -22 195 -22c55 0 91 4 108 11c18 8 27 25 27 51c0 19 -10 33 -30 41c-20 9 -61 15 -122 20c-136 9 -206 48 -206 145c0 127 83 169 259 169z
" />
    <glyph glyph-name="Scaron" unicode="&#x160;" horiz-adv-x="760" 
d="M679 687l-25 -120c-72 18 -149 27 -230 27s-137 -6 -168 -19c-30 -13 -45 -37 -45 -72c0 -29 13 -50 40 -62s82 -21 167 -27c199 -15 285 -77 285 -209c0 -81 -29 -137 -86 -170s-151 -49 -282 -49c-105 0 -192 9 -261 27l27 120c68 -18 145 -27 231 -27
c82 0 139 6 170 19c32 13 48 37 48 73c0 58 -29 80 -214 97c-188 13 -276 68 -276 192c0 161 116 227 365 227c103 0 187 -9 254 -27zM298 876l101 -85l98 85h119l-149 -129h-138l-155 129h124z" />
    <glyph glyph-name="scaron" unicode="&#x161;" horiz-adv-x="593" 
d="M314 524c73 0 142 -7 207 -22l-21 -102c-54 15 -119 23 -194 23c-95 0 -122 -8 -122 -59c0 -18 9 -31 27 -39c19 -7 58 -13 117 -16c149 -9 214 -52 214 -153c0 -127 -82 -170 -259 -170c-86 0 -160 7 -221 22l21 101c44 -15 109 -22 195 -22c55 0 91 4 108 11
c18 8 27 25 27 51c0 19 -10 33 -30 41c-20 9 -61 15 -122 20c-136 9 -206 48 -206 145c0 127 83 169 259 169zM82 697h127l99 -83l95 83h122l-150 -129h-138z" />
    <glyph glyph-name="Tcommaaccent" unicode="&#x162;" horiz-adv-x="743" 
d="M741 583h-298v-583h-142v583h-299v114h739v-114zM307 -51h147l-86 -167h-102z" />
    <glyph glyph-name="Tcommaaccent" unicode="&#x21a;" horiz-adv-x="743" 
d="M741 583h-298v-583h-142v583h-299v114h739v-114zM307 -51h147l-86 -167h-102z" />
    <glyph glyph-name="tcommaaccent" unicode="&#x163;" horiz-adv-x="497" 
d="M464 401h-215v-218c0 -35 7 -58 21 -71c15 -12 45 -18 91 -18c40 0 75 4 104 12l17 -102c-53 -12 -107 -18 -161 -18c-72 0 -124 13 -155 38c-31 26 -47 75 -47 147v230h-108v108h108v89l130 42v-131h215v-108zM199 -51h147l-86 -167h-102z" />
    <glyph glyph-name="tcommaaccent" unicode="&#x21b;" horiz-adv-x="497" 
d="M464 401h-215v-218c0 -35 7 -58 21 -71c15 -12 45 -18 91 -18c40 0 75 4 104 12l17 -102c-53 -12 -107 -18 -161 -18c-72 0 -124 13 -155 38c-31 26 -47 75 -47 147v230h-108v108h108v89l130 42v-131h215v-108zM199 -51h147l-86 -167h-102z" />
    <glyph glyph-name="Tcaron" unicode="&#x164;" horiz-adv-x="743" 
d="M276 876l101 -85l98 85h119l-149 -129h-138l-155 129h124zM741 583h-298v-583h-142v583h-299v114h739v-114z" />
    <glyph glyph-name="tcaron" unicode="&#x165;" horiz-adv-x="497" 
d="M464 401h-215v-218c0 -35 7 -58 21 -71c15 -12 45 -18 91 -18c40 0 75 4 104 12l17 -102c-53 -12 -107 -18 -161 -18c-72 0 -124 13 -155 38c-31 26 -47 75 -47 147v230h-108v108h108v89l130 42v-131h215v-108zM347 578l25 192h115l-73 -192h-67z" />
    <glyph glyph-name="Tbar" unicode="&#x166;" horiz-adv-x="743" 
d="M301 237h-97v90h97v256h-299v114h739v-114h-298v-256h88v-90h-88v-237h-142v237z" />
    <glyph glyph-name="tbar" unicode="&#x167;" horiz-adv-x="497" 
d="M119 217h-73v82h73v103h-108v107h108v89l130 42v-131h215v-107h-215v-103h123v-82h-123v-34c0 -35 7 -58 21 -71c15 -12 45 -18 91 -18c40 0 75 4 104 12l18 -102c-52 -12 -104 -18 -156 -18c-73 0 -126 12 -159 37s-49 75 -49 148v46z" />
    <glyph glyph-name="Utilde" unicode="&#x168;" horiz-adv-x="913" 
d="M674 697h140v-486c0 -86 -29 -145 -88 -177s-149 -48 -270 -48s-211 16 -270 48s-88 91 -88 177v486h141v-406c0 -41 2 -72 5 -93c4 -20 13 -38 28 -54c31 -31 81 -37 185 -37c103 0 153 6 184 37c15 16 25 34 28 54s5 51 5 92v407zM624 869l57 -37
c-27 -57 -78 -96 -142 -96c-21 0 -52 10 -91 29c-39 20 -69 30 -92 30c-33 0 -57 -15 -72 -44l-53 42c40 54 82 81 126 81c23 0 54 -9 95 -28s72 -28 94 -28c36 0 62 17 78 51z" />
    <glyph glyph-name="utilde" unicode="&#x169;" 
d="M494 111v398h130v-482c-88 -27 -186 -41 -293 -41c-89 0 -152 17 -191 52c-38 35 -57 98 -57 187v284h130v-271c0 -57 9 -95 28 -114c19 -18 60 -27 123 -27c40 0 83 5 130 14zM522 692l55 -38c-29 -63 -74 -95 -135 -95c-23 0 -55 10 -94 29s-70 29 -92 29
c-33 0 -57 -15 -72 -45l-50 43c39 55 73 82 125 82c25 0 57 -10 96 -29c40 -19 71 -29 92 -29c39 0 58 14 75 53z" />
    <glyph glyph-name="Umacron" unicode="&#x16a;" horiz-adv-x="913" 
d="M674 697h140v-486c0 -86 -29 -145 -88 -177s-149 -48 -270 -48s-211 16 -270 48s-88 91 -88 177v486h141v-406c0 -41 2 -72 5 -93c4 -20 13 -38 28 -54c31 -31 81 -37 185 -37c103 0 153 6 184 37c15 16 25 34 28 54s5 51 5 92v407zM616 753h-325v92h325v-92z" />
    <glyph glyph-name="umacron" unicode="&#x16b;" 
d="M494 111v398h130v-482c-88 -27 -186 -41 -293 -41c-89 0 -152 17 -191 52c-38 35 -57 98 -57 187v284h130v-271c0 -57 9 -95 28 -114c19 -18 60 -27 123 -27c40 0 83 5 130 14zM515 576h-325v90h325v-90z" />
    <glyph glyph-name="Ubreve" unicode="&#x16c;" horiz-adv-x="913" 
d="M674 697h140v-486c0 -86 -29 -145 -88 -177s-149 -48 -270 -48s-211 16 -270 48s-88 91 -88 177v486h141v-406c0 -41 2 -72 5 -93c4 -20 13 -38 28 -54c31 -31 81 -37 185 -37c103 0 153 6 184 37c15 16 25 34 28 54s5 51 5 92v407zM279 871h81c0 -45 29 -58 98 -58
c68 0 97 13 97 58h75c0 -92 -59 -132 -176 -132s-175 44 -175 132z" />
    <glyph glyph-name="ubreve" unicode="&#x16d;" 
d="M494 111v398h130v-482c-88 -27 -186 -41 -293 -41c-89 0 -152 17 -191 52c-38 35 -57 98 -57 187v284h130v-271c0 -57 9 -95 28 -114c19 -18 60 -27 123 -27c40 0 83 5 130 14zM177 697h80c0 -45 30 -58 99 -58c68 0 97 13 97 58h75c0 -91 -59 -137 -176 -137
s-175 46 -175 137z" />
    <glyph glyph-name="Uring" unicode="&#x16e;" horiz-adv-x="913" 
d="M454 890c96 0 143 -29 143 -98c0 -72 -46 -98 -143 -98s-143 26 -143 98c0 71 43 98 143 98zM454 837c-60 0 -73 -10 -73 -46s13 -46 73 -46c61 0 74 10 74 46s-13 46 -74 46zM674 697h140v-486c0 -86 -29 -145 -88 -177s-149 -48 -270 -48s-211 16 -270 48
s-88 91 -88 177v486h141v-406c0 -41 2 -72 5 -93c4 -20 13 -38 28 -54c31 -31 81 -37 185 -37c103 0 153 6 184 37c15 16 25 34 28 54s5 51 5 92v407z" />
    <glyph glyph-name="uring" unicode="&#x16f;" 
d="M357 741c103 0 141 -26 141 -98c0 -75 -40 -98 -141 -98c-103 0 -142 22 -142 98c0 73 35 98 142 98zM431 641c0 36 -13 47 -74 47s-73 -11 -73 -47s12 -45 73 -45s74 10 74 45zM494 111v398h130v-482c-88 -27 -186 -41 -293 -41c-89 0 -152 17 -191 52
c-38 35 -57 98 -57 187v284h130v-271c0 -57 9 -95 28 -114c19 -18 60 -27 123 -27c40 0 83 5 130 14z" />
    <glyph glyph-name="Uhungarumlaut" unicode="&#x170;" horiz-adv-x="913" 
d="M674 697h140v-486c0 -86 -29 -145 -88 -177s-149 -48 -270 -48s-211 16 -270 48s-88 91 -88 177v486h141v-406c0 -41 2 -72 5 -93c4 -20 13 -38 28 -54c31 -31 81 -37 185 -37c103 0 153 6 184 37c15 16 25 34 28 54s5 51 5 92v407zM266 747l115 129h120l-146 -129h-89z
M475 747l115 129h120l-145 -129h-90z" />
    <glyph glyph-name="uhungarumlaut" unicode="&#x171;" 
d="M494 111v398h130v-482c-88 -27 -186 -41 -293 -41c-89 0 -152 17 -191 52c-38 35 -57 98 -57 187v284h130v-271c0 -57 9 -95 28 -114c19 -18 60 -27 123 -27c40 0 83 5 130 14zM163 568l115 129h120l-146 -129h-89zM372 568l115 129h120l-145 -129h-90z" />
    <glyph glyph-name="Uogonek" unicode="&#x172;" horiz-adv-x="913" 
d="M674 697h140v-486c0 -81 -26 -138 -78 -171c-51 -32 -130 -50 -235 -53c-36 -21 -54 -46 -54 -74c0 -29 17 -39 77 -39c51 0 90 8 117 23l24 -71c-35 -19 -87 -29 -156 -29c-117 0 -155 25 -155 89c0 43 24 76 73 101c-111 1 -193 18 -248 51c-54 33 -81 90 -81 173v486
h141v-406c0 -41 2 -72 5 -93c4 -20 13 -38 28 -54c31 -31 81 -37 185 -37c103 0 153 6 184 37c15 16 25 34 28 54s5 51 5 92v407z" />
    <glyph glyph-name="uogonek" unicode="&#x173;" 
d="M494 111v398h130v-482c-29 -9 -60 -17 -92 -22c-67 -33 -87 -56 -87 -92c0 -29 17 -39 77 -39c51 0 90 8 117 23l24 -71c-35 -19 -87 -29 -156 -29c-117 0 -155 25 -155 89c0 45 28 80 84 106c-36 -4 -71 -6 -105 -6c-89 0 -152 17 -191 52c-38 35 -57 98 -57 187v284
h130v-271c0 -57 9 -95 28 -114c19 -18 60 -27 123 -27c40 0 83 5 130 14z" />
    <glyph glyph-name="Wcircumflex" unicode="&#x174;" horiz-adv-x="1208" 
d="M610 494c-43 -149 -100 -313 -172 -494h-188c-98 306 -183 538 -255 697h157c33 -76 68 -168 107 -275s71 -202 96 -284c33 83 68 178 105 286s66 199 85 273h131c83 -225 146 -412 187 -559c80 193 146 380 197 559h146c-68 -225 -153 -457 -255 -697h-189
c-41 170 -92 335 -152 494zM707 747l-102 83l-96 -83h-120l150 129h137l155 -129h-124z" />
    <glyph glyph-name="wcircumflex" unicode="&#x175;" horiz-adv-x="1024" 
d="M511 359c-31 -107 -77 -226 -136 -359h-169c-66 187 -135 357 -208 509h141c62 -131 115 -266 160 -407c26 60 55 132 86 215c32 84 54 148 67 192h127c46 -107 94 -242 144 -407c79 173 133 309 163 407h134c-67 -186 -140 -356 -221 -509h-169
c-37 136 -76 256 -119 359zM736 568h-127l-99 81l-95 -81h-122l150 129h138z" />
    <glyph glyph-name="Ycircumflex" unicode="&#x176;" horiz-adv-x="780" 
d="M327 0v300c-101 121 -228 253 -381 397h200c89 -87 174 -181 256 -280c105 113 187 206 245 280h182c-129 -151 -249 -283 -361 -396v-301h-141zM500 747l-102 83l-96 -83h-120l150 129h137l155 -129h-124z" />
    <glyph glyph-name="ycircumflex" unicode="&#x177;" horiz-adv-x="619" 
d="M538 568h-127l-99 81l-95 -81h-122l150 129h138zM226 -25c-74 209 -150 387 -227 534h137c65 -124 122 -262 173 -414c77 159 135 297 173 414h134c-91 -247 -205 -480 -344 -701h-152c34 48 69 104 106 167z" />
    <glyph glyph-name="Ydieresis" unicode="&#x178;" horiz-adv-x="780" 
d="M327 0v300c-101 121 -228 253 -381 397h200c89 -87 174 -181 256 -280c105 113 187 206 245 280h182c-129 -151 -249 -283 -361 -396v-301h-141zM332 808c0 -51 -13 -61 -62 -61s-62 10 -62 61c0 47 13 56 62 56s62 -9 62 -56zM531 864c48 0 62 -9 62 -56
c0 -51 -14 -61 -62 -61c-49 0 -62 10 -62 61c0 47 13 56 62 56z" />
    <glyph glyph-name="Zacute" unicode="&#x179;" horiz-adv-x="759" 
d="M730 0h-710v36c178 190 339 372 482 547h-454v114h690v-34c-71 -88 -154 -186 -248 -294s-172 -193 -233 -255h473v-114zM391 747h-122l164 129h158z" />
    <glyph glyph-name="zacute" unicode="&#x17a;" horiz-adv-x="601" 
d="M565 0h-543v29c59 59 122 126 188 199c67 74 116 132 148 173h-315v108h531v-28c-45 -57 -100 -122 -167 -197c-66 -75 -120 -133 -163 -176h321v-108zM514 697l-184 -129h-122l154 129h152z" />
    <glyph glyph-name="Zdotaccent" unicode="&#x17b;" horiz-adv-x="759" 
d="M730 0h-710v36c178 190 339 372 482 547h-454v114h690v-34c-71 -88 -154 -186 -248 -294s-172 -193 -233 -255h473v-114zM388 867c48 0 62 -9 62 -56c0 -51 -14 -61 -62 -61c-49 0 -62 10 -62 61c0 47 13 56 62 56z" />
    <glyph glyph-name="zdotaccent" unicode="&#x17c;" horiz-adv-x="601" 
d="M565 0h-543v29c59 59 122 126 188 199c67 74 116 132 148 173h-315v108h531v-28c-45 -57 -100 -122 -167 -197c-66 -75 -120 -133 -163 -176h321v-108zM308 681c48 0 62 -8 62 -55c0 -51 -14 -62 -62 -62c-49 0 -63 11 -63 62c0 47 14 55 63 55z" />
    <glyph glyph-name="Zcaron" unicode="&#x17d;" horiz-adv-x="759" 
d="M301 876l101 -85l98 85h119l-149 -129h-138l-155 129h124zM730 0h-710v36c178 190 339 372 482 547h-454v114h690v-34c-71 -88 -154 -186 -248 -294s-172 -193 -233 -255h473v-114z" />
    <glyph glyph-name="zcaron" unicode="&#x17e;" horiz-adv-x="601" 
d="M565 0h-543v29c59 59 122 126 188 199c67 74 116 132 148 173h-315v108h531v-28c-45 -57 -100 -122 -167 -197c-66 -75 -120 -133 -163 -176h321v-108zM84 697h127l99 -83l95 83h122l-150 -129h-138z" />
    <glyph glyph-name="longs" unicode="&#x17f;" horiz-adv-x="319" 
d="M217 536v-536h-130v543c0 72 23 122 66 147c44 25 90 34 154 34c63 0 116 -5 161 -16l-21 -103c-38 9 -76 13 -113 13c-85 0 -117 -22 -117 -82z" />
    <glyph glyph-name="florin" unicode="&#x192;" horiz-adv-x="448" 
d="M468 618c-83 0 -129 -21 -145 -109h217l-27 -107h-216l-97 -390c-21 -87 -64 -147 -121 -176c-56 -29 -110 -39 -183 -39c-54 0 -105 7 -152 22l40 94c30 -11 72 -16 126 -16c87 0 137 30 152 89l104 416h-114l26 107h115l17 63c27 101 113 152 258 152
c55 0 110 -6 165 -19l-45 -99c-27 8 -67 12 -120 12z" />
    <glyph glyph-name="AEacute" unicode="&#x1fc;" horiz-adv-x="1201" 
d="M433 697h735v-114h-475v-161h282v-112h-282v-196h475v-114h-615v174h-417c-52 -57 -100 -115 -144 -174h-180c206 247 413 480 621 697zM553 585h-58l-266 -298h324v298zM741 747h-122l164 129h158z" />
    <glyph glyph-name="aeacute" unicode="&#x1fd;" horiz-adv-x="1071" 
d="M750 524c97 0 156 -12 203 -51c48 -39 67 -106 67 -213c0 -8 -1 -29 -1 -38h-418c1 -52 14 -87 41 -105c27 -17 74 -26 140 -26c23 0 54 2 91 7s66 11 87 17c5 -23 12 -57 23 -104c-70 -17 -143 -25 -220 -25c-74 0 -134 12 -179 37c-91 -25 -179 -37 -264 -37
c-98 0 -166 12 -203 35c-37 24 -56 69 -56 135c0 69 22 115 67 138c47 23 94 29 173 29c56 0 114 -5 173 -16c0 46 -11 76 -33 90c-21 15 -68 22 -141 22s-136 -8 -191 -23l-20 103c75 16 144 24 206 24c135 0 203 -14 251 -61c46 41 114 62 204 62zM333 82
c61 0 117 7 168 22c-19 31 -28 71 -28 119c-41 8 -87 12 -138 12c-53 0 -88 -5 -107 -14s-28 -29 -28 -60c0 -33 9 -55 26 -65c17 -9 53 -14 107 -14zM757 426c-55 0 -94 -8 -115 -23s-34 -44 -39 -86h283c-3 44 -13 73 -31 87c-18 15 -51 22 -98 22zM738 697l-184 -129
h-122l154 129h152z" />
    <glyph glyph-name="Oslashacute" unicode="&#x1fe;" horiz-adv-x="948" 
d="M474 714c121 0 211 -18 271 -53l39 36h151l-113 -102c39 -55 59 -135 59 -240c0 -143 -31 -237 -102 -293c-71 -55 -164 -76 -305 -76c-117 0 -206 17 -266 51l-41 -37h-151l114 103c-43 55 -64 139 -64 252c0 140 31 233 102 286c72 53 163 73 306 73zM218 353
c0 -67 8 -117 24 -149l399 364c-32 18 -88 27 -167 27c-88 0 -135 -5 -178 -24c-63 -31 -75 -90 -78 -218zM474 105c87 0 137 7 178 26c63 34 75 95 78 222c0 61 -7 108 -22 139l-395 -361c31 -17 85 -26 161 -26zM461 747h-122l164 129h158z" />
    <glyph glyph-name="oslashacute" unicode="&#x1ff;" horiz-adv-x="717" 
d="M358 -14c-84 0 -147 12 -190 36l-25 -22h-128l89 80c-27 41 -40 100 -40 177c0 100 23 169 70 208s121 59 224 59c86 0 150 -12 193 -37l24 22h128l-89 -81c26 -40 39 -97 39 -171c0 -101 -23 -172 -70 -212c-47 -39 -122 -59 -225 -59zM358 424c-67 0 -99 -5 -126 -30
c-13 -12 -22 -29 -27 -51c-5 -21 -7 -51 -7 -88s4 -64 12 -80l252 233c-21 11 -55 16 -104 16zM358 86c63 0 106 11 127 32c21 22 32 68 32 137c0 37 -4 62 -11 77l-250 -230c21 -11 55 -16 102 -16zM533 697l-184 -129h-122l154 129h152z" />
    <glyph glyph-name="Scommaaccent" unicode="&#x218;" horiz-adv-x="760" 
d="M679 687l-25 -120c-72 18 -149 27 -230 27s-137 -6 -168 -19c-30 -13 -45 -37 -45 -72c0 -29 13 -50 40 -62s82 -21 167 -27c199 -15 285 -77 285 -209c0 -81 -29 -137 -86 -170s-151 -49 -282 -49c-105 0 -192 9 -261 27l27 120c68 -18 145 -27 231 -27
c82 0 139 6 170 19c32 13 48 37 48 73c0 58 -29 80 -214 97c-188 13 -276 68 -276 192c0 161 116 227 365 227c103 0 187 -9 254 -27zM308 -51h147l-86 -167h-102z" />
    <glyph glyph-name="scommaaccent" unicode="&#x219;" horiz-adv-x="593" 
d="M314 524c73 0 142 -7 207 -22l-21 -102c-54 15 -119 23 -194 23c-95 0 -122 -8 -122 -59c0 -18 9 -31 27 -39c19 -7 58 -13 117 -16c149 -9 214 -52 214 -153c0 -127 -82 -170 -259 -170c-86 0 -160 7 -221 22l21 101c44 -15 109 -22 195 -22c55 0 91 4 108 11
c18 8 27 25 27 51c0 19 -10 33 -30 41c-20 9 -61 15 -122 20c-136 9 -206 48 -206 145c0 127 83 169 259 169zM232 -51h147l-86 -167h-102z" />
    <glyph glyph-name="circumflex" unicode="&#x2c6;" horiz-adv-x="809" 
d="M641 568h-127l-99 81l-95 -81h-122l150 129h138z" />
    <glyph glyph-name="caron" unicode="&#x2c7;" horiz-adv-x="800" 
d="M198 697h127l99 -83l95 83h122l-150 -129h-138z" />
    <glyph glyph-name="breve" unicode="&#x2d8;" horiz-adv-x="636" 
d="M118 697h80c0 -45 30 -58 99 -58c68 0 97 13 97 58h75c0 -91 -59 -137 -176 -137s-175 46 -175 137z" />
    <glyph glyph-name="dotaccent" unicode="&#x2d9;" horiz-adv-x="557" 
d="M222 681c48 0 62 -8 62 -55c0 -51 -14 -62 -62 -62c-49 0 -63 11 -63 62c0 47 14 55 63 55z" />
    <glyph glyph-name="ring" unicode="&#x2da;" horiz-adv-x="877" 
d="M442 741c103 0 141 -26 141 -98c0 -75 -40 -98 -141 -98c-103 0 -142 22 -142 98c0 73 35 98 142 98zM516 641c0 36 -13 47 -74 47s-73 -11 -73 -47s12 -45 73 -45s74 10 74 45z" />
    <glyph glyph-name="ogonek" unicode="&#x2db;" horiz-adv-x="785" 
d="M540 12h51c-80 -39 -102 -62 -102 -99c0 -29 17 -39 77 -39c51 0 90 8 117 23l24 -71c-35 -19 -87 -29 -156 -29c-117 0 -155 25 -155 89c0 57 51 103 144 126z" />
    <glyph glyph-name="tilde" unicode="&#x2dc;" horiz-adv-x="879" 
d="M564 692l55 -38c-29 -63 -74 -95 -135 -95c-23 0 -55 10 -94 29s-70 29 -92 29c-33 0 -57 -15 -72 -45l-50 43c39 55 73 82 125 82c25 0 57 -10 96 -29c40 -19 71 -29 92 -29c39 0 58 14 75 53z" />
    <glyph glyph-name="hungarumlaut" unicode="&#x2dd;" horiz-adv-x="668" 
d="M202 568l115 129h120l-146 -129h-89zM411 568l115 129h120l-145 -129h-90z" />
    <glyph glyph-name="tonos" unicode="&#x384;" horiz-adv-x="581" 
d="M168 560l-22 162h128l-33 -162h-73z" />
    <glyph glyph-name="dieresistonos" unicode="&#x385;" horiz-adv-x="557" 
d="M227 560l-15 162h110l-26 -162h-69zM170 626c0 -51 -13 -62 -60 -62s-60 11 -60 62c0 47 13 55 60 55s60 -8 60 -55zM423 681c47 0 60 -8 60 -55c0 -51 -13 -62 -60 -62c-48 0 -61 11 -61 62c0 47 13 55 61 55z" />
    <glyph glyph-name="Alphatonos" unicode="&#x386;" horiz-adv-x="836" 
d="M863 0h-159c-19 35 -47 93 -84 174h-413c-20 -47 -43 -105 -68 -174h-153c91 230 197 462 320 697h239c44 -111 96 -231 155 -361s114 -242 163 -336zM448 585h-59c-45 -88 -90 -187 -137 -298h319c-37 82 -78 181 -123 298zM63 560l-22 162h128l-33 -162h-73z" />
    <glyph glyph-name="anoteleia" unicode="&#x387;" horiz-adv-x="347" 
d="M172 379c76 0 96 -13 96 -76c0 -35 -7 -57 -20 -68s-38 -16 -76 -16c-72 0 -92 15 -92 84c0 63 20 76 92 76z" />
    <glyph glyph-name="Epsilontonos" unicode="&#x388;" horiz-adv-x="758" 
d="M111 0v697h615v-114h-475v-161h339v-113h-339v-195h475v-114h-615zM-52 560l-22 162h128l-33 -162h-73z" />
    <glyph glyph-name="Etatonos" unicode="&#x389;" horiz-adv-x="905" 
d="M656 309h-405v-309h-140v697h140v-266h405v266h139v-697h-139v309zM-59 560l-22 162h128l-33 -162h-73z" />
    <glyph glyph-name="Iotatonos" unicode="&#x38a;" horiz-adv-x="361" 
d="M111 0v697h140v-697h-140zM-62 560l-22 162h128l-33 -162h-73z" />
    <glyph glyph-name="Omicrontonos" unicode="&#x38c;" horiz-adv-x="948" 
d="M474 714c141 0 233 -20 304 -73c72 -53 103 -146 103 -286c0 -143 -31 -237 -102 -293c-71 -55 -164 -76 -305 -76s-234 21 -305 76c-71 56 -103 150 -103 293c0 140 31 233 102 286c72 53 163 73 306 73zM474 105c87 0 137 7 178 26c63 34 75 95 78 222
c0 108 -9 164 -52 199c-21 18 -46 30 -76 35s-73 8 -128 8c-88 0 -135 -5 -178 -24c-63 -31 -75 -90 -78 -218c0 -210 50 -248 256 -248zM-39 560l-22 162h128l-33 -162h-73z" />
    <glyph glyph-name="Upsilontonos" unicode="&#x38e;" horiz-adv-x="780" 
d="M-132 560l-22 162h128l-5 -25h177c89 -87 174 -181 256 -280c105 113 187 206 245 280h182c-129 -151 -249 -283 -361 -396v-301h-141v300c-93 110 -213 236 -361 378l-25 -118h-73z" />
    <glyph glyph-name="Omegatonos" unicode="&#x38f;" horiz-adv-x="984" 
d="M770 118h196v-118h-380v114c59 13 98 42 119 87s32 109 32 192c0 82 -17 136 -51 162c-33 27 -98 40 -194 40c-97 0 -162 -13 -196 -40c-33 -26 -50 -80 -50 -162c0 -83 10 -146 31 -191s61 -74 119 -87v-115h-379v118h195c-71 39 -115 146 -115 277c0 118 32 201 96 248
s164 71 299 71s235 -24 298 -71c64 -47 96 -130 96 -248c0 -65 -11 -123 -32 -174c-21 -50 -49 -84 -84 -103zM-27 560l-22 162h128l-33 -162h-73z" />
    <glyph glyph-name="iotadieresistonos" unicode="&#x390;" horiz-adv-x="318" 
d="M122 560l-15 162h110l-26 -162h-69zM65 626c0 -51 -13 -62 -60 -62s-60 11 -60 62c0 47 13 55 60 55s60 -8 60 -55zM318 681c47 0 60 -8 60 -55c0 -51 -13 -62 -60 -62c-48 0 -61 11 -61 62c0 47 13 55 61 55zM86 509h131v-343c0 -43 20 -57 88 -57l-18 -123
c-75 0 -127 12 -157 35c-29 24 -44 69 -44 135v353z" />
    <glyph glyph-name="Alpha" unicode="&#x391;" horiz-adv-x="836" 
d="M863 0h-159c-19 35 -47 93 -84 174h-413c-20 -47 -43 -105 -68 -174h-153c91 230 197 462 320 697h239c44 -111 96 -231 155 -361s114 -242 163 -336zM448 585h-59c-45 -88 -90 -187 -137 -298h319c-37 82 -78 181 -123 298z" />
    <glyph glyph-name="Beta" unicode="&#x392;" horiz-adv-x="874" 
d="M251 111h293c66 0 99 33 99 98c0 69 -35 103 -104 103h-288v-201zM251 419h285c60 0 90 28 90 84c0 57 -25 82 -90 82h-285v-166zM605 369c139 -5 191 -62 191 -178c0 -127 -72 -191 -215 -191h-470v697h463c77 0 130 -14 159 -42c29 -27 44 -69 44 -125
c0 -51 -12 -90 -35 -116c-23 -25 -68 -40 -137 -45z" />
    <glyph glyph-name="Gamma" unicode="&#x393;" horiz-adv-x="661" 
d="M251 583v-583h-140v697h570v-114h-430z" />
    <glyph glyph-name="increment" unicode="&#x394;" horiz-adv-x="794" 
d="M809 0h-835c89 227 197 460 324 697h190c45 -115 97 -238 156 -367s114 -239 165 -330zM395 563h-25c-67 -128 -134 -278 -202 -449h422c-77 156 -142 306 -195 449z" />
    <glyph glyph-name="increment" unicode="&#x2206;" horiz-adv-x="794" 
d="M809 0h-835c89 227 197 460 324 697h190c45 -115 97 -238 156 -367s114 -239 165 -330zM395 563h-25c-67 -128 -134 -278 -202 -449h422c-77 156 -142 306 -195 449z" />
    <glyph glyph-name="Epsilon" unicode="&#x395;" horiz-adv-x="758" 
d="M111 0v697h615v-114h-475v-161h339v-113h-339v-195h475v-114h-615z" />
    <glyph glyph-name="Zeta" unicode="&#x396;" horiz-adv-x="759" 
d="M730 0h-710v36c178 190 339 372 482 547h-454v114h690v-34c-71 -88 -154 -186 -248 -294s-172 -193 -233 -255h473v-114z" />
    <glyph glyph-name="Eta" unicode="&#x397;" horiz-adv-x="905" 
d="M656 309h-405v-309h-140v697h140v-266h405v266h139v-697h-139v309z" />
    <glyph glyph-name="Theta" unicode="&#x398;" horiz-adv-x="948" 
d="M474 714c141 0 233 -20 304 -73c72 -53 103 -146 103 -286c0 -143 -31 -237 -102 -293c-71 -55 -164 -76 -305 -76s-234 21 -305 76c-71 56 -103 150 -103 293c0 140 31 233 102 286c72 53 163 73 306 73zM474 105c87 0 137 7 178 26c63 34 75 95 78 222
c0 108 -9 164 -52 199c-21 18 -46 30 -76 35s-73 8 -128 8c-88 0 -135 -5 -178 -24c-63 -31 -75 -90 -78 -218c0 -210 50 -248 256 -248zM632 320h-315v92h315v-92z" />
    <glyph glyph-name="Iota" unicode="&#x399;" horiz-adv-x="361" 
d="M111 0v697h140v-697h-140z" />
    <glyph glyph-name="Kappa" unicode="&#x39a;" horiz-adv-x="811" 
d="M111 697h140v-697h-140v697zM829 0h-182c-83 106 -160 191 -232 256c-71 65 -124 102 -157 111c37 20 89 60 157 119s137 130 207 211h180c-76 -83 -146 -154 -209 -212c-63 -57 -108 -93 -135 -108c29 -14 78 -54 147 -121c69 -66 143 -151 224 -256z" />
    <glyph glyph-name="Lambda" unicode="&#x39b;" horiz-adv-x="794" 
d="M385 577c-97 -190 -183 -382 -257 -577h-151c91 232 198 464 323 697h190c45 -115 97 -238 156 -367s114 -239 165 -330h-161c-97 184 -186 376 -265 577z" />
    <glyph glyph-name="Mu" unicode="&#x39c;" horiz-adv-x="1133" 
d="M572 244c76 143 163 294 261 453h190v-697h-136v550c-90 -143 -180 -306 -270 -489h-110c-107 219 -195 382 -262 489v-550h-134v697h201c107 -174 194 -325 260 -453z" />
    <glyph glyph-name="Nu" unicode="&#x39d;" horiz-adv-x="953" 
d="M248 549v-549h-137v697h194c133 -161 266 -336 397 -525v525h140v-697h-183c-124 186 -261 369 -411 549z" />
    <glyph glyph-name="Xi" unicode="&#x39e;" horiz-adv-x="769" 
d="M34 0v114h701v-114h-701zM735 697v-114h-701v114h701zM590 309h-411v113h411v-113z" />
    <glyph glyph-name="Omicron" unicode="&#x39f;" horiz-adv-x="948" 
d="M474 714c141 0 233 -20 304 -73c72 -53 103 -146 103 -286c0 -143 -31 -237 -102 -293c-71 -55 -164 -76 -305 -76s-234 21 -305 76c-71 56 -103 150 -103 293c0 140 31 233 102 286c72 53 163 73 306 73zM474 105c87 0 137 7 178 26c63 34 75 95 78 222
c0 108 -9 164 -52 199c-21 18 -46 30 -76 35s-73 8 -128 8c-88 0 -135 -5 -178 -24c-63 -31 -75 -90 -78 -218c0 -210 50 -248 256 -248z" />
    <glyph glyph-name="Pi" unicode="&#x3a0;" horiz-adv-x="905" 
d="M656 583h-405v-583h-140v697h684v-697h-139v583z" />
    <glyph glyph-name="Rho" unicode="&#x3a1;" horiz-adv-x="824" 
d="M251 340h260c79 0 123 40 123 119c0 84 -40 126 -120 126h-263v-245zM251 230v-230h-140v697h449c153 0 231 -88 231 -239c0 -65 -19 -120 -58 -163c-38 -43 -95 -65 -171 -65h-311z" />
    <glyph glyph-name="Sigma" unicode="&#x3a3;" horiz-adv-x="760" 
d="M301 344c-91 106 -179 216 -266 330v23h692v-114h-451l199 -239c-77 -90 -147 -167 -211 -231h460v-113h-705v23c82 86 176 193 282 321z" />
    <glyph glyph-name="Tau" unicode="&#x3a4;" horiz-adv-x="743" 
d="M741 583h-298v-583h-142v583h-299v114h739v-114z" />
    <glyph glyph-name="Upsilon" unicode="&#x3a5;" horiz-adv-x="780" 
d="M327 0v300c-101 121 -228 253 -381 397h200c89 -87 174 -181 256 -280c105 113 187 206 245 280h182c-129 -151 -249 -283 -361 -396v-301h-141z" />
    <glyph glyph-name="Phi" unicode="&#x3a6;" horiz-adv-x="985" 
d="M412 610v87h140v-87c99 -3 176 -15 231 -35c112 -39 148 -105 148 -225c0 -61 -11 -109 -32 -144c-43 -71 -150 -110 -347 -117v-89h-140v89c-97 3 -172 15 -226 35c-108 40 -142 105 -142 226c0 60 10 107 30 142c41 71 145 111 338 118zM788 349c0 51 -4 76 -21 101
c-25 38 -88 48 -215 52v-305c108 3 166 11 198 36c33 27 38 55 38 116zM185 349c0 -40 5 -70 14 -89c20 -39 78 -60 213 -63v304c-207 -12 -223 -32 -227 -152z" />
    <glyph glyph-name="Chi" unicode="&#x3a7;" horiz-adv-x="826" 
d="M327 352c-125 135 -236 250 -333 345h196c43 -43 121 -125 234 -248c73 79 143 161 211 248h186l-306 -342l319 -355h-188c-71 86 -146 171 -225 255c-131 -138 -212 -223 -245 -255h-186c101 99 213 216 337 352z" />
    <glyph glyph-name="Psi" unicode="&#x3a8;" horiz-adv-x="941" 
d="M402 340v357h131v-357c37 1 66 3 89 6c47 8 90 29 110 58c11 15 20 37 27 65c16 56 19 121 19 228h134c0 -97 -6 -174 -17 -233c-11 -58 -33 -105 -64 -140s-69 -60 -114 -73s-107 -20 -184 -23v-228h-131v227c-76 3 -136 11 -181 24c-44 13 -81 38 -112 73
c-30 36 -51 83 -62 141s-17 135 -18 232h135c0 -53 1 -98 3 -133c5 -71 22 -128 42 -159c35 -50 95 -61 193 -65z" />
    <glyph glyph-name="Omega" unicode="&#x3a9;" horiz-adv-x="984" 
d="M770 118h196v-118h-380v114c59 13 98 42 119 87s32 109 32 192c0 82 -17 136 -51 162c-33 27 -98 40 -194 40c-97 0 -162 -13 -196 -40c-33 -26 -50 -80 -50 -162c0 -83 10 -146 31 -191s61 -74 119 -87v-115h-379v118h195c-71 39 -115 146 -115 277c0 118 32 201 96 248
s164 71 299 71s235 -24 298 -71c64 -47 96 -130 96 -248c0 -65 -11 -123 -32 -174c-21 -50 -49 -84 -84 -103z" />
    <glyph glyph-name="Omega" unicode="&#x2126;" horiz-adv-x="984" 
d="M770 118h196v-118h-380v114c59 13 98 42 119 87s32 109 32 192c0 82 -17 136 -51 162c-33 27 -98 40 -194 40c-97 0 -162 -13 -196 -40c-33 -26 -50 -80 -50 -162c0 -83 10 -146 31 -191s61 -74 119 -87v-115h-379v118h195c-71 39 -115 146 -115 277c0 118 32 201 96 248
s164 71 299 71s235 -24 298 -71c64 -47 96 -130 96 -248c0 -65 -11 -123 -32 -174c-21 -50 -49 -84 -84 -103z" />
    <glyph glyph-name="Iotadieresis" unicode="&#x3aa;" horiz-adv-x="361" 
d="M111 0v697h140v-697h-140zM114 808c0 -51 -13 -61 -62 -61s-62 10 -62 61c0 47 13 56 62 56s62 -9 62 -56zM313 864c48 0 62 -9 62 -56c0 -51 -14 -61 -62 -61c-49 0 -62 10 -62 61c0 47 13 56 62 56z" />
    <glyph glyph-name="Upsilondieresis" unicode="&#x3ab;" horiz-adv-x="780" 
d="M327 0v300c-101 121 -228 253 -381 397h200c89 -87 174 -181 256 -280c105 113 187 206 245 280h182c-129 -151 -249 -283 -361 -396v-301h-141zM332 808c0 -51 -13 -61 -62 -61s-62 10 -62 61c0 47 13 56 62 56s62 -9 62 -56zM531 864c48 0 62 -9 62 -56
c0 -51 -14 -61 -62 -61c-49 0 -62 10 -62 61c0 47 13 56 62 56z" />
    <glyph glyph-name="alphatonos" unicode="&#x3ac;" horiz-adv-x="794" 
d="M632 509h134c-32 -93 -72 -183 -121 -268c19 -87 58 -130 118 -130l-26 -125c-96 0 -143 31 -182 118c-33 -48 -66 -80 -97 -95s-77 -23 -138 -23c-92 0 -159 20 -200 61s-62 111 -62 212c0 99 21 168 63 207c43 39 109 58 199 58c52 0 94 -6 127 -18
c33 -11 58 -28 77 -50c19 -21 39 -53 59 -94c24 54 40 103 49 147zM328 92c41 0 75 9 101 26c26 18 55 54 86 107c-24 77 -48 128 -72 154s-62 39 -115 39c-104 -1 -131 -21 -135 -168c0 -62 10 -104 29 -126c19 -21 55 -32 106 -32zM307 560l-22 162h128l-33 -162h-73z" />
    <glyph glyph-name="epsilontonos" unicode="&#x3ad;" horiz-adv-x="626" 
d="M218 269c-107 7 -142 44 -142 117c0 49 21 85 63 106c43 21 117 32 223 32c61 0 135 -8 221 -24l-22 -105c-52 15 -117 23 -196 23c-65 0 -106 -3 -124 -10s-27 -20 -27 -41c0 -40 34 -52 139 -52h85v-93h-85c-108 0 -152 -18 -152 -63c0 -26 11 -44 32 -53
c22 -9 66 -14 132 -14c69 0 136 8 200 24l23 -108c-81 -15 -157 -22 -226 -22c-110 0 -188 11 -234 32c-45 21 -68 60 -68 117c0 83 43 129 158 134zM315 560l-22 162h128l-33 -162h-73z" />
    <glyph glyph-name="etatonos" unicode="&#x3ae;" horiz-adv-x="730" 
d="M226 447c72 51 147 77 226 77c68 0 118 -16 149 -48s47 -92 47 -180v-488h-132v476c0 48 -8 80 -24 96s-47 24 -93 24c-57 0 -123 -22 -160 -51v-353h-130v346c0 55 -18 71 -79 71l15 107c61 0 104 -5 129 -16c26 -11 43 -31 52 -61zM333 560l-22 162h128l-33 -162h-73z
" />
    <glyph glyph-name="iotatonos" unicode="&#x3af;" horiz-adv-x="318" 
d="M86 509h131v-343c0 -43 20 -57 88 -57l-18 -123c-75 0 -127 12 -157 35c-29 24 -44 69 -44 135v353zM116 560l-22 162h128l-33 -162h-73z" />
    <glyph glyph-name="upsilondieresistonos" unicode="&#x3b0;" horiz-adv-x="725" 
d="M333 560l-15 162h110l-26 -162h-69zM276 626c0 -51 -13 -62 -60 -62s-60 11 -60 62c0 47 13 55 60 55s60 -8 60 -55zM529 681c47 0 60 -8 60 -55c0 -51 -13 -62 -60 -62c-48 0 -61 11 -61 62c0 47 13 55 61 55zM28 403l21 121c132 0 187 -27 187 -103v-183
c0 -59 9 -97 26 -115c17 -17 56 -26 117 -26c56 0 92 9 109 27s26 55 26 112v273h129v-285c0 -89 -21 -151 -62 -186s-110 -52 -209 -52c-102 0 -172 17 -210 51s-57 97 -57 188v126c0 40 -17 52 -77 52z" />
    <glyph glyph-name="alpha" unicode="&#x3b1;" horiz-adv-x="794" 
d="M632 509h134c-32 -93 -72 -183 -121 -268c19 -87 58 -130 118 -130l-26 -125c-96 0 -143 31 -182 118c-33 -48 -66 -80 -97 -95s-77 -23 -138 -23c-92 0 -159 20 -200 61s-62 111 -62 212c0 99 21 168 63 207c43 39 109 58 199 58c52 0 94 -6 127 -18
c33 -11 58 -28 77 -50c19 -21 39 -53 59 -94c24 54 40 103 49 147zM328 92c41 0 75 9 101 26c26 18 55 54 86 107c-24 77 -48 128 -72 154s-62 39 -115 39c-104 -1 -131 -21 -135 -168c0 -62 10 -104 29 -126c19 -21 55 -32 106 -32z" />
    <glyph glyph-name="beta" unicode="&#x3b2;" horiz-adv-x="800" 
d="M397 714c223 0 320 -53 320 -178c0 -51 -12 -91 -37 -119c-24 -27 -70 -43 -137 -48c144 -7 194 -69 194 -181c0 -75 -26 -127 -79 -157c-52 -30 -139 -45 -262 -45c-69 0 -128 5 -179 16v-194h-130v719c0 125 103 187 310 187zM217 510v-401c61 -11 122 -17 185 -17
c75 0 124 8 149 24s38 44 38 85c0 44 -12 74 -35 89c-23 16 -70 24 -140 24h-35v103h32c66 0 110 7 131 21c22 15 33 40 33 77c0 33 -13 56 -38 69s-72 19 -141 19c-132 0 -179 -29 -179 -93z" />
    <glyph glyph-name="gamma" unicode="&#x3b3;" horiz-adv-x="619" 
d="M365 -37c12 -45 17 -96 15 -155h-188c4 52 15 106 33 161c-83 229 -158 409 -227 540h138c64 -126 122 -264 173 -413c82 174 140 312 173 413h134c-59 -156 -142 -338 -251 -546z" />
    <glyph glyph-name="delta" unicode="&#x3b4;" horiz-adv-x="740" 
d="M368 -14c-109 0 -187 16 -233 49s-69 93 -69 180c0 41 6 75 18 103c24 56 59 80 123 107c-85 19 -114 57 -114 128c0 112 84 161 287 161c44 0 93 -3 147 -9c55 -5 97 -12 128 -20l-31 -114c-63 23 -148 34 -255 34s-138 -18 -138 -51c0 -21 9 -34 26 -41
c18 -7 59 -14 123 -22c116 -12 178 -28 227 -65c51 -37 67 -95 67 -191c0 -94 -23 -159 -70 -195s-125 -54 -236 -54zM355 387c-59 -18 -99 -38 -122 -59c-22 -21 -33 -56 -33 -105c0 -55 12 -91 36 -110c25 -18 69 -27 132 -27c66 0 111 9 135 28c25 19 37 57 37 116
c0 57 -13 94 -38 113s-74 33 -147 44z" />
    <glyph glyph-name="epsilon" unicode="&#x3b5;" horiz-adv-x="626" 
d="M218 269c-107 7 -142 44 -142 117c0 49 21 85 63 106c43 21 117 32 223 32c61 0 135 -8 221 -24l-22 -105c-52 15 -117 23 -196 23c-65 0 -106 -3 -124 -10s-27 -20 -27 -41c0 -40 34 -52 139 -52h85v-93h-85c-108 0 -152 -18 -152 -63c0 -26 11 -44 32 -53
c22 -9 66 -14 132 -14c69 0 136 8 200 24l23 -108c-81 -15 -157 -22 -226 -22c-110 0 -188 11 -234 32c-45 21 -68 60 -68 117c0 83 43 129 158 134z" />
    <glyph glyph-name="zeta" unicode="&#x3b6;" horiz-adv-x="647" 
d="M412 582h-367v115h567v-112c-171 -108 -284 -186 -339 -235c-54 -49 -81 -96 -81 -142c0 -39 13 -65 38 -76c26 -11 76 -18 151 -20c74 -3 125 -13 152 -31s41 -48 41 -91c0 -56 -23 -117 -69 -182h-128c39 62 58 108 58 137c-5 49 -15 54 -178 60c-69 2 -120 15 -153 39
c-33 25 -49 71 -49 139c0 70 24 132 73 185c49 54 143 125 284 214z" />
    <glyph glyph-name="eta" unicode="&#x3b7;" horiz-adv-x="730" 
d="M226 447c72 51 147 77 226 77c68 0 118 -16 149 -48s47 -92 47 -180v-488h-132v476c0 48 -8 80 -24 96s-47 24 -93 24c-57 0 -123 -22 -160 -51v-353h-130v346c0 55 -18 71 -79 71l15 107c61 0 104 -5 129 -16c26 -11 43 -31 52 -61z" />
    <glyph glyph-name="theta" unicode="&#x3b8;" horiz-adv-x="765" 
d="M702 358c0 -138 -26 -235 -77 -290s-132 -82 -243 -82c-216 0 -314 86 -319 372c0 140 25 231 81 284s127 72 238 72s183 -19 239 -72s81 -144 81 -284zM382 103c69 0 116 14 141 43c26 29 40 86 41 172h-363c2 -86 16 -143 41 -172c26 -29 73 -43 140 -43zM382 600
c-68 0 -104 -6 -135 -34c-31 -27 -42 -74 -45 -155h362c-3 81 -14 128 -46 155c-31 28 -67 34 -136 34z" />
    <glyph glyph-name="iota" unicode="&#x3b9;" horiz-adv-x="318" 
d="M86 509h131v-343c0 -43 20 -57 88 -57l-18 -123c-75 0 -127 12 -157 35c-29 24 -44 69 -44 135v353z" />
    <glyph glyph-name="kappa" unicode="&#x3ba;" horiz-adv-x="678" 
d="M87 509h130v-245c94 63 184 145 271 245h173c-63 -69 -148 -146 -255 -230c65 -47 156 -140 275 -279h-174c-89 98 -155 166 -198 203c-35 -26 -66 -48 -92 -65v-138h-130v509z" />
    <glyph glyph-name="lambda" unicode="&#x3bb;" horiz-adv-x="625" 
d="M101 604l20 110c86 0 148 -11 185 -32s68 -66 92 -133c72 -200 147 -383 224 -549h-142c-62 134 -116 271 -161 410c-71 -129 -132 -265 -182 -410h-134c45 118 129 294 250 527c-14 33 -31 54 -52 63s-54 14 -100 14z" />
    <glyph glyph-name="nu" unicode="&#x3bd;" horiz-adv-x="619" 
d="M308 96c82 174 140 312 173 413h134c-61 -163 -138 -333 -231 -509h-170c-71 195 -141 358 -211 489l125 41c68 -127 128 -271 180 -434z" />
    <glyph glyph-name="xi" unicode="&#x3be;" horiz-adv-x="658" 
d="M212 171c4 -51 19 -58 205 -67c120 -4 174 -33 174 -110c0 -59 -23 -121 -69 -186h-128c41 67 58 101 58 146c0 21 -9 34 -28 41c-18 6 -61 10 -128 11c-87 3 -146 13 -177 31c-30 18 -45 52 -45 101c0 89 73 145 229 181c-80 0 -133 7 -160 20c-26 13 -39 38 -39 74
c0 39 18 71 54 96c37 25 105 50 205 73h-303v115h574v-108c-111 -29 -194 -52 -249 -71s-91 -33 -106 -44s-23 -23 -23 -37c0 -20 5 -29 48 -37c44 -7 114 -9 255 -9v-86c-310 -61 -342 -78 -347 -134z" />
    <glyph glyph-name="omicron" unicode="&#x3bf;" horiz-adv-x="717" 
d="M358 -14c-103 0 -177 20 -224 59c-47 40 -70 111 -70 212c0 100 23 169 70 208s121 59 224 59s177 -20 224 -59s71 -108 71 -208c0 -101 -23 -172 -70 -212c-47 -39 -122 -59 -225 -59zM358 424c-67 0 -99 -5 -126 -30c-27 -24 -34 -64 -34 -139c0 -69 11 -115 32 -137
c22 -21 65 -32 128 -32s106 11 127 32c21 22 32 68 32 137c0 71 -11 117 -32 138s-63 31 -127 31z" />
    <glyph glyph-name="pi" unicode="&#x3c0;" horiz-adv-x="777" 
d="M25 509h722v-113h-106v-226c0 -44 18 -60 65 -67c-20 -72 -31 -111 -32 -117c-63 5 -106 21 -129 49c-23 29 -34 81 -34 158v203h-249v-396h-130v396h-107v113z" />
    <glyph glyph-name="rho" unicode="&#x3c1;" horiz-adv-x="716" 
d="M398 -14c-67 0 -127 15 -181 44v-222h-130v481c0 157 90 235 271 235c106 0 181 -19 226 -57s68 -107 68 -208s-20 -171 -61 -212s-105 -61 -193 -61zM356 418c-57 0 -94 -11 -112 -33c-18 -21 -27 -60 -27 -117v-125c0 -31 62 -51 142 -51c65 0 107 10 128 31
s31 64 31 127c0 71 -10 117 -31 137c-21 21 -64 31 -131 31z" />
    <glyph glyph-name="sigma" unicode="&#x3c3;" horiz-adv-x="747" 
d="M358 -14c-103 0 -177 20 -224 59c-47 40 -70 111 -70 212c0 100 23 169 70 208s121 59 224 59c11 0 30 -1 57 -4c55 -5 169 -11 326 -11v-95h-125c25 -39 37 -92 37 -157c0 -101 -23 -172 -70 -212c-47 -39 -122 -59 -225 -59zM358 424c-67 0 -99 -5 -126 -30
c-27 -24 -34 -64 -34 -139c0 -69 11 -115 32 -137c22 -21 65 -32 128 -32s106 11 127 32c21 22 32 68 32 137c0 71 -11 117 -32 138s-63 31 -127 31z" />
    <glyph glyph-name="tau" unicode="&#x3c4;" horiz-adv-x="613" 
d="M235 162v234h-221v113h585v-113h-234v-226c0 -44 22 -60 74 -67l-32 -118c-63 4 -107 18 -133 41c-26 24 -39 69 -39 136z" />
    <glyph glyph-name="upsilon" unicode="&#x3c5;" horiz-adv-x="725" 
d="M28 403l21 121c132 0 187 -27 187 -103v-183c0 -59 9 -97 26 -115c17 -17 56 -26 117 -26c56 0 92 9 109 27s26 55 26 112v273h129v-285c0 -89 -21 -151 -62 -186s-110 -52 -209 -52c-102 0 -172 17 -210 51s-57 97 -57 188v126c0 40 -17 52 -77 52z" />
    <glyph glyph-name="phi" unicode="&#x3c6;" horiz-adv-x="990" 
d="M564 -14v-178h-131v178c-301 10 -379 74 -382 271c4 194 82 258 382 266v186h131v-186c300 -8 378 -72 382 -266c-3 -196 -81 -260 -382 -271zM186 255c0 -65 16 -108 48 -130c32 -21 98 -33 199 -34v327c-210 -6 -241 -27 -247 -163zM811 255c0 66 -16 109 -48 130
c-31 21 -98 32 -199 33v-327c100 1 166 12 198 34c33 23 49 66 49 130z" />
    <glyph glyph-name="chi" unicode="&#x3c7;" horiz-adv-x="665" 
d="M502 509h143c-71 -114 -150 -234 -237 -360c42 -69 76 -120 102 -152c26 -33 48 -54 67 -64s42 -15 71 -16l-31 -120c-55 0 -101 15 -137 46c-35 31 -85 97 -148 198l-172 -233h-147c89 111 174 224 254 338c-67 108 -116 178 -147 209s-64 47 -101 48l30 121
c56 0 102 -17 138 -50s88 -106 157 -218c69 101 122 186 158 253z" />
    <glyph glyph-name="psi" unicode="&#x3c8;" horiz-adv-x="960" 
d="M51 275c0 111 10 193 30 246l129 -25c-19 -47 -29 -116 -29 -209c0 -75 15 -124 45 -147c31 -23 93 -35 188 -37v606h131v-606c95 2 158 14 188 37s45 72 45 147c0 93 -10 162 -29 209l129 25c21 -54 31 -136 31 -246c0 -111 -21 -178 -81 -223
c-59 -44 -143 -61 -283 -64v-180h-131v180c-136 3 -231 25 -284 66s-79 114 -79 221z" />
    <glyph glyph-name="omega" unicode="&#x3c9;" horiz-adv-x="987" 
d="M430 393h129v-162c0 -89 27 -120 119 -120c16 0 28 2 37 5c37 4 61 17 72 39c12 22 18 66 18 131c0 95 -9 165 -28 210l128 25c21 -54 31 -136 31 -246c0 -103 -19 -177 -56 -222s-97 -67 -182 -67c-131 0 -189 33 -204 128c-15 -95 -74 -128 -205 -128
c-85 0 -146 22 -183 67s-55 119 -55 222c0 110 10 192 31 246l128 -25c-19 -43 -28 -113 -28 -210c0 -74 8 -122 25 -143s51 -32 102 -32c19 0 34 2 45 7c59 11 76 40 76 113v162z" />
    <glyph glyph-name="iotadieresis" unicode="&#x3ca;" horiz-adv-x="318" 
d="M27 681c48 0 62 -8 62 -55c0 -51 -14 -62 -62 -62c-49 0 -63 11 -63 62c0 47 14 55 63 55zM278 681c48 0 61 -8 61 -55c0 -51 -13 -62 -61 -62c-49 0 -63 10 -63 62c0 47 12 55 63 55zM86 509h131v-343c0 -43 20 -57 88 -57l-18 -123c-75 0 -127 12 -157 35
c-29 24 -44 69 -44 135v353z" />
    <glyph glyph-name="upsilondieresis" unicode="&#x3cb;" horiz-adv-x="725" 
d="M28 403l21 121c132 0 187 -27 187 -103v-183c0 -59 9 -97 26 -115c17 -17 56 -26 117 -26c56 0 92 9 109 27s26 55 26 112v273h129v-285c0 -89 -21 -151 -62 -186s-110 -52 -209 -52c-102 0 -172 17 -210 51s-57 97 -57 188v126c0 40 -17 52 -77 52zM247 681
c48 0 62 -8 62 -55c0 -51 -14 -62 -62 -62c-49 0 -63 11 -63 62c0 47 14 55 63 55zM498 681c48 0 61 -8 61 -55c0 -51 -13 -62 -61 -62c-49 0 -63 10 -63 62c0 47 12 55 63 55z" />
    <glyph glyph-name="omicrontonos" unicode="&#x3cc;" horiz-adv-x="717" 
d="M358 -14c-103 0 -177 20 -224 59c-47 40 -70 111 -70 212c0 100 23 169 70 208s121 59 224 59s177 -20 224 -59s71 -108 71 -208c0 -101 -23 -172 -70 -212c-47 -39 -122 -59 -225 -59zM358 424c-67 0 -99 -5 -126 -30c-27 -24 -34 -64 -34 -139c0 -69 11 -115 32 -137
c22 -21 65 -32 128 -32s106 11 127 32c21 22 32 68 32 137c0 71 -11 117 -32 138s-63 31 -127 31zM317 560l-22 162h128l-33 -162h-73z" />
    <glyph glyph-name="upsilontonos" unicode="&#x3cd;" horiz-adv-x="725" 
d="M28 403l21 121c132 0 187 -27 187 -103v-183c0 -59 9 -97 26 -115c17 -17 56 -26 117 -26c56 0 92 9 109 27s26 55 26 112v273h129v-285c0 -89 -21 -151 -62 -186s-110 -52 -209 -52c-102 0 -172 17 -210 51s-57 97 -57 188v126c0 40 -17 52 -77 52zM331 560l-22 162h128
l-33 -162h-73z" />
    <glyph glyph-name="omegatonos" unicode="&#x3ce;" horiz-adv-x="987" 
d="M430 393h129v-162c0 -89 27 -120 119 -120c16 0 28 2 37 5c37 4 61 17 72 39c12 22 18 66 18 131c0 95 -9 165 -28 210l128 25c21 -54 31 -136 31 -246c0 -103 -19 -177 -56 -222s-97 -67 -182 -67c-131 0 -189 33 -204 128c-15 -95 -74 -128 -205 -128
c-85 0 -146 22 -183 67s-55 119 -55 222c0 110 10 192 31 246l128 -25c-19 -43 -28 -113 -28 -210c0 -74 8 -122 25 -143s51 -32 102 -32c19 0 34 2 45 7c59 11 76 40 76 113v162zM445 560l-22 162h128l-33 -162h-73z" />
    <glyph glyph-name="afii10023" unicode="&#x401;" horiz-adv-x="758" 
d="M343 808c0 -51 -13 -61 -62 -61s-62 10 -62 61c0 47 13 56 62 56s62 -9 62 -56zM542 864c48 0 62 -9 62 -56c0 -51 -14 -61 -62 -61c-49 0 -62 10 -62 61c0 47 13 56 62 56zM111 0v697h615v-114h-475v-161h339v-113h-339v-195h475v-114h-615z" />
    <glyph glyph-name="afii10051" unicode="&#x402;" horiz-adv-x="927" 
d="M679 -179l-107 82c47 20 73 37 104 80c32 41 47 111 47 211c0 52 -5 91 -16 116c-20 52 -52 62 -127 62c-73 0 -136 -17 -137 -42v-330h-142v583h-299v114h739v-114h-298v-142c59 29 123 43 191 43c79 0 127 -13 168 -53c43 -40 61 -116 61 -233
c0 -201 -61 -326 -184 -377z" />
    <glyph glyph-name="afii10052" unicode="&#x403;" horiz-adv-x="669" 
d="M251 583v-583h-140v697h570v-114h-430zM406 747h-122l164 129h158z" />
    <glyph glyph-name="afii10053" unicode="&#x404;" horiz-adv-x="752" 
d="M601 422v-112h-379c5 -83 27 -138 67 -164s111 -39 214 -39c75 0 140 7 195 22l24 -117c-81 -17 -164 -26 -248 -26c-142 0 -246 27 -311 81c-65 55 -97 151 -97 288c0 141 31 233 102 286c72 55 163 73 306 73c82 0 165 -9 249 -28l-25 -114c-54 15 -119 22 -195 22
c-100 0 -170 -11 -209 -32s-63 -68 -71 -140h378z" />
    <glyph glyph-name="afii10054" unicode="&#x405;" horiz-adv-x="760" 
d="M679 687l-25 -120c-72 18 -149 27 -230 27s-137 -6 -168 -19c-30 -13 -45 -37 -45 -72c0 -29 13 -50 40 -62s82 -21 167 -27c199 -15 285 -77 285 -209c0 -81 -29 -137 -86 -170s-151 -49 -282 -49c-105 0 -192 9 -261 27l27 120c68 -18 145 -27 231 -27
c82 0 139 6 170 19c32 13 48 37 48 73c0 58 -29 80 -214 97c-188 13 -276 68 -276 192c0 161 116 227 365 227c103 0 187 -9 254 -27z" />
    <glyph glyph-name="afii10055" unicode="&#x406;" horiz-adv-x="361" 
d="M111 0v697h140v-697h-140z" />
    <glyph glyph-name="afii10056" unicode="&#x407;" horiz-adv-x="361" 
d="M111 808c0 -51 -13 -61 -62 -61s-62 10 -62 61c0 47 13 56 62 56s62 -9 62 -56zM310 864c48 0 62 -9 62 -56c0 -51 -14 -61 -62 -61c-49 0 -62 10 -62 61c0 47 13 56 62 56zM111 0v697h140v-697h-140z" />
    <glyph glyph-name="afii10057" unicode="&#x408;" horiz-adv-x="556" 
d="M306 697h142l1 -505c0 -137 -85 -206 -255 -206c-69 0 -132 8 -187 25l29 118c36 -13 83 -19 141 -19c86 0 129 33 129 99v488z" />
    <glyph glyph-name="afii10058" unicode="&#x409;" horiz-adv-x="1326" 
d="M620 0v583h-287c-9 -110 -25 -209 -48 -296s-57 -159 -101 -216c-43 -57 -94 -85 -151 -85c-15 62 -24 104 -29 125c58 1 104 54 138 158c35 105 57 247 67 428h551v-250h297c155 0 224 -87 224 -223c0 -149 -72 -224 -217 -224h-444zM760 111h257c84 0 109 34 109 113
s-32 116 -112 116h-254v-229z" />
    <glyph glyph-name="afii10059" unicode="&#x40a;" horiz-adv-x="1336" 
d="M631 444v253h139v-254h297c153 0 221 -87 221 -222c0 -147 -71 -221 -214 -221h-443v333h-380v-333h-140v697h140v-253h380zM770 111h257c84 0 110 33 110 110s-33 112 -113 112h-254v-222z" />
    <glyph glyph-name="afii10060" unicode="&#x40b;" horiz-adv-x="935" 
d="M634 484c77 0 132 -16 167 -48s53 -93 53 -183v-253h-131v243c0 52 -11 86 -33 103s-59 26 -110 26c-35 0 -66 -4 -94 -12s-42 -18 -43 -30v-330h-142v583h-299v114h739v-114h-298v-144c61 30 125 45 191 45z" />
    <glyph glyph-name="afii10061" unicode="&#x40c;" horiz-adv-x="813" 
d="M823 0h-173c-64 133 -117 213 -181 261c-64 49 -122 65 -218 70v-331h-140v697h140v-348c49 31 106 78 173 141s133 132 198 207h182c-75 -83 -141 -151 -198 -206c-57 -54 -98 -90 -123 -107c29 -8 54 -17 75 -28s45 -29 74 -55c57 -52 119 -150 191 -301zM467 747h-122
l164 129h158z" />
    <glyph glyph-name="afii10062" unicode="&#x40e;" horiz-adv-x="712" 
d="M213 871h81c0 -45 29 -58 98 -58c68 0 97 13 97 58h75c0 -92 -59 -132 -176 -132s-175 44 -175 132zM383 298c39 59 80 127 123 204s76 142 99 195h166c-57 -115 -127 -236 -208 -365c-81 -128 -157 -239 -230 -332h-189c52 54 102 113 149 177c-30 66 -77 152 -142 258
c-64 107 -122 194 -175 262h178c86 -122 162 -255 229 -399z" />
    <glyph glyph-name="afii10145" unicode="&#x40f;" horiz-adv-x="905" 
d="M112 697h140v-578h405v578h139v-697h-271l-27 -188h-85l-26 188h-275v697z" />
    <glyph glyph-name="afii10017" unicode="&#x410;" horiz-adv-x="836" 
d="M863 0h-159c-19 35 -47 93 -84 174h-413c-20 -47 -43 -105 -68 -174h-153c91 230 197 462 320 697h239c44 -111 96 -231 155 -361s114 -242 163 -336zM448 585h-59c-45 -88 -90 -187 -137 -298h319c-37 82 -78 181 -123 298z" />
    <glyph glyph-name="afii10018" unicode="&#x411;" horiz-adv-x="873" 
d="M251 111h293c75 0 99 31 99 98c0 69 -27 103 -104 103h-288v-201zM111 697h610v-114h-470v-164h323c148 0 222 -71 222 -212c0 -147 -75 -207 -215 -207h-470v697z" />
    <glyph glyph-name="afii10019" unicode="&#x412;" horiz-adv-x="874" 
d="M251 111h293c66 0 99 33 99 98c0 69 -35 103 -104 103h-288v-201zM251 419h285c60 0 90 28 90 84c0 57 -25 82 -90 82h-285v-166zM605 369c139 -5 191 -62 191 -178c0 -127 -72 -191 -215 -191h-470v697h463c77 0 130 -14 159 -42c29 -27 44 -69 44 -125
c0 -51 -12 -90 -35 -116c-23 -25 -68 -40 -137 -45z" />
    <glyph glyph-name="afii10020" unicode="&#x413;" horiz-adv-x="661" 
d="M251 583v-583h-140v697h570v-114h-430z" />
    <glyph glyph-name="afii10021" unicode="&#x414;" horiz-adv-x="989" 
d="M299 119h394v464h-290c-19 -186 -54 -341 -104 -464zM832 119h158l-27 -273h-120v154h-691v-154h-121l-27 273h138c77 169 122 362 134 578h556v-578z" />
    <glyph glyph-name="afii10022" unicode="&#x415;" horiz-adv-x="758" 
d="M111 0v697h615v-114h-475v-161h339v-113h-339v-195h475v-114h-615z" />
    <glyph glyph-name="afii10024" unicode="&#x416;" horiz-adv-x="1183" 
d="M158 0h-168c55 123 105 211 144 263c19 26 39 48 60 65c43 35 68 44 112 56c-22 15 -60 50 -113 105s-115 125 -185 208h176c111 -139 224 -254 337 -347v347h140v-347c112 91 225 207 338 347h176c-145 -171 -245 -276 -300 -313c28 -7 52 -17 72 -28s43 -29 69 -55
c53 -52 109 -150 177 -301h-169c-59 133 -105 212 -164 261c-57 51 -111 68 -199 73v-334h-140v334c-87 -6 -155 -31 -205 -75c-49 -44 -102 -130 -158 -259z" />
    <glyph glyph-name="afii10025" unicode="&#x417;" horiz-adv-x="785" 
d="M512 369c144 -7 195 -69 195 -181c0 -148 -107 -202 -355 -202c-92 0 -189 8 -292 25l21 114c55 -13 135 -20 238 -20c93 0 155 7 186 21c32 15 48 41 48 80c0 77 -49 104 -178 104h-132v112h129c117 0 164 21 164 89c-3 67 -28 82 -217 85c-29 0 -70 -2 -122 -6
c-51 -3 -88 -8 -110 -13l-22 112c100 17 196 25 287 25c123 0 209 -14 259 -41s75 -73 75 -137c0 -51 -12 -91 -37 -119c-24 -27 -70 -43 -137 -48z" />
    <glyph glyph-name="afii10026" unicode="&#x418;" horiz-adv-x="953" 
d="M111 697h137v-553c160 199 299 383 416 553h178v-697h-137v534c-151 -215 -284 -393 -399 -534h-195v697z" />
    <glyph glyph-name="afii10027" unicode="&#x419;" horiz-adv-x="953" 
d="M111 697h137v-553c160 199 299 383 416 553h178v-697h-137v534c-151 -215 -284 -393 -399 -534h-195v697zM300 871h81c0 -45 29 -58 98 -58c68 0 97 13 97 58h75c0 -92 -59 -132 -176 -132s-175 44 -175 132z" />
    <glyph glyph-name="afii10028" unicode="&#x41a;" horiz-adv-x="813" 
d="M823 0h-173c-64 133 -117 213 -181 261c-64 49 -122 65 -218 70v-331h-140v697h140v-348c49 31 106 78 173 141s133 132 198 207h182c-75 -83 -141 -151 -198 -206c-57 -54 -98 -90 -123 -107c29 -8 54 -17 75 -28s45 -29 74 -55c57 -52 119 -150 191 -301z" />
    <glyph glyph-name="afii10029" unicode="&#x41b;" horiz-adv-x="895" 
d="M646 583h-311c-12 -164 -42 -303 -90 -416c-47 -112 -121 -181 -209 -181c-3 14 -9 35 -16 62c-7 28 -13 49 -16 63c58 1 104 54 138 158s56 247 67 428h576v-697h-139v583z" />
    <glyph glyph-name="afii10030" unicode="&#x41c;" horiz-adv-x="1133" 
d="M572 244c76 143 163 294 261 453h190v-697h-136v550c-90 -143 -180 -306 -270 -489h-110c-107 219 -195 382 -262 489v-550h-134v697h201c107 -174 194 -325 260 -453z" />
    <glyph glyph-name="afii10031" unicode="&#x41d;" horiz-adv-x="905" 
d="M656 309h-405v-309h-140v697h140v-266h405v266h139v-697h-139v309z" />
    <glyph glyph-name="afii10032" unicode="&#x41e;" horiz-adv-x="948" 
d="M474 714c141 0 233 -20 304 -73c72 -53 103 -146 103 -286c0 -143 -31 -237 -102 -293c-71 -55 -164 -76 -305 -76s-234 21 -305 76c-71 56 -103 150 -103 293c0 140 31 233 102 286c72 53 163 73 306 73zM474 105c87 0 137 7 178 26c63 34 75 95 78 222
c0 108 -9 164 -52 199c-21 18 -46 30 -76 35s-73 8 -128 8c-88 0 -135 -5 -178 -24c-63 -31 -75 -90 -78 -218c0 -210 50 -248 256 -248z" />
    <glyph glyph-name="afii10033" unicode="&#x41f;" horiz-adv-x="905" 
d="M656 583h-405v-583h-140v697h684v-697h-139v583z" />
    <glyph glyph-name="afii10034" unicode="&#x420;" horiz-adv-x="824" 
d="M251 340h260c79 0 123 40 123 119c0 84 -40 126 -120 126h-263v-245zM251 230v-230h-140v697h449c153 0 231 -88 231 -239c0 -65 -19 -120 -58 -163c-38 -43 -95 -65 -171 -65h-311z" />
    <glyph glyph-name="afii10035" unicode="&#x421;" horiz-adv-x="722" 
d="M467 714c85 0 163 -8 235 -24l-21 -119c-49 14 -110 21 -185 21c-38 0 -69 -1 -93 -3c-48 -3 -99 -15 -124 -36c-42 -34 -61 -91 -61 -199s15 -168 62 -203c48 -35 104 -42 216 -42c73 0 134 7 185 20l21 -121c-70 -15 -148 -22 -235 -22c-140 0 -233 22 -302 78
c-68 56 -99 150 -99 291s31 233 100 286c69 55 160 73 301 73z" />
    <glyph glyph-name="afii10036" unicode="&#x422;" horiz-adv-x="743" 
d="M741 583h-298v-583h-142v583h-299v114h739v-114z" />
    <glyph glyph-name="afii10037" unicode="&#x423;" horiz-adv-x="748" 
d="M383 298c39 59 80 127 123 204s76 142 99 195h166c-57 -115 -127 -236 -208 -365c-81 -128 -157 -239 -230 -332h-189c52 54 102 113 149 177c-30 66 -77 152 -142 258c-64 107 -122 194 -175 262h178c86 -122 162 -255 229 -399z" />
    <glyph glyph-name="afii10038" unicode="&#x424;" horiz-adv-x="985" 
d="M412 610v87h140v-87c99 -3 176 -15 231 -35c112 -39 148 -105 148 -225c0 -61 -11 -109 -32 -144c-43 -71 -150 -110 -347 -117v-89h-140v89c-97 3 -172 15 -226 35c-108 40 -142 105 -142 226c0 60 10 107 30 142c41 71 145 111 338 118zM788 349c0 51 -4 76 -21 101
c-25 38 -88 48 -215 52v-305c108 3 166 11 198 36c33 27 38 55 38 116zM185 349c0 -40 5 -70 14 -89c20 -39 78 -60 213 -63v304c-207 -12 -223 -32 -227 -152z" />
    <glyph glyph-name="afii10039" unicode="&#x425;" horiz-adv-x="826" 
d="M327 352c-125 135 -236 250 -333 345h196c43 -43 121 -125 234 -248c73 79 143 161 211 248h186l-306 -342l319 -355h-188c-71 86 -146 171 -225 255c-131 -138 -212 -223 -245 -255h-186c101 99 213 216 337 352z" />
    <glyph glyph-name="afii10040" unicode="&#x426;" horiz-adv-x="951" 
d="M111 697h140v-578h405v578h139v-578h158l-27 -273h-120v154h-695v697z" />
    <glyph glyph-name="afii10041" unicode="&#x427;" horiz-adv-x="817" 
d="M337 192c-97 0 -161 11 -220 46c-57 35 -87 100 -87 199v260h140v-251c0 -53 14 -88 42 -105c29 -17 81 -26 158 -26c121 0 197 25 197 66v316h140v-697h-140v234c-65 -28 -141 -42 -230 -42z" />
    <glyph glyph-name="afii10042" unicode="&#x428;" horiz-adv-x="1207" 
d="M534 119v578h140v-578h284v578h138v-697h-985v697h140v-578h283z" />
    <glyph glyph-name="afii10043" unicode="&#x429;" horiz-adv-x="1253" 
d="M534 119v578h140v-578h284v578h138v-578h159l-14 -136l-14 -137h-119v154h-997v697h140v-578h283z" />
    <glyph glyph-name="afii10044" unicode="&#x42a;" horiz-adv-x="885" 
d="M20 583v114h274v-248h323c155 0 224 -89 224 -225c0 -149 -72 -224 -217 -224h-470v583h-134zM294 111h282c83 0 110 34 110 113c0 81 -34 115 -113 115h-279v-228z" />
    <glyph glyph-name="afii10045" unicode="&#x42b;" horiz-adv-x="1158" 
d="M251 111h282c84 0 110 34 110 113c0 80 -36 115 -113 115h-279v-228zM111 0v697h140v-248h323c155 0 224 -89 224 -225c0 -149 -72 -224 -217 -224h-470zM907 0v697h140v-697h-140z" />
    <glyph glyph-name="afii10046" unicode="&#x42c;" horiz-adv-x="842" 
d="M251 111h282c84 0 110 34 110 113c0 80 -36 115 -113 115h-279v-228zM111 0v697h140v-248h323c155 0 224 -89 224 -225c0 -149 -72 -224 -217 -224h-470z" />
    <glyph glyph-name="afii10047" unicode="&#x42d;" horiz-adv-x="752" 
d="M531 310h-379v112h377c-7 72 -31 119 -70 140s-109 32 -209 32c-72 0 -136 -8 -192 -23c-5 25 -14 63 -26 114c85 19 168 29 247 29c143 0 234 -18 305 -73c71 -53 102 -145 102 -286s-31 -235 -102 -291s-164 -78 -305 -78c-79 0 -161 9 -246 27c5 26 14 65 26 117
c56 -15 120 -23 191 -23c103 0 174 13 214 39s62 81 67 164z" />
    <glyph glyph-name="afii10048" unicode="&#x42e;" horiz-adv-x="1197" 
d="M802 714c111 0 186 -19 243 -72c59 -52 86 -145 86 -284c0 -137 -27 -234 -81 -289c-53 -55 -136 -83 -248 -83c-105 0 -184 24 -239 73s-85 132 -91 250h-221v-309h-140v697h140v-266h222c9 105 41 179 95 220c55 42 133 63 234 63zM985 358c0 107 -8 165 -39 198
c-31 35 -67 41 -144 41c-76 0 -112 -6 -144 -41c-32 -33 -41 -91 -41 -198c5 -214 39 -250 185 -253c146 4 178 40 183 253z" />
    <glyph glyph-name="afii10049" unicode="&#x42f;" horiz-adv-x="867" 
d="M309 697h447v-697h-140v266h-159c-63 0 -99 -9 -140 -48s-74 -103 -117 -218h-169c38 83 71 147 100 190s55 72 78 86c23 15 52 24 87 29c-156 4 -219 78 -219 189c0 135 77 203 232 203zM616 585h-267c-81 0 -114 -33 -114 -108c0 -69 36 -102 117 -102h264v210z" />
    <glyph glyph-name="afii10065" unicode="&#x430;" horiz-adv-x="681" 
d="M599 326v-303c-81 -25 -174 -37 -279 -37c-98 0 -166 12 -203 35c-37 24 -56 69 -56 135c0 69 22 115 67 138c47 23 94 29 173 29c53 0 110 -5 173 -14c0 46 -11 76 -33 90c-21 15 -68 22 -141 22c-69 0 -132 -8 -188 -23l-21 102c75 16 156 24 242 24
c95 0 163 -15 204 -44s62 -80 62 -154zM474 97v128c-44 7 -91 10 -140 10c-55 0 -91 -5 -109 -14c-17 -9 -26 -29 -26 -60c0 -33 8 -55 25 -65c17 -9 53 -14 108 -14c53 0 100 5 142 15z" />
    <glyph glyph-name="afii10066" unicode="&#x431;" horiz-adv-x="700" 
d="M601 727v-106c-45 -17 -120 -27 -223 -30c-132 -4 -176 -51 -179 -159c41 47 108 70 202 70c78 0 137 -19 176 -56s59 -104 59 -199c0 -99 -23 -167 -69 -205c-46 -37 -122 -56 -228 -56c-92 0 -151 15 -200 59c-49 45 -72 126 -72 249c0 132 17 220 45 279
c14 29 34 52 60 69c53 33 107 45 200 52c106 7 182 18 229 33zM201 245c0 -59 10 -100 31 -123c21 -22 58 -33 111 -33c67 0 97 5 124 26c27 23 34 59 34 130c0 61 -10 101 -31 121c-20 21 -59 31 -117 31c-62 0 -103 -10 -123 -31c-19 -21 -29 -61 -29 -121z" />
    <glyph glyph-name="afii10067" unicode="&#x432;" horiz-adv-x="706" 
d="M217 96h207c59 0 82 17 82 58c0 47 -28 66 -95 66h-194v-124zM217 311h207c53 0 69 15 69 52c0 39 -14 50 -69 50h-207v-102zM495 270c100 0 150 -44 150 -131c0 -93 -59 -139 -177 -139h-381v509h375c128 0 167 -41 167 -122c0 -75 -29 -110 -134 -117z" />
    <glyph glyph-name="afii10068" unicode="&#x433;" horiz-adv-x="509" 
d="M87 0v509h421v-108h-291v-401h-130z" />
    <glyph glyph-name="afii10069" unicode="&#x434;" horiz-adv-x="794" 
d="M40 -141l-37 249h116c52 149 82 283 90 401h456v-401h124l-36 -249h-100v141h-513v-141h-100zM534 401h-208c-9 -89 -31 -187 -68 -293h276v293z" />
    <glyph glyph-name="afii10070" unicode="&#x435;" horiz-adv-x="671" 
d="M350 524c100 0 160 -13 205 -54c47 -40 64 -110 64 -222v-26h-418c1 -53 14 -88 40 -105c27 -17 74 -26 141 -26c61 0 120 8 177 24l24 -104c-71 -17 -145 -25 -220 -25c-97 0 -171 20 -222 61s-77 111 -77 210c0 195 97 267 286 267zM351 426c-53 0 -90 -8 -111 -23
s-33 -44 -37 -86h283c-2 44 -12 73 -31 87c-19 15 -53 22 -104 22z" />
    <glyph glyph-name="afii10072" unicode="&#x436;" horiz-adv-x="985" 
d="M156 0h-156c60 109 108 180 148 216c40 37 61 47 97 59c-35 23 -125 110 -232 234h160c109 -133 194 -217 254 -254v254h130v-254c63 40 148 125 253 254h161c-52 -61 -99 -113 -142 -154c-42 -41 -72 -68 -89 -80c36 -12 56 -22 96 -59c40 -36 88 -107 148 -216h-156
c-48 84 -91 142 -130 175s-86 53 -141 61v-236h-130v236c-55 -8 -102 -28 -141 -61c-38 -32 -81 -90 -130 -175z" />
    <glyph glyph-name="afii10073" unicode="&#x437;" horiz-adv-x="626" 
d="M407 269c115 -5 159 -51 159 -134c0 -57 -23 -96 -69 -117s-124 -32 -234 -32c-69 0 -144 7 -225 22l22 108c64 -16 131 -24 200 -24c66 0 110 5 132 14s33 27 33 53c0 48 -36 63 -152 63h-86v93h86c57 0 94 3 111 10c18 7 27 20 27 41c0 19 -10 33 -31 40
c-20 8 -60 12 -119 12c-80 0 -145 -8 -196 -23l-23 105c87 16 161 24 221 24c107 0 182 -10 223 -29c42 -19 63 -53 63 -102c0 -76 -37 -117 -142 -124z" />
    <glyph glyph-name="afii10074" unicode="&#x438;" horiz-adv-x="724" 
d="M637 0h-131v338c-103 -134 -199 -247 -288 -338h-131v509h130v-346c105 108 202 223 289 346h131v-509z" />
    <glyph glyph-name="afii10075" unicode="&#x439;" horiz-adv-x="724" 
d="M637 0h-131v338c-103 -134 -199 -247 -288 -338h-131v509h130v-346c105 108 202 223 289 346h131v-509zM186 697h80c0 -45 30 -58 99 -58c68 0 97 13 97 58h75c0 -91 -59 -137 -176 -137s-175 46 -175 137z" />
    <glyph glyph-name="afii10076" unicode="&#x43a;" horiz-adv-x="670" 
d="M670 0h-160c-52 85 -99 144 -142 176c-42 33 -92 53 -151 62v-238h-130v509h130v-257c65 43 156 128 274 257h165c-122 -129 -204 -207 -246 -233c24 -7 46 -17 65 -30c40 -27 107 -105 195 -246z" />
    <glyph glyph-name="afii10077" unicode="&#x43b;" horiz-adv-x="696" 
d="M479 401h-197c-3 -36 -7 -69 -11 -98c-8 -59 -23 -133 -47 -182c-37 -77 -92 -135 -187 -135l-30 124c45 1 79 32 104 93c25 62 42 164 51 306h447v-509h-130v401z" />
    <glyph glyph-name="afii10078" unicode="&#x43c;" horiz-adv-x="927" 
d="M466 178c51 101 113 212 184 331h190v-509h-129v399c-69 -112 -136 -235 -201 -369h-97c-55 119 -120 242 -197 369v-399h-129v509h199c63 -101 123 -211 180 -331z" />
    <glyph glyph-name="afii10079" unicode="&#x43d;" horiz-adv-x="715" 
d="M498 216h-281v-216h-130v509h130v-187h281v187h130v-509h-130v216z" />
    <glyph glyph-name="afii10080" unicode="&#x43e;" horiz-adv-x="717" 
d="M358 -14c-103 0 -177 20 -224 59c-47 40 -70 111 -70 212c0 100 23 169 70 208s121 59 224 59s177 -20 224 -59s71 -108 71 -208c0 -101 -23 -172 -70 -212c-47 -39 -122 -59 -225 -59zM198 255c0 -69 11 -114 33 -136c22 -21 64 -32 127 -32s105 11 126 32
c22 22 33 67 33 136c0 71 -11 116 -32 137s-64 31 -127 31s-106 -10 -128 -31c-21 -21 -32 -66 -32 -137z" />
    <glyph glyph-name="afii10081" unicode="&#x43f;" horiz-adv-x="715" 
d="M498 401h-281v-401h-130v509h541v-509h-130v401z" />
    <glyph glyph-name="afii10082" unicode="&#x440;" horiz-adv-x="716" 
d="M398 -14c-67 0 -127 15 -181 44v-222h-130v681c71 23 161 35 269 35c106 0 182 -19 227 -57c46 -38 69 -107 69 -208s-20 -171 -61 -212s-105 -61 -193 -61zM356 418c-49 0 -96 -5 -139 -15v-260c0 -31 62 -51 142 -51c65 0 107 10 128 31s31 64 31 127
c0 71 -10 117 -31 137c-21 21 -64 31 -131 31z" />
    <glyph glyph-name="afii10083" unicode="&#x441;" horiz-adv-x="567" 
d="M528 114l20 -104c-49 -16 -109 -24 -178 -24c-101 0 -177 20 -229 61c-51 41 -77 111 -77 210s26 168 77 207c52 40 128 60 229 60c67 0 127 -7 178 -21l-21 -106c-41 13 -89 19 -146 19c-71 0 -119 -10 -145 -30c-25 -20 -38 -64 -38 -131c0 -65 13 -109 39 -130
c27 -21 75 -31 144 -31c55 0 104 7 147 20z" />
    <glyph glyph-name="afii10084" unicode="&#x442;" horiz-adv-x="586" 
d="M581 401h-223v-401h-131v401h-222v108h576v-108z" />
    <glyph glyph-name="afii10085" unicode="&#x443;" horiz-adv-x="619" 
d="M226 -25c-74 209 -150 387 -227 534h137c65 -124 122 -262 173 -414c77 159 135 297 173 414h134c-91 -247 -205 -480 -344 -701h-152c34 48 69 104 106 167z" />
    <glyph glyph-name="afii10086" unicode="&#x444;" horiz-adv-x="990" 
d="M564 -14v-178h-131v178c-301 10 -379 74 -382 271c4 194 82 258 382 266v186h131v-186c300 -8 378 -72 382 -266c-3 -196 -81 -260 -382 -271zM186 255c0 -65 16 -108 48 -130c32 -21 98 -33 199 -34v327c-210 -6 -241 -27 -247 -163zM811 255c0 66 -16 109 -48 130
c-31 21 -98 32 -199 33v-327c100 1 166 12 198 34c33 23 49 66 49 130z" />
    <glyph glyph-name="afii10087" unicode="&#x445;" horiz-adv-x="631" 
d="M630 0h-156c-42 53 -91 110 -147 171c-49 -53 -105 -110 -168 -171h-157c63 59 147 143 252 254c-74 82 -157 167 -250 255h169c54 -54 106 -110 157 -169c47 51 96 108 145 169h153c-67 -81 -140 -165 -221 -251c67 -73 141 -159 223 -258z" />
    <glyph glyph-name="afii10088" unicode="&#x446;" horiz-adv-x="778" 
d="M498 509h130v-401h145c-9 -55 -21 -138 -37 -249h-100v141h-549v509h130v-401h281v401z" />
    <glyph glyph-name="afii10089" unicode="&#x447;" horiz-adv-x="676" 
d="M267 154c-80 0 -126 11 -165 47c-39 37 -55 103 -55 208v100h131v-91c0 -62 10 -103 31 -123c21 -19 58 -29 112 -29c37 0 70 4 97 12c27 9 41 20 41 33v198h130v-509h-130v199c-62 -30 -126 -45 -192 -45z" />
    <glyph glyph-name="afii10090" unicode="&#x448;" horiz-adv-x="1059" 
d="M595 108h247v401h131v-509h-886v509h130v-401h247v401h131v-401z" />
    <glyph glyph-name="afii10091" unicode="&#x449;" horiz-adv-x="1122" 
d="M1080 -141h-99v141h-894v509h130v-401h247v401h131v-401h247v401h131v-401h144z" />
    <glyph glyph-name="afii10092" unicode="&#x44a;" horiz-adv-x="746" 
d="M260 325h241c125 0 187 -54 187 -161c0 -117 -60 -164 -187 -164h-372v401h-124v108h255v-184zM260 92h206c61 0 83 19 83 70c0 49 -20 67 -83 67h-206v-137z" />
    <glyph glyph-name="afii10093" unicode="&#x44b;" horiz-adv-x="955" 
d="M217 92h206c61 0 83 19 83 70s-23 67 -96 67h-193v-137zM217 325h241c125 0 187 -54 187 -161c0 -117 -60 -164 -187 -164h-371v509h130v-184zM738 509h131v-509h-131v509z" />
    <glyph glyph-name="afii10094" unicode="&#x44c;" horiz-adv-x="703" 
d="M217 92h206c61 0 83 21 83 70c0 52 -23 67 -96 67h-193v-137zM217 325h241c125 0 187 -54 187 -161c0 -117 -60 -164 -187 -164h-371v509h130v-184z" />
    <glyph glyph-name="afii10095" unicode="&#x44d;" horiz-adv-x="581" 
d="M27 11l12 50l11 48c40 -13 93 -19 158 -19c62 0 105 9 129 26c24 18 38 53 42 106h-258v95h256c-7 42 -23 69 -46 82s-64 20 -123 20c-65 0 -118 -6 -157 -18l-24 100c52 15 120 23 204 23c91 0 162 -20 212 -60s75 -109 75 -207c0 -99 -25 -169 -76 -210
c-50 -41 -122 -61 -216 -61c-79 0 -146 8 -199 25z" />
    <glyph glyph-name="afii10096" unicode="&#x44e;" horiz-adv-x="1047" 
d="M694 -14c-92 0 -161 17 -207 51c-46 35 -72 94 -78 179h-192v-216h-130v509h130v-187h193c20 149 109 202 284 202c100 0 173 -20 219 -59c47 -39 70 -108 70 -208c0 -101 -23 -171 -69 -211s-119 -60 -220 -60zM694 424c-62 0 -103 -10 -124 -31
c-20 -21 -30 -67 -30 -138c0 -69 10 -115 31 -137c21 -21 62 -32 123 -32c62 0 103 11 124 32c21 22 31 68 31 137c0 71 -10 117 -31 138c-20 21 -61 31 -124 31z" />
    <glyph glyph-name="afii10097" unicode="&#x44f;" horiz-adv-x="723" 
d="M267 509h370v-509h-131v181h-114c-49 0 -87 -12 -116 -36c-28 -23 -59 -72 -92 -145h-154c45 85 81 142 110 170c29 29 65 45 107 50c-120 4 -171 60 -171 140c0 91 56 149 191 149zM305 279h201v130h-187c-75 0 -100 -13 -100 -64c0 -47 25 -66 86 -66z" />
    <glyph glyph-name="afii10071" unicode="&#x451;" horiz-adv-x="671" 
d="M350 524c100 0 160 -13 205 -54c47 -40 64 -110 64 -222v-26h-418c1 -53 14 -88 40 -105c27 -17 74 -26 141 -26c61 0 120 8 177 24l24 -104c-71 -17 -145 -25 -220 -25c-97 0 -171 20 -222 61s-77 111 -77 210c0 195 97 267 286 267zM351 426c-53 0 -90 -8 -111 -23
s-33 -44 -37 -86h283c-2 44 -12 73 -31 87c-19 15 -53 22 -104 22zM227 681c48 0 62 -8 62 -55c0 -51 -14 -62 -62 -62c-49 0 -63 11 -63 62c0 47 14 55 63 55zM478 681c48 0 61 -8 61 -55c0 -51 -13 -62 -61 -62c-49 0 -63 10 -63 62c0 47 12 55 63 55z" />
    <glyph glyph-name="afii10099" unicode="&#x452;" horiz-adv-x="702" 
d="M347 581h-130v-114c57 30 120 45 191 45c81 0 130 -12 171 -55c41 -41 59 -117 59 -236c0 -114 -18 -204 -55 -270c-36 -66 -79 -109 -129 -130l-107 82c29 13 54 29 75 50c41 41 76 133 76 264c-5 159 -33 177 -144 179c-73 0 -136 -19 -137 -51v-345h-130v581h-66v87
h66v54h130v-54h130v-87z" />
    <glyph glyph-name="afii10100" unicode="&#x453;" horiz-adv-x="509" 
d="M87 0v509h421v-108h-291v-401h-130zM504 697l-184 -129h-122l154 129h152z" />
    <glyph glyph-name="afii10101" unicode="&#x454;" horiz-adv-x="581" 
d="M531 109l24 -98c-55 -17 -121 -25 -199 -25c-94 0 -166 20 -217 61c-50 41 -75 111 -75 210c0 207 119 267 286 267c85 0 153 -8 205 -23l-24 -100c-39 12 -92 18 -157 18c-59 0 -100 -7 -124 -20c-23 -13 -38 -41 -45 -82h255v-95h-258c4 -53 18 -88 42 -106
c25 -17 68 -26 130 -26c65 0 118 6 157 19z" />
    <glyph glyph-name="afii10102" unicode="&#x455;" horiz-adv-x="593" 
d="M314 524c73 0 142 -7 207 -22l-21 -102c-54 15 -119 23 -194 23c-95 0 -122 -8 -122 -59c0 -18 9 -31 27 -39c19 -7 58 -13 117 -16c149 -9 214 -52 214 -153c0 -127 -82 -170 -259 -170c-86 0 -160 7 -221 22l21 101c44 -15 109 -22 195 -22c55 0 91 4 108 11
c18 8 27 25 27 51c0 19 -10 33 -30 41c-20 9 -61 15 -122 20c-136 9 -206 48 -206 145c0 127 83 169 259 169z" />
    <glyph glyph-name="afii10103" unicode="&#x456;" horiz-adv-x="303" 
d="M153 721c60 0 77 -10 77 -61c0 -57 -17 -69 -77 -69c-61 0 -79 12 -79 69c0 51 18 61 79 61zM87 509h130v-509h-130v509z" />
    <glyph glyph-name="afii10104" unicode="&#x457;" horiz-adv-x="303" 
d="M27 681c48 0 62 -8 62 -55c0 -51 -14 -62 -62 -62c-49 0 -63 11 -63 62c0 47 14 55 63 55zM278 681c48 0 61 -8 61 -55c0 -51 -13 -62 -61 -62c-49 0 -63 10 -63 62c0 47 12 55 63 55zM87 509h130v-509h-130v509z" />
    <glyph glyph-name="afii10105" unicode="&#x458;" horiz-adv-x="303" 
d="M-38 -202v103c3 0 12 -1 16 -1c75 0 109 22 109 87v522h130v-519c0 -75 -19 -125 -56 -152s-103 -40 -199 -40zM153 721c60 0 77 -10 77 -61c0 -57 -17 -69 -77 -69c-61 0 -79 12 -79 69c0 51 18 61 79 61z" />
    <glyph glyph-name="afii10106" unicode="&#x459;" horiz-adv-x="1096" 
d="M479 0v401h-197c-3 -36 -7 -69 -11 -98c-8 -59 -23 -133 -47 -182c-37 -77 -92 -135 -187 -135l-30 124c45 1 79 32 104 93c25 62 42 164 51 306h447v-184h241c125 0 187 -54 187 -161c0 -117 -60 -164 -187 -164h-371zM609 92h206c61 0 84 21 84 70s-21 67 -84 67h-206
v-137z" />
    <glyph glyph-name="afii10107" unicode="&#x45a;" horiz-adv-x="1115" 
d="M628 325h241c125 0 187 -54 187 -161c0 -117 -60 -164 -187 -164h-371v229h-281v-229h-130v509h130v-184h281v184h130v-184zM628 92h206c63 0 84 20 84 71c0 49 -21 66 -84 66h-206v-137z" />
    <glyph glyph-name="afii10108" unicode="&#x45b;" 
d="M217 362v-362h-130v581h-66v87h66v54h130v-54h130v-87h-130v-102c57 29 123 44 199 44c73 0 126 -16 160 -49c35 -32 52 -92 52 -181v-293h-130v283c0 51 -11 86 -34 103s-59 26 -110 26c-75 0 -137 -19 -137 -50z" />
    <glyph glyph-name="afii10109" unicode="&#x45c;" horiz-adv-x="670" 
d="M670 0h-160c-52 85 -99 144 -142 176c-42 33 -92 53 -151 62v-238h-130v509h130v-257c25 15 55 39 89 70c35 31 62 58 83 80l102 107h165c-124 -131 -206 -208 -246 -233c24 -7 46 -17 65 -30c40 -27 107 -105 195 -246zM572 697l-184 -129h-122l154 129h152z" />
    <glyph glyph-name="afii10110" unicode="&#x45e;" horiz-adv-x="619" 
d="M134 699h80c0 -45 30 -58 99 -58c68 0 97 13 97 58h75c0 -91 -59 -137 -176 -137s-175 46 -175 137zM226 -25c-74 209 -150 387 -227 534h137c65 -124 122 -262 173 -414c77 159 135 297 173 414h134c-91 -247 -205 -480 -344 -701h-152c34 48 69 104 106 167z" />
    <glyph glyph-name="afii10193" unicode="&#x45f;" horiz-adv-x="715" 
d="M628 509v-509h-198l-27 -178h-85l-26 178h-205v509h130v-401h281v401h130z" />
    <glyph glyph-name="afii10050" unicode="&#x490;" horiz-adv-x="661" 
d="M111 0v697h443l42 178h85v-292h-430v-583h-140z" />
    <glyph glyph-name="afii10098" unicode="&#x491;" horiz-adv-x="509" 
d="M508 673v-272h-291v-401h-130v509h311l38 164h72z" />
    <glyph glyph-name="Wgrave" unicode="&#x1e80;" horiz-adv-x="1208" 
d="M610 494c-43 -149 -100 -313 -172 -494h-188c-98 306 -183 538 -255 697h157c33 -76 68 -168 107 -275s71 -202 96 -284c33 83 68 178 105 286s66 199 85 273h131c83 -225 146 -412 187 -559c80 193 146 380 197 559h146c-68 -225 -153 -457 -255 -697h-189
c-41 170 -92 335 -152 494zM555 876l171 -129h-130l-200 129h159z" />
    <glyph glyph-name="wgrave" unicode="&#x1e81;" horiz-adv-x="1024" 
d="M511 359c-31 -107 -77 -226 -136 -359h-169c-66 187 -135 357 -208 509h141c62 -131 115 -266 160 -407c26 60 55 132 86 215c32 84 54 148 67 192h127c46 -107 94 -242 144 -407c79 173 133 309 163 407h134c-67 -186 -140 -356 -221 -509h-169
c-37 136 -76 256 -119 359zM485 697l154 -129h-122l-183 129h151z" />
    <glyph glyph-name="Wacute" unicode="&#x1e82;" horiz-adv-x="1208" 
d="M610 494c-43 -149 -100 -313 -172 -494h-188c-98 306 -183 538 -255 697h157c33 -76 68 -168 107 -275s71 -202 96 -284c33 83 68 178 105 286s66 199 85 273h131c83 -225 146 -412 187 -559c80 193 146 380 197 559h146c-68 -225 -153 -457 -255 -697h-189
c-41 170 -92 335 -152 494zM601 747h-122l164 129h158z" />
    <glyph glyph-name="wacute" unicode="&#x1e83;" horiz-adv-x="1024" 
d="M511 359c-31 -107 -77 -226 -136 -359h-169c-66 187 -135 357 -208 509h141c62 -131 115 -266 160 -407c26 60 55 132 86 215c32 84 54 148 67 192h127c46 -107 94 -242 144 -407c79 173 133 309 163 407h134c-67 -186 -140 -356 -221 -509h-169
c-37 136 -76 256 -119 359zM700 697l-184 -129h-122l154 129h152z" />
    <glyph glyph-name="Wdieresis" unicode="&#x1e84;" horiz-adv-x="1208" 
d="M610 494c-43 -149 -100 -313 -172 -494h-188c-98 306 -183 538 -255 697h157c33 -76 68 -168 107 -275s71 -202 96 -284c33 83 68 178 105 286s66 199 85 273h131c83 -225 146 -412 187 -559c80 193 146 380 197 559h146c-68 -225 -153 -457 -255 -697h-189
c-41 170 -92 335 -152 494zM546 808c0 -51 -13 -61 -62 -61s-62 10 -62 61c0 47 13 56 62 56s62 -9 62 -56zM745 864c48 0 62 -9 62 -56c0 -51 -14 -61 -62 -61c-49 0 -62 10 -62 61c0 47 13 56 62 56z" />
    <glyph glyph-name="wdieresis" unicode="&#x1e85;" horiz-adv-x="1024" 
d="M511 359c-31 -107 -77 -226 -136 -359h-169c-66 187 -135 357 -208 509h141c62 -131 115 -266 160 -407c26 60 55 132 86 215c32 84 54 148 67 192h127c46 -107 94 -242 144 -407c79 173 133 309 163 407h134c-67 -186 -140 -356 -221 -509h-169
c-37 136 -76 256 -119 359zM391 681c48 0 62 -8 62 -55c0 -51 -14 -62 -62 -62c-49 0 -63 11 -63 62c0 47 14 55 63 55zM642 681c48 0 61 -8 61 -55c0 -51 -13 -62 -61 -62c-49 0 -63 10 -63 62c0 47 12 55 63 55z" />
    <glyph glyph-name="Ygrave" unicode="&#x1ef2;" horiz-adv-x="780" 
d="M327 0v300c-101 121 -228 253 -381 397h200c89 -87 174 -181 256 -280c105 113 187 206 245 280h182c-129 -151 -249 -283 -361 -396v-301h-141zM360 876l171 -129h-130l-200 129h159z" />
    <glyph glyph-name="ygrave" unicode="&#x1ef3;" horiz-adv-x="619" 
d="M226 -25c-74 209 -150 387 -227 534h137c65 -124 122 -262 173 -414c77 159 135 297 173 414h134c-91 -247 -205 -480 -344 -701h-152c34 48 69 104 106 167zM292 697l154 -129h-122l-183 129h151z" />
    <glyph glyph-name="endash" unicode="&#x2013;" horiz-adv-x="705" 
d="M644 222h-584v118h584v-118z" />
    <glyph glyph-name="emdash" unicode="&#x2014;" horiz-adv-x="1068" 
d="M1008 222h-948v118h948v-118z" />
    <glyph glyph-name="quoteleft" unicode="&#x2018;" horiz-adv-x="294" 
d="M169 505h-142l139 262h102z" />
    <glyph glyph-name="quoteright" unicode="&#x2019;" horiz-adv-x="294" 
d="M125 762h142l-138 -262h-103z" />
    <glyph glyph-name="quotesinglbase" unicode="&#x201a;" horiz-adv-x="281" 
d="M119 103h142l-139 -262h-102z" />
    <glyph glyph-name="quotedblleft" unicode="&#x201c;" horiz-adv-x="541" 
d="M169 505h-142l139 262h102zM416 505h-143l139 262h103z" />
    <glyph glyph-name="quotedblright" unicode="&#x201d;" horiz-adv-x="541" 
d="M373 763h142l-139 -262h-103zM126 763h142l-139 -262h-102z" />
    <glyph glyph-name="quotedblbase" unicode="&#x201e;" horiz-adv-x="541" 
d="M373 98h142l-139 -262h-103zM126 98h142l-139 -262h-102z" />
    <glyph glyph-name="dagger" unicode="&#x2020;" horiz-adv-x="537" 
d="M216 479h-180v100h180v143h104v-143h180v-100h-180v-228h-104v228z" />
    <glyph glyph-name="daggerdbl" unicode="&#x2021;" horiz-adv-x="537" 
d="M216 479h-180v100h180v143h104v-143h180v-100h-180v-96h180v-101h-180v-143h-104v143h-180v101h180v96z" />
    <glyph glyph-name="bullet" unicode="&#x2022;" horiz-adv-x="717" 
d="M358 56c-103 0 -177 20 -224 59c-47 40 -70 111 -70 212c0 100 23 169 70 208s121 59 224 59s177 -20 224 -59s71 -108 71 -208c0 -101 -23 -172 -70 -212c-47 -39 -122 -59 -225 -59z" />
    <glyph glyph-name="ellipsis" unicode="&#x2026;" horiz-adv-x="1419" 
d="M262 143c69 0 88 -11 88 -70c0 -64 -20 -78 -88 -78c-65 0 -84 14 -84 78c0 59 17 70 84 70zM707 143c69 0 88 -11 88 -70c0 -64 -20 -78 -88 -78c-65 0 -85 14 -85 78c0 59 18 70 85 70zM1154 143c69 0 87 -11 87 -70c0 -64 -19 -78 -87 -78c-65 0 -85 14 -85 78
c0 59 18 70 85 70z" />
    <glyph glyph-name="perthousand" unicode="&#x2030;" horiz-adv-x="1690" 
d="M243 0l543 697h154l-545 -697h-152zM42 491c0 86 16 145 49 176s90 47 169 47c80 0 136 -16 169 -47s50 -90 50 -176c0 -87 -17 -148 -51 -181c-33 -33 -89 -50 -168 -50s-135 17 -168 50c-33 34 -50 94 -50 181zM260 626c-43 0 -72 -8 -86 -25c-13 -17 -20 -54 -20 -111
s7 -95 21 -114c14 -18 42 -27 85 -27c44 0 73 9 86 27s20 56 20 114s-7 95 -20 111c-13 17 -41 25 -86 25zM927 -14c-79 0 -135 17 -168 50s-50 94 -50 181c0 85 16 144 49 175s90 47 169 47s135 -16 168 -47s50 -90 50 -175c0 -87 -17 -148 -50 -181s-89 -50 -168 -50z
M927 351c-43 0 -72 -8 -86 -25c-13 -16 -20 -53 -20 -110c0 -58 7 -96 21 -115c14 -18 42 -27 85 -27c44 0 73 9 86 27s20 56 20 115c0 58 -7 95 -20 111s-41 24 -86 24zM1433 -14c-79 0 -136 17 -169 50s-49 94 -49 181c0 85 16 144 49 175s90 47 169 47s135 -16 168 -47
s50 -90 50 -175c0 -87 -17 -148 -50 -181s-89 -50 -168 -50zM1433 351c-45 0 -74 -8 -87 -25c-13 -16 -20 -53 -20 -110c0 -58 7 -96 21 -115c14 -18 43 -27 86 -27s72 9 85 27s20 56 20 115c0 58 -7 95 -20 111s-41 24 -85 24z" />
    <glyph glyph-name="guilsinglleft" unicode="&#x2039;" horiz-adv-x="471" 
d="M362 585l82 -66l-225 -205l224 -209l-80 -66l-336 273z" />
    <glyph glyph-name="guilsinglright" unicode="&#x203a;" horiz-adv-x="471" 
d="M110 39l-82 66l225 204l-224 209l80 67l336 -273z" />
    <glyph glyph-name="fraction" unicode="&#x2044;" horiz-adv-x="723" 
d="M23 0l557 697h127l-557 -697h-127z" />
    <glyph glyph-name="fraction" unicode="&#x2215;" horiz-adv-x="723" 
d="M23 0l557 697h127l-557 -697h-127z" />
    <glyph glyph-name="Euro" unicode="&#x20ac;" horiz-adv-x="733" 
d="M26 310h65v89h-81l18 85h72c16 87 53 147 112 180s147 50 264 50c80 0 158 -8 233 -25l-24 -116c-51 15 -117 22 -198 22s-138 -7 -173 -22c-34 -15 -55 -44 -62 -89h297l-17 -86h-295v-88h273l-17 -85h-241c7 -47 28 -79 62 -95c35 -16 92 -24 172 -24
c81 0 147 7 198 22l24 -119c-72 -15 -149 -23 -232 -23c-115 0 -203 18 -262 53c-59 36 -97 98 -114 186h-91z" />
    <glyph glyph-name="afii61352" unicode="&#x2116;" horiz-adv-x="1461" 
d="M957 123v98h441v-98h-441zM954 506c0 80 16 135 49 164s91 44 172 44c82 0 140 -15 173 -44s50 -84 50 -164c0 -81 -17 -137 -51 -168c-33 -31 -91 -46 -172 -46s-139 15 -172 46s-49 87 -49 168zM1175 626c-45 0 -75 -7 -89 -22c-14 -14 -21 -47 -21 -98
c0 -52 7 -86 21 -102c14 -15 44 -23 89 -23c46 0 76 8 90 23s21 49 21 102c0 51 -7 84 -21 98c-13 15 -43 22 -90 22zM111 0v697h194c133 -161 266 -336 397 -525v525h140v-697h-183c-124 186 -261 369 -411 549v-549h-137z" />
    <glyph glyph-name="trademark" unicode="&#x2122;" horiz-adv-x="1017" 
d="M382 619h-143v-281h-87v281h-144v78h374v-78zM866 615l-131 -263h-67l-129 263v-277h-82v359h123l125 -260l127 260h116v-359h-82v277z" />
    <glyph glyph-name="estimated" unicode="&#x212e;" horiz-adv-x="873" 
d="M820 322v-19h-601c3 -81 22 -134 57 -159s104 -38 206 -38c34 0 75 2 123 5c49 4 82 9 100 14l22 -117c-70 -15 -152 -22 -245 -22c-143 0 -248 27 -315 82s-101 150 -101 287c0 139 33 233 101 286c69 53 154 73 281 73c129 0 223 -31 282 -92c60 -61 90 -161 90 -300z
M448 595c-84 0 -142 -11 -173 -33s-49 -69 -54 -141h450c-4 72 -21 119 -51 141c-29 22 -87 33 -172 33z" />
    <glyph glyph-name="arrowleft" unicode="&#x2190;" horiz-adv-x="727" 
d="M374 708l88 -89l-217 -194h482v-117h-482l217 -193l-87 -89l-375 341z" />
    <glyph glyph-name="arrowup" unicode="&#x2191;" horiz-adv-x="729" 
d="M365 730l340 -375l-88 -88l-194 218v-482h-117v482l-193 -218l-90 88z" />
    <glyph glyph-name="arrowright" unicode="&#x2192;" horiz-adv-x="727" 
d="M0 308v117h482l-218 194l88 88l375 -340l-375 -342l-88 90l218 193h-482z" />
    <glyph glyph-name="arrowdown" unicode="&#x2193;" horiz-adv-x="729" 
d="M23 377l89 88l194 -217v482h117v-482l193 217l89 -87l-341 -375z" />
    <glyph glyph-name="partialdiff" unicode="&#x2202;" horiz-adv-x="765" 
d="M378 428c38 0 79 -3 124 -9c-53 83 -151 176 -292 278h192c91 -69 153 -127 213 -206s92 -170 92 -267c0 -95 -22 -159 -67 -192c-44 -33 -130 -49 -257 -49c-117 0 -200 17 -248 52c-47 35 -71 96 -71 183c0 79 23 133 68 164s127 46 246 46zM557 238c0 28 -3 51 -10 68
c-56 7 -111 11 -164 11c-73 0 -120 -7 -141 -20s-31 -42 -31 -85c1 -83 19 -106 172 -111c73 0 120 8 141 24c22 16 33 54 33 113z" />
    <glyph glyph-name="product" unicode="&#x220f;" horiz-adv-x="905" 
d="M656 583h-405v-583h-140v697h684v-697h-139v583z" />
    <glyph glyph-name="summation" unicode="&#x2211;" horiz-adv-x="760" 
d="M301 344c-91 106 -179 216 -266 330v23h692v-114h-451l199 -239c-77 -90 -147 -167 -211 -231h460v-113h-705v23c82 86 176 193 282 321z" />
    <glyph glyph-name="minus" unicode="&#x2212;" 
d="M649 303h-590v118h590v-118z" />
    <glyph glyph-name="radical" unicode="&#x221a;" horiz-adv-x="704" 
d="M101 387h-102v122h184c61 -121 116 -256 167 -404c37 68 83 167 139 298c57 131 96 229 117 294h134c-31 -85 -80 -202 -147 -352c-66 -149 -120 -264 -162 -345h-170c-53 149 -107 278 -160 387z" />
    <glyph glyph-name="infinity" unicode="&#x221e;" horiz-adv-x="952" 
d="M283 450c-101 0 -132 -26 -132 -99c0 -75 31 -100 132 -100c104 0 143 29 143 100s-39 99 -143 99zM478 264c-15 -101 -92 -130 -223 -130c-79 0 -135 16 -170 47s-52 88 -52 170s17 138 52 169s91 47 170 47c131 0 208 -29 223 -129c7 53 31 89 72 106
c43 17 84 23 147 23c79 0 135 -16 169 -47c35 -31 52 -87 52 -169s-17 -139 -52 -170c-34 -31 -90 -47 -169 -47c-129 0 -207 30 -219 130zM669 252c101 0 132 26 132 99s-31 99 -132 99c-104 0 -143 -28 -143 -99s39 -99 143 -99z" />
    <glyph glyph-name="integral" unicode="&#x222b;" horiz-adv-x="401" 
d="M486 705l-24 -102c-37 9 -77 13 -120 13c-81 0 -119 -22 -119 -82v-512c0 -89 -25 -150 -70 -182c-44 -32 -95 -43 -166 -43c-65 0 -123 8 -176 23l25 99c37 -13 83 -20 136 -20c81 0 122 29 122 87v521c0 89 21 148 62 177c43 31 88 40 160 40c64 0 121 -6 170 -19z" />
    <glyph glyph-name="approxequal" unicode="&#x2248;" 
d="M588 314l79 -51c-32 -69 -99 -117 -183 -117c-33 0 -79 14 -140 42c-60 29 -107 43 -141 43c-41 0 -70 -16 -87 -49l-72 57c49 66 104 99 163 99c36 0 85 -14 147 -42c63 -27 109 -41 139 -41c48 0 74 15 95 59zM588 524l79 -51c-32 -69 -99 -117 -183 -117
c-33 0 -79 14 -140 42c-60 29 -107 43 -141 43c-41 0 -70 -16 -87 -49l-72 57c49 66 104 99 163 99c36 0 85 -14 147 -42c63 -27 109 -41 139 -41c48 0 74 15 95 59z" />
    <glyph glyph-name="notequal" unicode="&#x2260;" 
d="M413 553l66 95h135l-66 -95h101v-118h-178l-101 -149h279v-118h-356l-66 -96h-134l66 96h-100v118h177l101 149h-278v118h354z" />
    <glyph glyph-name="lessequal" unicode="&#x2264;" 
d="M649 19h-590v118h590v-118zM533 704l77 -76l-329 -192l328 -194l-74 -77l-440 240v60z" />
    <glyph glyph-name="greaterequal" unicode="&#x2265;" 
d="M60 137h591v-118h-591v118zM101 242l328 194l-329 192l77 76l438 -239v-60l-440 -240z" />
    <glyph glyph-name="lozenge" unicode="&#x25ca;" horiz-adv-x="732" 
d="M21 265c63 128 141 273 234 434h240c47 -109 120 -253 217 -434c-96 -177 -168 -322 -217 -433h-240c-93 161 -171 305 -234 433zM337 -74h59c63 137 117 251 164 340c-56 105 -111 218 -164 339h-59c-77 -141 -135 -254 -174 -339c47 -98 105 -211 174 -340z" />
    <glyph glyph-name="dotlessj" unicode="&#xf6be;" horiz-adv-x="303" 
d="M-38 -202v103c3 0 12 -1 16 -1c75 0 109 22 109 87v522h130v-519c0 -75 -19 -125 -56 -152s-103 -40 -199 -40zM153 721c60 0 77 -10 77 -61c0 -57 -17 -69 -77 -69c-61 0 -79 12 -79 69c0 51 18 61 79 61z" />
    <glyph glyph-name="commaaccent" unicode="&#xf6c3;" horiz-adv-x="310" 
d="M140 -51h147l-86 -167h-102z" />
    <glyph glyph-name="Acute" unicode="&#xf6c9;" horiz-adv-x="489" 
d="M241 747h-122l164 129h158z" />
    <glyph glyph-name="Caron" unicode="&#xf6ca;" horiz-adv-x="800" 
d="M332 876l101 -85l98 85h119l-149 -129h-138l-155 129h124z" />
    <glyph glyph-name="Dieresis" unicode="&#xf6cb;" horiz-adv-x="517" 
d="M237 808c0 -51 -13 -61 -62 -61s-62 10 -62 61c0 47 13 56 62 56s62 -9 62 -56zM436 864c48 0 62 -9 62 -56c0 -51 -14 -61 -62 -61c-49 0 -62 10 -62 61c0 47 13 56 62 56z" />
    <glyph glyph-name="Grave" unicode="&#xf6ce;" horiz-adv-x="489" 
d="M325 876l171 -129h-130l-200 129h159z" />
    <glyph glyph-name="Hungarumlaut" unicode="&#xf6cf;" horiz-adv-x="755" 
d="M202 747l115 129h120l-146 -129h-89zM411 747l115 129h120l-145 -129h-90z" />
    <glyph glyph-name="Macron" unicode="&#xf6d0;" horiz-adv-x="385" 
d="M480 753h-325v92h325v-92z" />
    <glyph glyph-name="Lslashsmall" unicode="&#xf6f9;" horiz-adv-x="518" 
d="M521 111v-111h-434v140l-55 -35v97l55 37v270h130v-183l119 82v-98l-119 -81v-118h304z" />
    <glyph glyph-name="OEsmall" unicode="&#xf6fa;" horiz-adv-x="1018" 
d="M971 101v-101h-477c-41 -9 -86 -14 -136 -14c-103 0 -177 20 -224 59c-47 40 -70 111 -70 212c0 100 23 169 70 208s121 59 224 59c52 0 99 -5 140 -15h473v-101h-351c17 -23 28 -55 31 -95h239v-95h-239c-1 -51 -12 -90 -33 -117h353zM358 421c-64 0 -107 -10 -128 -30
s-32 -65 -32 -136c0 -69 11 -114 32 -135c22 -21 65 -31 128 -31s105 10 126 31c22 21 33 66 33 135c0 73 -7 114 -35 137c-27 24 -59 29 -124 29z" />
    <glyph glyph-name="Scaronsmall" unicode="&#xf6fd;" horiz-adv-x="593" 
d="M314 524c69 0 139 -8 210 -24l-23 -101c-61 16 -126 24 -195 24c-95 0 -122 -8 -122 -59c0 -17 9 -30 28 -38s58 -14 116 -17c149 -9 214 -52 214 -153c0 -127 -82 -170 -259 -170c-87 0 -161 8 -223 24l22 100c45 -15 110 -23 196 -23c55 0 91 4 108 11
c18 8 27 25 27 51c0 18 -10 32 -31 41s-61 16 -121 20c-136 9 -206 48 -206 145c0 127 83 169 259 169zM77 697h127l99 -83l95 83h122l-150 -129h-138z" />
    <glyph glyph-name="Zcaronsmall" unicode="&#xf6ff;" horiz-adv-x="601" 
d="M565 0h-543v29c51 50 112 114 183 193s123 138 154 179h-316v108h531v-28c-43 -55 -98 -120 -165 -194s-123 -134 -168 -179h324v-108zM87 697h127l99 -83l95 83h122l-150 -129h-138z" />
    <glyph glyph-name="exclamsmall" unicode="&#xf721;" horiz-adv-x="385" 
d="M147 207l-33 302h155l-34 -302h-88zM192 141c68 0 87 -12 87 -71c0 -64 -19 -77 -87 -77c-67 0 -86 13 -86 77c0 59 19 71 86 71z" />
    <glyph glyph-name="ampersandsmall" unicode="&#xf726;" horiz-adv-x="871" 
d="M845 0h-168c-19 27 -40 50 -65 70c-103 -56 -203 -84 -299 -84c-105 0 -177 10 -215 31s-57 60 -57 118c0 85 56 129 169 134c-93 8 -120 47 -120 124c3 98 49 128 267 131c228 -4 263 -31 265 -131c0 -73 -51 -114 -154 -122c47 -6 102 -31 163 -76c40 39 64 73 72 104
h144c-13 -61 -53 -119 -120 -172c42 -39 81 -81 118 -127zM317 82c83 0 155 19 218 58c-63 51 -132 77 -207 77c-112 0 -148 -15 -148 -66c0 -27 9 -46 26 -55s54 -14 111 -14zM354 317c101 0 140 13 140 57c-1 44 -8 54 -135 57c-56 0 -93 -4 -111 -13
c-18 -8 -27 -23 -27 -44c0 -44 33 -57 133 -57z" />
    <glyph glyph-name="zerooldstyle" unicode="&#xf730;" horiz-adv-x="765" 
d="M99 257c0 100 23 169 69 208s118 59 217 59s170 -19 214 -58c45 -39 67 -108 67 -209s-22 -172 -67 -212c-44 -39 -115 -59 -214 -59s-171 20 -217 60s-69 110 -69 211zM238 255c0 -66 10 -110 30 -131c21 -21 60 -31 117 -31s95 10 113 30c19 21 28 65 28 132
c0 69 -9 113 -27 132s-56 29 -114 29s-97 -10 -117 -30c-20 -19 -30 -63 -30 -131z" />
    <glyph glyph-name="oneoldstyle" unicode="&#xf731;" horiz-adv-x="765" 
d="M530 522v-522h-136v354l-197 -69l-35 117z" />
    <glyph glyph-name="twooldstyle" unicode="&#xf732;" horiz-adv-x="765" 
d="M344 103h317v-103h-550v105c112 43 196 79 251 106s92 50 109 67c17 18 26 38 26 60c0 26 -9 44 -28 53c-19 10 -61 15 -126 15c-76 0 -144 -8 -203 -25l-24 121c75 15 159 22 254 22c105 0 177 -12 217 -37c41 -24 61 -65 61 -123c0 -55 -21 -102 -64 -141
c-42 -38 -122 -78 -240 -120z" />
    <glyph glyph-name="threeoldstyle" unicode="&#xf733;" horiz-adv-x="765" 
d="M486 181c147 -11 195 -68 195 -180c0 -75 -27 -127 -80 -157s-140 -45 -263 -45c-94 0 -187 8 -278 24l25 116c62 -14 136 -21 221 -21c88 0 147 7 176 22c29 14 44 40 44 79c0 77 -44 102 -171 102h-113v112h110c109 0 161 22 161 90c0 32 -14 54 -41 65
c-27 12 -81 18 -163 18c-81 0 -153 -7 -218 -22l-25 116c95 16 187 24 276 24c120 0 203 -14 250 -41s71 -73 71 -137c0 -101 -41 -156 -177 -165z" />
    <glyph glyph-name="fouroldstyle" unicode="&#xf734;" horiz-adv-x="765" 
d="M214 103h253v301c-95 -97 -180 -197 -253 -301zM411 509h189v-406h118v-103h-118v-192h-133v192h-439v43c139 185 266 341 383 466z" />
    <glyph glyph-name="fiveoldstyle" unicode="&#xf735;" horiz-adv-x="765" 
d="M643 395h-390v-154c48 3 88 5 119 5c117 0 198 -17 243 -50s68 -88 68 -167c0 -87 -25 -148 -75 -181c-50 -34 -136 -51 -259 -51c-95 0 -185 8 -269 24l24 114c59 -13 130 -19 213 -19c87 0 143 7 170 22c27 14 41 42 41 84c-4 91 -24 108 -203 112
c-87 0 -155 -4 -204 -12v387h522v-114z" />
    <glyph glyph-name="sixoldstyle" unicode="&#xf736;" horiz-adv-x="765" 
d="M687 690l-21 -119c-58 15 -129 23 -212 23s-141 -12 -176 -37c-35 -24 -54 -70 -59 -139c65 9 126 14 181 14c118 0 200 -16 245 -49c46 -33 69 -89 69 -168c0 -87 -24 -147 -71 -180s-129 -49 -248 -49c-247 3 -323 80 -328 368c0 143 26 232 90 287
c65 55 152 73 296 73c85 0 163 -8 234 -24zM395 105c152 4 169 23 171 103c-2 88 -19 109 -184 113c-65 0 -120 -5 -165 -14c10 -176 41 -199 178 -202z" />
    <glyph glyph-name="sevenoldstyle" unicode="&#xf737;" horiz-adv-x="765" 
d="M77 509h653v-43c-60 -75 -130 -180 -210 -315c-80 -134 -140 -248 -181 -343h-165c49 104 107 213 176 328s130 201 181 259h-454v114z" />
    <glyph glyph-name="eightoldstyle" unicode="&#xf738;" horiz-adv-x="765" 
d="M384 94c69 0 115 7 137 22c23 15 34 44 34 85s-12 70 -37 87c-24 17 -69 26 -134 26c-131 0 -172 -30 -172 -113c0 -41 11 -70 33 -85c23 -15 69 -22 139 -22zM384 417c115 0 157 27 157 98c0 35 -11 58 -32 70c-21 13 -63 19 -125 19c-63 0 -105 -6 -127 -19
c-21 -12 -32 -35 -32 -70c0 -71 43 -98 159 -98zM384 -14c-117 0 -199 15 -248 45c-48 31 -72 83 -72 157c0 112 49 174 194 181c-68 5 -114 21 -139 48c-24 28 -36 68 -36 119c1 125 63 174 300 178c237 -3 300 -52 301 -178c0 -51 -12 -91 -37 -119
c-25 -27 -71 -43 -138 -48c144 -7 193 -69 193 -181c0 -74 -24 -126 -72 -157c-48 -30 -130 -45 -246 -45z" />
    <glyph glyph-name="nineoldstyle" unicode="&#xf739;" horiz-adv-x="765" 
d="M378 78c-119 0 -201 15 -246 46s-68 85 -68 164c0 88 24 149 71 184s130 52 248 52c262 -5 318 -47 324 -241c0 -97 -33 -189 -94 -268c-60 -79 -122 -138 -213 -207h-192c147 107 246 201 297 280c-51 -7 -94 -10 -127 -10zM557 269c0 59 -11 97 -33 113
c-21 16 -68 24 -141 24c-71 0 -118 -8 -140 -23c-21 -15 -32 -44 -32 -89c5 -89 19 -101 185 -104c50 0 100 3 150 9c7 22 11 45 11 70z" />
    <glyph glyph-name="questionsmall" unicode="&#xf73f;" horiz-adv-x="583" 
d="M339 202h-139c120 65 170 116 170 165c0 40 -25 57 -128 57c-75 0 -132 -5 -171 -15l-18 101c69 12 137 18 202 18c97 0 165 -11 205 -32s60 -55 60 -102c0 -72 -54 -132 -181 -192zM277 141c68 0 87 -12 87 -71c0 -64 -19 -77 -87 -77c-67 0 -85 13 -85 77
c0 59 18 71 85 71z" />
    <glyph glyph-name="Asmall" unicode="&#xf761;" horiz-adv-x="685" 
d="M681 0h-143c-16 27 -36 68 -60 123h-291c-21 -48 -36 -89 -46 -123h-140c63 162 141 332 233 509h220c60 -167 136 -336 227 -509zM362 409h-48c-33 -63 -63 -128 -90 -195h215c-19 44 -44 109 -77 195z" />
    <glyph glyph-name="Bsmall" unicode="&#xf762;" horiz-adv-x="706" 
d="M217 96h211c57 0 78 15 78 58c0 47 -21 66 -78 66h-211v-124zM217 311h211c53 0 65 15 65 52c0 40 -10 50 -65 50h-211v-102zM496 270c112 -3 149 -47 149 -131c0 -93 -59 -139 -177 -139h-381v509h375c128 0 167 -41 167 -122c0 -84 -44 -110 -133 -117z" />
    <glyph glyph-name="Csmall" unicode="&#xf763;" horiz-adv-x="567" 
d="M531 116l19 -106c-49 -16 -109 -24 -180 -24c-101 0 -177 20 -229 61c-51 41 -77 111 -77 210s26 168 77 207c52 40 128 60 229 60c69 0 129 -7 180 -21l-20 -108c-39 12 -88 18 -149 18c-76 0 -111 -4 -143 -27c-31 -21 -40 -60 -40 -131c0 -65 12 -108 37 -128
s74 -30 146 -30c59 0 109 6 150 19z" />
    <glyph glyph-name="Dsmall" unicode="&#xf764;" horiz-adv-x="711" 
d="M347 0h-260v509h260c104 0 180 -18 228 -55c48 -36 72 -102 72 -197c0 -96 -24 -163 -72 -201c-48 -37 -124 -56 -228 -56zM335 408h-118v-307h118c69 0 115 9 140 28s37 61 37 126c0 69 -9 107 -41 128c-31 21 -64 25 -136 25z" />
    <glyph glyph-name="Esmall" unicode="&#xf765;" horiz-adv-x="611" 
d="M217 313h267v-95h-267v-117h347v-101h-477v509h477v-101h-347v-95z" />
    <glyph glyph-name="Fsmall" unicode="&#xf766;" horiz-adv-x="572" 
d="M217 0h-130v509h477v-101h-347v-120h267v-97h-267v-191z" />
    <glyph glyph-name="Gsmall" unicode="&#xf767;" horiz-adv-x="693" 
d="M499 101v99h-137v97h251v-282c-71 -19 -152 -29 -243 -29c-100 0 -176 20 -228 61s-78 111 -78 210c0 101 31 172 90 211c60 40 131 56 230 56c79 0 150 -7 213 -21l-22 -104c-54 14 -116 21 -185 21c-71 0 -121 -11 -150 -32c-28 -21 -42 -66 -42 -133
c0 -65 14 -108 43 -131s75 -34 140 -34c41 0 80 4 118 11z" />
    <glyph glyph-name="Hsmall" unicode="&#xf768;" horiz-adv-x="715" 
d="M498 216h-281v-216h-130v509h130v-187h281v187h130v-509h-130v216z" />
    <glyph glyph-name="Ismall" unicode="&#xf769;" horiz-adv-x="303" 
d="M87 509h130v-509h-130v509z" />
    <glyph glyph-name="Jsmall" unicode="&#xf76a;" horiz-adv-x="496" 
d="M280 509h131v-333c0 -127 -79 -190 -237 -190c-71 0 -130 7 -177 21l24 105c39 -11 85 -17 137 -17c85 0 122 22 122 90v324z" />
    <glyph glyph-name="Ksmall" unicode="&#xf76b;" horiz-adv-x="670" 
d="M87 509h130v-509h-130v509zM686 0h-176c-143 166 -240 256 -289 269c22 11 58 38 107 81c50 43 104 96 162 159h176c-129 -125 -217 -202 -265 -229c20 -9 56 -39 108 -89s111 -114 177 -191z" />
    <glyph glyph-name="Lsmall" unicode="&#xf76c;" horiz-adv-x="518" 
d="M521 111v-111h-434v509h130v-398h304z" />
    <glyph glyph-name="Msmall" unicode="&#xf76d;" horiz-adv-x="927" 
d="M466 178c51 101 113 212 184 331h190v-509h-129v399c-69 -112 -136 -235 -201 -369h-97c-55 119 -120 242 -197 369v-399h-129v509h199c63 -101 123 -211 180 -331z" />
    <glyph glyph-name="Nsmall" unicode="&#xf76e;" horiz-adv-x="724" 
d="M506 181v328h131v-509h-137c-43 59 -91 122 -146 188c-54 67 -100 118 -137 154v-342h-130v509h135c99 -99 194 -209 284 -328z" />
    <glyph glyph-name="Osmall" unicode="&#xf76f;" horiz-adv-x="717" 
d="M358 -14c-103 0 -177 20 -224 59c-47 40 -70 111 -70 212c0 100 23 169 70 208s121 59 224 59s177 -20 224 -59s71 -108 71 -208c0 -101 -23 -172 -70 -212c-47 -39 -122 -59 -225 -59zM358 420c-69 0 -100 -4 -127 -28s-33 -62 -33 -137c0 -69 10 -114 31 -134
s64 -30 129 -30s107 10 128 30s31 65 31 134c0 75 -6 113 -33 137c-25 24 -58 28 -126 28z" />
    <glyph glyph-name="Psmall" unicode="&#xf770;" horiz-adv-x="685" 
d="M422 411h-205v-137h205c57 0 78 19 78 67c0 51 -19 70 -78 70zM461 181h-244v-181h-130v509h361c133 0 191 -54 191 -166c0 -108 -59 -162 -178 -162z" />
    <glyph glyph-name="Qsmall" unicode="&#xf771;" horiz-adv-x="717" 
d="M345 -14c-95 0 -165 20 -212 60c-46 41 -69 111 -69 211s23 169 70 208s121 59 224 59s177 -20 224 -59s71 -108 71 -208c0 -145 -45 -220 -141 -249c51 -9 115 -62 228 -190h-157c-91 112 -171 168 -238 168zM198 255c0 -69 10 -114 31 -135s64 -31 129 -31
s107 10 128 31s31 66 31 135c0 71 -10 117 -31 136c-20 20 -63 30 -128 30s-108 -10 -129 -30c-21 -19 -31 -65 -31 -136z" />
    <glyph glyph-name="Rsmall" unicode="&#xf772;" horiz-adv-x="699" 
d="M87 509h367c123 0 185 -50 185 -149c0 -90 -55 -137 -165 -140c31 -7 60 -24 88 -51c29 -27 74 -83 135 -169h-162c-48 71 -87 119 -116 144s-57 37 -84 37h-118v-181h-130v509zM217 279h199c63 0 87 19 87 66c0 48 -21 64 -84 64h-202v-130z" />
    <glyph glyph-name="Ssmall" unicode="&#xf773;" horiz-adv-x="593" 
d="M314 524c69 0 139 -8 210 -24l-23 -101c-61 16 -126 24 -195 24c-95 0 -122 -8 -122 -59c0 -17 9 -30 28 -38s58 -14 116 -17c149 -9 214 -52 214 -153c0 -127 -82 -170 -259 -170c-87 0 -161 8 -223 24l22 100c45 -15 110 -23 196 -23c55 0 91 4 108 11
c18 8 27 25 27 51c0 18 -10 32 -31 41s-61 16 -121 20c-136 9 -206 48 -206 145c0 127 83 169 259 169z" />
    <glyph glyph-name="Tsmall" unicode="&#xf774;" horiz-adv-x="586" 
d="M581 401h-223v-401h-131v401h-222v108h576v-108z" />
    <glyph glyph-name="Usmall" unicode="&#xf775;" horiz-adv-x="704" 
d="M352 97c55 0 91 8 110 23s29 42 29 79v310h130v-303c0 -83 -20 -140 -60 -172s-110 -48 -209 -48s-169 16 -209 48s-60 89 -60 172v303h130v-310c0 -75 31 -102 139 -102z" />
    <glyph glyph-name="Vsmall" unicode="&#xf776;" horiz-adv-x="633" 
d="M316 105c77 148 136 283 177 404h135c-67 -173 -145 -342 -232 -509h-170c-59 170 -132 340 -217 509h139c61 -121 117 -255 168 -404z" />
    <glyph glyph-name="Wsmall" unicode="&#xf777;" horiz-adv-x="1024" 
d="M513 359c-41 -125 -87 -244 -138 -359h-169c-53 162 -123 332 -208 509h141c61 -129 114 -264 160 -404c28 63 57 135 87 216c31 81 53 143 66 188h127c59 -143 107 -278 144 -404c73 153 128 287 163 404h134c-71 -189 -145 -359 -221 -509h-169
c-32 125 -71 244 -117 359z" />
    <glyph glyph-name="Xsmall" unicode="&#xf778;" horiz-adv-x="631" 
d="M630 0h-156c-54 68 -103 126 -148 175c-51 -59 -107 -118 -167 -175h-157c47 43 131 127 252 254c-93 103 -177 188 -250 255h171c55 -57 107 -113 155 -169c52 55 100 112 145 169h153c-77 -93 -150 -176 -221 -251c84 -92 158 -178 223 -258z" />
    <glyph glyph-name="Ysmall" unicode="&#xf779;" horiz-adv-x="589" 
d="M304 318c52 51 108 114 169 191h152c-86 -105 -173 -199 -260 -281v-228h-131v228c-104 118 -195 212 -272 281h165c44 -42 103 -106 177 -191z" />
    <glyph glyph-name="Zsmall" unicode="&#xf77a;" horiz-adv-x="601" 
d="M565 0h-543v29c51 50 112 114 183 193s123 138 154 179h-316v108h531v-28c-43 -55 -98 -120 -165 -194s-123 -134 -168 -179h324v-108z" />
    <glyph glyph-name="exclamdownsmall" unicode="&#xf7a1;" horiz-adv-x="385" 
d="M238 302l32 -302h-154l34 302h88zM193 369c-69 0 -88 11 -88 70c0 64 20 78 88 78c67 0 86 -14 86 -78c0 -59 -19 -70 -86 -70z" />
    <glyph glyph-name="questiondownsmall" unicode="&#xf7bf;" horiz-adv-x="583" 
d="M236 318h138c-119 -67 -169 -117 -169 -166c0 -19 8 -34 25 -43s51 -13 102 -13c73 0 130 5 171 14l18 -101c-74 -11 -141 -17 -202 -17c-97 0 -165 10 -205 31s-60 55 -60 102c0 73 54 132 182 193zM298 379c-69 0 -88 11 -88 70c0 64 19 78 88 78c65 0 84 -14 84 -78
c0 -59 -17 -70 -84 -70z" />
    <glyph glyph-name="Agravesmall" unicode="&#xf7e0;" horiz-adv-x="685" 
d="M681 0h-143c-16 27 -36 68 -60 123h-291c-21 -48 -36 -89 -46 -123h-140c63 162 141 332 233 509h220c60 -167 136 -336 227 -509zM362 409h-48c-33 -63 -63 -128 -90 -195h215c-19 44 -44 109 -77 195zM310 697l154 -129h-122l-183 129h151z" />
    <glyph glyph-name="Aacutesmall" unicode="&#xf7e1;" horiz-adv-x="685" 
d="M681 0h-143c-16 27 -36 68 -60 123h-291c-21 -48 -36 -89 -46 -123h-140c63 162 141 332 233 509h220c60 -167 136 -336 227 -509zM362 409h-48c-33 -63 -63 -128 -90 -195h215c-19 44 -44 109 -77 195zM536 697l-184 -129h-122l154 129h152z" />
    <glyph glyph-name="Acircumflexsmall" unicode="&#xf7e2;" horiz-adv-x="685" 
d="M681 0h-143c-16 27 -36 68 -60 123h-291c-21 -48 -36 -89 -46 -123h-140c63 162 141 332 233 509h220c60 -167 136 -336 227 -509zM362 409h-48c-33 -63 -63 -128 -90 -195h215c-19 44 -44 109 -77 195zM563 568h-127l-99 81l-95 -81h-122l150 129h138z" />
    <glyph glyph-name="Atildesmall" unicode="&#xf7e3;" horiz-adv-x="685" 
d="M507 692l55 -38c-29 -63 -74 -95 -135 -95c-23 0 -55 10 -94 29s-70 29 -92 29c-33 0 -57 -15 -72 -45l-50 43c39 55 73 82 125 82c25 0 57 -10 96 -29c40 -19 71 -29 92 -29c39 0 58 14 75 53zM681 0h-143c-16 27 -36 68 -60 123h-291c-21 -48 -36 -89 -46 -123h-140
c63 162 141 332 233 509h220c60 -167 136 -336 227 -509zM362 409h-48c-33 -63 -63 -128 -90 -195h215c-19 44 -44 109 -77 195z" />
    <glyph glyph-name="Adieresissmall" unicode="&#xf7e4;" horiz-adv-x="685" 
d="M215 681c48 0 62 -8 62 -55c0 -51 -14 -62 -62 -62c-49 0 -63 11 -63 62c0 47 14 55 63 55zM466 681c48 0 61 -8 61 -55c0 -51 -13 -62 -61 -62c-49 0 -63 10 -63 62c0 47 12 55 63 55zM681 0h-143c-16 27 -36 68 -60 123h-291c-21 -48 -36 -89 -46 -123h-140
c63 162 141 332 233 509h220c60 -167 136 -336 227 -509zM362 409h-48c-33 -63 -63 -128 -90 -195h215c-19 44 -44 109 -77 195z" />
    <glyph glyph-name="Aringsmall" unicode="&#xf7e5;" horiz-adv-x="685" 
d="M340 741c103 0 141 -26 141 -98c0 -75 -40 -98 -141 -98c-103 0 -142 22 -142 98c0 73 35 98 142 98zM414 641c0 36 -13 47 -74 47s-73 -11 -73 -47s12 -45 73 -45s74 10 74 45zM681 0h-143c-16 27 -36 68 -60 123h-291c-21 -48 -36 -89 -46 -123h-140
c63 162 141 332 233 509h220c60 -167 136 -336 227 -509zM362 409h-48c-33 -63 -63 -128 -90 -195h215c-19 44 -44 109 -77 195z" />
    <glyph glyph-name="AEsmall" unicode="&#xf7e6;" horiz-adv-x="996" 
d="M602 313h267v-95h-267v-117h347v-101h-478v125h-309c-43 -51 -76 -92 -101 -125h-150c121 151 271 321 452 509h586v-101h-347v-95zM471 417h-53l-179 -200h232v200z" />
    <glyph glyph-name="Ccedillasmall" unicode="&#xf7e7;" horiz-adv-x="567" 
d="M531 116l19 -106c-44 -14 -98 -22 -162 -24v-28c107 0 139 -18 139 -78c0 -61 -50 -83 -170 -83c-50 0 -88 5 -114 14l28 55c26 -7 56 -11 90 -11c45 0 61 6 61 26c0 21 -16 28 -72 28c-15 0 -33 -1 -54 -2l38 80c-179 8 -270 83 -270 270c0 99 26 168 77 207
c52 40 128 60 229 60c69 0 129 -7 180 -21l-20 -108c-39 12 -88 18 -149 18c-76 0 -111 -4 -143 -27c-31 -21 -40 -60 -40 -131c0 -65 12 -108 37 -128s74 -30 146 -30c59 0 109 6 150 19z" />
    <glyph glyph-name="Egravesmall" unicode="&#xf7e8;" horiz-adv-x="611" 
d="M217 313h267v-95h-267v-117h347v-101h-477v509h477v-101h-347v-95zM310 697l154 -129h-122l-183 129h151z" />
    <glyph glyph-name="Eacutesmall" unicode="&#xf7e9;" horiz-adv-x="611" 
d="M217 313h267v-95h-267v-117h347v-101h-477v509h477v-101h-347v-95zM527 697l-184 -129h-122l154 129h152z" />
    <glyph glyph-name="Ecircumflexsmall" unicode="&#xf7ea;" horiz-adv-x="611" 
d="M217 313h267v-95h-267v-117h347v-101h-477v509h477v-101h-347v-95zM565 568h-127l-99 81l-95 -81h-122l150 129h138z" />
    <glyph glyph-name="Edieresissmall" unicode="&#xf7eb;" horiz-adv-x="611" 
d="M216 681c48 0 62 -8 62 -55c0 -51 -14 -62 -62 -62c-49 0 -63 11 -63 62c0 47 14 55 63 55zM467 681c48 0 61 -8 61 -55c0 -51 -13 -62 -61 -62c-49 0 -63 10 -63 62c0 47 12 55 63 55zM217 313h267v-95h-267v-117h347v-101h-477v509h477v-101h-347v-95z" />
    <glyph glyph-name="Igravesmall" unicode="&#xf7ec;" horiz-adv-x="303" 
d="M87 509h130v-509h-130v509zM106 697l154 -129h-122l-183 129h151z" />
    <glyph glyph-name="Iacutesmall" unicode="&#xf7ed;" horiz-adv-x="303" 
d="M87 509h130v-509h-130v509zM353 697l-184 -129h-122l154 129h152z" />
    <glyph glyph-name="Icircumflexsmall" unicode="&#xf7ee;" horiz-adv-x="303" 
d="M87 509h130v-509h-130v509zM373 568h-127l-99 81l-95 -81h-122l150 129h138z" />
    <glyph glyph-name="Idieresissmall" unicode="&#xf7ef;" horiz-adv-x="303" 
d="M27 681c48 0 62 -8 62 -55c0 -51 -14 -62 -62 -62c-49 0 -63 11 -63 62c0 47 14 55 63 55zM278 681c48 0 61 -8 61 -55c0 -51 -13 -62 -61 -62c-49 0 -63 10 -63 62c0 47 12 55 63 55zM87 509h130v-509h-130v509z" />
    <glyph glyph-name="Ethsmall" unicode="&#xf7f0;" horiz-adv-x="711" 
d="M87 220h-61v90h61v199h260c104 0 180 -18 228 -55c48 -36 72 -102 72 -197c0 -96 -24 -163 -72 -201c-48 -37 -124 -56 -228 -56h-260v220zM335 408h-118v-98h113v-90h-113v-119h118c67 0 114 10 139 29s38 61 38 125c0 68 -10 108 -42 128c-32 21 -66 25 -135 25z" />
    <glyph glyph-name="Ntildesmall" unicode="&#xf7f1;" horiz-adv-x="724" 
d="M506 181v328h131v-509h-137c-43 59 -91 122 -146 188c-54 67 -100 118 -137 154v-342h-130v509h135c99 -99 194 -209 284 -328zM536 692l55 -38c-29 -63 -74 -95 -135 -95c-23 0 -55 10 -94 29s-70 29 -92 29c-33 0 -57 -15 -72 -45l-50 43c39 55 73 82 125 82
c25 0 57 -10 96 -29c40 -19 71 -29 92 -29c39 0 58 14 75 53z" />
    <glyph glyph-name="Ogravesmall" unicode="&#xf7f2;" horiz-adv-x="717" 
d="M358 -14c-103 0 -177 20 -224 59c-47 40 -70 111 -70 212c0 100 23 169 70 208s121 59 224 59s177 -20 224 -59s71 -108 71 -208c0 -101 -23 -172 -70 -212c-47 -39 -122 -59 -225 -59zM358 420c-69 0 -100 -4 -127 -28s-33 -62 -33 -137c0 -69 10 -114 31 -134
s64 -30 129 -30s107 10 128 30s31 65 31 134c0 75 -6 113 -33 137c-25 24 -58 28 -126 28zM327 697l154 -129h-122l-183 129h151z" />
    <glyph glyph-name="Oacutesmall" unicode="&#xf7f3;" horiz-adv-x="717" 
d="M358 -14c-103 0 -177 20 -224 59c-47 40 -70 111 -70 212c0 100 23 169 70 208s121 59 224 59s177 -20 224 -59s71 -108 71 -208c0 -101 -23 -172 -70 -212c-47 -39 -122 -59 -225 -59zM358 420c-69 0 -100 -4 -127 -28s-33 -62 -33 -137c0 -69 10 -114 31 -134
s64 -30 129 -30s107 10 128 30s31 65 31 134c0 75 -6 113 -33 137c-25 24 -58 28 -126 28zM508 697l-184 -129h-122l154 129h152z" />
    <glyph glyph-name="Ocircumflexsmall" unicode="&#xf7f4;" horiz-adv-x="717" 
d="M358 -14c-103 0 -177 20 -224 59c-47 40 -70 111 -70 212c0 100 23 169 70 208s121 59 224 59s177 -20 224 -59s71 -108 71 -208c0 -101 -23 -172 -70 -212c-47 -39 -122 -59 -225 -59zM358 420c-69 0 -100 -4 -127 -28s-33 -62 -33 -137c0 -69 10 -114 31 -134
s64 -30 129 -30s107 10 128 30s31 65 31 134c0 75 -6 113 -33 137c-25 24 -58 28 -126 28zM580 568h-127l-99 81l-95 -81h-122l150 129h138z" />
    <glyph glyph-name="Otildesmall" unicode="&#xf7f5;" horiz-adv-x="717" 
d="M525 692l55 -38c-29 -63 -74 -95 -135 -95c-23 0 -55 10 -94 29s-70 29 -92 29c-33 0 -57 -15 -72 -45l-50 43c39 55 73 82 125 82c25 0 57 -10 96 -29c40 -19 71 -29 92 -29c39 0 58 14 75 53zM358 -14c-103 0 -177 20 -224 59c-47 40 -70 111 -70 212
c0 100 23 169 70 208s121 59 224 59s177 -20 224 -59s71 -108 71 -208c0 -101 -23 -172 -70 -212c-47 -39 -122 -59 -225 -59zM358 420c-69 0 -100 -4 -127 -28s-33 -62 -33 -137c0 -69 10 -114 31 -134s64 -30 129 -30s107 10 128 30s31 65 31 134c0 75 -6 113 -33 137
c-25 24 -58 28 -126 28z" />
    <glyph glyph-name="Odieresissmall" unicode="&#xf7f6;" horiz-adv-x="717" 
d="M358 -14c-103 0 -177 20 -224 59c-47 40 -70 111 -70 212c0 100 23 169 70 208s121 59 224 59s177 -20 224 -59s71 -108 71 -208c0 -101 -23 -172 -70 -212c-47 -39 -122 -59 -225 -59zM358 420c-69 0 -100 -4 -127 -28s-33 -62 -33 -137c0 -69 10 -114 31 -134
s64 -30 129 -30s107 10 128 30s31 65 31 134c0 75 -6 113 -33 137c-25 24 -58 28 -126 28zM233 681c48 0 62 -8 62 -55c0 -51 -14 -62 -62 -62c-49 0 -63 11 -63 62c0 47 14 55 63 55zM484 681c48 0 61 -8 61 -55c0 -51 -13 -62 -61 -62c-49 0 -63 10 -63 62
c0 47 12 55 63 55z" />
    <glyph glyph-name="Oslashsmall" unicode="&#xf7f8;" horiz-adv-x="717" 
d="M358 -14c-83 0 -146 12 -190 36l-25 -22h-128l89 80c-27 41 -40 100 -40 177c0 100 23 169 70 208s121 59 224 59c86 0 150 -12 193 -37l24 22h128l-89 -81c26 -40 39 -97 39 -171c0 -101 -23 -172 -70 -212c-47 -39 -122 -59 -225 -59zM358 421c-62 0 -104 -9 -126 -27
s-33 -57 -33 -117c0 -48 4 -82 11 -102l250 231c-21 10 -55 15 -102 15zM517 255c0 35 -4 60 -11 77l-246 -228c22 -9 60 -14 114 -14c56 0 94 11 113 33c20 23 30 67 30 132z" />
    <glyph glyph-name="Ugravesmall" unicode="&#xf7f9;" horiz-adv-x="704" 
d="M352 97c55 0 91 8 110 23s29 42 29 79v310h130v-303c0 -83 -20 -140 -60 -172s-110 -48 -209 -48s-169 16 -209 48s-60 89 -60 172v303h130v-310c0 -75 31 -102 139 -102zM317 697l154 -129h-122l-183 129h151z" />
    <glyph glyph-name="Uacutesmall" unicode="&#xf7fa;" horiz-adv-x="704" 
d="M352 97c55 0 91 8 110 23s29 42 29 79v310h130v-303c0 -83 -20 -140 -60 -172s-110 -48 -209 -48s-169 16 -209 48s-60 89 -60 172v303h130v-310c0 -75 31 -102 139 -102zM535 697l-184 -129h-122l154 129h152z" />
    <glyph glyph-name="Ucircumflexsmall" unicode="&#xf7fb;" horiz-adv-x="704" 
d="M352 97c55 0 91 8 110 23s29 42 29 79v310h130v-303c0 -83 -20 -140 -60 -172s-110 -48 -209 -48s-169 16 -209 48s-60 89 -60 172v303h130v-310c0 -75 31 -102 139 -102zM573 568h-127l-99 81l-95 -81h-122l150 129h138z" />
    <glyph glyph-name="Udieresissmall" unicode="&#xf7fc;" horiz-adv-x="704" 
d="M352 97c55 0 91 8 110 23s29 42 29 79v310h130v-303c0 -83 -20 -140 -60 -172s-110 -48 -209 -48s-169 16 -209 48s-60 89 -60 172v303h130v-310c0 -75 31 -102 139 -102zM229 681c48 0 62 -8 62 -55c0 -51 -14 -62 -62 -62c-49 0 -63 11 -63 62c0 47 14 55 63 55z
M480 681c48 0 61 -8 61 -55c0 -51 -13 -62 -61 -62c-49 0 -63 10 -63 62c0 47 12 55 63 55z" />
    <glyph glyph-name="Yacutesmall" unicode="&#xf7fd;" horiz-adv-x="589" 
d="M304 318c52 51 108 114 169 191h152c-86 -105 -173 -199 -260 -281v-228h-131v228c-104 118 -195 212 -272 281h165c44 -42 103 -106 177 -191zM498 697l-184 -129h-122l154 129h152z" />
    <glyph glyph-name="Thornsmall" unicode="&#xf7fe;" horiz-adv-x="685" 
d="M461 97h-244v-97h-130v509h130v-88h231c133 0 191 -53 191 -164c0 -107 -59 -160 -178 -160zM422 325h-205v-137h205c60 0 78 19 78 67c0 51 -18 70 -78 70z" />
    <glyph glyph-name="Ydieresissmall" unicode="&#xf7ff;" horiz-adv-x="589" 
d="M180 681c48 0 62 -8 62 -55c0 -51 -14 -62 -62 -62c-49 0 -63 11 -63 62c0 47 14 55 63 55zM431 681c48 0 61 -8 61 -55c0 -51 -13 -62 -61 -62c-49 0 -63 10 -63 62c0 47 12 55 63 55zM304 318c52 51 108 114 169 191h152c-86 -105 -173 -199 -260 -281v-228h-131v228
c-104 118 -195 212 -272 281h165c44 -42 103 -106 177 -191z" />
    </font>
</defs>
</svg>
