<?xml version="1.0" standalone="no"?>
<!DOCTYPE svg PUBLIC "-//W3C//DTD SVG 1.1//EN" "http://www.w3.org/Graphics/SVG/1.1/DTD/svg11.dtd" >
<svg xmlns="http://www.w3.org/2000/svg" xmlns:xlink="http://www.w3.org/1999/xlink" version="1.1">
<metadata>
Created by FontForge 20190801 at Sat Feb 15 09:29:51 2014
 By Unknown
Copyright \(c\) 2005 by Frantisek Storm, www.stormtype.com. All rights reserved.
</metadata>
<defs>
<font id="EtelkaWideMediumPro-Bold" horiz-adv-x="722" >
  <font-face 
    font-family="Etelka Wide Medium Pro"
    font-weight="700"
    font-stretch="normal"
    units-per-em="1000"
    panose-1="2 0 8 3 7 0 0 2 0 4"
    ascent="800"
    descent="-200"
    x-height="514"
    cap-height="697"
    bbox="-251 -314 1848 922"
    underline-thickness="50"
    underline-position="-150"
    unicode-range="U+0020-FB04"
  />
<missing-glyph horiz-adv-x="530" 
d="M545 0h-560v697h560v-697zM172 584l93 -139l94 139h-187zM426 488l-94 -138l94 -140v278zM265 255l-93 -140h187zM199 350l-93 138v-278z" />
    <glyph glyph-name="ff" unicode="ff" horiz-adv-x="869" 
d="M693 514h192v-156h-192v-358h-198v358h-196v-358h-198v358h-103v156h103v20c0 131 81 196 243 196c90 0 167 -11 231 -33c38 22 92 33 163 33c77 0 139 -7 187 -21l-27 -141c-30 6 -66 9 -107 9c-73 0 -98 -16 -98 -57v-6zM299 514h196v20c0 14 1 25 2 32
c-39 7 -72 11 -99 11c-75 0 -99 -16 -99 -57v-6z" />
    <glyph glyph-name="fi" unicode="fi" horiz-adv-x="775" 
d="M299 514h394v-514h-198v358h-196v-358h-198v358h-103v156h103v20c0 147 107 196 334 196c87 0 169 -9 246 -26l-32 -143c-69 11 -138 16 -207 16c-111 0 -143 -13 -143 -57v-6z" />
    <glyph glyph-name="fl" unicode="fl" horiz-adv-x="783" 
d="M693 704v-548c0 -47 14 -91 42 -132l-191 -47c-33 35 -49 93 -49 174v420c-32 4 -64 6 -97 6c-75 0 -99 -16 -99 -57v-6h116v-156h-116v-358h-198v358h-103v156h103v20c0 147 99 196 303 196c97 0 194 -9 289 -26z" />
    <glyph glyph-name="ffi" unicode="ffi" horiz-adv-x="1169" 
d="M693 514h394v-514h-199v358h-195v-358h-198v358h-196v-358h-198v358h-103v156h103v20c0 131 81 196 243 196c88 0 170 -12 245 -35c56 23 136 35 239 35c92 0 176 -9 253 -26l-28 -148c-70 14 -142 21 -217 21c-55 0 -93 -4 -113 -12c-20 -7 -30 -22 -30 -45v-6zM299 514
h196v20c0 15 1 27 2 34c-28 6 -69 9 -123 9c-52 0 -75 -17 -75 -57v-6z" />
    <glyph glyph-name="ffl" unicode="ffl" horiz-adv-x="1176" 
d="M1087 704v-548c0 -47 14 -91 42 -132l-191 -47c-33 35 -50 93 -50 174v420c-41 4 -79 6 -113 6c-67 0 -82 -14 -82 -57v-6h116v-156h-116v-358h-198v358h-196v-358h-198v358h-103v156h103v20c0 131 81 196 243 196c78 0 158 -11 240 -33c49 22 121 33 214 33
c97 0 194 -9 289 -26zM299 514h196v20c0 17 1 29 2 36c-36 5 -69 7 -99 7c-81 0 -99 -14 -99 -57v-6z" />
    <glyph glyph-name="fj" unicode="fj" horiz-adv-x="775" 
d="M299 520v-6h394v-507c0 -77 -22 -131 -65 -162c-43 -32 -118 -48 -223 -48v146c60 0 90 19 90 58v357h-196v-358h-198v358h-103v156h103v20c0 147 107 196 334 196c87 0 169 -9 246 -26l-32 -143c-69 11 -138 16 -207 16c-111 0 -143 -13 -143 -57z" />
    <glyph glyph-name="fk" unicode="fk" horiz-adv-x="1176" 
d="M693 704v-704h-198v571c-31 4 -63 6 -97 6c-75 0 -99 -16 -99 -57v-6h116v-156h-116v-358h-198v358h-103v156h103v20c0 147 99 196 303 196c97 0 194 -9 289 -26zM1190 0h-256c-39 54 -76 102 -112 145c-71 85 -110 122 -126 127c37 23 125 113 222 242h255
c-29 -39 -60 -76 -93 -112c-67 -71 -100 -98 -131 -121c22 -14 56 -46 103 -96s93 -112 138 -185z" />
    <glyph glyph-name="ffk" unicode="ffk" horiz-adv-x="1570" 
d="M1087 704v-704h-199v571c-34 4 -66 6 -97 6c-41 0 -67 -4 -80 -12c-12 -8 -18 -23 -18 -45v-6h116v-156h-116v-358h-198v358h-196v-358h-198v358h-103v156h103v20c0 131 81 196 243 196c71 0 148 -11 230 -33c49 22 124 33 224 33c97 0 194 -9 289 -26zM299 514h196v20
c0 16 1 28 2 35c-44 5 -85 8 -122 8c-53 0 -76 -17 -76 -57v-6zM1587 0h-256c-39 54 -76 102 -112 145c-71 85 -110 122 -126 127c37 23 125 113 222 242h255c-29 -39 -60 -76 -93 -112c-67 -71 -100 -98 -131 -121c22 -14 56 -46 103 -96s93 -112 138 -185z" />
    <glyph glyph-name="Th" unicode="Th" horiz-adv-x="1408" 
d="M940 329l1 -329h-199v529h-239v-529h-210v529h-291v168h939v-203c49 23 111 35 186 35c65 0 108 -9 148 -40s60 -92 60 -187v-302h-198v294c0 60 -25 74 -90 74s-107 -16 -107 -39z" />
    <glyph glyph-name=".notdef" horiz-adv-x="530" 
d="M545 0h-560v697h560v-697zM172 584l93 -139l94 139h-187zM426 488l-94 -138l94 -140v278zM265 255l-93 -140h187zM199 350l-93 138v-278z" />
    <glyph glyph-name="NULL" horiz-adv-x="0" 
 />
    <glyph glyph-name="CR.001" horiz-adv-x="333" 
 />
    <glyph glyph-name="space" unicode=" " horiz-adv-x="314" 
 />
    <glyph glyph-name="exclam" unicode="!" horiz-adv-x="394" 
d="M130 248l-52 449h237l-52 -449h-133zM198 184c46 0 77 -6 93 -18c17 -11 25 -36 25 -74c0 -42 -8 -69 -25 -82c-16 -13 -47 -19 -93 -19c-45 0 -75 6 -91 19s-24 41 -24 82c0 38 8 63 24 74c16 12 46 18 91 18z" />
    <glyph glyph-name="quotedbl" unicode="&#x22;" horiz-adv-x="522" 
d="M73 447l-14 250h153l-24 -250h-115zM326 447l-12 250h149l-24 -250h-113z" />
    <glyph glyph-name="numbersign" unicode="#" horiz-adv-x="942" 
d="M199 415h-149l12 145h148l13 137h178l-13 -137h175l13 137h178l-13 -137h160l-11 -145h-160l-11 -124h161l-13 -144h-160l-13 -147h-178l13 147h-175l-13 -147h-178l13 147h-149l13 144h147zM552 415h-175l-11 -124h174z" />
    <glyph glyph-name="dollar" unicode="$" horiz-adv-x="759" 
d="M318 684v141h114v-135c97 -2 181 -12 250 -29l-35 -158c-59 12 -131 19 -215 22v-101c175 -21 260 -82 260 -198c0 -72 -20 -125 -59 -158s-106 -52 -201 -59v-146h-114v142c-111 2 -196 12 -256 29l32 157c51 -11 125 -18 224 -21v103c-169 19 -260 70 -260 182
c0 143 77 212 260 229zM242 482c0 -31 11 -39 76 -40v77c-61 0 -76 -10 -76 -37zM432 254v-82c59 1 73 12 73 41s-16 40 -73 41z" />
    <glyph glyph-name="percent" unicode="%" horiz-adv-x="1312" 
d="M474 0h-231l586 697h233zM528 484c0 -91 -18 -154 -55 -189c-37 -34 -102 -51 -196 -51s-159 17 -196 51c-36 35 -54 98 -54 189c0 89 18 150 54 182s101 48 196 48s160 -16 196 -48c37 -32 55 -93 55 -182zM360 484c0 48 -5 78 -14 89c-9 12 -32 18 -69 18
s-60 -6 -70 -18c-9 -11 -14 -41 -14 -89c0 -51 5 -83 14 -96c10 -13 33 -19 70 -19s60 6 69 18c9 13 14 45 14 97zM1285 226c0 -91 -18 -154 -55 -189c-37 -34 -102 -51 -196 -51s-159 17 -196 51c-36 35 -54 98 -54 189c0 89 18 150 54 182s101 48 196 48s160 -16 196 -48
c37 -32 55 -93 55 -182zM1117 226c0 48 -5 78 -14 89c-9 12 -32 18 -69 18s-60 -6 -70 -18c-9 -11 -14 -41 -14 -89c0 -51 5 -83 14 -96c10 -13 33 -19 70 -19s60 6 69 18c9 13 14 45 14 97z" />
    <glyph glyph-name="ampersand" unicode="&#x26;" horiz-adv-x="1029" 
d="M1014 0h-256c-18 22 -34 39 -49 51c-109 -43 -217 -65 -324 -65c-268 4 -333 48 -336 194c0 113 76 166 232 173c-135 9 -177 57 -177 164c0 71 13 111 58 147s128 50 261 50c125 0 209 -13 253 -39c45 -26 67 -73 67 -140c0 -101 -61 -153 -204 -162
c54 -4 119 -36 194 -97c26 25 39 64 39 116h218c0 -91 -41 -171 -123 -240c41 -40 90 -91 147 -152zM371 272c-41 0 -67 -4 -80 -12c-12 -8 -18 -25 -18 -52s7 -45 22 -54s46 -13 91 -13c71 0 138 10 202 31c-72 69 -156 100 -217 100zM418 432c77 0 114 16 114 63
c0 51 -27 61 -108 61c-83 0 -109 -10 -109 -61c0 -48 24 -63 103 -63z" />
    <glyph glyph-name="quotesingle" unicode="'" horiz-adv-x="271" 
d="M73 447l-14 250h153l-24 -250h-115z" />
    <glyph glyph-name="parenleft" unicode="(" horiz-adv-x="416" 
d="M367 831l104 -130c-57 -27 -101 -73 -130 -138c-29 -64 -43 -159 -43 -284s14 -219 43 -284s73 -111 130 -138l-104 -130c-84 26 -152 86 -203 181c-51 94 -76 218 -76 371s25 277 76 371c51 95 119 155 203 181z" />
    <glyph glyph-name="parenright" unicode=")" horiz-adv-x="416" 
d="M49 -273l-104 130c57 27 100 73 129 138c29 64 44 159 44 284s-15 219 -44 284s-72 111 -129 138l104 130c84 -26 151 -86 202 -180s76 -218 76 -372s-25 -278 -76 -372s-118 -154 -202 -180z" />
    <glyph glyph-name="asterisk" unicode="*" horiz-adv-x="693" 
d="M197 440h-157v147h157l-83 112l144 65l87 -122l90 122l144 -65l-85 -112h159v-147h-159l84 -111l-145 -64l-88 121l-87 -121l-144 65z" />
    <glyph glyph-name="plus" unicode="+" horiz-adv-x="660" 
d="M234 278h-200v176h200v159h190v-159h202v-176h-202v-158h-190v158z" />
    <glyph glyph-name="comma" unicode="," horiz-adv-x="369" 
d="M98 108h228l-154 -267h-175z" />
    <glyph glyph-name="hyphen" unicode="-" horiz-adv-x="390" 
d="M357 200h-323v176h323v-176z" />
    <glyph glyph-name="hyphen" unicode="&#xad;" horiz-adv-x="390" 
d="M357 200h-323v176h323v-176z" />
    <glyph glyph-name="period" unicode="." horiz-adv-x="369" 
d="M183 184c46 0 77 -6 93 -18c17 -11 25 -36 25 -74c0 -42 -8 -69 -25 -82c-16 -13 -47 -19 -93 -19c-45 0 -75 6 -91 19s-24 41 -24 82c0 38 8 63 24 74c16 12 46 18 91 18z" />
    <glyph glyph-name="slash" unicode="/" horiz-adv-x="614" 
d="M-15 0l452 697h217l-452 -697h-217z" />
    <glyph glyph-name="zero" unicode="0" horiz-adv-x="770" 
d="M720 358c0 -138 -27 -235 -82 -290c-54 -55 -138 -82 -253 -82s-199 27 -254 82c-54 55 -81 152 -81 290c0 139 27 231 86 284c60 53 134 72 249 72s189 -19 248 -72c60 -53 87 -145 87 -284zM386 163c59 0 90 5 108 30c5 7 10 19 13 36c7 33 7 64 7 129
c0 45 -1 78 -3 99c-1 21 -7 39 -17 53c-20 28 -44 29 -108 29c-63 0 -86 -1 -106 -29c-20 -27 -21 -61 -21 -152c0 -32 0 -58 1 -77c1 -37 10 -72 19 -87c16 -26 51 -31 107 -31z" />
    <glyph glyph-name="one" unicode="1" horiz-adv-x="770" 
d="M538 725v-725h-203v491l-209 -64l-54 171z" />
    <glyph glyph-name="two" unicode="2" horiz-adv-x="770" 
d="M101 513l-38 167c79 23 181 34 306 34c113 0 181 -9 238 -40s81 -86 81 -174c0 -64 -11 -103 -34 -140c-11 -19 -31 -38 -60 -58s-60 -40 -94 -59c-33 -19 -82 -44 -145 -75h341v-168h-652v161l2 1c197 113 315 183 352 210s58 52 63 76l2 31c0 49 -26 63 -122 63
c-76 0 -156 -10 -240 -29z" />
    <glyph glyph-name="three" unicode="3" horiz-adv-x="770" 
d="M362 276h-133v165h127c39 0 64 3 75 8c12 5 18 18 18 39c-4 43 -18 49 -169 51c-25 0 -59 -3 -102 -8s-73 -9 -92 -13l-35 174c85 15 182 22 293 22c127 0 213 -13 260 -40c47 -26 71 -74 71 -145c0 -53 -13 -93 -38 -119s-70 -41 -137 -46c141 -8 193 -63 193 -179
c0 -73 -26 -125 -79 -155c-52 -29 -142 -44 -270 -44c-112 0 -210 7 -295 20l35 178c18 -4 49 -9 92 -14c44 -5 79 -7 104 -7c160 2 178 9 182 56c0 47 -25 57 -100 57z" />
    <glyph glyph-name="four" unicode="4" horiz-adv-x="770" 
d="M435 154h-434v72c152 211 272 368 360 471h271v-383h111v-160h-111v-154h-197v154zM263 314h172v222c-61 -67 -118 -141 -172 -222z" />
    <glyph glyph-name="five" unicode="5" horiz-adv-x="770" 
d="M106 277v420h563v-168h-370v-87c44 3 73 4 86 4c119 0 201 -16 244 -48s65 -89 65 -171c0 -93 -24 -157 -71 -191c-47 -33 -135 -50 -262 -50c-129 0 -227 6 -295 19l33 174c47 -11 112 -16 197 -16c75 0 121 3 139 9c19 6 28 23 28 50c-6 56 -6 57 -172 61
c-81 0 -143 -2 -185 -6z" />
    <glyph glyph-name="six" unicode="6" horiz-adv-x="770" 
d="M697 693l-25 -177c-88 15 -162 23 -223 23c-65 0 -107 -6 -126 -18c-19 -11 -31 -39 -36 -83c38 5 79 8 122 8c121 0 203 -16 248 -49c45 -32 67 -89 67 -170c0 -93 -24 -157 -71 -191c-47 -33 -133 -50 -260 -50c-125 0 -213 26 -262 79s-73 149 -73 290
c0 145 20 230 83 286s152 73 308 73c97 0 179 -7 248 -21zM506 222c0 25 -8 42 -24 50c-16 9 -52 13 -108 13c-37 0 -67 -2 -91 -6c3 -51 11 -83 25 -96c15 -13 43 -20 85 -20c91 0 113 12 113 59z" />
    <glyph glyph-name="seven" unicode="7" horiz-adv-x="770" 
d="M58 697h697v-58c-49 -62 -114 -162 -195 -300s-139 -251 -174 -339h-244c49 104 103 208 164 311c61 104 113 177 156 218h-404v168z" />
    <glyph glyph-name="eight" unicode="8" horiz-adv-x="770" 
d="M386 141c49 0 81 4 94 13c14 9 21 27 21 54c0 29 -7 49 -21 60s-45 17 -94 17s-81 -6 -95 -17s-21 -31 -21 -60c0 -27 7 -45 21 -54c15 -9 46 -13 95 -13zM386 432c84 0 107 14 107 63c0 26 -7 43 -21 50c-13 7 -42 11 -86 11c-45 0 -74 -4 -88 -11s-21 -24 -21 -50
c0 -49 24 -63 109 -63zM52 185c0 116 50 171 191 179c-135 9 -178 58 -178 165c0 47 8 82 23 107c32 51 120 78 297 78c89 0 157 -7 204 -20s78 -33 93 -58s23 -60 23 -107c0 -107 -42 -156 -177 -165c140 -8 191 -63 191 -179c-2 -147 -66 -196 -333 -199
c-267 3 -332 52 -334 199z" />
    <glyph glyph-name="nine" unicode="9" horiz-adv-x="770" 
d="M459 0h-269c119 105 201 191 246 259c-24 -3 -45 -4 -64 -4c-120 0 -202 16 -247 48c-45 33 -67 90 -67 171c0 93 23 157 70 190s134 50 261 50c93 0 163 -8 211 -24c48 -15 81 -39 98 -72s26 -80 26 -143c0 -184 -89 -328 -265 -475zM408 416c38 0 67 1 88 4
c2 9 3 22 3 39c0 33 -7 54 -20 64s-43 15 -90 15c-51 0 -82 -4 -95 -11s-19 -23 -19 -49c0 -27 7 -44 22 -51s52 -11 111 -11z" />
    <glyph glyph-name="colon" unicode=":" horiz-adv-x="369" 
d="M183 184c46 0 77 -6 93 -18c17 -11 25 -36 25 -74c0 -42 -8 -69 -25 -82c-16 -13 -47 -19 -93 -19c-45 0 -75 6 -91 19s-24 41 -24 82c0 38 8 63 24 74c16 12 46 18 91 18zM183 525c47 0 78 -6 94 -17s24 -36 24 -75c0 -41 -8 -68 -25 -81c-16 -13 -47 -19 -93 -19
c-45 0 -75 6 -91 19s-24 40 -24 81c0 39 8 64 23 75c16 11 47 17 92 17z" />
    <glyph glyph-name="semicolon" unicode=";" horiz-adv-x="369" 
d="M98 108h228l-154 -267h-175zM183 525c47 0 78 -6 94 -17s24 -36 24 -75c0 -41 -8 -68 -25 -81c-16 -13 -47 -19 -93 -19c-45 0 -75 6 -91 19s-24 40 -24 81c0 39 8 64 23 75c16 11 47 17 92 17z" />
    <glyph glyph-name="less" unicode="&#x3c;" horiz-adv-x="660" 
d="M513 677l113 -125l-273 -185l273 -188l-111 -127l-439 264v98z" />
    <glyph glyph-name="equal" unicode="=" horiz-adv-x="660" 
d="M626 115h-592v176h592v-176zM626 444h-592v176h592v-176z" />
    <glyph glyph-name="greater" unicode="&#x3e;" horiz-adv-x="660" 
d="M183 53l-112 125l272 185l-272 188l111 127l439 -264v-98z" />
    <glyph glyph-name="question" unicode="?" horiz-adv-x="728" 
d="M314 184c46 0 77 -6 93 -18c17 -11 25 -36 25 -74c0 -42 -8 -69 -25 -82c-16 -13 -47 -19 -93 -19c-45 0 -75 6 -91 19s-24 41 -24 82c0 38 8 63 24 74c16 12 46 18 91 18zM408 272v-45h-193v190h55c165 3 172 7 177 64c0 27 -9 43 -27 48c-17 5 -64 8 -140 8
c-73 0 -139 -6 -197 -18l-33 176c68 13 166 19 295 19s217 -15 263 -45c47 -30 70 -91 70 -183c0 -155 -89 -214 -270 -214z" />
    <glyph glyph-name="at" unicode="@" horiz-adv-x="1171" 
d="M540 488c-45 0 -81 -1 -110 -3c-57 -3 -112 -14 -141 -34c-46 -31 -63 -83 -63 -178c0 -101 16 -162 68 -197c16 -11 38 -20 66 -27c57 -13 122 -17 226 -17c102 0 178 8 229 24s87 43 107 82s30 97 30 175c0 69 -9 122 -26 159h163c15 -46 22 -101 22 -165
c0 -161 -36 -265 -123 -330s-209 -90 -400 -90c-196 0 -317 21 -405 78s-123 151 -123 302c0 145 45 243 134 295c89 53 194 71 350 71c124 0 191 -11 242 -54c52 -43 68 -112 68 -233c0 -112 -14 -171 -56 -209c-13 -11 -31 -19 -54 -26c-45 -13 -93 -16 -177 -16
c-200 4 -235 31 -240 168c0 66 14 110 43 132c29 23 84 34 167 34c37 0 84 -3 143 -9c-4 54 -14 65 -140 68zM590 310c-69 0 -82 -6 -82 -42c0 -18 5 -30 16 -35s35 -7 74 -7c60 0 82 8 82 39v41c-25 3 -55 4 -90 4z" />
    <glyph glyph-name="A" unicode="A" horiz-adv-x="854" 
d="M268 697h339c37 -101 85 -218 144 -353c59 -134 113 -249 161 -344h-238c-16 31 -37 76 -62 134h-375c-8 -21 -23 -66 -46 -134h-231c32 89 79 204 141 344c63 140 118 258 167 353zM456 529h-64c-29 -63 -60 -140 -94 -230h244c-33 82 -62 159 -86 230z" />
    <glyph glyph-name="B" unicode="B" horiz-adv-x="903" 
d="M307 163h230c42 0 63 19 63 57c0 45 -24 61 -68 61h-225v-118zM534 534h-227v-98h227c36 0 53 8 53 48c0 39 -18 50 -53 50zM638 364c75 -3 125 -18 151 -46c27 -28 40 -72 40 -133c0 -136 -77 -185 -220 -185h-510v697h510c79 0 133 -13 162 -39c29 -25 44 -68 44 -129
c0 -55 -12 -95 -37 -121c-24 -25 -71 -40 -140 -44z" />
    <glyph glyph-name="C" unicode="C" horiz-adv-x="710" 
d="M465 714c88 0 166 -7 235 -21l-23 -173c-43 11 -94 16 -155 16c-35 0 -62 -1 -82 -2c-40 -1 -87 -9 -107 -25c-34 -25 -50 -69 -50 -156c0 -69 11 -112 30 -140c10 -14 25 -24 46 -31c43 -13 82 -16 163 -16c63 0 114 5 154 15l23 -176c-68 -13 -146 -19 -234 -19
c-143 0 -237 22 -306 78s-101 150 -101 291s30 233 101 286c71 55 162 73 306 73z" />
    <glyph glyph-name="D" unicode="D" horiz-adv-x="948" 
d="M99 0v697h384c144 0 235 -18 306 -70c71 -51 101 -139 101 -274c0 -132 -32 -224 -97 -276c-64 -51 -167 -77 -310 -77h-384zM665 350c0 84 -8 128 -36 152c-8 7 -21 13 -40 17c-37 9 -69 10 -138 10h-144v-360h144c51 0 88 1 113 4s46 12 63 25c35 28 38 65 38 152z" />
    <glyph glyph-name="E" unicode="E" horiz-adv-x="771" 
d="M99 0v697h644v-168h-436v-88h314v-165h-314v-108h436v-168h-644z" />
    <glyph glyph-name="F" unicode="F" horiz-adv-x="728" 
d="M99 0v697h627v-168h-419v-126h314v-165h-314v-238h-208z" />
    <glyph glyph-name="G" unicode="G" horiz-adv-x="889" 
d="M591 166v110h-156v165h372v-421c-37 -9 -88 -16 -154 -23s-129 -11 -188 -11c-143 0 -237 22 -306 78s-101 150 -101 291c0 140 38 234 119 286c81 53 183 73 336 73c125 0 213 -5 264 -16l-23 -176c-14 3 -47 7 -98 11s-90 6 -117 6c-37 0 -67 -1 -90 -2
c-44 -1 -92 -11 -115 -27c-36 -25 -51 -71 -51 -157c0 -69 11 -113 30 -141c10 -14 25 -25 46 -32c41 -13 82 -17 163 -17c20 0 43 1 69 3z" />
    <glyph glyph-name="H" unicode="H" horiz-adv-x="934" 
d="M628 278h-321v-278h-208v697h208v-241h321v241h207v-697h-207v278z" />
    <glyph glyph-name="I" unicode="I" horiz-adv-x="406" 
d="M99 0v697h208v-697h-208z" />
    <glyph glyph-name="J" unicode="J" horiz-adv-x="583" 
d="M281 697h210l2 -505c0 -76 -34 -133 -89 -164c-55 -29 -117 -42 -190 -42c-83 0 -154 7 -213 22l36 167c32 -8 80 -12 144 -12c67 0 100 21 100 64v470z" />
    <glyph glyph-name="K" unicode="K" horiz-adv-x="868" 
d="M888 0h-255c-67 107 -131 192 -191 256c-59 65 -104 102 -135 111v-367h-208v697h208v-330c33 20 79 60 137 120s115 130 170 210h253c-62 -85 -120 -157 -174 -215c-53 -57 -92 -92 -115 -105h1c25 -13 66 -52 123 -119c57 -66 119 -152 186 -258z" />
    <glyph glyph-name="L" unicode="L" horiz-adv-x="676" 
d="M99 0v697h208v-529h379v-168h-587z" />
    <glyph glyph-name="M" unicode="M" horiz-adv-x="1193" 
d="M608 314c51 105 121 232 212 383h274v-697h-200v472c-70 -119 -143 -259 -219 -420h-171c-78 177 -147 317 -206 420v-472h-199v697h289c77 -121 151 -249 220 -383z" />
    <glyph glyph-name="N" unicode="N" horiz-adv-x="1009" 
d="M704 697h206v-697h-275c-99 157 -211 311 -334 463v-463h-202v697h282c95 -121 203 -269 323 -445v445z" />
    <glyph glyph-name="O" unicode="O" horiz-adv-x="962" 
d="M482 714c144 0 238 -19 313 -72s109 -145 109 -284c0 -138 -34 -235 -103 -290s-175 -82 -319 -82s-240 22 -315 78c-73 56 -109 153 -109 294c0 139 34 231 109 284s170 72 315 72zM482 161c48 0 83 1 106 4s43 12 58 27c31 31 33 69 33 164c0 30 -1 54 -2 71
c-3 36 -15 69 -30 82c-7 7 -19 13 -36 18c-33 9 -64 10 -129 10c-33 0 -58 -1 -77 -2c-37 -1 -75 -11 -90 -26c-7 -7 -14 -18 -20 -33c-11 -29 -12 -60 -12 -120c0 -32 1 -58 2 -77c3 -37 15 -72 30 -87c7 -7 19 -14 36 -19c33 -11 66 -12 131 -12z" />
    <glyph glyph-name="P" unicode="P" horiz-adv-x="854" 
d="M307 360h208c57 0 85 29 85 86c0 64 -28 88 -84 88h-209v-174zM307 205v-205h-208v697h510c149 0 223 -84 223 -251c0 -69 -20 -127 -59 -173c-39 -45 -93 -68 -164 -68h-302z" />
    <glyph glyph-name="Q" unicode="Q" horiz-adv-x="962" 
d="M482 714c144 0 238 -19 313 -72s109 -145 109 -284c0 -186 -65 -293 -196 -320h-2c47 -13 130 -90 250 -230h-248c-85 112 -159 171 -224 178h-2c-144 0 -240 22 -315 78c-73 56 -109 153 -109 294c0 139 34 231 109 284s170 72 315 72zM482 161c48 0 83 1 106 4
s43 12 58 27c31 31 33 69 33 164c0 30 -1 54 -2 71c-3 36 -15 69 -30 82c-7 7 -19 13 -36 18c-33 9 -64 10 -129 10c-33 0 -58 -1 -77 -2c-37 -1 -75 -11 -90 -26c-7 -7 -14 -18 -20 -33c-11 -29 -12 -60 -12 -120c0 -32 1 -58 2 -77c3 -37 15 -72 30 -87
c7 -7 19 -14 36 -19c33 -11 66 -12 131 -12z" />
    <glyph glyph-name="R" unicode="R" horiz-adv-x="907" 
d="M529 534h-222v-148h220c45 0 68 24 68 73c0 50 -22 75 -66 75zM634 295c26 -8 57 -31 93 -69s96 -113 181 -226h-273c-67 93 -117 154 -150 185s-65 46 -96 46h-82v-231h-208v697h510c156 0 223 -79 223 -204c0 -124 -66 -190 -198 -198z" />
    <glyph glyph-name="S" unicode="S" horiz-adv-x="759" 
d="M706 685l-33 -171c-83 17 -165 25 -246 25c-67 0 -110 -3 -129 -9s-29 -18 -29 -36c5 -38 12 -40 179 -58c191 -19 273 -82 273 -215c0 -89 -29 -150 -86 -184s-158 -51 -301 -51c-121 0 -215 10 -282 29l36 172c72 -17 153 -26 242 -26c69 0 114 3 133 8
c19 6 29 19 29 38c-5 37 -9 41 -195 60c-175 16 -252 69 -252 197c0 89 30 153 91 192s158 58 293 58c121 0 213 -10 277 -29z" />
    <glyph glyph-name="T" unicode="T" horiz-adv-x="795" 
d="M503 529v-529h-210v529h-291v168h791v-168h-290z" />
    <glyph glyph-name="U" unicode="U" horiz-adv-x="919" 
d="M619 222v475h210v-517c0 -75 -35 -127 -103 -155s-150 -39 -267 -39s-200 11 -268 39c-67 28 -101 80 -101 155v517h209v-475c0 -40 40 -57 160 -57c119 0 160 17 160 57z" />
    <glyph glyph-name="V" unicode="V" horiz-adv-x="806" 
d="M-56 697h237c33 -61 72 -143 117 -245c46 -101 83 -190 110 -265c30 65 67 151 111 260s76 192 95 250h230c-31 -89 -79 -204 -142 -344c-63 -139 -120 -257 -171 -353h-277c-43 113 -93 235 -152 368c-58 133 -111 243 -158 329z" />
    <glyph glyph-name="W" unicode="W" horiz-adv-x="1298" 
d="M651 384c-38 -125 -83 -253 -136 -384h-280c-87 289 -170 521 -247 697h231c25 -59 56 -138 92 -239c36 -100 63 -182 81 -245c76 191 131 353 164 484h188c23 -59 54 -142 91 -247c38 -105 65 -184 81 -237c27 69 57 152 89 249s55 175 70 235h222
c-25 -87 -63 -200 -114 -339c-50 -139 -95 -259 -136 -358h-279c-33 133 -72 261 -117 384z" />
    <glyph glyph-name="X" unicode="X" horiz-adv-x="860" 
d="M299 352c-129 142 -238 257 -329 345h296c33 -34 92 -100 177 -198c52 60 102 126 149 198h278c-95 -117 -192 -232 -291 -343c145 -159 247 -277 306 -354h-280c-36 48 -91 114 -166 198c-89 -97 -152 -163 -187 -198h-280c79 79 188 197 327 352z" />
    <glyph glyph-name="Y" unicode="Y" horiz-adv-x="820" 
d="M321 0v266c-48 57 -114 129 -197 216s-156 158 -217 215h298c89 -89 163 -171 223 -246c97 111 164 193 201 246h274c-129 -159 -254 -302 -374 -430v-267h-208z" />
    <glyph glyph-name="Z" unicode="Z" horiz-adv-x="775" 
d="M766 0h-747v41c54 65 122 150 205 255s142 183 179 233h-362v168h719v-39c-34 -52 -96 -136 -187 -251s-156 -195 -196 -239h389v-168z" />
    <glyph glyph-name="bracketleft" unicode="[" horiz-adv-x="498" 
d="M121 -260v1075h398v-158h-192v-760h192v-157h-398z" />
    <glyph glyph-name="backslash" unicode="\" horiz-adv-x="614" 
d="M438 0l-452 697h217l453 -697h-218z" />
    <glyph glyph-name="bracketright" unicode="]" horiz-adv-x="498" 
d="M-21 657v158h398v-1075h-398v157h192v760h-192z" />
    <glyph glyph-name="asciicircum" unicode="^" horiz-adv-x="721" 
d="M701 296h-223l-120 218l-116 -218h-220l245 401h185z" />
    <glyph glyph-name="underscore" unicode="_" horiz-adv-x="660" 
d="M626 -203h-592v176h592v-176z" />
    <glyph glyph-name="grave" unicode="`" horiz-adv-x="566" 
d="M312 697l157 -129h-170l-198 129h211z" />
    <glyph glyph-name="a" unicode="a" horiz-adv-x="704" 
d="M631 329v-306c-92 -25 -195 -37 -308 -37c-106 0 -177 11 -214 34c-36 23 -54 69 -54 136c0 71 20 115 64 138c45 23 93 29 173 29c30 0 81 -4 153 -12c-4 61 -11 69 -150 72c-64 0 -129 -7 -195 -21l-25 144c82 15 176 23 281 23c192 0 275 -53 275 -200zM445 129v69
c-31 3 -64 5 -99 5c-37 0 -61 -3 -72 -8c-10 -5 -15 -16 -15 -34c0 -36 11 -43 83 -43c31 0 65 4 103 11z" />
    <glyph glyph-name="b" unicode="b" horiz-adv-x="737" 
d="M280 342v-202c29 -6 59 -9 91 -9c50 0 82 7 95 21s20 50 20 108c0 45 -7 75 -20 89c-13 15 -42 22 -89 22c-53 0 -97 -14 -97 -29zM82 18v704h198v-229c52 24 110 36 175 36c78 0 135 -19 172 -58s56 -107 56 -206c0 -103 -24 -176 -73 -217c-48 -41 -128 -62 -239 -62
c-117 0 -213 11 -289 32z" />
    <glyph glyph-name="c" unicode="c" horiz-adv-x="572" 
d="M527 159l24 -151c-50 -15 -112 -22 -186 -22c-99 0 -176 21 -231 62c-54 42 -81 113 -81 212c0 101 31 173 88 213c59 40 128 56 224 56c77 0 139 -6 186 -19l-25 -153c-48 11 -94 16 -138 16c-57 0 -78 -1 -105 -17c-25 -15 -32 -44 -32 -99c0 -49 9 -81 28 -94
s55 -20 109 -20c56 0 102 5 139 16z" />
    <glyph glyph-name="d" unicode="d" horiz-adv-x="737" 
d="M457 142v208c0 15 -40 28 -95 28c-45 0 -75 -8 -90 -25c-14 -16 -21 -47 -21 -94c0 -54 7 -89 21 -104s45 -22 94 -22c26 0 56 3 91 9zM457 722h198v-704c-77 -21 -174 -32 -289 -32c-112 0 -192 20 -241 60c-48 40 -72 111 -72 214c0 97 22 166 66 207
c45 41 107 62 187 62c55 0 106 -7 151 -22v215z" />
    <glyph glyph-name="e" unicode="e" horiz-adv-x="680" 
d="M568 157l31 -146c-65 -17 -144 -25 -237 -25c-206 0 -309 91 -309 274c0 99 25 168 76 208c51 41 124 61 219 61c104 0 165 -11 216 -47c52 -36 73 -102 73 -206c0 -27 -1 -52 -4 -77h-377c3 -52 34 -63 137 -63c59 0 118 7 175 21zM350 394c-67 0 -85 -15 -92 -64h184
c-1 52 -23 64 -92 64z" />
    <glyph glyph-name="f" unicode="f" horiz-adv-x="475" 
d="M299 514h192v-156h-192v-358h-198v358h-103v156h103v20c0 131 81 196 243 196c71 0 134 -6 189 -18l-29 -147c-31 8 -66 12 -106 12c-81 0 -99 -14 -99 -57v-6z" />
    <glyph glyph-name="g" unicode="g" horiz-adv-x="737" 
d="M457 166v203c-36 8 -66 12 -91 12c-35 0 -60 -2 -75 -7c-28 -9 -40 -38 -40 -118c0 -47 6 -77 19 -92s43 -22 90 -22c53 0 97 11 97 24zM457 15v8c-43 -22 -99 -33 -168 -33c-79 0 -139 19 -178 57s-58 106 -58 204c0 103 24 175 73 216s129 62 240 62
c115 0 212 -11 289 -32v-455c0 -83 -27 -142 -68 -177c-20 -18 -46 -32 -78 -43c-63 -21 -123 -26 -210 -26c-88 0 -167 9 -236 27l27 143c63 -15 131 -22 205 -22c107 0 162 19 162 71z" />
    <glyph glyph-name="h" unicode="h" horiz-adv-x="747" 
d="M674 302v-302h-198v294c0 60 -24 74 -89 74s-107 -16 -107 -39v-329h-198v722h198v-226c47 22 109 33 186 33c65 0 108 -9 148 -40s60 -92 60 -187z" />
    <glyph glyph-name="i" unicode="i" horiz-adv-x="360" 
d="M181 746c44 0 74 -5 89 -16c15 -10 23 -33 23 -68c0 -39 -8 -64 -24 -76c-15 -12 -45 -18 -88 -18c-44 0 -74 6 -90 18c-15 12 -23 37 -23 76c0 35 8 58 23 68c15 11 45 16 90 16zM280 514v-514h-198v514h198z" />
    <glyph glyph-name="j" unicode="j" horiz-adv-x="360" 
d="M181 746c44 0 74 -5 89 -16c15 -10 23 -33 23 -68c0 -39 -8 -64 -24 -76c-15 -12 -45 -18 -88 -18c-44 0 -74 6 -90 18c-15 12 -23 37 -23 76c0 35 8 58 23 68c15 11 45 16 90 16zM82 514h198v-507c0 -79 -19 -133 -57 -164s-109 -46 -214 -46c-11 0 -28 1 -51 2v146
c11 -1 28 -2 51 -2c49 0 73 19 73 58v513z" />
    <glyph glyph-name="k" unicode="k" horiz-adv-x="764" 
d="M82 722h198v-722h-198v722zM780 0h-256c-39 54 -76 102 -112 145c-71 85 -110 122 -126 127c37 23 125 113 222 242h255c-29 -39 -60 -76 -93 -112c-67 -71 -100 -98 -131 -121c22 -14 56 -46 103 -96s93 -112 138 -185z" />
    <glyph glyph-name="l" unicode="l" horiz-adv-x="370" 
d="M82 722h198v-566c0 -47 14 -91 43 -132l-192 -47c-33 35 -49 93 -49 174v571z" />
    <glyph glyph-name="m" unicode="m" horiz-adv-x="1094" 
d="M280 353v-353h-198v484c112 30 219 45 320 45c61 0 113 -12 156 -36c83 24 154 36 215 36c172 0 248 -67 248 -246v-283h-197v272c0 38 -5 63 -16 74c-11 12 -36 18 -76 18c-28 0 -58 -3 -89 -9c5 -25 8 -51 8 -77v-278h-198v272c0 38 -5 63 -16 74c-11 12 -36 18 -76 18
c-21 0 -48 -4 -81 -11z" />
    <glyph glyph-name="n" unicode="n" horiz-adv-x="747" 
d="M280 355v-355h-198v484c112 30 224 45 336 45c173 0 256 -69 256 -246v-283h-198v271c0 39 -6 65 -19 76c-12 11 -42 17 -90 17c-23 0 -52 -3 -87 -9z" />
    <glyph glyph-name="o" unicode="o" 
d="M360 -14c-106 0 -184 20 -233 60c-49 41 -74 112 -74 214c0 101 25 171 74 210c50 39 128 59 233 59c107 0 185 -20 234 -59c50 -39 75 -109 75 -210c0 -102 -25 -173 -75 -214c-49 -40 -127 -60 -234 -60zM251 257c0 -57 7 -93 21 -108s43 -23 88 -23s74 8 88 23
s21 51 21 108c0 58 -7 94 -21 109c-13 15 -43 23 -88 23s-75 -8 -89 -23c-13 -15 -20 -51 -20 -109z" />
    <glyph glyph-name="p" unicode="p" horiz-adv-x="737" 
d="M280 368v-202c0 -15 44 -29 97 -29c47 0 76 7 89 21c13 15 20 45 20 90c0 58 -7 94 -20 108s-45 21 -95 21c-31 0 -62 -3 -91 -9zM280 -192h-198v689c76 21 172 32 289 32c113 0 193 -19 240 -57c48 -37 72 -107 72 -209c0 -200 -75 -277 -228 -277
c-65 0 -123 12 -175 36v-214z" />
    <glyph glyph-name="q" unicode="q" horiz-adv-x="737" 
d="M457 166v202c-29 6 -59 9 -91 9c-50 0 -82 -7 -95 -21s-20 -50 -20 -108c0 -45 6 -75 19 -90c13 -14 43 -21 90 -21c53 0 97 14 97 29zM655 497v-689h-198v214c-52 -24 -110 -36 -175 -36c-153 0 -228 77 -228 277c0 102 24 172 71 209c48 38 128 57 241 57
c117 0 213 -11 289 -32z" />
    <glyph glyph-name="r" unicode="r" horiz-adv-x="497" 
d="M280 0h-198v514h198v-61c38 51 97 76 177 76c11 0 27 -1 48 -2v-170c-15 3 -42 5 -82 5c-37 0 -71 -4 -100 -13s-43 -20 -43 -34v-315z" />
    <glyph glyph-name="s" unicode="s" horiz-adv-x="577" 
d="M313 529c81 0 154 -8 217 -23l-28 -142c-59 16 -127 24 -204 24c-57 0 -71 -3 -71 -28c0 -17 8 -24 120 -32c137 -11 198 -53 198 -160c0 -137 -94 -182 -279 -182c-88 0 -163 7 -224 22l29 143c45 -14 107 -21 185 -21c46 0 74 1 85 4s17 12 17 25c0 17 -18 26 -137 34
s-181 50 -181 155c0 69 22 116 67 142s113 39 206 39z" />
    <glyph glyph-name="t" unicode="t" horiz-adv-x="526" 
d="M504 514v-156h-192v-161c0 -41 20 -56 95 -56c31 0 62 3 92 10l23 -146c-67 -13 -132 -19 -195 -19c-72 0 -126 13 -161 39c-35 27 -52 76 -52 149v184h-103v156h103v70l198 63v-133h192z" />
    <glyph glyph-name="u" unicode="u" horiz-adv-x="747" 
d="M468 157v357h197v-484c-108 -29 -220 -44 -336 -44c-173 0 -255 68 -255 245v283h198v-271c0 -37 7 -63 20 -76s43 -19 88 -19c8 0 37 3 88 9z" />
    <glyph glyph-name="v" unicode="v" horiz-adv-x="622" 
d="M-29 514h202c55 -121 102 -243 140 -364c63 155 107 277 132 364h197c-73 -193 -147 -364 -224 -514h-240c-57 159 -126 331 -207 514z" />
    <glyph glyph-name="w" unicode="w" horiz-adv-x="1046" 
d="M515 270c-19 -75 -52 -165 -98 -270h-239c-57 159 -126 331 -207 514h202c63 -137 109 -255 140 -354c46 113 88 231 127 354h169c55 -132 98 -250 129 -354c63 153 107 271 132 354h196c-77 -201 -151 -373 -224 -514h-241c-15 57 -43 147 -86 270z" />
    <glyph glyph-name="x" unicode="x" horiz-adv-x="630" 
d="M438 514h222c-61 -77 -134 -161 -219 -253c65 -72 139 -159 221 -261h-225c-15 21 -52 65 -111 132c-35 -41 -77 -85 -127 -132h-226c80 77 162 162 245 256h1c-73 83 -153 169 -242 258h237c36 -37 75 -81 116 -132c39 45 75 89 108 132z" />
    <glyph glyph-name="y" unicode="y" horiz-adv-x="622" 
d="M445 514h197c-88 -247 -199 -483 -334 -706h-225c38 52 74 107 107 166h1c-55 160 -129 340 -220 540h202c63 -139 110 -259 139 -361c56 127 100 247 133 361z" />
    <glyph glyph-name="z" unicode="z" horiz-adv-x="604" 
d="M26 358v156h572v-29c-77 -105 -167 -215 -269 -329h249v-156h-575v28c45 49 95 108 152 177c57 70 97 121 120 153h-249z" />
    <glyph glyph-name="braceleft" unicode="{" horiz-adv-x="501" 
d="M204 -28c0 143 -61 225 -142 230v153c81 0 142 79 142 231c0 83 24 144 67 180c43 37 80 54 135 69l108 -132c-31 -10 -54 -21 -71 -34c-32 -24 -53 -75 -53 -163c0 -63 -11 -114 -32 -155c-21 -40 -44 -64 -67 -72c23 -8 45 -33 66 -74c22 -41 33 -94 33 -157
c0 -65 9 -109 26 -134c18 -25 51 -46 98 -62l-108 -129c-55 15 -92 32 -135 69c-43 36 -67 97 -67 180z" />
    <glyph glyph-name="bar" unicode="|" horiz-adv-x="517" 
d="M154 -256v1011h209v-1011h-209z" />
    <glyph glyph-name="braceright" unicode="}" horiz-adv-x="501" 
d="M297 586c0 -143 61 -224 142 -231v-152c-81 0 -142 -79 -142 -231c0 -83 -24 -144 -67 -180c-43 -37 -80 -54 -135 -69l-108 132c31 10 54 21 70 34c33 24 54 75 54 163c0 63 11 114 32 154c21 41 44 65 67 73c-23 8 -45 33 -67 74c-21 41 -32 94 -32 157
c0 65 -9 109 -27 134c-17 25 -50 46 -97 62l108 129c55 -15 92 -32 135 -69c43 -36 67 -97 67 -180z" />
    <glyph glyph-name="asciitilde" unicode="~" horiz-adv-x="660" 
d="M545 453l109 -76c-35 -73 -112 -131 -208 -131c-31 0 -74 14 -128 41s-96 41 -127 41c-44 0 -67 -9 -84 -41l-99 85c54 73 115 109 183 109c40 0 88 -13 143 -40c56 -27 97 -40 123 -40c51 0 69 11 88 52z" />
    <glyph glyph-name="nbspace" unicode="&#xa0;" horiz-adv-x="314" 
 />
    <glyph glyph-name="exclamdown" unicode="&#xa1;" horiz-adv-x="394" 
d="M264 272l52 -449h-237l53 449h132zM196 336c-46 0 -77 6 -94 17c-16 12 -24 37 -24 75c0 42 8 69 24 82c17 13 48 19 94 19c45 0 75 -7 91 -20s24 -40 24 -81c0 -38 -8 -63 -24 -75c-16 -11 -46 -17 -91 -17z" />
    <glyph glyph-name="cent" unicode="&#xa2;" horiz-adv-x="543" 
d="M293 638v108h139v-108c49 -4 85 -9 106 -14l-22 -147c-25 5 -53 8 -84 8v-227c31 0 59 3 84 10l22 -146c-33 -11 -68 -16 -106 -17v-119h-139v118c-163 17 -240 94 -240 270c0 88 19 152 56 192c38 40 99 64 184 72zM224 371c0 -81 17 -108 69 -108v219
c-55 0 -69 -31 -69 -111z" />
    <glyph glyph-name="sterling" unicode="&#xa3;" horiz-adv-x="759" 
d="M99 267h-65v149h65v48c0 171 106 250 369 250c115 0 209 -11 281 -32l-27 -166c-87 15 -172 23 -257 23c-66 0 -109 -4 -129 -13c-19 -8 -29 -23 -29 -46v-64h257v-149h-257v-99h404v-168h-612v267z" />
    <glyph glyph-name="currency" unicode="&#xa4;" horiz-adv-x="860" 
d="M436 81c-33 0 -66 2 -99 6l-78 -80l-188 95l88 95h2c-21 37 -32 90 -32 160c0 65 9 115 27 150h-3l-87 88l203 96l67 -70c33 4 66 6 100 6c33 0 66 -2 99 -5l55 68l201 -94l-75 -83h-2c21 -35 31 -87 31 -156s-10 -121 -31 -158h2l83 -97l-199 -95l-66 80
c-33 -4 -66 -6 -98 -6zM315 354c0 -57 6 -89 29 -105c24 -15 41 -16 92 -16s69 1 92 16c24 16 30 48 30 105c0 60 -6 91 -30 106c-24 16 -40 16 -92 16s-67 0 -91 -16c-24 -15 -30 -46 -30 -106z" />
    <glyph glyph-name="yen" unicode="&#xa5;" horiz-adv-x="820" 
d="M321 243h-193v125h94c-35 42 -85 97 -152 165c-66 69 -120 123 -163 164h298l223 -242c33 29 70 69 111 120s71 92 90 122h274c-65 -83 -158 -192 -279 -329h82v-125h-177v-59h177v-125h-177v-59h-208v59h-193v125h193v59z" />
    <glyph glyph-name="brokenbar" unicode="&#xa6;" horiz-adv-x="517" 
d="M154 388v367h209v-367h-209zM154 -256v367h209v-367h-209z" />
    <glyph glyph-name="section" unicode="&#xa7;" horiz-adv-x="780" 
d="M701 684l-33 -155c-70 15 -145 22 -225 22c-128 0 -145 -15 -145 -42c5 -35 11 -37 165 -54c180 -17 273 -78 273 -201c0 -46 -21 -86 -64 -119c25 -31 38 -66 38 -105c0 -164 -125 -233 -376 -233c-107 0 -192 10 -255 30l33 154c67 -14 142 -21 225 -21
c128 0 145 15 145 42c-6 34 -11 37 -165 54c-180 17 -273 78 -273 201c0 52 18 94 55 125c-19 25 -29 58 -29 99c0 164 125 233 376 233c105 0 190 -10 255 -30zM273 299c-15 -7 -23 -16 -23 -29c1 -31 30 -43 251 -59c19 8 29 18 29 30c0 27 -38 42 -257 58z" />
    <glyph glyph-name="dieresis" unicode="&#xa8;" horiz-adv-x="627" 
d="M241 634c0 -65 -18 -80 -82 -80c-63 0 -81 15 -81 80c0 60 17 72 81 72s82 -12 82 -72zM441 706c64 0 81 -12 81 -72c0 -65 -18 -80 -81 -80c-33 0 -55 5 -66 15s-16 32 -16 65c0 60 17 72 82 72z" />
    <glyph glyph-name="copyright" unicode="&#xa9;" horiz-adv-x="987" 
d="M494 714c144 0 242 -20 319 -72c79 -52 116 -145 116 -284c0 -137 -36 -234 -108 -289s-181 -83 -327 -83c-144 0 -244 22 -321 78s-115 153 -115 294c0 139 38 232 115 284c79 52 176 72 321 72zM775 358c0 85 -13 137 -36 170c-11 17 -29 30 -54 38
c-25 9 -51 14 -78 17s-65 4 -113 4s-86 -1 -114 -4c-27 -3 -53 -8 -78 -17c-71 -27 -86 -81 -90 -208c0 -112 18 -171 59 -208c13 -11 31 -19 54 -25c47 -12 90 -15 169 -15c39 0 71 1 96 3c51 4 101 16 126 37c41 37 59 96 59 208zM636 285l27 -113
c-46 -14 -93 -21 -141 -21c-89 0 -139 8 -182 36c-41 29 -58 81 -58 166c0 84 17 134 58 162c43 28 93 36 182 36c52 0 99 -6 141 -18l-28 -115c-27 7 -59 10 -97 10c-39 0 -66 -5 -81 -14c-14 -9 -21 -30 -21 -63c0 -63 25 -76 102 -76c44 0 77 3 98 10z" />
    <glyph glyph-name="ordfeminine" unicode="&#xaa;" horiz-adv-x="559" 
d="M481 578v-226c-60 -16 -133 -24 -220 -24c-73 0 -121 8 -146 24s-37 48 -37 96c0 96 50 119 162 119c22 0 59 -3 111 -8c0 20 -6 33 -19 39s-43 9 -90 9c-51 0 -96 -4 -133 -13l-19 103c63 11 128 17 195 17c131 0 196 -39 196 -136zM351 429v49c-26 3 -54 4 -85 4
c-48 0 -53 -3 -53 -30s6 -31 53 -31c31 0 60 3 85 8z" />
    <glyph glyph-name="guillemotleft" unicode="&#xab;" horiz-adv-x="912" 
d="M357 608l120 -94l-175 -187l174 -190l-119 -95l-336 283zM771 608l120 -94l-175 -187l174 -190l-119 -95l-336 283z" />
    <glyph glyph-name="logicalnot" unicode="&#xac;" horiz-adv-x="660" 
d="M420 278h-386v176h592v-454h-206v278z" />
    <glyph glyph-name="registered" unicode="&#xae;" horiz-adv-x="702" 
d="M660 452c0 -99 -24 -167 -73 -206c-48 -39 -126 -58 -235 -58s-189 19 -238 58s-73 107 -73 206s24 168 73 205c49 38 128 57 238 57c109 0 188 -19 236 -57c48 -37 72 -106 72 -205zM561 452c0 73 -10 114 -46 137c-36 24 -78 29 -163 29c-83 0 -138 -10 -166 -30
c-27 -20 -41 -65 -41 -136c0 -67 14 -112 43 -134c29 -21 83 -32 164 -32s136 11 165 33s44 66 44 133zM369 514h-68v-44h68c16 0 22 5 22 22c0 16 -5 22 -22 22zM418 430c21 -5 32 -9 51 -25c20 -15 34 -44 43 -88h-110c-19 61 -36 79 -60 79h-41v-79h-105v272h208
c63 0 95 -27 95 -80c0 -50 -27 -76 -81 -79z" />
    <glyph glyph-name="overscore" unicode="&#xaf;" horiz-adv-x="615" 
d="M495 567h-353v122h353v-122z" />
    <glyph glyph-name="overscore" unicode="&#x2c9;" horiz-adv-x="615" 
d="M495 567h-353v122h353v-122z" />
    <glyph glyph-name="degree" unicode="&#xb0;" horiz-adv-x="555" 
d="M528 484c0 -91 -18 -154 -55 -189c-37 -34 -102 -51 -196 -51s-159 17 -196 51c-36 35 -54 98 -54 189c0 89 18 150 54 182s101 48 196 48s160 -16 196 -48c37 -32 55 -93 55 -182zM360 484c0 48 -5 78 -14 89c-9 12 -32 18 -69 18s-60 -6 -70 -18
c-9 -11 -14 -41 -14 -89c0 -51 5 -83 14 -96c10 -13 33 -19 70 -19s60 6 69 18c9 13 14 45 14 97z" />
    <glyph glyph-name="plusminus" unicode="&#xb1;" horiz-adv-x="660" 
d="M234 362h-200v176h200v159h190v-159h202v-176h-202v-158h-190v158zM626 -2h-592v176h592v-176z" />
    <glyph glyph-name="twosuperior" unicode="&#xb2;" horiz-adv-x="578" 
d="M81 565l-19 131c62 12 130 18 204 18c157 0 221 -39 221 -147c0 -44 -4 -68 -24 -97c-19 -29 -59 -47 -126 -58c-63 -9 -95 -18 -97 -26h249v-124h-440c5 75 22 130 49 167s77 62 148 75c61 11 86 21 86 46s-17 31 -94 31c-51 0 -104 -5 -157 -16z" />
    <glyph glyph-name="threesuperior" unicode="&#xb3;" horiz-adv-x="568" 
d="M256 430h-79v111h75c51 0 61 7 61 27c0 17 -10 23 -111 23c-51 0 -90 -2 -116 -6l-23 115c49 9 109 13 181 13c167 0 242 -31 242 -118c0 -68 -27 -101 -110 -106c81 -7 122 -45 122 -115c0 -91 -87 -127 -254 -127c-67 0 -128 4 -182 12l23 118c33 -5 72 -7 117 -7
c51 0 83 2 98 7s22 15 22 29c0 16 -22 24 -66 24z" />
    <glyph glyph-name="acute" unicode="&#xb4;" horiz-adv-x="566" 
d="M471 697l-198 -129h-170l157 129h211z" />
    <glyph glyph-name="mu" unicode="&#xb5;" horiz-adv-x="759" 
d="M497 50c-37 -43 -85 -64 -144 -64c-47 0 -81 7 -102 20c-4 -90 -9 -156 -15 -198h-184c18 129 27 262 27 399v307h198v-283c0 -43 28 -64 84 -64c52 0 89 8 110 23v325h199v-312c0 -27 19 -38 74 -38l-28 -179c-124 0 -187 12 -219 64z" />
    <glyph glyph-name="mu" unicode="&#x3bc;" horiz-adv-x="759" 
d="M497 50c-37 -43 -85 -64 -144 -64c-47 0 -81 7 -102 20c-4 -90 -9 -156 -15 -198h-184c18 129 27 262 27 399v307h198v-283c0 -43 28 -64 84 -64c52 0 89 8 110 23v325h199v-312c0 -27 19 -38 74 -38l-28 -179c-124 0 -187 12 -219 64z" />
    <glyph glyph-name="paragraph" unicode="&#xb6;" horiz-adv-x="854" 
d="M755 697v-697h-170v205h-129v-205h-171v205h-40c-71 0 -126 23 -165 68c-39 46 -58 104 -58 173c0 167 74 251 223 251h510z" />
    <glyph glyph-name="middot" unicode="&#xb7;" horiz-adv-x="390" 
d="M193 404c51 0 85 -6 102 -19c18 -12 27 -39 27 -80c0 -45 -9 -74 -27 -88c-17 -14 -51 -21 -102 -21c-48 0 -81 7 -99 21c-17 14 -26 43 -26 88c0 41 9 67 26 80s50 19 99 19z" />
    <glyph glyph-name="middot" unicode="&#x2219;" horiz-adv-x="390" 
d="M193 404c51 0 85 -6 102 -19c18 -12 27 -39 27 -80c0 -45 -9 -74 -27 -88c-17 -14 -51 -21 -102 -21c-48 0 -81 7 -99 21c-17 14 -26 43 -26 88c0 41 9 67 26 80s50 19 99 19z" />
    <glyph glyph-name="cedilla" unicode="&#xb8;" horiz-adv-x="769" 
d="M367 -94l45 94h70v-36c51 0 85 -6 102 -17c17 -12 25 -33 25 -64c0 -63 -60 -86 -192 -86c-42 0 -75 3 -100 9l33 68c19 -5 44 -7 75 -7c26 0 39 6 39 19c0 19 -7 22 -42 22c-26 0 -44 -1 -55 -2z" />
    <glyph glyph-name="onesuperior" unicode="&#xb9;" horiz-adv-x="501" 
d="M358 719v-457h-150v267l-129 -35l-41 122z" />
    <glyph glyph-name="ordmasculine" unicode="&#xba;" horiz-adv-x="580" 
d="M289 308c-144 0 -222 60 -222 204s78 202 222 202c147 0 224 -58 224 -202s-77 -204 -224 -204zM289 609c-33 0 -56 -6 -69 -19c-12 -12 -18 -39 -18 -80c0 -80 20 -98 87 -98s88 18 88 98c0 41 -6 68 -19 80c-12 13 -35 19 -69 19z" />
    <glyph glyph-name="guillemotright" unicode="&#xbb;" horiz-adv-x="912" 
d="M555 42l-120 94l175 187l-174 190l119 95l336 -283zM141 42l-120 94l175 187l-174 190l119 95l336 -283z" />
    <glyph glyph-name="onequarter" unicode="&#xbc;" horiz-adv-x="1166" 
d="M125 0l593 697h194l-593 -697h-194zM901 84h-291v72c73 100 151 197 236 290h204v-235h70v-127h-70v-84h-149v84zM784 211h117v138c-52 -55 -91 -101 -117 -138zM318 719v-457h-150v267l-129 -35l-41 122z" />
    <glyph glyph-name="onehalf" unicode="&#xbd;" horiz-adv-x="1166" 
d="M125 0l593 697h194l-593 -697h-194zM318 719v-457h-150v267l-129 -35l-41 122zM731 302l-19 131c62 12 130 18 204 18c157 0 221 -39 221 -147c0 -44 -4 -68 -24 -97c-19 -29 -59 -47 -126 -58c-63 -9 -95 -18 -97 -26h249v-124h-440c5 75 22 130 49 167s77 62 148 75
c61 11 86 21 86 46s-17 31 -94 31c-51 0 -104 -5 -157 -16z" />
    <glyph glyph-name="threequarters" unicode="&#xbe;" horiz-adv-x="1166" 
d="M213 0l593 697h193l-593 -697h-193zM901 84h-291v72c73 100 151 197 236 290h204v-235h70v-127h-70v-84h-149v84zM784 211h117v138c-52 -55 -91 -101 -117 -138zM212 430h-79v111h75c51 0 61 7 61 27c0 17 -10 23 -111 23c-51 0 -90 -2 -116 -6l-23 115
c49 9 109 13 181 13c167 0 242 -31 242 -118c0 -68 -27 -101 -110 -106c81 -7 122 -45 122 -115c0 -91 -87 -127 -254 -127c-67 0 -128 4 -182 12l23 118c33 -5 72 -7 117 -7c51 0 83 2 98 7s22 15 22 29c0 16 -22 24 -66 24z" />
    <glyph glyph-name="questiondown" unicode="&#xbf;" horiz-adv-x="728" 
d="M414 336c-46 0 -77 6 -94 17c-16 12 -24 37 -24 75c0 42 8 69 24 82c17 13 48 19 94 19c45 0 75 -7 91 -20s24 -40 24 -81c0 -38 -8 -63 -24 -75c-16 -11 -46 -17 -91 -17zM320 293h193v-190h-55c-165 -3 -172 -7 -177 -64c0 -27 9 -43 26 -48c18 -5 65 -8 141 -8
c73 0 139 6 197 18l33 -176c-68 -13 -166 -19 -295 -19s-217 15 -264 45c-46 30 -69 91 -69 183c0 155 89 214 270 214v45z" />
    <glyph glyph-name="Agrave" unicode="&#xc0;" horiz-adv-x="854" 
d="M268 697h339c37 -101 85 -218 144 -353c59 -134 113 -249 161 -344h-238c-16 31 -37 76 -62 134h-375c-8 -21 -23 -66 -46 -134h-231c32 89 79 204 141 344c63 140 118 258 167 353zM456 529h-64c-29 -63 -60 -140 -94 -230h244c-33 82 -62 159 -86 230zM407 876
l158 -129h-171l-198 129h211z" />
    <glyph glyph-name="Aacute" unicode="&#xc1;" horiz-adv-x="854" 
d="M268 697h339c37 -101 85 -218 144 -353c59 -134 113 -249 161 -344h-238c-16 31 -37 76 -62 134h-375c-8 -21 -23 -66 -46 -134h-231c32 89 79 204 141 344c63 140 118 258 167 353zM456 529h-64c-29 -63 -60 -140 -94 -230h244c-33 82 -62 159 -86 230zM661 876
l-198 -129h-171l158 129h211z" />
    <glyph glyph-name="Acircumflex" unicode="&#xc2;" horiz-adv-x="854" 
d="M268 697h339c37 -101 85 -218 144 -353c59 -134 113 -249 161 -344h-238c-16 31 -37 76 -62 134h-375c-8 -21 -23 -66 -46 -134h-231c32 89 79 204 141 344c63 140 118 258 167 353zM456 529h-64c-29 -63 -60 -140 -94 -230h244c-33 82 -62 159 -86 230zM686 747h-171
l-90 72l-84 -72h-166l155 129h196z" />
    <glyph glyph-name="Atilde" unicode="&#xc3;" horiz-adv-x="854" 
d="M268 697h339c37 -101 85 -218 144 -353c59 -134 113 -249 161 -344h-238c-16 31 -37 76 -62 134h-375c-8 -21 -23 -66 -46 -134h-231c32 89 79 204 141 344c63 140 118 258 167 353zM456 529h-64c-29 -63 -60 -140 -94 -230h244c-33 82 -62 159 -86 230zM578 879l77 -52
c-27 -55 -83 -98 -152 -98c-21 0 -51 8 -91 24s-71 24 -93 24c-31 0 -52 -11 -65 -34l-72 59c41 54 85 81 132 81c23 0 56 -8 97 -23c42 -15 74 -23 96 -23c33 0 57 14 71 42z" />
    <glyph glyph-name="Adieresis" unicode="&#xc4;" horiz-adv-x="854" 
d="M368 809c0 -65 -18 -80 -82 -80c-63 0 -81 15 -81 80c0 60 17 72 81 72s82 -12 82 -72zM568 881c64 0 81 -12 81 -72c0 -65 -18 -80 -81 -80c-33 0 -55 5 -66 15s-16 32 -16 65c0 60 17 72 82 72zM268 697h339c37 -101 85 -218 144 -353c59 -134 113 -249 161 -344h-238
c-16 31 -37 76 -62 134h-375c-8 -21 -23 -66 -46 -134h-231c32 89 79 204 141 344c63 140 118 258 167 353zM456 529h-64c-29 -63 -60 -140 -94 -230h244c-33 82 -62 159 -86 230z" />
    <glyph glyph-name="Aring" unicode="&#xc5;" horiz-adv-x="854" 
d="M427 908c107 0 156 -25 156 -102c0 -79 -48 -102 -156 -102c-109 0 -158 23 -158 102c0 77 50 102 158 102zM427 842c-59 0 -69 -9 -69 -37s10 -36 69 -36c57 0 69 8 69 36s-12 37 -69 37zM268 697h339c37 -101 85 -218 144 -353c59 -134 113 -249 161 -344h-238
c-16 31 -37 76 -62 134h-375c-8 -21 -23 -66 -46 -134h-231c32 89 79 204 141 344c63 140 118 258 167 353zM456 529h-64c-29 -63 -60 -140 -94 -230h244c-33 82 -62 159 -86 230z" />
    <glyph glyph-name="AE" unicode="&#xc6;" horiz-adv-x="1210" 
d="M391 697h790v-168h-436v-88h250v-165h-250v-108h436v-168h-644v134h-383c-41 -46 -77 -91 -106 -134h-267c73 92 171 208 294 348c123 141 229 257 316 349zM287 299h250v230h-57c-49 -55 -114 -132 -193 -230z" />
    <glyph glyph-name="Ccedilla" unicode="&#xc7;" horiz-adv-x="710" 
d="M58 355c0 141 30 233 101 286c71 55 162 73 306 73c88 0 166 -7 235 -21l-23 -173c-43 11 -94 16 -155 16c-35 0 -62 -1 -82 -2c-40 -1 -87 -9 -107 -25c-34 -25 -50 -69 -50 -156c0 -69 11 -112 30 -140c10 -14 25 -24 46 -31c43 -13 82 -16 163 -16c63 0 114 5 154 15
l23 -176c-64 -11 -136 -18 -217 -19v-22c51 0 85 -6 102 -17c17 -12 25 -33 25 -64c0 -63 -60 -86 -192 -86c-42 0 -75 3 -100 9l33 68c19 -5 44 -7 75 -7c26 0 39 6 39 19c0 19 -7 22 -42 22c-26 0 -44 -1 -55 -2l39 82c-121 6 -210 37 -265 92s-83 147 -83 275z" />
    <glyph glyph-name="Egrave" unicode="&#xc8;" horiz-adv-x="771" 
d="M99 0v697h644v-168h-436v-88h314v-165h-314v-108h436v-168h-644zM441 876l158 -129h-171l-198 129h211z" />
    <glyph glyph-name="Eacute" unicode="&#xc9;" horiz-adv-x="771" 
d="M99 0v697h644v-168h-436v-88h314v-165h-314v-108h436v-168h-644zM670 876l-198 -129h-171l158 129h211z" />
    <glyph glyph-name="Ecircumflex" unicode="&#xca;" horiz-adv-x="771" 
d="M99 0v697h644v-168h-436v-88h314v-165h-314v-108h436v-168h-644zM686 747h-171l-90 72l-84 -72h-166l155 129h196z" />
    <glyph glyph-name="Edieresis" unicode="&#xcb;" horiz-adv-x="771" 
d="M365 809c0 -65 -18 -80 -82 -80c-63 0 -81 15 -81 80c0 60 17 72 81 72s82 -12 82 -72zM565 881c64 0 81 -12 81 -72c0 -65 -18 -80 -81 -80c-33 0 -55 5 -66 15s-16 32 -16 65c0 60 17 72 82 72zM99 0v697h644v-168h-436v-88h314v-165h-314v-108h436v-168h-644z" />
    <glyph glyph-name="Igrave" unicode="&#xcc;" horiz-adv-x="406" 
d="M99 0v697h208v-697h-208zM171 876l158 -129h-171l-198 129h211z" />
    <glyph glyph-name="Iacute" unicode="&#xcd;" horiz-adv-x="406" 
d="M99 0v697h208v-697h-208zM451 876l-198 -129h-171l158 129h211z" />
    <glyph glyph-name="Icircumflex" unicode="&#xce;" horiz-adv-x="406" 
d="M459 747h-171l-90 72l-84 -72h-166l155 129h196zM99 0v697h208v-697h-208z" />
    <glyph glyph-name="Idieresis" unicode="&#xcf;" horiz-adv-x="406" 
d="M99 0v697h208v-697h-208zM144 809c0 -65 -18 -80 -82 -80c-63 0 -81 15 -81 80c0 60 17 72 81 72s82 -12 82 -72zM344 881c64 0 81 -12 81 -72c0 -65 -18 -80 -81 -80c-33 0 -55 5 -66 15s-16 32 -16 65c0 60 17 72 82 72z" />
    <glyph glyph-name="Eth" unicode="&#xd0;" horiz-adv-x="948" 
d="M99 289h-65v128h65v280h384c144 0 235 -18 306 -70c71 -51 101 -139 101 -274c0 -132 -32 -224 -97 -276c-64 -51 -167 -77 -310 -77h-384v289zM665 350c0 84 -8 128 -36 152c-8 7 -21 13 -40 17c-37 9 -69 10 -138 10h-144v-112h198v-128h-198v-120h144c51 0 88 1 113 4
s46 12 63 25c35 28 38 65 38 152z" />
    <glyph glyph-name="Ntilde" unicode="&#xd1;" horiz-adv-x="1009" 
d="M704 697h206v-697h-275c-99 157 -211 311 -334 463v-463h-202v697h282c95 -121 203 -269 323 -445v445zM659 879l77 -52c-27 -55 -83 -98 -152 -98c-21 0 -51 8 -91 24s-71 24 -93 24c-31 0 -52 -11 -65 -34l-72 59c41 54 85 81 132 81c23 0 56 -8 97 -23
c42 -15 74 -23 96 -23c33 0 57 14 71 42z" />
    <glyph glyph-name="Ograve" unicode="&#xd2;" horiz-adv-x="962" 
d="M482 714c144 0 238 -19 313 -72s109 -145 109 -284c0 -138 -34 -235 -103 -290s-175 -82 -319 -82s-240 22 -315 78c-73 56 -109 153 -109 294c0 139 34 231 109 284s170 72 315 72zM482 161c48 0 83 1 106 4s43 12 58 27c31 31 33 69 33 164c0 30 -1 54 -2 71
c-3 36 -15 69 -30 82c-7 7 -19 13 -36 18c-33 9 -64 10 -129 10c-33 0 -58 -1 -77 -2c-37 -1 -75 -11 -90 -26c-7 -7 -14 -18 -20 -33c-11 -29 -12 -60 -12 -120c0 -32 1 -58 2 -77c3 -37 15 -72 30 -87c7 -7 19 -14 36 -19c33 -11 66 -12 131 -12zM458 876l158 -129h-171
l-198 129h211z" />
    <glyph glyph-name="Oacute" unicode="&#xd3;" horiz-adv-x="962" 
d="M482 714c144 0 238 -19 313 -72s109 -145 109 -284c0 -138 -34 -235 -103 -290s-175 -82 -319 -82s-240 22 -315 78c-73 56 -109 153 -109 294c0 139 34 231 109 284s170 72 315 72zM482 161c48 0 83 1 106 4s43 12 58 27c31 31 33 69 33 164c0 30 -1 54 -2 71
c-3 36 -15 69 -30 82c-7 7 -19 13 -36 18c-33 9 -64 10 -129 10c-33 0 -58 -1 -77 -2c-37 -1 -75 -11 -90 -26c-7 -7 -14 -18 -20 -33c-11 -29 -12 -60 -12 -120c0 -32 1 -58 2 -77c3 -37 15 -72 30 -87c7 -7 19 -14 36 -19c33 -11 66 -12 131 -12zM680 876l-198 -129h-171
l158 129h211z" />
    <glyph glyph-name="Ocircumflex" unicode="&#xd4;" horiz-adv-x="962" 
d="M482 714c144 0 238 -19 313 -72s109 -145 109 -284c0 -138 -34 -235 -103 -290s-175 -82 -319 -82s-240 22 -315 78c-73 56 -109 153 -109 294c0 139 34 231 109 284s170 72 315 72zM482 161c48 0 83 1 106 4s43 12 58 27c31 31 33 69 33 164c0 30 -1 54 -2 71
c-3 36 -15 69 -30 82c-7 7 -19 13 -36 18c-33 9 -64 10 -129 10c-33 0 -58 -1 -77 -2c-37 -1 -75 -11 -90 -26c-7 -7 -14 -18 -20 -33c-11 -29 -12 -60 -12 -120c0 -32 1 -58 2 -77c3 -37 15 -72 30 -87c7 -7 19 -14 36 -19c33 -11 66 -12 131 -12zM736 747h-171l-90 72
l-84 -72h-166l155 129h196z" />
    <glyph glyph-name="Otilde" unicode="&#xd5;" horiz-adv-x="962" 
d="M482 714c144 0 238 -19 313 -72s109 -145 109 -284c0 -138 -34 -235 -103 -290s-175 -82 -319 -82s-240 22 -315 78c-73 56 -109 153 -109 294c0 139 34 231 109 284s170 72 315 72zM482 161c48 0 83 1 106 4s43 12 58 27c31 31 33 69 33 164c0 30 -1 54 -2 71
c-3 36 -15 69 -30 82c-7 7 -19 13 -36 18c-33 9 -64 10 -129 10c-33 0 -58 -1 -77 -2c-37 -1 -75 -11 -90 -26c-7 -7 -14 -18 -20 -33c-11 -29 -12 -60 -12 -120c0 -32 1 -58 2 -77c3 -37 15 -72 30 -87c7 -7 19 -14 36 -19c33 -11 66 -12 131 -12zM640 879l77 -52
c-27 -55 -83 -98 -152 -98c-21 0 -51 8 -91 24s-71 24 -93 24c-31 0 -52 -11 -65 -34l-72 59c41 54 85 81 132 81c23 0 56 -8 97 -23c42 -15 74 -23 96 -23c33 0 57 14 71 42z" />
    <glyph glyph-name="Odieresis" unicode="&#xd6;" horiz-adv-x="962" 
d="M482 714c144 0 238 -19 313 -72s109 -145 109 -284c0 -138 -34 -235 -103 -290s-175 -82 -319 -82s-240 22 -315 78c-73 56 -109 153 -109 294c0 139 34 231 109 284s170 72 315 72zM482 161c48 0 83 1 106 4s43 12 58 27c31 31 33 69 33 164c0 30 -1 54 -2 71
c-3 36 -15 69 -30 82c-7 7 -19 13 -36 18c-33 9 -64 10 -129 10c-33 0 -58 -1 -77 -2c-37 -1 -75 -11 -90 -26c-7 -7 -14 -18 -20 -33c-11 -29 -12 -60 -12 -120c0 -32 1 -58 2 -77c3 -37 15 -72 30 -87c7 -7 19 -14 36 -19c33 -11 66 -12 131 -12zM419 809
c0 -65 -18 -80 -82 -80c-63 0 -81 15 -81 80c0 60 17 72 81 72s82 -12 82 -72zM619 881c64 0 81 -12 81 -72c0 -65 -18 -80 -81 -80c-33 0 -55 5 -66 15s-16 32 -16 65c0 60 17 72 82 72z" />
    <glyph glyph-name="multiply" unicode="&#xd7;" horiz-adv-x="660" 
d="M330 252l-144 -114l-146 116l143 112h-1l-144 112l148 117l144 -115l142 115l147 -117l-143 -112l142 -112l-147 -115z" />
    <glyph glyph-name="Oslash" unicode="&#xd8;" horiz-adv-x="962" 
d="M482 714c109 0 195 -13 256 -40l25 23h223l-133 -118c34 -53 51 -126 51 -221c0 -138 -34 -235 -103 -290s-175 -82 -319 -82c-105 0 -188 13 -249 39l-28 -25h-223l134 119c-39 58 -58 138 -58 239c0 139 34 231 109 284s170 72 315 72zM283 356c0 -41 1 -70 3 -85
l293 262c-22 3 -54 4 -97 4c-33 0 -58 -1 -77 -2c-37 -1 -75 -11 -90 -26c-7 -7 -14 -18 -20 -33c-11 -29 -12 -60 -12 -120zM482 161c48 0 83 1 106 4s43 12 58 27c31 31 33 69 33 164c0 19 -1 41 -2 65l-287 -256c21 -3 52 -4 92 -4z" />
    <glyph glyph-name="Ugrave" unicode="&#xd9;" horiz-adv-x="919" 
d="M619 222v475h210v-517c0 -75 -35 -127 -103 -155s-150 -39 -267 -39s-200 11 -268 39c-67 28 -101 80 -101 155v517h209v-475c0 -40 40 -57 160 -57c119 0 160 17 160 57zM449 876l158 -129h-171l-198 129h211z" />
    <glyph glyph-name="Uacute" unicode="&#xda;" horiz-adv-x="919" 
d="M619 222v475h210v-517c0 -75 -35 -127 -103 -155s-150 -39 -267 -39s-200 11 -268 39c-67 28 -101 80 -101 155v517h209v-475c0 -40 40 -57 160 -57c119 0 160 17 160 57zM680 876l-198 -129h-171l158 129h211z" />
    <glyph glyph-name="Ucircumflex" unicode="&#xdb;" horiz-adv-x="919" 
d="M619 222v475h210v-517c0 -75 -35 -127 -103 -155s-150 -39 -267 -39s-200 11 -268 39c-67 28 -101 80 -101 155v517h209v-475c0 -40 40 -57 160 -57c119 0 160 17 160 57zM710 747h-171l-90 72l-84 -72h-166l155 129h196z" />
    <glyph glyph-name="Udieresis" unicode="&#xdc;" horiz-adv-x="919" 
d="M397 809c0 -65 -18 -80 -82 -80c-63 0 -81 15 -81 80c0 60 17 72 81 72s82 -12 82 -72zM597 881c64 0 81 -12 81 -72c0 -65 -18 -80 -81 -80c-33 0 -55 5 -66 15s-16 32 -16 65c0 60 17 72 82 72zM619 222v475h210v-517c0 -75 -35 -127 -103 -155s-150 -39 -267 -39
s-200 11 -268 39c-67 28 -101 80 -101 155v517h209v-475c0 -40 40 -57 160 -57c119 0 160 17 160 57z" />
    <glyph glyph-name="Yacute" unicode="&#xdd;" horiz-adv-x="820" 
d="M321 0v266c-48 57 -114 129 -197 216s-156 158 -217 215h298c89 -89 163 -171 223 -246c97 111 164 193 201 246h274c-129 -159 -254 -302 -374 -430v-267h-208zM660 876l-198 -129h-171l158 129h211z" />
    <glyph glyph-name="Thorn" unicode="&#xde;" horiz-adv-x="854" 
d="M99 0v697h208v-89h302c149 0 223 -84 223 -251c0 -69 -20 -127 -59 -173c-39 -45 -93 -68 -164 -68h-302v-116h-208zM307 271h218c49 0 75 22 75 86c0 65 -20 88 -75 88h-218v-174z" />
    <glyph glyph-name="germandbls" unicode="&#xdf;" horiz-adv-x="849" 
d="M419 714c133 0 225 -14 278 -41s80 -75 80 -144c0 -53 -13 -93 -38 -119s-71 -41 -138 -46c140 -8 192 -63 192 -179c0 -73 -26 -125 -78 -155c-52 -29 -142 -44 -269 -44c-23 0 -53 2 -90 5l14 153c28 -2 58 -3 90 -3c92 0 115 16 115 67c0 32 -7 53 -21 62
c-14 10 -44 15 -91 15h-52v146h45c49 0 79 4 92 13s19 26 19 51c0 24 -10 40 -30 47c-19 8 -59 12 -119 12c-57 0 -94 -6 -112 -17c-17 -11 -26 -29 -26 -54v-483h-198v518c0 147 110 196 337 196z" />
    <glyph glyph-name="agrave" unicode="&#xe0;" horiz-adv-x="704" 
d="M631 329v-306c-92 -25 -195 -37 -308 -37c-106 0 -177 11 -214 34c-36 23 -54 69 -54 136c0 71 20 115 64 138c45 23 93 29 173 29c30 0 81 -4 153 -12c-4 61 -11 69 -150 72c-64 0 -129 -7 -195 -21l-25 144c82 15 176 23 281 23c192 0 275 -53 275 -200zM445 129v69
c-31 3 -64 5 -99 5c-37 0 -61 -3 -72 -8c-10 -5 -15 -16 -15 -34c0 -36 11 -43 83 -43c31 0 65 4 103 11zM312 697l157 -129h-170l-198 129h211z" />
    <glyph glyph-name="aacute" unicode="&#xe1;" horiz-adv-x="704" 
d="M631 329v-306c-92 -25 -195 -37 -308 -37c-106 0 -177 11 -214 34c-36 23 -54 69 -54 136c0 71 20 115 64 138c45 23 93 29 173 29c30 0 81 -4 153 -12c-4 61 -11 69 -150 72c-64 0 -129 -7 -195 -21l-25 144c82 15 176 23 281 23c192 0 275 -53 275 -200zM445 129v69
c-31 3 -64 5 -99 5c-37 0 -61 -3 -72 -8c-10 -5 -15 -16 -15 -34c0 -36 11 -43 83 -43c31 0 65 4 103 11zM593 697l-198 -129h-170l157 129h211z" />
    <glyph glyph-name="acircumflex" unicode="&#xe2;" horiz-adv-x="704" 
d="M631 329v-306c-92 -25 -195 -37 -308 -37c-106 0 -177 11 -214 34c-36 23 -54 69 -54 136c0 71 20 115 64 138c45 23 93 29 173 29c30 0 81 -4 153 -12c-4 61 -11 69 -150 72c-64 0 -129 -7 -195 -21l-25 144c82 15 176 23 281 23c192 0 275 -53 275 -200zM445 129v69
c-31 3 -64 5 -99 5c-37 0 -61 -3 -72 -8c-10 -5 -15 -16 -15 -34c0 -36 11 -43 83 -43c31 0 65 4 103 11zM607 568h-171l-89 73l-85 -73h-166l155 129h196z" />
    <glyph glyph-name="atilde" unicode="&#xe3;" horiz-adv-x="704" 
d="M631 329v-306c-92 -25 -195 -37 -308 -37c-106 0 -177 11 -214 34c-36 23 -54 69 -54 136c0 71 20 115 64 138c45 23 93 29 173 29c30 0 81 -4 153 -12c-4 61 -11 69 -150 72c-64 0 -129 -7 -195 -21l-25 144c82 15 176 23 281 23c192 0 275 -53 275 -200zM445 129v69
c-31 3 -64 5 -99 5c-37 0 -61 -3 -72 -8c-10 -5 -15 -16 -15 -34c0 -36 11 -43 83 -43c31 0 65 4 103 11zM501 703l72 -52c-27 -56 -78 -98 -146 -98c-25 0 -58 8 -101 23s-75 23 -96 23c-31 0 -52 -11 -63 -32l-66 59c39 52 74 81 127 81c27 0 63 -7 107 -22
c45 -15 77 -22 98 -22c37 0 53 11 68 40z" />
    <glyph glyph-name="adieresis" unicode="&#xe4;" horiz-adv-x="704" 
d="M631 329v-306c-92 -25 -195 -37 -308 -37c-106 0 -177 11 -214 34c-36 23 -54 69 -54 136c0 71 20 115 64 138c45 23 93 29 173 29c30 0 81 -4 153 -12c-4 61 -11 69 -150 72c-64 0 -129 -7 -195 -21l-25 144c82 15 176 23 281 23c192 0 275 -53 275 -200zM445 129v69
c-31 3 -64 5 -99 5c-37 0 -61 -3 -72 -8c-10 -5 -15 -16 -15 -34c0 -36 11 -43 83 -43c31 0 65 4 103 11zM283 634c0 -65 -18 -80 -82 -80c-63 0 -81 15 -81 80c0 60 17 72 81 72s82 -12 82 -72zM483 706c64 0 81 -12 81 -72c0 -65 -18 -80 -81 -80c-33 0 -55 5 -66 15
s-16 32 -16 65c0 60 17 72 82 72z" />
    <glyph glyph-name="aring" unicode="&#xe5;" horiz-adv-x="704" 
d="M631 329v-306c-92 -25 -195 -37 -308 -37c-106 0 -177 11 -214 34c-36 23 -54 69 -54 136c0 71 20 115 64 138c45 23 93 29 173 29c30 0 81 -4 153 -12c-4 61 -11 69 -150 72c-64 0 -129 -7 -195 -21l-25 144c82 15 176 23 281 23c192 0 275 -53 275 -200zM445 129v69
c-31 3 -64 5 -99 5c-37 0 -61 -3 -72 -8c-10 -5 -15 -16 -15 -34c0 -36 11 -43 83 -43c31 0 65 4 103 11zM346 744c57 0 96 -7 118 -21s33 -41 33 -81s-11 -67 -33 -81s-61 -21 -118 -21c-115 0 -153 22 -153 102s38 102 153 102zM346 605c57 0 66 8 66 36
c0 15 -4 24 -12 29c-7 5 -25 8 -54 8s-47 -3 -55 -8c-7 -5 -11 -14 -11 -29c0 -29 7 -36 66 -36z" />
    <glyph glyph-name="ae" unicode="&#xe6;" horiz-adv-x="1060" 
d="M949 158l30 -147c-63 -17 -142 -25 -237 -25c-59 0 -112 9 -160 28c-91 -19 -178 -28 -259 -28c-106 0 -177 11 -214 34c-36 23 -54 69 -54 136c0 71 20 115 64 138c45 23 93 29 173 29c41 0 92 -5 153 -16c-4 61 -11 69 -150 72c-74 0 -141 -7 -201 -20l-23 145
c89 17 184 25 285 25c75 0 139 -13 192 -38c51 25 111 38 180 38c104 0 165 -11 217 -48c52 -36 73 -102 73 -207c0 -14 -1 -39 -4 -75h-378c3 -51 40 -63 136 -63c24 0 55 2 93 7c39 5 67 10 84 15zM457 134c-9 22 -13 42 -13 60c-28 6 -60 9 -96 9c-67 0 -87 -7 -87 -42
c0 -36 14 -43 83 -43c34 0 72 5 113 16zM742 394c-75 0 -96 -15 -104 -64h184c-1 51 -23 64 -80 64z" />
    <glyph glyph-name="ccedilla" unicode="&#xe7;" horiz-adv-x="572" 
d="M527 159l24 -151c-41 -12 -98 -19 -169 -22v-22c51 0 85 -6 102 -17c17 -12 25 -33 25 -64c0 -63 -60 -86 -192 -86c-42 0 -75 3 -100 9l33 68c19 -5 44 -7 75 -7c26 0 39 6 39 19c0 19 -7 22 -42 22c-26 0 -44 -1 -55 -2l39 83c-161 13 -253 92 -253 271
c0 101 31 173 88 213c59 40 128 56 224 56c77 0 139 -6 186 -19l-25 -153c-48 11 -94 16 -138 16c-57 0 -78 -1 -105 -17c-25 -15 -32 -44 -32 -99c0 -49 9 -81 28 -94s55 -20 109 -20c56 0 102 5 139 16z" />
    <glyph glyph-name="egrave" unicode="&#xe8;" horiz-adv-x="680" 
d="M568 157l31 -146c-65 -17 -144 -25 -237 -25c-206 0 -309 91 -309 274c0 99 25 168 76 208c51 41 124 61 219 61c104 0 165 -11 216 -47c52 -36 73 -102 73 -206c0 -27 -1 -52 -4 -77h-377c3 -52 34 -63 137 -63c59 0 118 7 175 21zM350 394c-67 0 -85 -15 -92 -64h184
c-1 52 -23 64 -92 64zM330 697l157 -129h-170l-198 129h211z" />
    <glyph glyph-name="eacute" unicode="&#xe9;" horiz-adv-x="680" 
d="M568 157l31 -146c-65 -17 -144 -25 -237 -25c-206 0 -309 91 -309 274c0 99 25 168 76 208c51 41 124 61 219 61c104 0 165 -11 216 -47c52 -36 73 -102 73 -206c0 -27 -1 -52 -4 -77h-377c3 -52 34 -63 137 -63c59 0 118 7 175 21zM350 394c-67 0 -85 -15 -92 -64h184
c-1 52 -23 64 -92 64zM608 697l-198 -129h-170l157 129h211z" />
    <glyph glyph-name="ecircumflex" unicode="&#xea;" horiz-adv-x="680" 
d="M568 157l31 -146c-65 -17 -144 -25 -237 -25c-206 0 -309 91 -309 274c0 99 25 168 76 208c51 41 124 61 219 61c104 0 165 -11 216 -47c52 -36 73 -102 73 -206c0 -27 -1 -52 -4 -77h-377c3 -52 34 -63 137 -63c59 0 118 7 175 21zM350 394c-67 0 -85 -15 -92 -64h184
c-1 52 -23 64 -92 64zM621 568h-171l-89 73l-85 -73h-166l155 129h196z" />
    <glyph glyph-name="edieresis" unicode="&#xeb;" horiz-adv-x="680" 
d="M568 157l31 -146c-65 -17 -144 -25 -237 -25c-206 0 -309 91 -309 274c0 99 25 168 76 208c51 41 124 61 219 61c104 0 165 -11 216 -47c52 -36 73 -102 73 -206c0 -27 -1 -52 -4 -77h-377c3 -52 34 -63 137 -63c59 0 118 7 175 21zM350 394c-67 0 -85 -15 -92 -64h184
c-1 52 -23 64 -92 64zM304 634c0 -65 -18 -80 -82 -80c-63 0 -81 15 -81 80c0 60 17 72 81 72s82 -12 82 -72zM504 706c64 0 81 -12 81 -72c0 -65 -18 -80 -81 -80c-33 0 -55 5 -66 15s-16 32 -16 65c0 60 17 72 82 72z" />
    <glyph glyph-name="igrave" unicode="&#xec;" horiz-adv-x="360" 
d="M82 514h198v-514h-198v514zM156 697l157 -129h-170l-198 129h211z" />
    <glyph glyph-name="iacute" unicode="&#xed;" horiz-adv-x="360" 
d="M82 514h198v-514h-198v514zM410 697l-198 -129h-170l157 129h211z" />
    <glyph glyph-name="icircumflex" unicode="&#xee;" horiz-adv-x="360" 
d="M82 514h198v-514h-198v514zM436 568h-171l-89 73l-85 -73h-166l155 129h196z" />
    <glyph glyph-name="idieresis" unicode="&#xef;" horiz-adv-x="360" 
d="M82 514h198v-514h-198v514zM121 634c0 -65 -18 -80 -82 -80c-63 0 -81 15 -81 80c0 60 17 72 81 72s82 -12 82 -72zM321 706c64 0 81 -12 81 -72c0 -65 -18 -80 -81 -80c-33 0 -55 5 -66 15s-16 32 -16 65c0 60 17 72 82 72z" />
    <glyph glyph-name="eth" unicode="&#xf0;" horiz-adv-x="770" 
d="M380 511l-83 -35l-78 77l87 37c-41 41 -79 76 -116 107h268l28 -24l58 27l78 -76l-58 -25c107 -114 160 -240 160 -377c-5 -186 -59 -230 -341 -236c-127 0 -213 16 -258 48c-45 33 -67 96 -67 189c0 81 22 138 67 170c45 33 127 49 247 49c19 0 42 -1 67 -4
c-15 24 -34 48 -59 73zM408 281c-59 0 -96 -4 -111 -11s-22 -24 -22 -51c0 -26 6 -43 19 -50s44 -10 95 -10c48 0 78 4 91 13s19 31 19 64c0 15 -1 28 -4 41c-27 3 -56 4 -87 4z" />
    <glyph glyph-name="ntilde" unicode="&#xf1;" horiz-adv-x="747" 
d="M280 355v-355h-198v484c112 30 224 45 336 45c173 0 256 -69 256 -246v-283h-198v271c0 39 -6 65 -19 76c-12 11 -42 17 -90 17c-23 0 -52 -3 -87 -9zM539 703l72 -52c-27 -56 -78 -98 -146 -98c-25 0 -58 8 -101 23s-75 23 -96 23c-31 0 -52 -11 -63 -32l-66 59
c39 52 74 81 127 81c27 0 63 -7 107 -22c45 -15 77 -22 98 -22c37 0 53 11 68 40z" />
    <glyph glyph-name="ograve" unicode="&#xf2;" 
d="M360 -14c-106 0 -184 20 -233 60c-49 41 -74 112 -74 214c0 101 25 171 74 210c50 39 128 59 233 59c107 0 185 -20 234 -59c50 -39 75 -109 75 -210c0 -102 -25 -173 -75 -214c-49 -40 -127 -60 -234 -60zM251 257c0 -57 7 -93 21 -108s43 -23 88 -23s74 8 88 23
s21 51 21 108c0 58 -7 94 -21 109c-13 15 -43 23 -88 23s-75 -8 -89 -23c-13 -15 -20 -51 -20 -109zM336 697l157 -129h-170l-198 129h211z" />
    <glyph glyph-name="oacute" unicode="&#xf3;" 
d="M360 -14c-106 0 -184 20 -233 60c-49 41 -74 112 -74 214c0 101 25 171 74 210c50 39 128 59 233 59c107 0 185 -20 234 -59c50 -39 75 -109 75 -210c0 -102 -25 -173 -75 -214c-49 -40 -127 -60 -234 -60zM251 257c0 -57 7 -93 21 -108s43 -23 88 -23s74 8 88 23
s21 51 21 108c0 58 -7 94 -21 109c-13 15 -43 23 -88 23s-75 -8 -89 -23c-13 -15 -20 -51 -20 -109zM592 697l-198 -129h-170l157 129h211z" />
    <glyph glyph-name="ocircumflex" unicode="&#xf4;" 
d="M360 -14c-106 0 -184 20 -233 60c-49 41 -74 112 -74 214c0 101 25 171 74 210c50 39 128 59 233 59c107 0 185 -20 234 -59c50 -39 75 -109 75 -210c0 -102 -25 -173 -75 -214c-49 -40 -127 -60 -234 -60zM251 257c0 -57 7 -93 21 -108s43 -23 88 -23s74 8 88 23
s21 51 21 108c0 58 -7 94 -21 109c-13 15 -43 23 -88 23s-75 -8 -89 -23c-13 -15 -20 -51 -20 -109zM612 568h-171l-89 73l-85 -73h-166l155 129h196z" />
    <glyph glyph-name="otilde" unicode="&#xf5;" 
d="M360 -14c-106 0 -184 20 -233 60c-49 41 -74 112 -74 214c0 101 25 171 74 210c50 39 128 59 233 59c107 0 185 -20 234 -59c50 -39 75 -109 75 -210c0 -102 -25 -173 -75 -214c-49 -40 -127 -60 -234 -60zM251 257c0 -57 7 -93 21 -108s43 -23 88 -23s74 8 88 23
s21 51 21 108c0 58 -7 94 -21 109c-13 15 -43 23 -88 23s-75 -8 -89 -23c-13 -15 -20 -51 -20 -109zM522 703l72 -52c-27 -56 -78 -98 -146 -98c-25 0 -59 8 -102 23s-74 23 -95 23c-31 0 -52 -11 -63 -32l-66 59c39 52 74 81 127 81c27 0 63 -7 107 -22
c45 -15 77 -22 98 -22c37 0 53 11 68 40z" />
    <glyph glyph-name="odieresis" unicode="&#xf6;" 
d="M360 -14c-106 0 -184 20 -233 60c-49 41 -74 112 -74 214c0 101 25 171 74 210c50 39 128 59 233 59c107 0 185 -20 234 -59c50 -39 75 -109 75 -210c0 -102 -25 -173 -75 -214c-49 -40 -127 -60 -234 -60zM251 257c0 -57 7 -93 21 -108s43 -23 88 -23s74 8 88 23
s21 51 21 108c0 58 -7 94 -21 109c-13 15 -43 23 -88 23s-75 -8 -89 -23c-13 -15 -20 -51 -20 -109zM302 634c0 -65 -18 -80 -82 -80c-63 0 -81 15 -81 80c0 60 17 72 81 72s82 -12 82 -72zM502 706c64 0 81 -12 81 -72c0 -65 -18 -80 -81 -80c-33 0 -55 5 -66 15
s-16 32 -16 65c0 60 17 72 82 72z" />
    <glyph glyph-name="divide" unicode="&#xf7;" horiz-adv-x="660" 
d="M626 278h-592v176h592v-176zM323 241c46 0 77 -6 93 -18c16 -11 24 -36 24 -74c0 -41 -8 -69 -24 -82s-47 -19 -93 -19c-45 0 -75 6 -91 19s-24 41 -24 82c0 38 8 63 24 74c16 12 46 18 91 18zM323 682c46 0 77 -6 93 -17s24 -36 24 -75c0 -41 -8 -68 -25 -81
c-16 -13 -47 -19 -92 -19s-75 6 -91 19s-24 40 -24 81c0 39 8 64 23 75c16 11 47 17 92 17z" />
    <glyph glyph-name="oslash" unicode="&#xf8;" 
d="M360 -14c-77 0 -138 10 -183 29l-18 -15h-177l106 93c-23 41 -35 97 -35 167c0 101 25 171 74 210c50 39 128 59 233 59c83 0 146 -10 189 -31l18 16h175l-107 -94c23 -41 34 -95 34 -160c0 -102 -25 -173 -75 -214c-49 -40 -127 -60 -234 -60zM360 389
c-45 0 -75 -8 -89 -23c-13 -15 -20 -51 -20 -109v-21l168 148c-13 3 -32 5 -59 5zM360 126c45 0 74 8 88 23s21 51 21 108v16l-163 -143c13 -3 31 -4 54 -4z" />
    <glyph glyph-name="ugrave" unicode="&#xf9;" horiz-adv-x="747" 
d="M468 157v357h197v-484c-108 -29 -220 -44 -336 -44c-173 0 -255 68 -255 245v283h198v-271c0 -37 7 -63 20 -76s43 -19 88 -19c8 0 37 3 88 9zM341 697l157 -129h-170l-198 129h211z" />
    <glyph glyph-name="uacute" unicode="&#xfa;" horiz-adv-x="747" 
d="M468 157v357h197v-484c-108 -29 -220 -44 -336 -44c-173 0 -255 68 -255 245v283h198v-271c0 -37 7 -63 20 -76s43 -19 88 -19c8 0 37 3 88 9zM609 697l-198 -129h-170l157 129h211z" />
    <glyph glyph-name="ucircumflex" unicode="&#xfb;" horiz-adv-x="747" 
d="M468 157v357h197v-484c-108 -29 -220 -44 -336 -44c-173 0 -255 68 -255 245v283h198v-271c0 -37 7 -63 20 -76s43 -19 88 -19c8 0 37 3 88 9zM629 568h-171l-89 73l-85 -73h-166l155 129h196z" />
    <glyph glyph-name="udieresis" unicode="&#xfc;" horiz-adv-x="747" 
d="M308 634c0 -65 -18 -80 -82 -80c-63 0 -81 15 -81 80c0 60 17 72 81 72s82 -12 82 -72zM508 706c64 0 81 -12 81 -72c0 -65 -18 -80 -81 -80c-33 0 -55 5 -66 15s-16 32 -16 65c0 60 17 72 82 72zM468 157v357h197v-484c-108 -29 -220 -44 -336 -44
c-173 0 -255 68 -255 245v283h198v-271c0 -37 7 -63 20 -76s43 -19 88 -19c8 0 37 3 88 9z" />
    <glyph glyph-name="yacute" unicode="&#xfd;" horiz-adv-x="622" 
d="M445 514h197c-88 -247 -199 -483 -334 -706h-225c38 52 74 107 107 166h1c-55 160 -129 340 -220 540h202c63 -139 110 -259 139 -361c56 127 100 247 133 361zM580 697l-198 -129h-170l157 129h211z" />
    <glyph glyph-name="thorn" unicode="&#xfe;" horiz-adv-x="737" 
d="M280 -192h-198v889h198v-177c39 6 78 9 115 9c101 0 174 -20 219 -61c46 -40 69 -111 69 -212c0 -180 -85 -270 -254 -270c-59 0 -108 8 -149 23v-201zM280 369v-198c0 -24 38 -37 94 -37c85 0 112 29 112 118c0 52 -8 86 -24 102c-15 16 -46 24 -91 24
c-27 0 -58 -3 -91 -9z" />
    <glyph glyph-name="ydieresis" unicode="&#xff;" horiz-adv-x="622" 
d="M263 634c0 -65 -18 -80 -82 -80c-63 0 -81 15 -81 80c0 60 17 72 81 72s82 -12 82 -72zM463 706c64 0 81 -12 81 -72c0 -65 -18 -80 -81 -80c-33 0 -55 5 -66 15s-16 32 -16 65c0 60 17 72 82 72zM445 514h197c-88 -247 -199 -483 -334 -706h-225c38 52 74 107 107 166h1
c-55 160 -129 340 -220 540h202c63 -139 110 -259 139 -361c56 127 100 247 133 361z" />
    <glyph glyph-name="Amacron" unicode="&#x100;" horiz-adv-x="854" 
d="M268 697h339c37 -101 85 -218 144 -353c59 -134 113 -249 161 -344h-238c-16 31 -37 76 -62 134h-375c-8 -21 -23 -66 -46 -134h-231c32 89 79 204 141 344c63 140 118 258 167 353zM456 529h-64c-29 -63 -60 -140 -94 -230h244c-33 82 -62 159 -86 230zM607 737h-353
v122h353v-122z" />
    <glyph glyph-name="amacron" unicode="&#x101;" horiz-adv-x="704" 
d="M631 329v-306c-92 -25 -195 -37 -308 -37c-106 0 -177 11 -214 34c-36 23 -54 69 -54 136c0 71 20 115 64 138c45 23 93 29 173 29c30 0 81 -4 153 -12c-4 61 -11 69 -150 72c-64 0 -129 -7 -195 -21l-25 144c82 15 176 23 281 23c192 0 275 -53 275 -200zM445 129v69
c-31 3 -64 5 -99 5c-37 0 -61 -3 -72 -8c-10 -5 -15 -16 -15 -34c0 -36 11 -43 83 -43c31 0 65 4 103 11zM524 567h-353v122h353v-122z" />
    <glyph glyph-name="Abreve" unicode="&#x102;" horiz-adv-x="854" 
d="M268 697h339c37 -101 85 -218 144 -353c59 -134 113 -249 161 -344h-238c-16 31 -37 76 -62 134h-375c-8 -21 -23 -66 -46 -134h-231c32 89 79 204 141 344c63 140 118 258 167 353zM456 529h-64c-29 -63 -60 -140 -94 -230h244c-33 82 -62 159 -86 230zM233 871h114
c0 -36 24 -46 85 -46c59 0 84 10 84 46h104c0 -99 -66 -138 -194 -138c-129 0 -193 46 -193 138z" />
    <glyph glyph-name="abreve" unicode="&#x103;" horiz-adv-x="704" 
d="M631 329v-306c-92 -25 -195 -37 -308 -37c-106 0 -177 11 -214 34c-36 23 -54 69 -54 136c0 71 20 115 64 138c45 23 93 29 173 29c30 0 81 -4 153 -12c-4 61 -11 69 -150 72c-64 0 -129 -7 -195 -21l-25 144c82 15 176 23 281 23c192 0 275 -53 275 -200zM445 129v69
c-31 3 -64 5 -99 5c-37 0 -61 -3 -72 -8c-10 -5 -15 -16 -15 -34c0 -36 11 -43 83 -43c31 0 65 4 103 11zM156 697h113c0 -36 25 -46 86 -46c59 0 84 10 84 46h103c0 -99 -64 -148 -193 -148c-123 0 -193 48 -193 148z" />
    <glyph glyph-name="Aogonek" unicode="&#x104;" horiz-adv-x="854" 
d="M268 697h339c37 -101 85 -218 144 -353c59 -134 113 -249 161 -344h-86c-43 -23 -58 -42 -58 -70c0 -24 14 -32 58 -32c43 0 78 6 105 18l30 -92c-38 -18 -91 -27 -160 -27c-61 0 -102 7 -125 20c-22 13 -33 36 -33 69c0 51 33 89 98 114h-67c-16 31 -37 76 -62 134h-375
c-8 -21 -23 -66 -46 -134h-231c32 89 79 204 141 344c63 140 118 258 167 353zM456 529h-64c-29 -63 -60 -140 -94 -230h244c-33 82 -62 159 -86 230z" />
    <glyph glyph-name="aogonek" unicode="&#x105;" horiz-adv-x="704" 
d="M631 329v-306c-23 -6 -43 -11 -62 -14c-56 -27 -76 -47 -76 -79c0 -24 14 -32 58 -32c43 0 78 6 105 18l30 -92c-38 -18 -91 -27 -160 -27c-61 0 -102 7 -125 20c-22 13 -33 36 -33 69c0 47 27 82 80 107c-50 -5 -92 -7 -125 -7c-106 0 -177 11 -214 34
c-36 23 -54 69 -54 136c0 71 20 115 64 138c45 23 93 29 173 29c30 0 81 -4 153 -12c-4 61 -11 69 -150 72c-64 0 -129 -7 -195 -21l-25 144c82 15 176 23 281 23c192 0 275 -53 275 -200zM445 129v69c-31 3 -64 5 -99 5c-37 0 -61 -3 -72 -8c-10 -5 -15 -16 -15 -34
c0 -36 11 -43 83 -43c31 0 65 4 103 11z" />
    <glyph glyph-name="Cacute" unicode="&#x106;" horiz-adv-x="710" 
d="M465 714c88 0 166 -7 235 -21l-23 -173c-43 11 -94 16 -155 16c-35 0 -62 -1 -82 -2c-40 -1 -87 -9 -107 -25c-34 -25 -50 -69 -50 -156c0 -69 11 -112 30 -140c10 -14 25 -24 46 -31c43 -13 82 -16 163 -16c63 0 114 5 154 15l23 -176c-68 -13 -146 -19 -234 -19
c-143 0 -237 22 -306 78s-101 150 -101 291s30 233 101 286c71 55 162 73 306 73zM658 876l-198 -129h-171l158 129h211z" />
    <glyph glyph-name="cacute" unicode="&#x107;" horiz-adv-x="572" 
d="M527 159l24 -151c-50 -15 -112 -22 -186 -22c-99 0 -176 21 -231 62c-54 42 -81 113 -81 212c0 101 31 173 88 213c59 40 128 56 224 56c77 0 139 -6 186 -19l-25 -153c-48 11 -94 16 -138 16c-57 0 -78 -1 -105 -17c-25 -15 -32 -44 -32 -99c0 -49 9 -81 28 -94
s55 -20 109 -20c56 0 102 5 139 16zM576 697l-198 -129h-170l157 129h211z" />
    <glyph glyph-name="Ccircumflex" unicode="&#x108;" horiz-adv-x="710" 
d="M465 714c88 0 166 -7 235 -21l-23 -173c-43 11 -94 16 -155 16c-35 0 -62 -1 -82 -2c-40 -1 -87 -9 -107 -25c-34 -25 -50 -69 -50 -156c0 -69 11 -112 30 -140c10 -14 25 -24 46 -31c43 -13 82 -16 163 -16c63 0 114 5 154 15l23 -176c-68 -13 -146 -19 -234 -19
c-143 0 -237 22 -306 78s-101 150 -101 291s30 233 101 286c71 55 162 73 306 73zM716 747h-171l-90 72l-84 -72h-166l155 129h196z" />
    <glyph glyph-name="ccircumflex" unicode="&#x109;" horiz-adv-x="572" 
d="M527 159l24 -151c-50 -15 -112 -22 -186 -22c-99 0 -176 21 -231 62c-54 42 -81 113 -81 212c0 101 31 173 88 213c59 40 128 56 224 56c77 0 139 -6 186 -19l-25 -153c-48 11 -94 16 -138 16c-57 0 -78 -1 -105 -17c-25 -15 -32 -44 -32 -99c0 -49 9 -81 28 -94
s55 -20 109 -20c56 0 102 5 139 16zM615 568h-171l-89 73l-85 -73h-166l155 129h196z" />
    <glyph glyph-name="Cdotaccent" unicode="&#x10a;" horiz-adv-x="710" 
d="M465 714c88 0 166 -7 235 -21l-23 -173c-43 11 -94 16 -155 16c-35 0 -62 -1 -82 -2c-40 -1 -87 -9 -107 -25c-34 -25 -50 -69 -50 -156c0 -69 11 -112 30 -140c10 -14 25 -24 46 -31c43 -13 82 -16 163 -16c63 0 114 5 154 15l23 -176c-68 -13 -146 -19 -234 -19
c-143 0 -237 22 -306 78s-101 150 -101 291s30 233 101 286c71 55 162 73 306 73zM536 815c0 -65 -18 -80 -82 -80c-63 0 -81 15 -81 80c0 60 17 72 81 72s82 -12 82 -72z" />
    <glyph glyph-name="cdotaccent" unicode="&#x10b;" horiz-adv-x="572" 
d="M527 159l24 -151c-50 -15 -112 -22 -186 -22c-99 0 -176 21 -231 62c-54 42 -81 113 -81 212c0 101 31 173 88 213c59 40 128 56 224 56c77 0 139 -6 186 -19l-25 -153c-48 11 -94 16 -138 16c-57 0 -78 -1 -105 -17c-25 -15 -32 -44 -32 -99c0 -49 9 -81 28 -94
s55 -20 109 -20c56 0 102 5 139 16zM434 634c0 -65 -18 -80 -82 -80c-63 0 -81 15 -81 80c0 60 17 72 81 72s82 -12 82 -72z" />
    <glyph glyph-name="Ccaron" unicode="&#x10c;" horiz-adv-x="710" 
d="M465 714c88 0 166 -7 235 -21l-23 -173c-43 11 -94 16 -155 16c-35 0 -62 -1 -82 -2c-40 -1 -87 -9 -107 -25c-34 -25 -50 -69 -50 -156c0 -69 11 -112 30 -140c10 -14 25 -24 46 -31c43 -13 82 -16 163 -16c63 0 114 5 154 15l23 -176c-68 -13 -146 -19 -234 -19
c-143 0 -237 22 -306 78s-101 150 -101 291s30 233 101 286c71 55 162 73 306 73zM193 876h171l89 -74l86 74h165l-154 -129h-197z" />
    <glyph glyph-name="ccaron" unicode="&#x10d;" horiz-adv-x="572" 
d="M527 159l24 -151c-50 -15 -112 -22 -186 -22c-99 0 -176 21 -231 62c-54 42 -81 113 -81 212c0 101 31 173 88 213c59 40 128 56 224 56c77 0 139 -6 186 -19l-25 -153c-48 11 -94 16 -138 16c-57 0 -78 -1 -105 -17c-25 -15 -32 -44 -32 -99c0 -49 9 -81 28 -94
s55 -20 109 -20c56 0 102 5 139 16zM95 697h171l89 -74l85 74h166l-155 -129h-196z" />
    <glyph glyph-name="Dcaron" unicode="&#x10e;" horiz-adv-x="948" 
d="M99 0v697h384c144 0 235 -18 306 -70c71 -51 101 -139 101 -274c0 -132 -32 -224 -97 -276c-64 -51 -167 -77 -310 -77h-384zM665 350c0 84 -8 128 -36 152c-8 7 -21 13 -40 17c-37 9 -69 10 -138 10h-144v-360h144c51 0 88 1 113 4s46 12 63 25c35 28 38 65 38 152z
M185 876h171l89 -74l86 74h165l-154 -129h-197z" />
    <glyph glyph-name="dcaron" unicode="&#x10f;" horiz-adv-x="737" 
d="M457 142v208c0 15 -40 28 -95 28c-45 0 -75 -8 -90 -25c-14 -16 -21 -47 -21 -94c0 -54 7 -89 21 -104s45 -22 94 -22c26 0 56 3 91 9zM457 722h198v-704c-77 -21 -174 -32 -289 -32c-112 0 -192 20 -241 60c-48 40 -72 111 -72 214c0 97 22 166 66 207
c45 41 107 62 187 62c55 0 106 -7 151 -22v215zM722 530l23 192h155l-74 -192h-104z" />
    <glyph glyph-name="Dcroat" unicode="&#x110;" horiz-adv-x="948" 
d="M99 289h-65v128h65v280h384c144 0 235 -18 306 -70c71 -51 101 -139 101 -274c0 -132 -32 -224 -97 -276c-64 -51 -167 -77 -310 -77h-384v289zM665 350c0 84 -8 128 -36 152c-8 7 -21 13 -40 17c-37 9 -69 10 -138 10h-144v-112h198v-128h-198v-120h144c51 0 88 1 113 4
s46 12 63 25c35 28 38 65 38 152z" />
    <glyph glyph-name="dslash" unicode="&#x111;" horiz-adv-x="737" 
d="M457 722h198v-33h66v-122h-66v-549c-77 -21 -174 -32 -289 -32c-112 0 -192 20 -241 60c-48 40 -72 111 -72 214c0 97 22 166 66 207c45 41 107 62 187 62c55 0 106 -7 151 -22v60h-89v122h89v33zM457 142v208c0 15 -40 28 -95 28c-45 0 -75 -8 -90 -25
c-14 -16 -21 -47 -21 -94c0 -54 7 -89 21 -104s45 -22 94 -22c26 0 56 3 91 9z" />
    <glyph glyph-name="Emacron" unicode="&#x112;" horiz-adv-x="771" 
d="M99 0v697h644v-168h-436v-88h314v-165h-314v-108h436v-168h-644zM598 737h-353v122h353v-122z" />
    <glyph glyph-name="emacron" unicode="&#x113;" horiz-adv-x="680" 
d="M568 157l31 -146c-65 -17 -144 -25 -237 -25c-206 0 -309 91 -309 274c0 99 25 168 76 208c51 41 124 61 219 61c104 0 165 -11 216 -47c52 -36 73 -102 73 -206c0 -27 -1 -52 -4 -77h-377c3 -52 34 -63 137 -63c59 0 118 7 175 21zM350 394c-67 0 -85 -15 -92 -64h184
c-1 52 -23 64 -92 64zM545 567h-353v122h353v-122z" />
    <glyph glyph-name="Ebreve" unicode="&#x114;" horiz-adv-x="771" 
d="M99 0v697h644v-168h-436v-88h314v-165h-314v-108h436v-168h-644zM249 871h114c0 -36 24 -46 85 -46c59 0 84 10 84 46h104c0 -99 -66 -138 -194 -138c-129 0 -193 46 -193 138z" />
    <glyph glyph-name="ebreve" unicode="&#x115;" horiz-adv-x="680" 
d="M568 157l31 -146c-65 -17 -144 -25 -237 -25c-206 0 -309 91 -309 274c0 99 25 168 76 208c51 41 124 61 219 61c104 0 165 -11 216 -47c52 -36 73 -102 73 -206c0 -27 -1 -52 -4 -77h-377c3 -52 34 -63 137 -63c59 0 118 7 175 21zM350 394c-67 0 -85 -15 -92 -64h184
c-1 52 -23 64 -92 64zM168 697h113c0 -36 25 -46 86 -46c59 0 84 10 84 46h103c0 -99 -64 -148 -193 -148c-123 0 -193 48 -193 148z" />
    <glyph glyph-name="Edotaccent" unicode="&#x116;" horiz-adv-x="771" 
d="M99 0v697h644v-168h-436v-88h314v-165h-314v-108h436v-168h-644zM527 815c0 -65 -18 -80 -82 -80c-63 0 -81 15 -81 80c0 60 17 72 81 72s82 -12 82 -72z" />
    <glyph glyph-name="edotaccent" unicode="&#x117;" horiz-adv-x="680" 
d="M568 157l31 -146c-65 -17 -144 -25 -237 -25c-206 0 -309 91 -309 274c0 99 25 168 76 208c51 41 124 61 219 61c104 0 165 -11 216 -47c52 -36 73 -102 73 -206c0 -27 -1 -52 -4 -77h-377c3 -52 34 -63 137 -63c59 0 118 7 175 21zM350 394c-67 0 -85 -15 -92 -64h184
c-1 52 -23 64 -92 64zM445 634c0 -65 -18 -80 -82 -80c-63 0 -81 15 -81 80c0 60 17 72 81 72s82 -12 82 -72z" />
    <glyph glyph-name="Eogonek" unicode="&#x118;" horiz-adv-x="771" 
d="M99 0v697h644v-168h-436v-88h314v-165h-314v-108h436v-168h-99c-43 -23 -58 -42 -58 -70c0 -24 14 -32 58 -32c43 0 78 6 105 18l30 -92c-38 -18 -91 -27 -160 -27c-61 0 -102 7 -125 20c-22 13 -33 36 -33 69c0 51 33 89 98 114h-460z" />
    <glyph glyph-name="eogonek" unicode="&#x119;" horiz-adv-x="680" 
d="M568 157l31 -146c-20 -5 -53 -11 -100 -17c-31 -19 -47 -40 -47 -64s14 -32 58 -32c43 0 78 6 105 18l30 -92c-38 -18 -91 -27 -160 -27c-61 0 -102 7 -125 20c-22 13 -33 36 -33 69c0 43 23 76 69 101c-8 -1 -19 -1 -34 -1c-206 0 -309 91 -309 274c0 99 25 168 76 208
c51 41 124 61 219 61c104 0 165 -11 216 -47c52 -36 73 -102 73 -206c0 -27 -1 -52 -4 -77h-377c3 -52 34 -63 137 -63c59 0 118 7 175 21zM350 394c-67 0 -85 -15 -92 -64h184c-1 52 -23 64 -92 64z" />
    <glyph glyph-name="Ecaron" unicode="&#x11a;" horiz-adv-x="771" 
d="M99 0v697h644v-168h-436v-88h314v-165h-314v-108h436v-168h-644zM175 876h171l89 -74l86 74h165l-154 -129h-197z" />
    <glyph glyph-name="ecaron" unicode="&#x11b;" horiz-adv-x="680" 
d="M568 157l31 -146c-65 -17 -144 -25 -237 -25c-206 0 -309 91 -309 274c0 99 25 168 76 208c51 41 124 61 219 61c104 0 165 -11 216 -47c52 -36 73 -102 73 -206c0 -27 -1 -52 -4 -77h-377c3 -52 34 -63 137 -63c59 0 118 7 175 21zM350 394c-67 0 -85 -15 -92 -64h184
c-1 52 -23 64 -92 64zM103 697h171l89 -74l85 74h166l-155 -129h-196z" />
    <glyph glyph-name="Gcircumflex" unicode="&#x11c;" horiz-adv-x="889" 
d="M591 166v110h-156v165h372v-421c-37 -9 -88 -16 -154 -23s-129 -11 -188 -11c-143 0 -237 22 -306 78s-101 150 -101 291c0 140 38 234 119 286c81 53 183 73 336 73c125 0 213 -5 264 -16l-23 -176c-14 3 -47 7 -98 11s-90 6 -117 6c-37 0 -67 -1 -90 -2
c-44 -1 -92 -11 -115 -27c-36 -25 -51 -71 -51 -157c0 -69 11 -113 30 -141c10 -14 25 -25 46 -32c41 -13 82 -17 163 -17c20 0 43 1 69 3zM746 747h-171l-90 72l-84 -72h-166l155 129h196z" />
    <glyph glyph-name="gcircumflex" unicode="&#x11d;" horiz-adv-x="737" 
d="M457 166v203c-36 8 -66 12 -91 12c-35 0 -60 -2 -75 -7c-28 -9 -40 -38 -40 -118c0 -47 6 -77 19 -92s43 -22 90 -22c53 0 97 11 97 24zM457 15v8c-43 -22 -99 -33 -168 -33c-79 0 -139 19 -178 57s-58 106 -58 204c0 103 24 175 73 216s129 62 240 62
c115 0 212 -11 289 -32v-455c0 -83 -27 -142 -68 -177c-20 -18 -46 -32 -78 -43c-63 -21 -123 -26 -210 -26c-88 0 -167 9 -236 27l27 143c63 -15 131 -22 205 -22c107 0 162 19 162 71zM629 568h-171l-89 73l-85 -73h-166l155 129h196z" />
    <glyph glyph-name="Gbreve" unicode="&#x11e;" horiz-adv-x="889" 
d="M591 166v110h-156v165h372v-421c-37 -9 -88 -16 -154 -23s-129 -11 -188 -11c-143 0 -237 22 -306 78s-101 150 -101 291c0 140 38 234 119 286c81 53 183 73 336 73c125 0 213 -5 264 -16l-23 -176c-14 3 -47 7 -98 11s-90 6 -117 6c-37 0 -67 -1 -90 -2
c-44 -1 -92 -11 -115 -27c-36 -25 -51 -71 -51 -157c0 -69 11 -113 30 -141c10 -14 25 -25 46 -32c41 -13 82 -17 163 -17c20 0 43 1 69 3zM286 871h114c0 -36 24 -46 85 -46c59 0 84 10 84 46h104c0 -99 -66 -138 -194 -138c-129 0 -193 46 -193 138z" />
    <glyph glyph-name="gbreve" unicode="&#x11f;" horiz-adv-x="737" 
d="M457 166v203c-36 8 -66 12 -91 12c-35 0 -60 -2 -75 -7c-28 -9 -40 -38 -40 -118c0 -47 6 -77 19 -92s43 -22 90 -22c53 0 97 11 97 24zM457 15v8c-43 -22 -99 -33 -168 -33c-79 0 -139 19 -178 57s-58 106 -58 204c0 103 24 175 73 216s129 62 240 62
c115 0 212 -11 289 -32v-455c0 -83 -27 -142 -68 -177c-20 -18 -46 -32 -78 -43c-63 -21 -123 -26 -210 -26c-88 0 -167 9 -236 27l27 143c63 -15 131 -22 205 -22c107 0 162 19 162 71zM176 697h113c0 -36 25 -46 86 -46c59 0 84 10 84 46h103c0 -99 -64 -148 -193 -148
c-123 0 -193 48 -193 148z" />
    <glyph glyph-name="Gdotaccent" unicode="&#x120;" horiz-adv-x="889" 
d="M591 166v110h-156v165h372v-421c-37 -9 -88 -16 -154 -23s-129 -11 -188 -11c-143 0 -237 22 -306 78s-101 150 -101 291c0 140 38 234 119 286c81 53 183 73 336 73c125 0 213 -5 264 -16l-23 -176c-14 3 -47 7 -98 11s-90 6 -117 6c-37 0 -67 -1 -90 -2
c-44 -1 -92 -11 -115 -27c-36 -25 -51 -71 -51 -157c0 -69 11 -113 30 -141c10 -14 25 -25 46 -32c41 -13 82 -17 163 -17c20 0 43 1 69 3zM589 815c0 -65 -18 -80 -82 -80c-63 0 -81 15 -81 80c0 60 17 72 81 72s82 -12 82 -72z" />
    <glyph glyph-name="gdotaccent" unicode="&#x121;" horiz-adv-x="737" 
d="M457 166v203c-36 8 -66 12 -91 12c-35 0 -60 -2 -75 -7c-28 -9 -40 -38 -40 -118c0 -47 6 -77 19 -92s43 -22 90 -22c53 0 97 11 97 24zM457 15v8c-43 -22 -99 -33 -168 -33c-79 0 -139 19 -178 57s-58 106 -58 204c0 103 24 175 73 216s129 62 240 62
c115 0 212 -11 289 -32v-455c0 -83 -27 -142 -68 -177c-20 -18 -46 -32 -78 -43c-63 -21 -123 -26 -210 -26c-88 0 -167 9 -236 27l27 143c63 -15 131 -22 205 -22c107 0 162 19 162 71zM443 634c0 -65 -18 -80 -82 -80c-63 0 -81 15 -81 80c0 60 17 72 81 72s82 -12 82 -72
z" />
    <glyph glyph-name="Gcommaaccent" unicode="&#x122;" horiz-adv-x="889" 
d="M591 166v110h-156v165h372v-421c-37 -9 -88 -16 -154 -23s-129 -11 -188 -11c-143 0 -237 22 -306 78s-101 150 -101 291c0 140 38 234 119 286c81 53 183 73 336 73c125 0 213 -5 264 -16l-23 -176c-14 3 -47 7 -98 11s-90 6 -117 6c-37 0 -67 -1 -90 -2
c-44 -1 -92 -11 -115 -27c-36 -25 -51 -71 -51 -157c0 -69 11 -113 30 -141c10 -14 25 -25 46 -32c41 -13 82 -17 163 -17c20 0 43 1 69 3zM387 -51h205l-104 -167h-153z" />
    <glyph glyph-name="gcommaaccent" unicode="&#x123;" horiz-adv-x="737" 
d="M451 591h-205l104 167h153zM457 166v203c-36 8 -66 12 -91 12c-35 0 -60 -2 -75 -7c-28 -9 -40 -38 -40 -118c0 -47 6 -77 19 -92s43 -22 90 -22c53 0 97 11 97 24zM457 15v8c-43 -22 -99 -33 -168 -33c-79 0 -139 19 -178 57s-58 106 -58 204c0 103 24 175 73 216
s129 62 240 62c115 0 212 -11 289 -32v-455c0 -83 -27 -142 -68 -177c-20 -18 -46 -32 -78 -43c-63 -21 -123 -26 -210 -26c-88 0 -167 9 -236 27l27 143c63 -15 131 -22 205 -22c107 0 162 19 162 71z" />
    <glyph glyph-name="Hcircumflex" unicode="&#x124;" horiz-adv-x="934" 
d="M628 278h-321v-278h-208v697h208v-241h321v241h207v-697h-207v278zM723 747h-171l-90 72l-84 -72h-166l155 129h196z" />
    <glyph glyph-name="hcircumflex" unicode="&#x125;" horiz-adv-x="747" 
d="M674 302v-302h-198v294c0 60 -24 74 -89 74s-107 -16 -107 -39v-329h-198v722h198v-226c47 22 109 33 186 33c65 0 108 -9 148 -40s60 -92 60 -187zM542 747h-171l-90 72l-84 -72h-166l155 129h196z" />
    <glyph glyph-name="Hbar" unicode="&#x126;" horiz-adv-x="934" 
d="M99 509h-65v138h65v50h208v-50h321v50h207v-50h65v-138h-65v-509h-207v278h-321v-278h-208v509zM307 456h321v53h-321v-53z" />
    <glyph glyph-name="hbar" unicode="&#x127;" horiz-adv-x="747" 
d="M674 302v-302h-198v294c0 60 -24 74 -89 74s-107 -16 -107 -39v-329h-198v567h-50v122h50v33h198v-33h106v-122h-106v-71c47 22 109 33 186 33c65 0 108 -9 148 -40s60 -92 60 -187z" />
    <glyph glyph-name="Itilde" unicode="&#x128;" horiz-adv-x="406" 
d="M362 879l77 -52c-27 -55 -83 -98 -152 -98c-21 0 -51 8 -91 24s-71 24 -93 24c-31 0 -52 -11 -65 -34l-72 59c41 54 85 81 132 81c23 0 56 -8 97 -23c42 -15 74 -23 96 -23c33 0 57 14 71 42zM99 0v697h208v-697h-208z" />
    <glyph glyph-name="itilde" unicode="&#x129;" horiz-adv-x="360" 
d="M345 703l72 -52c-27 -56 -78 -98 -146 -98c-25 0 -58 8 -101 23s-75 23 -96 23c-31 0 -52 -11 -63 -32l-66 59c39 52 74 81 127 81c27 0 63 -7 107 -22c45 -15 77 -22 98 -22c37 0 53 11 68 40zM82 514h198v-514h-198v514z" />
    <glyph glyph-name="Imacron" unicode="&#x12a;" horiz-adv-x="406" 
d="M99 0v697h208v-697h-208zM379 737h-353v122h353v-122z" />
    <glyph glyph-name="imacron" unicode="&#x12b;" horiz-adv-x="360" 
d="M82 514h198v-514h-198v514zM357 567h-353v122h353v-122z" />
    <glyph glyph-name="Ibreve" unicode="&#x12c;" horiz-adv-x="406" 
d="M10 871h114c0 -36 24 -46 85 -46c59 0 84 10 84 46h104c0 -99 -66 -138 -194 -138c-129 0 -193 46 -193 138zM99 0v697h208v-697h-208z" />
    <glyph glyph-name="ibreve" unicode="&#x12d;" horiz-adv-x="360" 
d="M82 514h198v-514h-198v514zM-13 697h113c0 -36 25 -46 86 -46c59 0 84 10 84 46h103c0 -99 -64 -148 -193 -148c-123 0 -193 48 -193 148z" />
    <glyph glyph-name="Iogonek" unicode="&#x12e;" horiz-adv-x="406" 
d="M99 0v697h208v-697h-73c-43 -23 -58 -42 -58 -70c0 -24 14 -32 58 -32c43 0 78 6 105 18l30 -92c-38 -18 -91 -27 -160 -27c-61 0 -102 7 -125 20c-22 13 -33 36 -33 69c0 51 33 89 98 114h-50z" />
    <glyph glyph-name="iogonek" unicode="&#x12f;" horiz-adv-x="360" 
d="M280 514v-514h-49c-43 -23 -58 -42 -58 -70c0 -24 14 -32 58 -32c43 0 78 6 105 18l30 -92c-38 -18 -91 -27 -160 -27c-61 0 -102 7 -125 20c-22 13 -33 36 -33 69c0 51 33 89 98 114h-64v514h198zM181 746c44 0 74 -5 89 -16c15 -10 23 -33 23 -68c0 -39 -8 -64 -24 -76
c-15 -12 -45 -18 -88 -18c-44 0 -74 6 -90 18c-15 12 -23 37 -23 76c0 35 8 58 23 68c15 11 45 16 90 16z" />
    <glyph glyph-name="Idot" unicode="&#x130;" horiz-adv-x="406" 
d="M285 815c0 -65 -18 -80 -82 -80c-63 0 -81 15 -81 80c0 60 17 72 81 72s82 -12 82 -72zM99 0v697h208v-697h-208z" />
    <glyph glyph-name="dotlessi" unicode="&#x131;" horiz-adv-x="360" 
d="M82 514h198v-514h-198v514z" />
    <glyph glyph-name="IJ" unicode="&#x132;" horiz-adv-x="1016" 
d="M714 697h210l2 -505c0 -76 -34 -133 -89 -164c-55 -29 -117 -42 -190 -42c-83 0 -154 7 -213 22l36 167c32 -8 80 -12 144 -12c67 0 100 21 100 64v470zM99 0v697h208v-697h-208z" />
    <glyph glyph-name="ij" unicode="&#x133;" horiz-adv-x="750" 
d="M571 746c44 0 74 -5 89 -16c15 -10 23 -33 23 -68c0 -39 -8 -64 -24 -76c-15 -12 -45 -18 -88 -18c-44 0 -74 6 -90 18c-15 12 -23 37 -23 76c0 35 8 58 23 68c15 11 45 16 90 16zM472 514h198v-507c0 -79 -19 -133 -57 -164s-109 -46 -214 -46c-11 0 -28 1 -51 2v146
c11 -1 28 -2 51 -2c49 0 73 19 73 58v513zM181 746c44 0 74 -5 89 -16c15 -10 23 -33 23 -68c0 -39 -8 -64 -24 -76c-15 -12 -45 -18 -88 -18c-44 0 -74 6 -90 18c-15 12 -23 37 -23 76c0 35 8 58 23 68c15 11 45 16 90 16zM280 514v-514h-198v514h198z" />
    <glyph glyph-name="Jcircumflex" unicode="&#x134;" horiz-adv-x="583" 
d="M281 697h210l2 -505c0 -76 -34 -133 -89 -164c-55 -29 -117 -42 -190 -42c-83 0 -154 7 -213 22l36 167c32 -8 80 -12 144 -12c67 0 100 21 100 64v470zM639 747h-171l-90 72l-84 -72h-166l155 129h196z" />
    <glyph glyph-name="jcircumflex" unicode="&#x135;" horiz-adv-x="360" 
d="M82 514h198v-507c0 -79 -19 -133 -57 -164s-109 -46 -214 -46c-11 0 -28 1 -51 2v146c11 -1 28 -2 51 -2c49 0 73 19 73 58v513zM437 568h-171l-89 73l-85 -73h-166l155 129h196z" />
    <glyph glyph-name="Kcommaaccent" unicode="&#x136;" horiz-adv-x="868" 
d="M888 0h-255c-67 107 -131 192 -191 256c-59 65 -104 102 -135 111v-367h-208v697h208v-330c33 20 79 60 137 120s115 130 170 210h253c-62 -85 -120 -157 -174 -215c-53 -57 -92 -92 -115 -105h1c25 -13 66 -52 123 -119c57 -66 119 -152 186 -258zM330 -51h205
l-104 -167h-153z" />
    <glyph glyph-name="kcommaaccent" unicode="&#x137;" horiz-adv-x="764" 
d="M82 722h198v-722h-198v722zM780 0h-256c-39 54 -76 102 -112 145c-71 85 -110 122 -126 127c37 23 125 113 222 242h255c-29 -39 -60 -76 -93 -112c-67 -71 -100 -98 -131 -121c22 -14 56 -46 103 -96s93 -112 138 -185zM275 -51h205l-104 -167h-153z" />
    <glyph glyph-name="Lacute" unicode="&#x139;" horiz-adv-x="676" 
d="M99 0v697h208v-529h379v-168h-587zM497 876l-198 -129h-171l158 129h211z" />
    <glyph glyph-name="lacute" unicode="&#x13a;" horiz-adv-x="370" 
d="M82 722h198v-566c0 -47 14 -91 43 -132l-192 -47c-33 35 -49 93 -49 174v571zM439 876l-198 -129h-171l158 129h211z" />
    <glyph glyph-name="Lcommaaccent" unicode="&#x13b;" horiz-adv-x="676" 
d="M99 0v697h208v-529h379v-168h-587zM283 -51h205l-104 -167h-153z" />
    <glyph glyph-name="lcommaaccent" unicode="&#x13c;" horiz-adv-x="370" 
d="M82 722h198v-566c0 -47 14 -91 43 -132l-192 -47c-33 35 -49 93 -49 174v571zM114 -51h205l-104 -167h-153z" />
    <glyph glyph-name="Lcaron" unicode="&#x13d;" horiz-adv-x="676" 
d="M99 0v697h208v-529h379v-168h-587zM389 530l23 192h155l-74 -192h-104z" />
    <glyph glyph-name="lcaron" unicode="&#x13e;" horiz-adv-x="370" 
d="M82 722h198v-566c0 -47 14 -91 43 -132l-192 -47c-33 35 -49 93 -49 174v571zM338 530l23 192h155l-74 -192h-104z" />
    <glyph glyph-name="Ldot" unicode="&#x13f;" horiz-adv-x="676" 
d="M569 433c0 -65 -18 -80 -82 -80c-63 0 -81 15 -81 80c0 60 17 72 81 72s82 -12 82 -72zM99 0v697h208v-529h379v-168h-587z" />
    <glyph glyph-name="ldot" unicode="&#x140;" horiz-adv-x="370" 
d="M493 415c0 -65 -18 -80 -82 -80c-63 0 -81 15 -81 80c0 60 17 72 81 72s82 -12 82 -72zM82 722h198v-566c0 -47 14 -91 43 -132l-192 -47c-33 35 -49 93 -49 174v571z" />
    <glyph glyph-name="Lslash" unicode="&#x141;" horiz-adv-x="676" 
d="M307 453l187 121v-161l-187 -112v-133h379v-168h-587v170l-78 -52v161l78 46v372h208v-244z" />
    <glyph glyph-name="lslash" unicode="&#x142;" horiz-adv-x="370" 
d="M82 722h198v-219l77 64v-153l-77 -65v-193c0 -47 14 -91 43 -132l-192 -47c-33 35 -49 93 -49 174v33l-70 -58v154l70 58v384z" />
    <glyph glyph-name="Nacute" unicode="&#x143;" horiz-adv-x="1009" 
d="M704 697h206v-697h-275c-99 157 -211 311 -334 463v-463h-202v697h282c95 -121 203 -269 323 -445v445zM737 876l-198 -129h-171l158 129h211z" />
    <glyph glyph-name="nacute" unicode="&#x144;" horiz-adv-x="747" 
d="M280 355v-355h-198v484c112 30 224 45 336 45c173 0 256 -69 256 -246v-283h-198v271c0 39 -6 65 -19 76c-12 11 -42 17 -90 17c-23 0 -52 -3 -87 -9zM604 697l-198 -129h-170l157 129h211z" />
    <glyph glyph-name="Ncommaaccent" unicode="&#x145;" horiz-adv-x="1009" 
d="M704 697h206v-697h-275c-99 157 -211 311 -334 463v-463h-202v697h282c95 -121 203 -269 323 -445v445zM388 -51h205l-104 -167h-153z" />
    <glyph glyph-name="ncommaaccent" unicode="&#x146;" horiz-adv-x="747" 
d="M280 355v-355h-198v484c112 30 224 45 336 45c173 0 256 -69 256 -246v-283h-198v271c0 39 -6 65 -19 76c-12 11 -42 17 -90 17c-23 0 -52 -3 -87 -9zM257 -51h205l-104 -167h-153z" />
    <glyph glyph-name="Ncaron" unicode="&#x147;" horiz-adv-x="1009" 
d="M704 697h206v-697h-275c-99 157 -211 311 -334 463v-463h-202v697h282c95 -121 203 -269 323 -445v445zM269 876h171l89 -74l86 74h165l-154 -129h-197z" />
    <glyph glyph-name="ncaron" unicode="&#x148;" horiz-adv-x="747" 
d="M280 355v-355h-198v484c112 30 224 45 336 45c173 0 256 -69 256 -246v-283h-198v271c0 39 -6 65 -19 76c-12 11 -42 17 -90 17c-23 0 -52 -3 -87 -9zM117 697h171l89 -74l85 74h166l-155 -129h-196z" />
    <glyph glyph-name="napostrophe" unicode="&#x149;" horiz-adv-x="747" 
d="M280 355v-355h-198v484c112 30 224 45 336 45c173 0 256 -69 256 -246v-283h-198v271c0 39 -6 65 -19 76c-12 11 -42 17 -90 17c-23 0 -52 -3 -87 -9zM114 714h205l-104 -167h-153z" />
    <glyph glyph-name="Omacron" unicode="&#x14c;" horiz-adv-x="962" 
d="M482 714c144 0 238 -19 313 -72s109 -145 109 -284c0 -138 -34 -235 -103 -290s-175 -82 -319 -82s-240 22 -315 78c-73 56 -109 153 -109 294c0 139 34 231 109 284s170 72 315 72zM482 161c48 0 83 1 106 4s43 12 58 27c31 31 33 69 33 164c0 30 -1 54 -2 71
c-3 36 -15 69 -30 82c-7 7 -19 13 -36 18c-33 9 -64 10 -129 10c-33 0 -58 -1 -77 -2c-37 -1 -75 -11 -90 -26c-7 -7 -14 -18 -20 -33c-11 -29 -12 -60 -12 -120c0 -32 1 -58 2 -77c3 -37 15 -72 30 -87c7 -7 19 -14 36 -19c33 -11 66 -12 131 -12zM659 737h-353v122h353
v-122z" />
    <glyph glyph-name="omacron" unicode="&#x14d;" 
d="M360 -14c-106 0 -184 20 -233 60c-49 41 -74 112 -74 214c0 101 25 171 74 210c50 39 128 59 233 59c107 0 185 -20 234 -59c50 -39 75 -109 75 -210c0 -102 -25 -173 -75 -214c-49 -40 -127 -60 -234 -60zM251 257c0 -57 7 -93 21 -108s43 -23 88 -23s74 8 88 23
s21 51 21 108c0 58 -7 94 -21 109c-13 15 -43 23 -88 23s-75 -8 -89 -23c-13 -15 -20 -51 -20 -109zM538 567h-353v122h353v-122z" />
    <glyph glyph-name="Obreve" unicode="&#x14e;" horiz-adv-x="962" 
d="M482 714c144 0 238 -19 313 -72s109 -145 109 -284c0 -138 -34 -235 -103 -290s-175 -82 -319 -82s-240 22 -315 78c-73 56 -109 153 -109 294c0 139 34 231 109 284s170 72 315 72zM482 161c48 0 83 1 106 4s43 12 58 27c31 31 33 69 33 164c0 30 -1 54 -2 71
c-3 36 -15 69 -30 82c-7 7 -19 13 -36 18c-33 9 -64 10 -129 10c-33 0 -58 -1 -77 -2c-37 -1 -75 -11 -90 -26c-7 -7 -14 -18 -20 -33c-11 -29 -12 -60 -12 -120c0 -32 1 -58 2 -77c3 -37 15 -72 30 -87c7 -7 19 -14 36 -19c33 -11 66 -12 131 -12zM290 871h114
c0 -36 24 -46 85 -46c59 0 84 10 84 46h104c0 -99 -66 -138 -194 -138c-129 0 -193 46 -193 138z" />
    <glyph glyph-name="obreve" unicode="&#x14f;" 
d="M360 -14c-106 0 -184 20 -233 60c-49 41 -74 112 -74 214c0 101 25 171 74 210c50 39 128 59 233 59c107 0 185 -20 234 -59c50 -39 75 -109 75 -210c0 -102 -25 -173 -75 -214c-49 -40 -127 -60 -234 -60zM251 257c0 -57 7 -93 21 -108s43 -23 88 -23s74 8 88 23
s21 51 21 108c0 58 -7 94 -21 109c-13 15 -43 23 -88 23s-75 -8 -89 -23c-13 -15 -20 -51 -20 -109zM166 697h113c0 -36 25 -46 86 -46c59 0 84 10 84 46h103c0 -99 -64 -148 -193 -148c-123 0 -193 48 -193 148z" />
    <glyph glyph-name="Ohungarumlaut" unicode="&#x150;" horiz-adv-x="962" 
d="M482 714c144 0 238 -19 313 -72s109 -145 109 -284c0 -138 -34 -235 -103 -290s-175 -82 -319 -82s-240 22 -315 78c-73 56 -109 153 -109 294c0 139 34 231 109 284s170 72 315 72zM482 161c48 0 83 1 106 4s43 12 58 27c31 31 33 69 33 164c0 30 -1 54 -2 71
c-3 36 -15 69 -30 82c-7 7 -19 13 -36 18c-33 9 -64 10 -129 10c-33 0 -58 -1 -77 -2c-37 -1 -75 -11 -90 -26c-7 -7 -14 -18 -20 -33c-11 -29 -12 -60 -12 -120c0 -32 1 -58 2 -77c3 -37 15 -72 30 -87c7 -7 19 -14 36 -19c33 -11 66 -12 131 -12zM531 876l-155 -129h-127
l124 129h158zM773 876l-155 -129h-127l123 129h159z" />
    <glyph glyph-name="ohungarumlaut" unicode="&#x151;" 
d="M360 -14c-106 0 -184 20 -233 60c-49 41 -74 112 -74 214c0 101 25 171 74 210c50 39 128 59 233 59c107 0 185 -20 234 -59c50 -39 75 -109 75 -210c0 -102 -25 -173 -75 -214c-49 -40 -127 -60 -234 -60zM251 257c0 -57 7 -93 21 -108s43 -23 88 -23s74 8 88 23
s21 51 21 108c0 58 -7 94 -21 109c-13 15 -43 23 -88 23s-75 -8 -89 -23c-13 -15 -20 -51 -20 -109zM412 697l-155 -129h-127l124 129h158zM654 697l-155 -129h-127l123 129h159z" />
    <glyph glyph-name="OE" unicode="&#x152;" horiz-adv-x="1350" 
d="M671 697h651v-168h-445c9 -22 16 -51 22 -88h237v-165h-237c-5 -39 -14 -75 -27 -108h450v-168h-671c-47 -9 -104 -14 -169 -14c-144 0 -240 22 -315 78c-73 56 -109 153 -109 294c0 139 34 231 109 284s170 72 315 72c73 0 136 -6 189 -17zM482 161c48 0 83 1 106 4
s43 12 58 27c31 31 33 69 33 164c0 30 -1 54 -2 71c-3 36 -15 69 -30 82c-7 7 -19 13 -36 18c-33 9 -64 10 -129 10c-33 0 -58 -1 -77 -2c-37 -1 -75 -11 -90 -26c-7 -7 -14 -18 -20 -33c-11 -29 -12 -60 -12 -120c0 -32 1 -58 2 -77c3 -37 15 -72 30 -87
c7 -7 19 -14 36 -19c33 -11 66 -12 131 -12z" />
    <glyph glyph-name="oe" unicode="&#x153;" horiz-adv-x="1080" 
d="M968 157l31 -146c-65 -17 -144 -25 -237 -25c-84 0 -149 16 -196 49c-42 -33 -111 -49 -206 -49c-106 0 -184 20 -233 60c-49 41 -74 112 -74 214c0 101 25 171 74 210c50 39 128 59 233 59c93 0 160 -15 201 -44c42 29 104 44 187 44c104 0 165 -11 216 -47
c52 -36 73 -102 73 -206c0 -27 -1 -52 -4 -77h-377c3 -52 34 -63 137 -63c59 0 118 7 175 21zM251 257c0 -57 7 -93 21 -108s43 -23 88 -23s74 8 88 23s21 51 21 108c0 58 -7 94 -21 109c-13 15 -43 23 -88 23s-75 -8 -89 -23c-13 -15 -20 -51 -20 -109zM750 394
c-67 0 -85 -15 -92 -64h184c-1 52 -23 64 -92 64z" />
    <glyph glyph-name="Racute" unicode="&#x154;" horiz-adv-x="907" 
d="M529 534h-222v-148h220c45 0 68 24 68 73c0 50 -22 75 -66 75zM634 295c26 -8 57 -31 93 -69s96 -113 181 -226h-273c-67 93 -117 154 -150 185s-65 46 -96 46h-82v-231h-208v697h510c156 0 223 -79 223 -204c0 -124 -66 -190 -198 -198zM654 876l-198 -129h-171l158 129
h211z" />
    <glyph glyph-name="racute" unicode="&#x155;" horiz-adv-x="497" 
d="M280 0h-198v514h198v-61c38 51 97 76 177 76c11 0 27 -1 48 -2v-170c-15 3 -42 5 -82 5c-37 0 -71 -4 -100 -13s-43 -20 -43 -34v-315zM549 697l-198 -129h-170l157 129h211z" />
    <glyph glyph-name="Rcommaaccent" unicode="&#x156;" horiz-adv-x="907" 
d="M529 534h-222v-148h220c45 0 68 24 68 73c0 50 -22 75 -66 75zM634 295c26 -8 57 -31 93 -69s96 -113 181 -226h-273c-67 93 -117 154 -150 185s-65 46 -96 46h-82v-231h-208v697h510c156 0 223 -79 223 -204c0 -124 -66 -190 -198 -198zM354 -51h205l-104 -167h-153z
" />
    <glyph glyph-name="rcommaaccent" unicode="&#x157;" horiz-adv-x="497" 
d="M280 0h-198v514h198v-61c38 51 97 76 177 76c11 0 27 -1 48 -2v-170c-15 3 -42 5 -82 5c-37 0 -71 -4 -100 -13s-43 -20 -43 -34v-315zM102 -51h205l-104 -167h-153z" />
    <glyph glyph-name="Rcaron" unicode="&#x158;" horiz-adv-x="907" 
d="M529 534h-222v-148h220c45 0 68 24 68 73c0 50 -22 75 -66 75zM634 295c26 -8 57 -31 93 -69s96 -113 181 -226h-273c-67 93 -117 154 -150 185s-65 46 -96 46h-82v-231h-208v697h510c156 0 223 -79 223 -204c0 -124 -66 -190 -198 -198zM175 876h171l89 -74l86 74h165
l-154 -129h-197z" />
    <glyph glyph-name="rcaron" unicode="&#x159;" horiz-adv-x="497" 
d="M280 0h-198v514h198v-61c38 51 97 76 177 76c11 0 27 -1 48 -2v-170c-15 3 -42 5 -82 5c-37 0 -71 -4 -100 -13s-43 -20 -43 -34v-315zM48 697h171l89 -74l85 74h166l-155 -129h-196z" />
    <glyph glyph-name="Sacute" unicode="&#x15a;" horiz-adv-x="759" 
d="M706 685l-33 -171c-83 17 -165 25 -246 25c-67 0 -110 -3 -129 -9s-29 -18 -29 -36c5 -38 12 -40 179 -58c191 -19 273 -82 273 -215c0 -89 -29 -150 -86 -184s-158 -51 -301 -51c-121 0 -215 10 -282 29l36 172c72 -17 153 -26 242 -26c69 0 114 3 133 8
c19 6 29 19 29 38c-5 37 -9 41 -195 60c-175 16 -252 69 -252 197c0 89 30 153 91 192s158 58 293 58c121 0 213 -10 277 -29zM625 876l-198 -129h-171l158 129h211z" />
    <glyph glyph-name="sacute" unicode="&#x15b;" horiz-adv-x="577" 
d="M313 529c81 0 154 -8 217 -23l-28 -142c-59 16 -127 24 -204 24c-57 0 -71 -3 -71 -28c0 -17 8 -24 120 -32c137 -11 198 -53 198 -160c0 -137 -94 -182 -279 -182c-88 0 -163 7 -224 22l29 143c45 -14 107 -21 185 -21c46 0 74 1 85 4s17 12 17 25c0 17 -18 26 -137 34
s-181 50 -181 155c0 69 22 116 67 142s113 39 206 39zM526 697l-198 -129h-170l157 129h211z" />
    <glyph glyph-name="Scircumflex" unicode="&#x15c;" horiz-adv-x="759" 
d="M706 685l-33 -171c-83 17 -165 25 -246 25c-67 0 -110 -3 -129 -9s-29 -18 -29 -36c5 -38 12 -40 179 -58c191 -19 273 -82 273 -215c0 -89 -29 -150 -86 -184s-158 -51 -301 -51c-121 0 -215 10 -282 29l36 172c72 -17 153 -26 242 -26c69 0 114 3 133 8
c19 6 29 19 29 38c-5 37 -9 41 -195 60c-175 16 -252 69 -252 197c0 89 30 153 91 192s158 58 293 58c121 0 213 -10 277 -29zM657 747h-171l-90 72l-84 -72h-166l155 129h196z" />
    <glyph glyph-name="scircumflex" unicode="&#x15d;" horiz-adv-x="577" 
d="M313 529c81 0 154 -8 217 -23l-28 -142c-59 16 -127 24 -204 24c-57 0 -71 -3 -71 -28c0 -17 8 -24 120 -32c137 -11 198 -53 198 -160c0 -137 -94 -182 -279 -182c-88 0 -163 7 -224 22l29 143c45 -14 107 -21 185 -21c46 0 74 1 85 4s17 12 17 25c0 17 -18 26 -137 34
s-181 50 -181 155c0 69 22 116 67 142s113 39 206 39zM553 568h-171l-89 73l-85 -73h-166l155 129h196z" />
    <glyph glyph-name="Scedilla" unicode="&#x15e;" horiz-adv-x="759" 
d="M706 685l-33 -171c-83 17 -165 25 -246 25c-67 0 -110 -3 -129 -9s-29 -18 -29 -36c5 -38 12 -40 179 -58c191 -19 273 -82 273 -215c0 -81 -24 -139 -72 -174c-47 -35 -128 -54 -243 -59v-24c51 0 85 -6 102 -17c17 -12 25 -33 25 -64c0 -63 -60 -86 -192 -86
c-42 0 -75 3 -100 9l33 68c19 -5 44 -7 75 -7c26 0 39 6 39 19c0 19 -7 22 -42 22c-26 0 -44 -1 -55 -2l38 80c-119 1 -211 11 -277 29l36 172c72 -17 153 -26 242 -26c69 0 114 3 133 8c19 6 29 19 29 38c-5 37 -9 41 -195 60c-175 16 -252 69 -252 197c0 89 30 153 91 192
s158 58 293 58c121 0 213 -10 277 -29z" />
    <glyph glyph-name="Scedilla" unicode="&#xf6c1;" horiz-adv-x="759" 
d="M706 685l-33 -171c-83 17 -165 25 -246 25c-67 0 -110 -3 -129 -9s-29 -18 -29 -36c5 -38 12 -40 179 -58c191 -19 273 -82 273 -215c0 -81 -24 -139 -72 -174c-47 -35 -128 -54 -243 -59v-24c51 0 85 -6 102 -17c17 -12 25 -33 25 -64c0 -63 -60 -86 -192 -86
c-42 0 -75 3 -100 9l33 68c19 -5 44 -7 75 -7c26 0 39 6 39 19c0 19 -7 22 -42 22c-26 0 -44 -1 -55 -2l38 80c-119 1 -211 11 -277 29l36 172c72 -17 153 -26 242 -26c69 0 114 3 133 8c19 6 29 19 29 38c-5 37 -9 41 -195 60c-175 16 -252 69 -252 197c0 89 30 153 91 192
s158 58 293 58c121 0 213 -10 277 -29z" />
    <glyph glyph-name="scedilla" unicode="&#x15f;" horiz-adv-x="577" 
d="M313 529c81 0 154 -8 217 -23l-28 -142c-59 16 -127 24 -204 24c-57 0 -71 -3 -71 -28c0 -17 8 -24 120 -32c137 -11 198 -53 198 -160c0 -127 -80 -174 -237 -181v-23c51 0 85 -6 102 -17c17 -12 25 -33 25 -64c0 -63 -60 -86 -192 -86c-42 0 -75 3 -100 9l33 68
c19 -5 44 -7 75 -7c26 0 39 6 39 19c0 19 -7 22 -42 22c-26 0 -44 -1 -55 -2l38 81c-75 3 -138 10 -189 21l29 143c45 -14 107 -21 185 -21c46 0 74 1 85 4s17 12 17 25c0 17 -18 26 -137 34s-181 50 -181 155c0 69 22 116 67 142s113 39 206 39z" />
    <glyph glyph-name="scedilla" unicode="&#xf6c2;" horiz-adv-x="577" 
d="M313 529c81 0 154 -8 217 -23l-28 -142c-59 16 -127 24 -204 24c-57 0 -71 -3 -71 -28c0 -17 8 -24 120 -32c137 -11 198 -53 198 -160c0 -127 -80 -174 -237 -181v-23c51 0 85 -6 102 -17c17 -12 25 -33 25 -64c0 -63 -60 -86 -192 -86c-42 0 -75 3 -100 9l33 68
c19 -5 44 -7 75 -7c26 0 39 6 39 19c0 19 -7 22 -42 22c-26 0 -44 -1 -55 -2l38 81c-75 3 -138 10 -189 21l29 143c45 -14 107 -21 185 -21c46 0 74 1 85 4s17 12 17 25c0 17 -18 26 -137 34s-181 50 -181 155c0 69 22 116 67 142s113 39 206 39z" />
    <glyph glyph-name="Scaron" unicode="&#x160;" horiz-adv-x="759" 
d="M706 685l-33 -171c-83 17 -165 25 -246 25c-67 0 -110 -3 -129 -9s-29 -18 -29 -36c5 -38 12 -40 179 -58c191 -19 273 -82 273 -215c0 -89 -29 -150 -86 -184s-158 -51 -301 -51c-121 0 -215 10 -282 29l36 172c72 -17 153 -26 242 -26c69 0 114 3 133 8
c19 6 29 19 29 38c-5 37 -9 41 -195 60c-175 16 -252 69 -252 197c0 89 30 153 91 192s158 58 293 58c121 0 213 -10 277 -29zM141 876h171l89 -74l86 74h165l-154 -129h-197z" />
    <glyph glyph-name="scaron" unicode="&#x161;" horiz-adv-x="577" 
d="M313 529c81 0 154 -8 217 -23l-28 -142c-59 16 -127 24 -204 24c-57 0 -71 -3 -71 -28c0 -17 8 -24 120 -32c137 -11 198 -53 198 -160c0 -137 -94 -182 -279 -182c-88 0 -163 7 -224 22l29 143c45 -14 107 -21 185 -21c46 0 74 1 85 4s17 12 17 25c0 17 -18 26 -137 34
s-181 50 -181 155c0 69 22 116 67 142s113 39 206 39zM46 697h171l89 -74l85 74h166l-155 -129h-196z" />
    <glyph glyph-name="Tcommaaccent" unicode="&#x162;" horiz-adv-x="795" 
d="M503 529v-529h-210v529h-291v168h791v-168h-290zM312 -51h205l-104 -167h-153z" />
    <glyph glyph-name="Tcommaaccent" unicode="&#x21a;" horiz-adv-x="795" 
d="M503 529v-529h-210v529h-291v168h791v-168h-290zM312 -51h205l-104 -167h-153z" />
    <glyph glyph-name="tcommaaccent" unicode="&#x163;" horiz-adv-x="526" 
d="M504 514v-156h-192v-161c0 -41 20 -56 95 -56c31 0 62 3 92 10l23 -146c-67 -13 -132 -19 -195 -19c-72 0 -126 13 -161 39c-35 27 -52 76 -52 149v184h-103v156h103v70l198 63v-133h192zM181 -51h205l-104 -167h-153z" />
    <glyph glyph-name="tcommaaccent" unicode="&#x21b;" horiz-adv-x="526" 
d="M504 514v-156h-192v-161c0 -41 20 -56 95 -56c31 0 62 3 92 10l23 -146c-67 -13 -132 -19 -195 -19c-72 0 -126 13 -161 39c-35 27 -52 76 -52 149v184h-103v156h103v70l198 63v-133h192zM181 -51h205l-104 -167h-153z" />
    <glyph glyph-name="Tcaron" unicode="&#x164;" horiz-adv-x="795" 
d="M503 529v-529h-210v529h-291v168h791v-168h-290zM142 876h171l89 -74l86 74h165l-154 -129h-197z" />
    <glyph glyph-name="tcaron" unicode="&#x165;" horiz-adv-x="526" 
d="M504 514v-156h-192v-161c0 -41 20 -56 95 -56c31 0 62 3 92 10l23 -146c-67 -13 -132 -19 -195 -19c-72 0 -126 13 -161 39c-35 27 -52 76 -52 149v184h-103v156h103v70l198 63v-133h192zM387 581l23 192h155l-74 -192h-104z" />
    <glyph glyph-name="Tbar" unicode="&#x166;" horiz-adv-x="795" 
d="M293 219h-76v122h76v188h-291v168h791v-168h-290v-188h70v-122h-70v-219h-210v219z" />
    <glyph glyph-name="tbar" unicode="&#x167;" horiz-adv-x="526" 
d="M504 514v-156h-192v-49h95v-102h-95v-10c0 -41 20 -56 95 -56c31 0 62 3 92 10l23 -146c-67 -13 -132 -19 -195 -19c-72 0 -126 13 -161 39c-35 27 -52 76 -52 149v33h-60v102h60v49h-103v156h103v70l198 63v-133h192z" />
    <glyph glyph-name="Utilde" unicode="&#x168;" horiz-adv-x="919" 
d="M619 222v475h210v-517c0 -75 -35 -127 -103 -155s-150 -39 -267 -39s-200 11 -268 39c-67 28 -101 80 -101 155v517h209v-475c0 -40 40 -57 160 -57c119 0 160 17 160 57zM618 879l77 -52c-27 -55 -83 -98 -152 -98c-21 0 -51 8 -91 24s-71 24 -93 24
c-31 0 -52 -11 -65 -34l-72 59c41 54 85 81 132 81c23 0 56 -8 97 -23c42 -15 74 -23 96 -23c33 0 57 14 71 42z" />
    <glyph glyph-name="utilde" unicode="&#x169;" horiz-adv-x="747" 
d="M468 157v357h197v-484c-108 -29 -220 -44 -336 -44c-173 0 -255 68 -255 245v283h198v-271c0 -37 7 -63 20 -76s43 -19 88 -19c8 0 37 3 88 9zM535 703l72 -52c-27 -56 -78 -98 -146 -98c-25 0 -58 8 -101 23s-75 23 -96 23c-31 0 -52 -11 -63 -32l-66 59
c39 52 74 81 127 81c27 0 63 -7 107 -22c45 -15 77 -22 98 -22c37 0 53 11 68 40z" />
    <glyph glyph-name="Umacron" unicode="&#x16a;" horiz-adv-x="919" 
d="M619 222v475h210v-517c0 -75 -35 -127 -103 -155s-150 -39 -267 -39s-200 11 -268 39c-67 28 -101 80 -101 155v517h209v-475c0 -40 40 -57 160 -57c119 0 160 17 160 57zM632 737h-353v122h353v-122z" />
    <glyph glyph-name="umacron" unicode="&#x16b;" horiz-adv-x="747" 
d="M468 157v357h197v-484c-108 -29 -220 -44 -336 -44c-173 0 -255 68 -255 245v283h198v-271c0 -37 7 -63 20 -76s43 -19 88 -19c8 0 37 3 88 9zM545 567h-353v122h353v-122z" />
    <glyph glyph-name="Ubreve" unicode="&#x16c;" horiz-adv-x="919" 
d="M619 222v475h210v-517c0 -75 -35 -127 -103 -155s-150 -39 -267 -39s-200 11 -268 39c-67 28 -101 80 -101 155v517h209v-475c0 -40 40 -57 160 -57c119 0 160 17 160 57zM263 871h114c0 -36 24 -46 85 -46c59 0 84 10 84 46h104c0 -99 -66 -138 -194 -138
c-129 0 -193 46 -193 138z" />
    <glyph glyph-name="ubreve" unicode="&#x16d;" horiz-adv-x="747" 
d="M468 157v357h197v-484c-108 -29 -220 -44 -336 -44c-173 0 -255 68 -255 245v283h198v-271c0 -37 7 -63 20 -76s43 -19 88 -19c8 0 37 3 88 9zM175 697h113c0 -36 25 -46 86 -46c59 0 84 10 84 46h103c0 -99 -64 -148 -193 -148c-123 0 -193 48 -193 148z" />
    <glyph glyph-name="Uring" unicode="&#x16e;" horiz-adv-x="919" 
d="M457 908c107 0 156 -25 156 -102c0 -79 -48 -102 -156 -102c-109 0 -158 23 -158 102c0 77 50 102 158 102zM457 842c-59 0 -69 -9 -69 -37s10 -36 69 -36c57 0 69 8 69 36s-12 37 -69 37zM619 222v475h210v-517c0 -75 -35 -127 -103 -155s-150 -39 -267 -39
s-200 11 -268 39c-67 28 -101 80 -101 155v517h209v-475c0 -40 40 -57 160 -57c119 0 160 17 160 57z" />
    <glyph glyph-name="uring" unicode="&#x16f;" horiz-adv-x="747" 
d="M368 744c57 0 96 -7 118 -21s33 -41 33 -81s-11 -67 -33 -81s-61 -21 -118 -21c-115 0 -153 22 -153 102s38 102 153 102zM368 605c57 0 66 8 66 36c0 15 -4 24 -12 29c-7 5 -25 8 -54 8s-47 -3 -55 -8c-7 -5 -11 -14 -11 -29c0 -29 7 -36 66 -36zM468 157v357h197v-484
c-108 -29 -220 -44 -336 -44c-173 0 -255 68 -255 245v283h198v-271c0 -37 7 -63 20 -76s43 -19 88 -19c8 0 37 3 88 9z" />
    <glyph glyph-name="Uhungarumlaut" unicode="&#x170;" horiz-adv-x="919" 
d="M619 222v475h210v-517c0 -75 -35 -127 -103 -155s-150 -39 -267 -39s-200 11 -268 39c-67 28 -101 80 -101 155v517h209v-475c0 -40 40 -57 160 -57c119 0 160 17 160 57zM522 876l-155 -129h-127l124 129h158zM764 876l-155 -129h-127l123 129h159z" />
    <glyph glyph-name="uhungarumlaut" unicode="&#x171;" horiz-adv-x="747" 
d="M468 157v357h197v-484c-108 -29 -220 -44 -336 -44c-173 0 -255 68 -255 245v283h198v-271c0 -37 7 -63 20 -76s43 -19 88 -19c8 0 37 3 88 9zM426 697l-155 -129h-127l124 129h158zM668 697l-155 -129h-127l123 129h159z" />
    <glyph glyph-name="Uogonek" unicode="&#x172;" horiz-adv-x="919" 
d="M619 222v475h210v-517c0 -135 -112 -186 -321 -193c-24 -17 -36 -36 -36 -57c0 -24 14 -32 58 -32c43 0 78 6 105 18l30 -92c-38 -18 -91 -27 -160 -27c-61 0 -102 7 -125 20c-22 13 -33 36 -33 69c0 43 23 76 69 101c-215 5 -326 57 -326 193v517h209v-475
c0 -40 40 -57 160 -57c119 0 160 17 160 57z" />
    <glyph glyph-name="uogonek" unicode="&#x173;" horiz-adv-x="747" 
d="M468 157v357h197v-484c-26 -8 -57 -15 -94 -21c-56 -27 -76 -47 -76 -79c0 -24 14 -32 58 -32c43 0 78 6 105 18l30 -92c-38 -18 -91 -27 -160 -27c-61 0 -102 7 -125 20c-22 13 -33 36 -33 69c0 46 27 81 80 106c-40 -4 -80 -6 -121 -6c-173 0 -255 68 -255 245v283h198
v-271c0 -37 7 -63 20 -76s43 -19 88 -19c8 0 37 3 88 9z" />
    <glyph glyph-name="Wcircumflex" unicode="&#x174;" horiz-adv-x="1298" 
d="M651 384c-38 -125 -83 -253 -136 -384h-280c-87 289 -170 521 -247 697h231c25 -59 56 -138 92 -239c36 -100 63 -182 81 -245c76 191 131 353 164 484h188c23 -59 54 -142 91 -247c38 -105 65 -184 81 -237c27 69 57 152 89 249s55 175 70 235h222
c-25 -87 -63 -200 -114 -339c-50 -139 -95 -259 -136 -358h-279c-33 133 -72 261 -117 384zM907 747h-171l-90 72l-84 -72h-166l155 129h196z" />
    <glyph glyph-name="wcircumflex" unicode="&#x175;" horiz-adv-x="1046" 
d="M515 270c-19 -75 -52 -165 -98 -270h-239c-57 159 -126 331 -207 514h202c63 -137 109 -255 140 -354c46 113 88 231 127 354h169c55 -132 98 -250 129 -354c63 153 107 271 132 354h196c-77 -201 -151 -373 -224 -514h-241c-15 57 -43 147 -86 270zM779 568h-171l-89 73
l-85 -73h-166l155 129h196z" />
    <glyph glyph-name="Ycircumflex" unicode="&#x176;" horiz-adv-x="820" 
d="M321 0v266c-48 57 -114 129 -197 216s-156 158 -217 215h298c89 -89 163 -171 223 -246c97 111 164 193 201 246h274c-129 -159 -254 -302 -374 -430v-267h-208zM681 747h-171l-90 72l-84 -72h-166l155 129h196z" />
    <glyph glyph-name="ycircumflex" unicode="&#x177;" horiz-adv-x="622" 
d="M445 514h197c-88 -247 -199 -483 -334 -706h-225c38 52 74 107 107 166h1c-55 160 -129 340 -220 540h202c63 -139 110 -259 139 -361c56 127 100 247 133 361zM569 568h-171l-89 73l-85 -73h-166l155 129h196z" />
    <glyph glyph-name="Ydieresis" unicode="&#x178;" horiz-adv-x="820" 
d="M321 0v266c-48 57 -114 129 -197 216s-156 158 -217 215h298c89 -89 163 -171 223 -246c97 111 164 193 201 246h274c-129 -159 -254 -302 -374 -430v-267h-208zM367 809c0 -65 -18 -80 -82 -80c-63 0 -81 15 -81 80c0 60 17 72 81 72s82 -12 82 -72zM567 881
c64 0 81 -12 81 -72c0 -65 -18 -80 -81 -80c-33 0 -55 5 -66 15s-16 32 -16 65c0 60 17 72 82 72z" />
    <glyph glyph-name="Zacute" unicode="&#x179;" horiz-adv-x="775" 
d="M766 0h-747v41c54 65 122 150 205 255s142 183 179 233h-362v168h719v-39c-34 -52 -96 -136 -187 -251s-156 -195 -196 -239h389v-168zM628 876l-198 -129h-171l158 129h211z" />
    <glyph glyph-name="zacute" unicode="&#x17a;" horiz-adv-x="604" 
d="M26 358v156h572v-29c-77 -105 -167 -215 -269 -329h249v-156h-575v28c45 49 95 108 152 177c57 70 97 121 120 153h-249zM559 697l-198 -129h-170l157 129h211z" />
    <glyph glyph-name="Zdotaccent" unicode="&#x17b;" horiz-adv-x="775" 
d="M766 0h-747v41c54 65 122 150 205 255s142 183 179 233h-362v168h719v-39c-34 -52 -96 -136 -187 -251s-156 -195 -196 -239h389v-168zM482 815c0 -65 -18 -80 -82 -80c-63 0 -81 15 -81 80c0 60 17 72 81 72s82 -12 82 -72z" />
    <glyph glyph-name="zdotaccent" unicode="&#x17c;" horiz-adv-x="604" 
d="M26 358v156h572v-29c-77 -105 -167 -215 -269 -329h249v-156h-575v28c45 49 95 108 152 177c57 70 97 121 120 153h-249zM390 634c0 -65 -18 -80 -82 -80c-63 0 -81 15 -81 80c0 60 17 72 81 72s82 -12 82 -72z" />
    <glyph glyph-name="Zcaron" unicode="&#x17d;" horiz-adv-x="775" 
d="M766 0h-747v41c54 65 122 150 205 255s142 183 179 233h-362v168h719v-39c-34 -52 -96 -136 -187 -251s-156 -195 -196 -239h389v-168zM151 876h171l89 -74l86 74h165l-154 -129h-197z" />
    <glyph glyph-name="zcaron" unicode="&#x17e;" horiz-adv-x="604" 
d="M26 358v156h572v-29c-77 -105 -167 -215 -269 -329h249v-156h-575v28c45 49 95 108 152 177c57 70 97 121 120 153h-249zM52 697h171l89 -74l85 74h166l-155 -129h-196z" />
    <glyph glyph-name="longs" unicode="&#x17f;" horiz-adv-x="363" 
d="M280 0h-198v534c0 131 81 196 243 196c71 0 134 -6 189 -18l-29 -147c-31 8 -66 12 -106 12c-81 0 -99 -14 -99 -57v-520z" />
    <glyph glyph-name="florin" unicode="&#x192;" horiz-adv-x="475" 
d="M78 0l81 358h-115l35 156h116l4 20c29 131 125 196 288 196c84 0 152 -8 205 -24l-69 -138c-21 6 -60 9 -117 9c-60 0 -100 -14 -113 -63h205l-36 -156h-204l-81 -358c-17 -75 -63 -132 -124 -161c-60 -29 -124 -42 -196 -42c-82 0 -151 7 -208 22l55 130
c37 -9 88 -13 153 -13c71 0 112 21 121 64z" />
    <glyph glyph-name="AEacute" unicode="&#x1fc;" horiz-adv-x="1210" 
d="M391 697h790v-168h-436v-88h250v-165h-250v-108h436v-168h-644v134h-383c-41 -46 -77 -91 -106 -134h-267c73 92 171 208 294 348c123 141 229 257 316 349zM287 299h250v230h-57c-49 -55 -114 -132 -193 -230zM997 876l-198 -129h-171l158 129h211z" />
    <glyph glyph-name="aeacute" unicode="&#x1fd;" horiz-adv-x="1060" 
d="M949 158l30 -147c-63 -17 -142 -25 -237 -25c-59 0 -112 9 -160 28c-91 -19 -178 -28 -259 -28c-106 0 -177 11 -214 34c-36 23 -54 69 -54 136c0 71 20 115 64 138c45 23 93 29 173 29c41 0 92 -5 153 -16c-4 61 -11 69 -150 72c-74 0 -141 -7 -201 -20l-23 145
c89 17 184 25 285 25c75 0 139 -13 192 -38c51 25 111 38 180 38c104 0 165 -11 217 -48c52 -36 73 -102 73 -207c0 -14 -1 -39 -4 -75h-378c3 -51 40 -63 136 -63c24 0 55 2 93 7c39 5 67 10 84 15zM457 134c-9 22 -13 42 -13 60c-28 6 -60 9 -96 9c-67 0 -87 -7 -87 -42
c0 -36 14 -43 83 -43c34 0 72 5 113 16zM742 394c-75 0 -96 -15 -104 -64h184c-1 51 -23 64 -80 64zM754 697l-198 -129h-170l157 129h211z" />
    <glyph glyph-name="Oslashacute" unicode="&#x1fe;" horiz-adv-x="962" 
d="M482 714c109 0 195 -13 256 -40l25 23h223l-133 -118c34 -53 51 -126 51 -221c0 -138 -34 -235 -103 -290s-175 -82 -319 -82c-105 0 -188 13 -249 39l-28 -25h-223l134 119c-39 58 -58 138 -58 239c0 139 34 231 109 284s170 72 315 72zM283 356c0 -41 1 -70 3 -85
l293 262c-22 3 -54 4 -97 4c-33 0 -58 -1 -77 -2c-37 -1 -75 -11 -90 -26c-7 -7 -14 -18 -20 -33c-11 -29 -12 -60 -12 -120zM482 161c48 0 83 1 106 4s43 12 58 27c31 31 33 69 33 164c0 19 -1 41 -2 65l-287 -256c21 -3 52 -4 92 -4zM687 876l-198 -129h-171l158 129h211z
" />
    <glyph glyph-name="oslashacute" unicode="&#x1ff;" 
d="M360 -14c-77 0 -138 10 -183 29l-18 -15h-177l106 93c-23 41 -35 97 -35 167c0 101 25 171 74 210c50 39 128 59 233 59c83 0 146 -10 189 -31l18 16h175l-107 -94c23 -41 34 -95 34 -160c0 -102 -25 -173 -75 -214c-49 -40 -127 -60 -234 -60zM360 389
c-45 0 -75 -8 -89 -23c-13 -15 -20 -51 -20 -109v-21l168 148c-13 3 -32 5 -59 5zM360 126c45 0 74 8 88 23s21 51 21 108v16l-163 -143c13 -3 31 -4 54 -4zM591 697l-198 -129h-170l157 129h211z" />
    <glyph glyph-name="Scommaaccent" unicode="&#x218;" horiz-adv-x="759" 
d="M706 685l-33 -171c-83 17 -165 25 -246 25c-67 0 -110 -3 -129 -9s-29 -18 -29 -36c5 -38 12 -40 179 -58c191 -19 273 -82 273 -215c0 -89 -29 -150 -86 -184s-158 -51 -301 -51c-121 0 -215 10 -282 29l36 172c72 -17 153 -26 242 -26c69 0 114 3 133 8
c19 6 29 19 29 38c-5 37 -9 41 -195 60c-175 16 -252 69 -252 197c0 89 30 153 91 192s158 58 293 58c121 0 213 -10 277 -29zM288 -51h205l-104 -167h-153z" />
    <glyph glyph-name="scommaaccent" unicode="&#x219;" horiz-adv-x="577" 
d="M313 529c81 0 154 -8 217 -23l-28 -142c-59 16 -127 24 -204 24c-57 0 -71 -3 -71 -28c0 -17 8 -24 120 -32c137 -11 198 -53 198 -160c0 -137 -94 -182 -279 -182c-88 0 -163 7 -224 22l29 143c45 -14 107 -21 185 -21c46 0 74 1 85 4s17 12 17 25c0 17 -18 26 -137 34
s-181 50 -181 155c0 69 22 116 67 142s113 39 206 39zM196 -51h205l-104 -167h-153z" />
    <glyph glyph-name="circumflex" unicode="&#x2c6;" horiz-adv-x="784" 
d="M667 568h-171l-89 73l-85 -73h-166l155 129h196z" />
    <glyph glyph-name="caron" unicode="&#x2c7;" horiz-adv-x="784" 
d="M156 697h171l89 -74l85 74h166l-155 -129h-196z" />
    <glyph glyph-name="breve" unicode="&#x2d8;" horiz-adv-x="620" 
d="M115 697h113c0 -36 25 -46 86 -46c59 0 84 10 84 46h103c0 -99 -64 -148 -193 -148c-123 0 -193 48 -193 148z" />
    <glyph glyph-name="dotaccent" unicode="&#x2d9;" horiz-adv-x="627" 
d="M401 634c0 -65 -18 -80 -82 -80c-63 0 -81 15 -81 80c0 60 17 72 81 72s82 -12 82 -72z" />
    <glyph glyph-name="ring" unicode="&#x2da;" horiz-adv-x="862" 
d="M442 744c57 0 96 -7 118 -21s33 -41 33 -81s-11 -67 -33 -81s-61 -21 -118 -21c-115 0 -153 22 -153 102s38 102 153 102zM442 605c57 0 66 8 66 36c0 15 -4 24 -12 29c-7 5 -25 8 -54 8s-47 -3 -55 -8c-7 -5 -11 -14 -11 -29c0 -29 7 -36 66 -36z" />
    <glyph glyph-name="ogonek" unicode="&#x2db;" horiz-adv-x="769" 
d="M537 12h70c-61 -29 -82 -50 -82 -82c0 -24 14 -32 58 -32c43 0 78 6 105 18l30 -92c-38 -18 -91 -27 -160 -27c-61 0 -102 7 -125 20c-22 13 -33 36 -33 69c0 61 46 103 137 126z" />
    <glyph glyph-name="tilde" unicode="&#x2dc;" horiz-adv-x="863" 
d="M577 703l72 -52c-27 -56 -78 -98 -146 -98c-25 0 -58 8 -101 23s-75 23 -96 23c-31 0 -52 -11 -63 -32l-66 59c39 52 74 81 127 81c27 0 63 -7 107 -22c45 -15 77 -22 98 -22c37 0 53 11 68 40z" />
    <glyph glyph-name="hungarumlaut" unicode="&#x2dd;" horiz-adv-x="566" 
d="M469 697l-155 -129h-127l124 129h158zM711 697l-155 -129h-127l123 129h159z" />
    <glyph glyph-name="tonos" unicode="&#x384;" horiz-adv-x="566" 
d="M153 560l-29 162h177l-40 -162h-108z" />
    <glyph glyph-name="dieresistonos" unicode="&#x385;" horiz-adv-x="627" 
d="M243 560l-15 162h140l-26 -162h-99zM119 706c61 0 78 -12 78 -72c0 -65 -17 -80 -78 -80c-60 0 -77 15 -77 80c0 60 17 72 77 72zM475 706c60 0 77 -12 77 -72c0 -65 -17 -80 -77 -80c-61 0 -78 13 -78 80c0 60 15 72 78 72z" />
    <glyph glyph-name="Alphatonos" unicode="&#x386;" horiz-adv-x="854" 
d="M268 697h339c37 -101 85 -218 144 -353c59 -134 113 -249 161 -344h-238c-16 31 -37 76 -62 134h-375c-8 -21 -23 -66 -46 -134h-231c32 89 79 204 141 344c63 140 118 258 167 353zM456 529h-64c-29 -63 -60 -140 -94 -230h244c-33 82 -62 159 -86 230zM3 560l-29 162
h177l-40 -162h-108z" />
    <glyph glyph-name="anoteleia" unicode="&#x387;" horiz-adv-x="390" 
d="M193 404c51 0 85 -6 102 -19c18 -12 27 -39 27 -80c0 -45 -9 -74 -27 -88c-17 -14 -51 -21 -102 -21c-48 0 -81 7 -99 21c-17 14 -26 43 -26 88c0 41 9 67 26 80s50 19 99 19z" />
    <glyph glyph-name="Epsilontonos" unicode="&#x388;" horiz-adv-x="771" 
d="M99 0v697h644v-168h-436v-88h314v-165h-314v-108h436v-168h-644zM-77 560l-29 162h177l-40 -162h-108z" />
    <glyph glyph-name="Etatonos" unicode="&#x389;" horiz-adv-x="934" 
d="M628 278h-321v-278h-208v697h208v-241h321v241h207v-697h-207v278zM-91 560l-29 162h177l-40 -162h-108z" />
    <glyph glyph-name="Iotatonos" unicode="&#x38a;" horiz-adv-x="406" 
d="M99 0v697h208v-697h-208zM-97 560l-29 162h177l-40 -162h-108z" />
    <glyph glyph-name="Omicrontonos" unicode="&#x38c;" horiz-adv-x="962" 
d="M482 714c144 0 238 -19 313 -72s109 -145 109 -284c0 -138 -34 -235 -103 -290s-175 -82 -319 -82s-240 22 -315 78c-73 56 -109 153 -109 294c0 139 34 231 109 284s170 72 315 72zM482 161c48 0 83 1 106 4s43 12 58 27c31 31 33 69 33 164c0 30 -1 54 -2 71
c-3 36 -15 69 -30 82c-7 7 -19 13 -36 18c-33 9 -64 10 -129 10c-33 0 -58 -1 -77 -2c-37 -1 -75 -11 -90 -26c-7 -7 -14 -18 -20 -33c-11 -29 -12 -60 -12 -120c0 -32 1 -58 2 -77c3 -37 15 -72 30 -87c7 -7 19 -14 36 -19c33 -11 66 -12 131 -12zM-57 560l-29 162h177
l-40 -162h-108z" />
    <glyph glyph-name="Upsilontonos" unicode="&#x38e;" horiz-adv-x="820" 
d="M-187 560l-29 162h177l-6 -25h250c89 -89 163 -171 223 -246c97 111 164 193 201 246h274c-129 -159 -254 -302 -374 -430v-267h-208v266c-43 51 -100 115 -173 191s-140 144 -202 203l-25 -100h-108z" />
    <glyph glyph-name="Omegatonos" unicode="&#x38f;" horiz-adv-x="1013" 
d="M418 0h-416v176h161c-19 11 -37 39 -55 84c-17 45 -26 91 -26 138c0 117 34 198 103 245s176 71 321 71c143 0 249 -24 318 -71s104 -128 104 -245c0 -47 -9 -93 -27 -138c-17 -45 -35 -73 -54 -84h164v-176h-421v167c47 8 78 28 92 61s21 89 21 168c0 62 -5 100 -32 118
c-7 6 -19 11 -36 14c-32 8 -65 9 -129 9c-91 1 -137 -4 -167 -23c-27 -18 -32 -56 -32 -118c0 -78 7 -133 20 -166c14 -32 44 -52 91 -61v-169zM-56 560l-29 162h177l-40 -162h-108z" />
    <glyph glyph-name="iotadieresistonos" unicode="&#x390;" horiz-adv-x="369" 
d="M133 560l-15 162h140l-26 -162h-99zM9 706c61 0 78 -12 78 -72c0 -65 -17 -80 -78 -80c-60 0 -77 15 -77 80c0 60 17 72 77 72zM365 706c60 0 77 -12 77 -72c0 -65 -17 -80 -77 -80c-61 0 -78 13 -78 80c0 60 15 72 78 72zM82 514h198v-311c0 -27 19 -38 74 -38l-28 -179
c-95 0 -144 7 -187 35s-57 78 -57 166v327z" />
    <glyph glyph-name="Alpha" unicode="&#x391;" horiz-adv-x="854" 
d="M268 697h339c37 -101 85 -218 144 -353c59 -134 113 -249 161 -344h-238c-16 31 -37 76 -62 134h-375c-8 -21 -23 -66 -46 -134h-231c32 89 79 204 141 344c63 140 118 258 167 353zM456 529h-64c-29 -63 -60 -140 -94 -230h244c-33 82 -62 159 -86 230z" />
    <glyph glyph-name="Beta" unicode="&#x392;" horiz-adv-x="903" 
d="M307 163h230c42 0 63 19 63 57c0 45 -24 61 -68 61h-225v-118zM534 534h-227v-98h227c36 0 53 8 53 48c0 39 -18 50 -53 50zM638 364c75 -3 125 -18 151 -46c27 -28 40 -72 40 -133c0 -136 -77 -185 -220 -185h-510v697h510c79 0 133 -13 162 -39c29 -25 44 -68 44 -129
c0 -55 -12 -95 -37 -121c-24 -25 -71 -40 -140 -44z" />
    <glyph glyph-name="Gamma" unicode="&#x393;" horiz-adv-x="676" 
d="M307 529v-529h-208v697h612v-168h-404z" />
    <glyph glyph-name="increment" unicode="&#x394;" horiz-adv-x="806" 
d="M846 0h-900c31 88 78 202 141 341s121 258 172 356h278c41 -109 90 -231 149 -365s113 -245 160 -332zM397 484h-31c-31 -64 -74 -169 -130 -316h291c-57 127 -101 232 -130 316z" />
    <glyph glyph-name="increment" unicode="&#x2206;" horiz-adv-x="806" 
d="M846 0h-900c31 88 78 202 141 341s121 258 172 356h278c41 -109 90 -231 149 -365s113 -245 160 -332zM397 484h-31c-31 -64 -74 -169 -130 -316h291c-57 127 -101 232 -130 316z" />
    <glyph glyph-name="Epsilon" unicode="&#x395;" horiz-adv-x="771" 
d="M99 0v697h644v-168h-436v-88h314v-165h-314v-108h436v-168h-644z" />
    <glyph glyph-name="Zeta" unicode="&#x396;" horiz-adv-x="775" 
d="M766 0h-747v41c54 65 122 150 205 255s142 183 179 233h-362v168h719v-39c-34 -52 -96 -136 -187 -251s-156 -195 -196 -239h389v-168z" />
    <glyph glyph-name="Eta" unicode="&#x397;" horiz-adv-x="934" 
d="M628 278h-321v-278h-208v697h208v-241h321v241h207v-697h-207v278z" />
    <glyph glyph-name="Theta" unicode="&#x398;" horiz-adv-x="962" 
d="M482 714c144 0 238 -19 313 -72s109 -145 109 -284c0 -138 -34 -235 -103 -290s-175 -82 -319 -82s-240 22 -315 78c-73 56 -109 153 -109 294c0 139 34 231 109 284s170 72 315 72zM482 161c48 0 83 1 106 4s43 12 58 27c31 31 33 69 33 164c0 30 -1 54 -2 71
c-3 36 -15 69 -30 82c-7 7 -19 13 -36 18c-33 9 -64 10 -129 10c-33 0 -58 -1 -77 -2c-37 -1 -75 -11 -90 -26c-7 -7 -14 -18 -20 -33c-11 -29 -12 -60 -12 -120c0 -32 1 -58 2 -77c3 -37 15 -72 30 -87c7 -7 19 -14 36 -19c33 -11 66 -12 131 -12zM629 299h-293v122h293
v-122z" />
    <glyph glyph-name="Iota" unicode="&#x399;" horiz-adv-x="406" 
d="M99 0v697h208v-697h-208z" />
    <glyph glyph-name="Kappa" unicode="&#x39a;" horiz-adv-x="868" 
d="M888 0h-255c-67 107 -131 192 -191 256c-59 65 -104 102 -135 111v-367h-208v697h208v-330c33 20 79 60 137 120s115 130 170 210h253c-62 -85 -120 -157 -174 -215c-53 -57 -92 -92 -115 -105h1c25 -13 66 -52 123 -119c57 -66 119 -152 186 -258z" />
    <glyph glyph-name="Lambda" unicode="&#x39b;" horiz-adv-x="806" 
d="M852 0h-237c-33 61 -72 143 -118 244c-45 102 -82 191 -109 266c-30 -65 -67 -151 -111 -260s-76 -192 -95 -250h-230c31 89 79 204 142 343c63 140 120 258 171 354h277c43 -113 93 -236 151 -369c59 -133 112 -242 159 -328z" />
    <glyph glyph-name="Mu" unicode="&#x39c;" horiz-adv-x="1193" 
d="M608 314c51 105 121 232 212 383h274v-697h-200v472c-70 -119 -143 -259 -219 -420h-171c-78 177 -147 317 -206 420v-472h-199v697h289c77 -121 151 -249 220 -383z" />
    <glyph glyph-name="Nu" unicode="&#x39d;" horiz-adv-x="1009" 
d="M704 697h206v-697h-275c-99 157 -211 311 -334 463v-463h-202v697h282c95 -121 203 -269 323 -445v445z" />
    <glyph glyph-name="Xi" unicode="&#x39e;" horiz-adv-x="787" 
d="M29 0v168h729v-168h-729zM758 697v-168h-729v168h729zM635 276h-484v165h484v-165z" />
    <glyph glyph-name="Omicron" unicode="&#x39f;" horiz-adv-x="962" 
d="M482 714c144 0 238 -19 313 -72s109 -145 109 -284c0 -138 -34 -235 -103 -290s-175 -82 -319 -82s-240 22 -315 78c-73 56 -109 153 -109 294c0 139 34 231 109 284s170 72 315 72zM482 161c48 0 83 1 106 4s43 12 58 27c31 31 33 69 33 164c0 30 -1 54 -2 71
c-3 36 -15 69 -30 82c-7 7 -19 13 -36 18c-33 9 -64 10 -129 10c-33 0 -58 -1 -77 -2c-37 -1 -75 -11 -90 -26c-7 -7 -14 -18 -20 -33c-11 -29 -12 -60 -12 -120c0 -32 1 -58 2 -77c3 -37 15 -72 30 -87c7 -7 19 -14 36 -19c33 -11 66 -12 131 -12z" />
    <glyph glyph-name="Pi" unicode="&#x3a0;" horiz-adv-x="934" 
d="M628 529h-321v-529h-208v697h736v-697h-207v529z" />
    <glyph glyph-name="Rho" unicode="&#x3a1;" horiz-adv-x="854" 
d="M307 360h208c57 0 85 29 85 86c0 64 -28 88 -84 88h-209v-174zM307 205v-205h-208v697h510c149 0 223 -84 223 -251c0 -69 -20 -127 -59 -173c-39 -45 -93 -68 -164 -68h-302z" />
    <glyph glyph-name="Sigma" unicode="&#x3a3;" horiz-adv-x="778" 
d="M268 346c-114 143 -192 250 -233 321v30h719v-168h-363c29 -45 75 -107 136 -184c-52 -68 -100 -127 -145 -177h372v-168h-735v30c60 71 143 176 249 316z" />
    <glyph glyph-name="Tau" unicode="&#x3a4;" horiz-adv-x="795" 
d="M503 529v-529h-210v529h-291v168h791v-168h-290z" />
    <glyph glyph-name="Upsilon" unicode="&#x3a5;" horiz-adv-x="820" 
d="M321 0v266c-48 57 -114 129 -197 216s-156 158 -217 215h298c89 -89 163 -171 223 -246c97 111 164 193 201 246h274c-129 -159 -254 -302 -374 -430v-267h-208z" />
    <glyph glyph-name="Phi" unicode="&#x3a6;" horiz-adv-x="1060" 
d="M419 624v73h208v-73c308 -19 387 -81 390 -274c-4 -193 -82 -255 -390 -274v-76h-208v75c-305 19 -372 81 -376 275c3 192 73 257 376 274zM627 469v-239c67 1 100 6 128 14c41 19 43 44 45 106c0 44 -4 64 -16 84c-22 29 -61 31 -157 35zM419 230v238
c-72 -1 -117 -9 -136 -23c-19 -13 -28 -45 -28 -95s9 -82 28 -96s65 -22 136 -24z" />
    <glyph glyph-name="Chi" unicode="&#x3a7;" horiz-adv-x="860" 
d="M299 352c-129 142 -238 257 -329 345h296c33 -34 92 -100 177 -198c52 60 102 126 149 198h278c-95 -117 -192 -232 -291 -343c145 -159 247 -277 306 -354h-280c-36 48 -91 114 -166 198c-89 -97 -152 -163 -187 -198h-280c79 79 188 197 327 352z" />
    <glyph glyph-name="Psi" unicode="&#x3a8;" horiz-adv-x="1014" 
d="M28 697h198c0 -50 0 -90 1 -119c3 -59 12 -119 27 -146c26 -42 69 -64 154 -62v327h191v-327c89 2 136 14 161 63c13 28 19 50 23 99c5 49 5 89 5 165h198c0 -159 -13 -255 -45 -332c-54 -115 -150 -148 -342 -159v-206h-191v205c-158 5 -249 37 -306 108
c-17 23 -31 53 -42 91c-23 76 -29 160 -32 293z" />
    <glyph glyph-name="Omega" unicode="&#x3a9;" horiz-adv-x="1013" 
d="M418 0h-416v176h161c-19 11 -37 39 -55 84c-17 45 -26 91 -26 138c0 117 34 198 103 245s176 71 321 71c143 0 249 -24 318 -71s104 -128 104 -245c0 -47 -9 -93 -27 -138c-17 -45 -35 -73 -54 -84h164v-176h-421v167c47 8 78 28 92 61s21 89 21 168c0 62 -5 100 -32 118
c-7 6 -19 11 -36 14c-32 8 -65 9 -129 9c-91 1 -137 -4 -167 -23c-27 -18 -32 -56 -32 -118c0 -78 7 -133 20 -166c14 -32 44 -52 91 -61v-169z" />
    <glyph glyph-name="Omega" unicode="&#x2126;" horiz-adv-x="1013" 
d="M418 0h-416v176h161c-19 11 -37 39 -55 84c-17 45 -26 91 -26 138c0 117 34 198 103 245s176 71 321 71c143 0 249 -24 318 -71s104 -128 104 -245c0 -47 -9 -93 -27 -138c-17 -45 -35 -73 -54 -84h164v-176h-421v167c47 8 78 28 92 61s21 89 21 168c0 62 -5 100 -32 118
c-7 6 -19 11 -36 14c-32 8 -65 9 -129 9c-91 1 -137 -4 -167 -23c-27 -18 -32 -56 -32 -118c0 -78 7 -133 20 -166c14 -32 44 -52 91 -61v-169z" />
    <glyph glyph-name="Iotadieresis" unicode="&#x3aa;" horiz-adv-x="406" 
d="M99 0v697h208v-697h-208zM144 809c0 -65 -18 -80 -82 -80c-63 0 -81 15 -81 80c0 60 17 72 81 72s82 -12 82 -72zM344 881c64 0 81 -12 81 -72c0 -65 -18 -80 -81 -80c-33 0 -55 5 -66 15s-16 32 -16 65c0 60 17 72 82 72z" />
    <glyph glyph-name="Upsilondieresis" unicode="&#x3ab;" horiz-adv-x="820" 
d="M321 0v266c-48 57 -114 129 -197 216s-156 158 -217 215h298c89 -89 163 -171 223 -246c97 111 164 193 201 246h274c-129 -159 -254 -302 -374 -430v-267h-208zM367 809c0 -65 -18 -80 -82 -80c-63 0 -81 15 -81 80c0 60 17 72 81 72s82 -12 82 -72zM567 881
c64 0 81 -12 81 -72c0 -65 -18 -80 -81 -80c-33 0 -55 5 -66 15s-16 32 -16 65c0 60 17 72 82 72z" />
    <glyph glyph-name="alphatonos" unicode="&#x3ac;" horiz-adv-x="815" 
d="M314 529c71 0 121 -7 152 -21c31 -13 64 -42 99 -86c15 30 27 61 34 92h192c-35 -90 -76 -170 -125 -241c12 -64 56 -105 121 -105l-44 -182c-58 0 -102 6 -132 17c-29 12 -55 36 -78 72c-69 -77 -83 -86 -219 -89c-92 0 -158 21 -199 62c-41 42 -61 114 -61 215
s21 170 64 208c43 39 108 58 196 58zM474 240c-22 53 -43 89 -64 108s-48 29 -81 29c-32 0 -53 -7 -63 -22s-15 -50 -15 -107c0 -45 5 -74 15 -89s31 -22 63 -22c31 0 55 7 74 20c19 14 42 42 71 83zM293 560l-29 162h177l-40 -162h-108z" />
    <glyph glyph-name="epsilontonos" unicode="&#x3ad;" horiz-adv-x="647" 
d="M358 327h86v-129h-86c-43 0 -71 -2 -82 -5s-17 -10 -17 -23s7 -21 20 -26c13 -4 44 -6 92 -6c59 0 130 9 215 28l31 -159c-111 -14 -195 -21 -252 -21c-123 0 -207 10 -252 30c-45 21 -68 60 -68 118c0 87 43 129 151 134c-101 7 -137 36 -137 113c0 57 21 95 63 116
s123 32 243 32c45 0 83 -2 120 -6l44 -5c10 -1 25 -4 46 -8l40 -6l-32 -153c-59 18 -130 27 -213 27c-43 0 -71 -2 -83 -5c-11 -3 -17 -11 -17 -22c0 -19 17 -24 88 -24zM308 560l-29 162h177l-40 -162h-108z" />
    <glyph glyph-name="etatonos" unicode="&#x3ae;" horiz-adv-x="759" 
d="M269 455c72 51 133 74 226 74c67 0 116 -17 146 -50s45 -91 45 -176v-495h-198v481c0 41 -28 61 -84 61c-53 0 -92 -6 -115 -19v-331h-195v306c0 55 -13 71 -74 71l15 152c81 0 137 -5 169 -15c32 -9 54 -29 65 -59zM323 560l-29 162h177l-40 -162h-108z" />
    <glyph glyph-name="iotatonos" unicode="&#x3af;" horiz-adv-x="369" 
d="M82 514h198v-311c0 -27 19 -38 74 -38l-28 -179c-95 0 -144 7 -187 35s-57 78 -57 166v327zM127 560l-29 162h177l-40 -162h-108z" />
    <glyph glyph-name="upsilondieresistonos" unicode="&#x3b0;" horiz-adv-x="747" 
d="M332 560l-15 162h140l-26 -162h-99zM208 706c61 0 78 -12 78 -72c0 -65 -17 -80 -78 -80c-60 0 -77 15 -77 80c0 60 17 72 77 72zM564 706c60 0 77 -12 77 -72c0 -65 -17 -80 -77 -80c-61 0 -78 13 -78 80c0 60 15 72 78 72zM19 350l28 179c176 0 242 -33 242 -125v-161
c0 -40 5 -66 15 -78s35 -18 76 -18s67 6 79 18c12 13 18 38 18 75v274h197v-285c0 -89 -22 -152 -67 -189c-45 -36 -120 -54 -227 -54c-112 0 -188 17 -228 52s-60 100 -60 193v75c0 29 -24 44 -73 44z" />
    <glyph glyph-name="alpha" unicode="&#x3b1;" horiz-adv-x="815" 
d="M314 529c71 0 121 -7 152 -21c31 -13 64 -42 99 -86c15 30 27 61 34 92h192c-35 -90 -76 -170 -125 -241c12 -64 56 -105 121 -105l-44 -182c-58 0 -102 6 -132 17c-29 12 -55 36 -78 72c-69 -77 -83 -86 -219 -89c-92 0 -158 21 -199 62c-41 42 -61 114 -61 215
s21 170 64 208c43 39 108 58 196 58zM474 240c-22 53 -43 89 -64 108s-48 29 -81 29c-32 0 -53 -7 -63 -22s-15 -50 -15 -107c0 -45 5 -74 15 -89s31 -22 63 -22c31 0 55 7 74 20c19 14 42 42 71 83z" />
    <glyph glyph-name="beta" unicode="&#x3b2;" horiz-adv-x="849" 
d="M419 714c133 0 225 -14 278 -41s80 -75 80 -144c0 -53 -13 -93 -38 -119s-71 -41 -138 -46c140 -8 192 -63 192 -179c0 -73 -26 -125 -78 -155c-52 -29 -142 -44 -269 -44c-64 0 -119 4 -166 13v-191h-198v710c0 147 110 196 337 196zM280 483v-328
c59 -9 119 -14 180 -14c92 0 115 16 115 67c0 32 -7 53 -21 62c-14 10 -44 15 -91 15h-52v146h45c49 0 79 4 92 13s19 26 19 51c0 24 -10 40 -30 47c-19 8 -59 12 -119 12c-57 0 -94 -6 -112 -17c-17 -11 -26 -29 -26 -54z" />
    <glyph glyph-name="gamma" unicode="&#x3b3;" horiz-adv-x="622" 
d="M404 -30c17 -44 27 -98 28 -162h-288c8 63 22 117 43 164c-65 185 -137 365 -216 542h202c55 -121 102 -243 140 -364c63 155 107 277 132 364h197c-75 -199 -154 -381 -238 -544z" />
    <glyph glyph-name="delta" unicode="&#x3b4;" horiz-adv-x="768" 
d="M383 -14c-123 0 -208 15 -256 46s-72 92 -72 181s32 152 96 189c-52 18 -78 61 -78 128c0 129 86 184 301 184c129 0 238 -10 327 -31l-42 -165c-75 26 -171 39 -287 39c-82 0 -97 -12 -97 -29c0 -11 7 -19 21 -23s44 -7 90 -10c128 -7 199 -20 254 -57
c55 -36 73 -94 73 -191c0 -98 -25 -166 -74 -204s-135 -57 -256 -57zM369 344c-47 -10 -78 -23 -94 -40c-16 -16 -24 -41 -24 -75c0 -43 9 -71 26 -84c18 -13 53 -19 106 -19c55 0 91 7 108 22s25 46 25 91c0 37 -11 62 -32 77s-60 24 -115 28z" />
    <glyph glyph-name="epsilon" unicode="&#x3b5;" horiz-adv-x="647" 
d="M358 327h86v-129h-86c-43 0 -71 -2 -82 -5s-17 -10 -17 -23s7 -21 20 -26c13 -4 44 -6 92 -6c59 0 130 9 215 28l31 -159c-111 -14 -195 -21 -252 -21c-123 0 -207 10 -252 30c-45 21 -68 60 -68 118c0 87 43 129 151 134c-101 7 -137 36 -137 113c0 57 21 95 63 116
s123 32 243 32c45 0 83 -2 120 -6l44 -5c10 -1 25 -4 46 -8l40 -6l-32 -153c-59 18 -130 27 -213 27c-43 0 -71 -2 -83 -5c-11 -3 -17 -11 -17 -22c0 -19 17 -24 88 -24z" />
    <glyph glyph-name="zeta" unicode="&#x3b6;" horiz-adv-x="707" 
d="M365 528h-320v169h632v-159c-135 -74 -232 -129 -289 -166c-57 -36 -92 -63 -106 -82c-14 -18 -21 -40 -21 -67c0 -28 10 -45 29 -52c20 -7 68 -11 145 -12c149 -3 202 -45 202 -144c0 -73 -23 -142 -69 -207h-198c39 62 58 108 58 137c0 21 -6 35 -18 41
c-16 8 -67 13 -153 14c-75 1 -127 14 -156 39s-44 73 -44 145c0 27 1 49 2 64c3 32 16 76 41 103c41 46 117 103 265 177z" />
    <glyph glyph-name="eta" unicode="&#x3b7;" horiz-adv-x="759" 
d="M269 455c72 51 133 74 226 74c67 0 116 -17 146 -50s45 -91 45 -176v-495h-198v481c0 41 -28 61 -84 61c-53 0 -92 -6 -115 -19v-331h-195v306c0 55 -13 71 -74 71l15 152c81 0 137 -5 169 -15c32 -9 54 -29 65 -59z" />
    <glyph glyph-name="theta" unicode="&#x3b8;" horiz-adv-x="770" 
d="M720 358c0 -138 -27 -235 -82 -290c-54 -55 -138 -82 -253 -82s-199 27 -254 82c-54 55 -81 152 -81 290c0 139 27 231 86 284c60 53 134 72 249 72s189 -19 248 -72c60 -53 87 -145 87 -284zM386 158c53 0 88 8 105 24s26 54 27 113h-264c2 -59 11 -97 28 -113
s51 -24 104 -24zM386 544c-51 0 -85 -7 -102 -22s-27 -48 -29 -100h263c-3 52 -13 85 -30 100s-51 22 -102 22z" />
    <glyph glyph-name="iota" unicode="&#x3b9;" horiz-adv-x="369" 
d="M82 514h198v-311c0 -27 19 -38 74 -38l-28 -179c-95 0 -144 7 -187 35s-57 78 -57 166v327z" />
    <glyph glyph-name="kappa" unicode="&#x3ba;" horiz-adv-x="780" 
d="M82 514h198v-231c85 67 161 144 228 231h255c-37 -50 -113 -124 -229 -222c74 -61 156 -159 246 -292h-256c-42 64 -86 123 -133 176l-111 -84v-92h-198v514z" />
    <glyph glyph-name="lambda" unicode="&#x3bb;" horiz-adv-x="634" 
d="M71 562l29 152c59 0 105 -1 138 -4s64 -9 93 -20c60 -21 87 -60 111 -129c77 -228 148 -415 213 -561h-208c-52 120 -94 239 -125 358c-54 -101 -102 -221 -143 -358h-196c8 24 17 48 26 73c20 51 48 113 65 152c9 20 22 46 38 79l34 71c7 15 20 40 39 77l34 68
c-19 35 -61 42 -148 42z" />
    <glyph glyph-name="nu" unicode="&#x3bd;" horiz-adv-x="622" 
d="M-19 484l182 59c27 -51 54 -113 82 -186c28 -72 51 -141 68 -207c63 155 107 277 132 364h197c-73 -193 -147 -364 -224 -514h-240c-61 174 -127 335 -197 484z" />
    <glyph glyph-name="xi" unicode="&#x3be;" horiz-adv-x="717" 
d="M281 180c0 -16 1 -21 32 -28c31 -5 76 -6 180 -9c100 -3 155 -35 155 -126c0 -74 -23 -144 -69 -209h-198c41 65 58 103 58 148c-4 41 -4 43 -127 47c-100 2 -164 10 -192 25s-42 49 -42 103c0 77 49 122 157 159c-97 0 -129 24 -129 91c0 41 13 73 40 94s80 39 159 53
h-239v169h624v-151c-129 -32 -221 -58 -269 -74c-76 -25 -84 -41 -84 -53c0 -11 8 -19 23 -23c23 -5 111 -8 266 -8v-115c-183 -29 -288 -49 -314 -58c-19 -11 -30 -23 -31 -35z" />
    <glyph glyph-name="omicron" unicode="&#x3bf;" 
d="M360 -14c-106 0 -184 20 -233 60c-49 41 -74 112 -74 214c0 101 25 171 74 210c50 39 128 59 233 59c107 0 185 -20 234 -59c50 -39 75 -109 75 -210c0 -102 -25 -173 -75 -214c-49 -40 -127 -60 -234 -60zM251 257c0 -57 7 -93 21 -108s43 -23 88 -23s74 8 88 23
s21 51 21 108c0 58 -7 94 -21 109c-13 15 -43 23 -88 23s-75 -8 -89 -23c-13 -15 -20 -51 -20 -109z" />
    <glyph glyph-name="pi" unicode="&#x3c0;" horiz-adv-x="825" 
d="M497 187v160h-174v-347h-198v347h-105v167h781v-167h-106v-144c0 -28 10 -38 54 -38l-28 -179c-87 0 -147 14 -178 42s-46 81 -46 159z" />
    <glyph glyph-name="rho" unicode="&#x3c1;" horiz-adv-x="737" 
d="M280 298v-132c0 -15 44 -29 97 -29c47 0 76 7 89 21c13 15 20 45 20 90c0 58 -7 94 -20 108s-45 21 -95 21c-68 0 -91 -22 -91 -79zM280 -192h-198v499c0 56 20 106 61 150c43 44 124 72 232 72c112 0 191 -19 238 -56s70 -107 70 -210c0 -200 -75 -277 -228 -277
c-65 0 -123 12 -175 36v-214z" />
    <glyph glyph-name="sigma" unicode="&#x3c3;" horiz-adv-x="769" 
d="M360 -14c-106 0 -184 20 -233 60c-49 41 -74 112 -74 214c0 101 25 171 74 210c50 39 128 59 233 59c11 0 30 -1 59 -4c57 -4 178 -11 350 -11v-132h-122c15 -41 22 -81 22 -122c0 -102 -25 -173 -75 -214c-49 -40 -127 -60 -234 -60zM251 257c0 -57 7 -93 21 -108
s43 -23 88 -23s74 8 88 23s21 51 21 108c0 58 -7 94 -21 109c-13 15 -43 23 -88 23s-75 -8 -89 -23c-13 -15 -20 -51 -20 -109z" />
    <glyph glyph-name="tau" unicode="&#x3c4;" horiz-adv-x="644" 
d="M214 187v160h-206v167h628v-167h-224v-144c0 -27 19 -38 74 -38l-28 -179c-95 0 -144 7 -187 35s-57 78 -57 166z" />
    <glyph glyph-name="upsilon" unicode="&#x3c5;" horiz-adv-x="747" 
d="M19 350l28 179c176 0 242 -33 242 -125v-161c0 -40 5 -66 15 -78s35 -18 76 -18s67 6 79 18c12 13 18 38 18 75v274h197v-285c0 -89 -22 -152 -67 -189c-45 -36 -120 -54 -227 -54c-112 0 -188 17 -228 52s-60 100 -60 193v75c0 29 -24 44 -73 44z" />
    <glyph glyph-name="phi" unicode="&#x3c6;" horiz-adv-x="1014" 
d="M613 -14v-178h-198v178c-151 1 -245 22 -301 69c-56 48 -74 108 -74 205c0 65 10 115 30 152c41 73 146 114 345 117v193h198v-193c151 -1 245 -21 301 -68c56 -45 75 -105 75 -201c0 -65 -10 -116 -31 -154c-40 -75 -146 -117 -345 -120zM238 257c0 -51 11 -84 32 -99
c22 -15 70 -23 145 -24v247c-75 0 -123 -8 -145 -23c-21 -15 -32 -49 -32 -101zM790 257c0 51 -11 85 -33 100c-21 16 -69 24 -144 24v-247c74 0 122 8 144 24s33 49 33 99z" />
    <glyph glyph-name="chi" unicode="&#x3c7;" horiz-adv-x="666" 
d="M463 514h203c-51 -93 -124 -214 -219 -362c46 -69 82 -116 108 -139c27 -23 59 -35 98 -37l-42 -179c-58 0 -105 13 -140 38s-80 75 -133 152c-47 -69 -89 -129 -127 -179h-211l232 332c-56 81 -98 136 -126 165s-58 44 -89 45l42 179c59 0 106 -13 140 -40
c35 -26 83 -86 144 -179c51 79 91 147 120 204z" />
    <glyph glyph-name="psi" unicode="&#x3c8;" horiz-adv-x="1014" 
d="M40 260c0 52 3 105 9 158s13 91 21 112l191 -35c-19 -47 -29 -118 -29 -215c0 -50 12 -83 35 -98c24 -15 71 -23 141 -24v564h197v-563c69 1 116 9 140 24s36 48 36 97c0 97 -10 168 -29 215l191 35c8 -21 15 -59 21 -113c7 -53 10 -106 10 -157
c0 -101 -28 -170 -83 -209s-151 -59 -286 -62v-181h-197v181c-135 2 -231 22 -286 61s-82 109 -82 210z" />
    <glyph glyph-name="omega" unicode="&#x3c9;" horiz-adv-x="1004" 
d="M406 417h192v-161c0 -35 5 -58 16 -70s34 -18 71 -18c39 0 64 5 73 14c10 9 15 34 15 75c0 112 -10 191 -29 238l189 35c8 -21 15 -59 21 -113c7 -53 10 -106 10 -157c0 -187 -70 -274 -246 -274c-72 0 -123 9 -153 28c-29 19 -50 53 -63 103c-13 -50 -34 -84 -64 -103
c-29 -19 -80 -28 -152 -28c-176 0 -246 87 -246 274c0 51 3 104 9 157c7 54 14 92 22 113l189 -35c-19 -47 -29 -126 -29 -238c0 -41 5 -66 14 -75s34 -14 74 -14c37 0 60 6 71 18s16 35 16 70v161z" />
    <glyph glyph-name="iotadieresis" unicode="&#x3ca;" horiz-adv-x="369" 
d="M121 634c0 -65 -18 -80 -82 -80c-63 0 -81 15 -81 80c0 60 17 72 81 72s82 -12 82 -72zM321 706c64 0 81 -12 81 -72c0 -65 -18 -80 -81 -80c-33 0 -55 5 -66 15s-16 32 -16 65c0 60 17 72 82 72zM82 514h198v-311c0 -27 19 -38 74 -38l-28 -179c-95 0 -144 7 -187 35
s-57 78 -57 166v327z" />
    <glyph glyph-name="upsilondieresis" unicode="&#x3cb;" horiz-adv-x="747" 
d="M19 350l28 179c176 0 242 -33 242 -125v-161c0 -40 5 -66 15 -78s35 -18 76 -18s67 6 79 18c12 13 18 38 18 75v274h197v-285c0 -89 -22 -152 -67 -189c-45 -36 -120 -54 -227 -54c-112 0 -188 17 -228 52s-60 100 -60 193v75c0 29 -24 44 -73 44zM319 634
c0 -65 -18 -80 -82 -80c-63 0 -81 15 -81 80c0 60 17 72 81 72s82 -12 82 -72zM519 706c64 0 81 -12 81 -72c0 -65 -18 -80 -81 -80c-33 0 -55 5 -66 15s-16 32 -16 65c0 60 17 72 82 72z" />
    <glyph glyph-name="omicrontonos" unicode="&#x3cc;" 
d="M360 -14c-106 0 -184 20 -233 60c-49 41 -74 112 -74 214c0 101 25 171 74 210c50 39 128 59 233 59c107 0 185 -20 234 -59c50 -39 75 -109 75 -210c0 -102 -25 -173 -75 -214c-49 -40 -127 -60 -234 -60zM251 257c0 -57 7 -93 21 -108s43 -23 88 -23s74 8 88 23
s21 51 21 108c0 58 -7 94 -21 109c-13 15 -43 23 -88 23s-75 -8 -89 -23c-13 -15 -20 -51 -20 -109zM304 560l-29 162h177l-40 -162h-108z" />
    <glyph glyph-name="upsilontonos" unicode="&#x3cd;" horiz-adv-x="747" 
d="M19 350l28 179c176 0 242 -33 242 -125v-161c0 -40 5 -66 15 -78s35 -18 76 -18s67 6 79 18c12 13 18 38 18 75v274h197v-285c0 -89 -22 -152 -67 -189c-45 -36 -120 -54 -227 -54c-112 0 -188 17 -228 52s-60 100 -60 193v75c0 29 -24 44 -73 44zM320 560l-29 162h177
l-40 -162h-108z" />
    <glyph glyph-name="omegatonos" unicode="&#x3ce;" horiz-adv-x="1004" 
d="M406 417h192v-161c0 -35 5 -58 16 -70s34 -18 71 -18c39 0 64 5 73 14c10 9 15 34 15 75c0 112 -10 191 -29 238l189 35c8 -21 15 -59 21 -113c7 -53 10 -106 10 -157c0 -187 -70 -274 -246 -274c-72 0 -123 9 -153 28c-29 19 -50 53 -63 103c-13 -50 -34 -84 -64 -103
c-29 -19 -80 -28 -152 -28c-176 0 -246 87 -246 274c0 51 3 104 9 157c7 54 14 92 22 113l189 -35c-19 -47 -29 -126 -29 -238c0 -41 5 -66 14 -75s34 -14 74 -14c37 0 60 6 71 18s16 35 16 70v161zM430 560l-29 162h177l-40 -162h-108z" />
    <glyph glyph-name="afii10023" unicode="&#x401;" horiz-adv-x="771" 
d="M355 809c0 -65 -18 -80 -82 -80c-63 0 -81 15 -81 80c0 60 17 72 81 72s82 -12 82 -72zM555 881c64 0 81 -12 81 -72c0 -65 -18 -80 -81 -80c-33 0 -55 5 -66 15s-16 32 -16 65c0 60 17 72 82 72zM99 0v697h644v-168h-436v-88h314v-165h-314v-108h436v-168h-644z" />
    <glyph glyph-name="afii10051" unicode="&#x402;" horiz-adv-x="962" 
d="M793 697v-168h-290v-114c70 23 132 34 186 34c59 0 96 -6 135 -30c55 -32 85 -107 85 -250c0 -203 -62 -317 -154 -360l-173 114c41 22 70 50 88 84c19 34 28 85 28 154c0 54 -8 89 -24 104c-15 15 -43 23 -84 23c-56 0 -85 -6 -87 -17v-271h-210v529h-291v168h791z" />
    <glyph glyph-name="afii10052" unicode="&#x403;" horiz-adv-x="676" 
d="M307 529v-529h-208v697h612v-168h-404zM644 876l-198 -129h-171l158 129h211z" />
    <glyph glyph-name="afii10053" unicode="&#x404;" horiz-adv-x="762" 
d="M292 441h317v-165h-319c9 -48 30 -79 63 -93c34 -13 95 -20 182 -20c60 0 116 6 167 17l33 -170c-86 -16 -172 -24 -257 -24c-145 0 -251 27 -319 82c-67 55 -101 150 -101 287c0 141 34 234 107 287c75 53 168 72 313 72c87 0 173 -9 258 -26l-33 -166
c-51 11 -107 17 -168 17c-86 0 -146 -6 -179 -18c-33 -11 -54 -38 -64 -80z" />
    <glyph glyph-name="afii10054" unicode="&#x405;" horiz-adv-x="759" 
d="M706 685l-33 -171c-83 17 -165 25 -246 25c-67 0 -110 -3 -129 -9s-29 -18 -29 -36c5 -38 12 -40 179 -58c191 -19 273 -82 273 -215c0 -89 -29 -150 -86 -184s-158 -51 -301 -51c-121 0 -215 10 -282 29l36 172c72 -17 153 -26 242 -26c69 0 114 3 133 8
c19 6 29 19 29 38c-5 37 -9 41 -195 60c-175 16 -252 69 -252 197c0 89 30 153 91 192s158 58 293 58c121 0 213 -10 277 -29z" />
    <glyph glyph-name="afii10055" unicode="&#x406;" horiz-adv-x="406" 
d="M99 0v697h208v-697h-208z" />
    <glyph glyph-name="afii10056" unicode="&#x407;" horiz-adv-x="406" 
d="M143 809c0 -65 -18 -80 -82 -80c-63 0 -81 15 -81 80c0 60 17 72 81 72s82 -12 82 -72zM343 881c64 0 81 -12 81 -72c0 -65 -18 -80 -81 -80c-33 0 -55 5 -66 15s-16 32 -16 65c0 60 17 72 82 72zM99 0v697h208v-697h-208z" />
    <glyph glyph-name="afii10057" unicode="&#x408;" horiz-adv-x="583" 
d="M281 697h210l2 -505c0 -76 -34 -133 -89 -164c-55 -29 -117 -42 -190 -42c-83 0 -154 7 -213 22l36 167c32 -8 80 -12 144 -12c67 0 100 21 100 64v470z" />
    <glyph glyph-name="afii10058" unicode="&#x409;" horiz-adv-x="1385" 
d="M608 0v529h-230c-32 -363 -157 -543 -334 -543l-42 182c51 0 94 46 129 139s56 223 63 390h622v-205h302c71 0 126 -23 165 -69c39 -45 58 -103 58 -172c0 -167 -74 -251 -223 -251h-510zM1024 337h-208v-174h209c63 0 84 21 84 88c0 65 -26 86 -85 86z" />
    <glyph glyph-name="afii10059" unicode="&#x40a;" horiz-adv-x="1405" 
d="M628 323h-321v-323h-208v697h208v-212h321v212h209v-213h301c71 0 126 -23 165 -68s58 -102 58 -171c0 -159 -66 -245 -223 -245h-510v323zM1044 323h-207v-160h208c64 0 85 17 85 82c0 64 -25 78 -86 78z" />
    <glyph glyph-name="afii10060" unicode="&#x40b;" horiz-adv-x="969" 
d="M896 222v-222h-198v214c0 49 -36 74 -108 74c-56 0 -85 -6 -87 -17v-271h-210v529h-291v168h791v-168h-290v-119c65 26 127 39 186 39c65 0 107 -9 147 -40s60 -92 60 -187z" />
    <glyph glyph-name="afii10061" unicode="&#x40c;" horiz-adv-x="873" 
d="M895 0h-256c-46 118 -93 199 -142 243c-48 44 -111 69 -190 76v-319h-208v697h208v-352c94 75 196 192 307 352h257c-114 -157 -198 -261 -253 -312c45 -16 78 -36 126 -89s99 -153 151 -296zM726 876l-198 -129h-171l158 129h211z" />
    <glyph glyph-name="afii10062" unicode="&#x40e;" horiz-adv-x="820" 
d="M419 362c71 114 131 226 180 335h254c-56 -112 -124 -232 -204 -359s-157 -239 -231 -338h-285c55 57 106 119 153 184h1c-36 71 -86 157 -149 260s-121 187 -172 253h268c62 -89 124 -200 185 -335zM225 871h114c0 -36 24 -46 85 -46c59 0 84 10 84 46h104
c0 -99 -66 -138 -194 -138c-129 0 -193 46 -193 138z" />
    <glyph glyph-name="afii10145" unicode="&#x40f;" horiz-adv-x="934" 
d="M835 697v-697h-279l-27 -192h-122l-27 192h-281v697h208v-519h321v519h207z" />
    <glyph glyph-name="afii10017" unicode="&#x410;" horiz-adv-x="854" 
d="M268 697h339c37 -101 85 -218 144 -353c59 -134 113 -249 161 -344h-238c-16 31 -37 76 -62 134h-375c-8 -21 -23 -66 -46 -134h-231c32 89 79 204 141 344c63 140 118 258 167 353zM456 529h-64c-29 -63 -60 -140 -94 -230h244c-33 82 -62 159 -86 230z" />
    <glyph glyph-name="afii10018" unicode="&#x411;" horiz-adv-x="902" 
d="M307 163h230c48 0 63 13 63 57c0 48 -16 61 -68 61h-225v-118zM99 697h675v-168h-467v-93h302c137 0 220 -71 220 -218c0 -83 -19 -140 -56 -171s-91 -47 -164 -47h-510v697z" />
    <glyph glyph-name="afii10019" unicode="&#x412;" horiz-adv-x="903" 
d="M307 163h230c42 0 63 19 63 57c0 45 -24 61 -68 61h-225v-118zM534 534h-227v-98h227c36 0 53 8 53 48c0 39 -18 50 -53 50zM638 364c75 -3 125 -18 151 -46c27 -28 40 -72 40 -133c0 -136 -77 -185 -220 -185h-510v697h510c79 0 133 -13 162 -39c29 -25 44 -68 44 -129
c0 -55 -12 -95 -37 -121c-24 -25 -71 -40 -140 -44z" />
    <glyph glyph-name="afii10020" unicode="&#x413;" horiz-adv-x="676" 
d="M307 529v-529h-208v697h612v-168h-404z" />
    <glyph glyph-name="afii10021" unicode="&#x414;" horiz-adv-x="1039" 
d="M275 697h609v-519h153l-29 -332h-182v154h-600v-154h-183l-30 332h147c69 191 108 364 115 519zM386 178h290v351h-211c-20 -135 -46 -252 -79 -351z" />
    <glyph glyph-name="afii10022" unicode="&#x415;" horiz-adv-x="771" 
d="M99 0v697h644v-168h-436v-88h314v-165h-314v-108h436v-168h-644z" />
    <glyph glyph-name="afii10024" unicode="&#x416;" horiz-adv-x="1315" 
d="M234 0h-256c52 144 102 242 149 295c48 55 81 74 128 90c-36 31 -133 145 -253 312h257c89 -130 187 -248 294 -355v355h209v-355c107 107 205 225 294 355h257c-121 -168 -218 -283 -254 -312c48 -16 81 -37 128 -90c48 -53 98 -152 150 -295h-257
c-47 120 -93 202 -138 247s-105 70 -180 77v-324h-209v324c-76 -7 -137 -32 -182 -77s-90 -127 -137 -247z" />
    <glyph glyph-name="afii10025" unicode="&#x417;" horiz-adv-x="793" 
d="M375 276h-146v165h140c81 0 105 7 105 47c-4 43 -22 49 -182 51c-102 0 -172 -4 -210 -13l-33 166c85 15 187 22 308 22c128 0 217 -14 268 -41s76 -75 76 -144c0 -53 -13 -93 -38 -119s-71 -41 -138 -46c141 -8 194 -63 194 -179c0 -73 -28 -124 -84 -154
s-149 -45 -278 -45c-122 0 -225 7 -310 20l33 170c37 -9 107 -13 212 -13c168 2 191 9 195 56c0 45 -29 57 -112 57z" />
    <glyph glyph-name="afii10026" unicode="&#x418;" horiz-adv-x="1009" 
d="M645 697h265v-697h-204v455c-126 -184 -234 -336 -324 -455h-283v697h203v-470c147 195 262 351 343 470z" />
    <glyph glyph-name="afii10027" unicode="&#x419;" horiz-adv-x="1009" 
d="M645 697h265v-697h-204v455c-126 -184 -234 -336 -324 -455h-283v697h203v-470c147 195 262 351 343 470zM305 871h114c0 -36 24 -46 85 -46c59 0 84 10 84 46h104c0 -99 -66 -138 -194 -138c-129 0 -193 46 -193 138z" />
    <glyph glyph-name="afii10028" unicode="&#x41a;" horiz-adv-x="873" 
d="M895 0h-256c-46 118 -93 199 -142 243c-48 44 -111 69 -190 76v-319h-208v697h208v-352c94 75 196 192 307 352h257c-114 -157 -198 -261 -253 -312c45 -16 78 -36 126 -89s99 -153 151 -296z" />
    <glyph glyph-name="afii10029" unicode="&#x41b;" horiz-adv-x="914" 
d="M608 0v529h-226c-32 -362 -142 -543 -331 -543l-49 182c51 0 93 46 127 138c35 93 56 223 65 391h621v-697h-207z" />
    <glyph glyph-name="afii10030" unicode="&#x41c;" horiz-adv-x="1193" 
d="M608 314c51 105 121 232 212 383h274v-697h-200v472c-70 -119 -143 -259 -219 -420h-171c-78 177 -147 317 -206 420v-472h-199v697h289c77 -121 151 -249 220 -383z" />
    <glyph glyph-name="afii10031" unicode="&#x41d;" horiz-adv-x="934" 
d="M628 278h-321v-278h-208v697h208v-241h321v241h207v-697h-207v278z" />
    <glyph glyph-name="afii10032" unicode="&#x41e;" horiz-adv-x="962" 
d="M482 714c144 0 238 -19 313 -72s109 -145 109 -284c0 -138 -34 -235 -103 -290s-175 -82 -319 -82s-240 22 -315 78c-73 56 -109 153 -109 294c0 139 34 231 109 284s170 72 315 72zM482 161c48 0 83 1 106 4s43 12 58 27c31 31 33 69 33 164c0 30 -1 54 -2 71
c-3 36 -15 69 -30 82c-7 7 -19 13 -36 18c-33 9 -64 10 -129 10c-33 0 -58 -1 -77 -2c-37 -1 -75 -11 -90 -26c-7 -7 -14 -18 -20 -33c-11 -29 -12 -60 -12 -120c0 -32 1 -58 2 -77c3 -37 15 -72 30 -87c7 -7 19 -14 36 -19c33 -11 66 -12 131 -12z" />
    <glyph glyph-name="afii10033" unicode="&#x41f;" horiz-adv-x="934" 
d="M628 529h-321v-529h-208v697h736v-697h-207v529z" />
    <glyph glyph-name="afii10034" unicode="&#x420;" horiz-adv-x="854" 
d="M307 360h208c57 0 85 29 85 86c0 64 -28 88 -84 88h-209v-174zM307 205v-205h-208v697h510c149 0 223 -84 223 -251c0 -69 -20 -127 -59 -173c-39 -45 -93 -68 -164 -68h-302z" />
    <glyph glyph-name="afii10035" unicode="&#x421;" horiz-adv-x="710" 
d="M465 714c88 0 166 -7 235 -21l-23 -173c-43 11 -94 16 -155 16c-35 0 -62 -1 -82 -2c-40 -1 -87 -9 -107 -25c-34 -25 -50 -69 -50 -156c0 -69 11 -112 30 -140c10 -14 25 -24 46 -31c43 -13 82 -16 163 -16c63 0 114 5 154 15l23 -176c-68 -13 -146 -19 -234 -19
c-143 0 -237 22 -306 78s-101 150 -101 291s30 233 101 286c71 55 162 73 306 73z" />
    <glyph glyph-name="afii10036" unicode="&#x422;" horiz-adv-x="795" 
d="M503 529v-529h-210v529h-291v168h791v-168h-290z" />
    <glyph glyph-name="afii10037" unicode="&#x423;" horiz-adv-x="820" 
d="M419 362c71 114 131 226 180 335h254c-56 -112 -124 -232 -204 -359s-157 -239 -231 -338h-285c55 57 106 119 153 184h1c-36 71 -86 157 -149 260s-121 187 -172 253h268c62 -89 124 -200 185 -335z" />
    <glyph glyph-name="afii10038" unicode="&#x424;" horiz-adv-x="1060" 
d="M419 624v73h208v-73c308 -19 387 -81 390 -274c-4 -193 -82 -255 -390 -274v-76h-208v75c-305 19 -372 81 -376 275c3 192 73 257 376 274zM627 469v-239c67 1 100 6 128 14c41 19 43 44 45 106c0 44 -4 64 -16 84c-22 29 -61 31 -157 35zM419 230v238
c-72 -1 -117 -9 -136 -23c-19 -13 -28 -45 -28 -95s9 -82 28 -96s65 -22 136 -24z" />
    <glyph glyph-name="afii10039" unicode="&#x425;" horiz-adv-x="860" 
d="M299 352c-129 142 -238 257 -329 345h296c33 -34 92 -100 177 -198c52 60 102 126 149 198h278c-95 -117 -192 -232 -291 -343c145 -159 247 -277 306 -354h-280c-36 48 -91 114 -166 198c-89 -97 -152 -163 -187 -198h-280c79 79 188 197 327 352z" />
    <glyph glyph-name="afii10040" unicode="&#x426;" horiz-adv-x="991" 
d="M99 697h208v-519h321v519h207v-519h154l-29 -332h-182v154h-679v697z" />
    <glyph glyph-name="afii10041" unicode="&#x427;" horiz-adv-x="902" 
d="M595 417v280h209v-697h-209v210c-66 -19 -143 -29 -230 -29s-151 14 -210 50c-57 37 -90 107 -90 207v259h210v-255c0 -32 10 -54 30 -65c21 -11 62 -17 123 -17c121 0 167 18 167 57z" />
    <glyph glyph-name="afii10042" unicode="&#x428;" horiz-adv-x="1296" 
d="M990 697h207v-697h-1098v697h208v-519h237v519h209v-519h237v519z" />
    <glyph glyph-name="afii10043" unicode="&#x429;" horiz-adv-x="1353" 
d="M99 697h208v-519h237v519h209v-519h237v519h207v-519h154l-29 -332h-182v154h-1041v697z" />
    <glyph glyph-name="afii10044" unicode="&#x42a;" horiz-adv-x="939" 
d="M162 529h-135v168h344v-202h301c71 0 125 -23 164 -70c39 -46 59 -104 59 -174c0 -167 -74 -251 -223 -251h-510v529zM578 334h-207v-171h208c63 0 85 21 85 88c0 64 -26 83 -86 83z" />
    <glyph glyph-name="afii10045" unicode="&#x42b;" horiz-adv-x="1244" 
d="M515 334h-208v-171h209c63 0 84 21 84 88c0 64 -26 83 -85 83zM99 0v697h208v-202h302c71 0 125 -23 164 -70s59 -105 59 -174c0 -167 -74 -251 -223 -251h-510zM937 0v697h208v-697h-208z" />
    <glyph glyph-name="afii10046" unicode="&#x42c;" horiz-adv-x="876" 
d="M515 334h-208v-171h209c63 0 84 21 84 88c0 64 -26 83 -85 83zM99 0v697h208v-202h302c71 0 125 -23 164 -70s59 -105 59 -174c0 -167 -74 -251 -223 -251h-510z" />
    <glyph glyph-name="afii10047" unicode="&#x42d;" horiz-adv-x="762" 
d="M473 276h-319v165h317c-10 42 -32 69 -65 80c-33 12 -92 18 -178 18c-61 0 -117 -6 -168 -17l-33 166c85 17 171 26 258 26c145 0 239 -19 312 -72c75 -53 108 -146 108 -287c0 -137 -34 -232 -102 -287c-67 -55 -173 -82 -318 -82c-85 0 -171 8 -257 24l33 170
c51 -11 107 -17 167 -17c87 0 148 7 181 20c34 14 55 45 64 93z" />
    <glyph glyph-name="afii10048" unicode="&#x42e;" horiz-adv-x="1254" 
d="M842 714c116 0 194 -20 258 -72s96 -145 96 -284c0 -141 -32 -238 -96 -294c-63 -56 -143 -78 -258 -78c-105 0 -189 22 -250 67s-96 120 -106 225h-179v-278h-208v697h208v-241h180c13 95 50 162 110 200c61 39 142 58 245 58zM844 163c51 0 75 5 96 17
c33 26 35 70 37 178c0 88 -1 125 -24 152c-21 28 -45 29 -109 29s-89 -3 -113 -28s-28 -68 -28 -153c0 -91 4 -136 28 -164s50 -31 113 -31z" />
    <glyph glyph-name="afii10049" unicode="&#x42f;" horiz-adv-x="907" 
d="M380 386h220v148h-221c-49 0 -67 -20 -67 -75c0 -53 23 -73 68 -73zM269 295c-129 8 -193 74 -193 198c0 125 67 204 223 204h510v-697h-209v231h-131c-51 0 -89 -14 -113 -42s-51 -91 -82 -189h-248c49 127 87 201 126 241s66 50 117 54z" />
    <glyph glyph-name="afii10065" unicode="&#x430;" horiz-adv-x="704" 
d="M631 329v-306c-92 -25 -195 -37 -308 -37c-106 0 -177 11 -214 34c-36 23 -54 69 -54 136c0 71 20 115 64 138c45 23 93 29 173 29c30 0 81 -4 153 -12c-4 61 -11 69 -150 72c-64 0 -129 -7 -195 -21l-25 144c82 15 176 23 281 23c192 0 275 -53 275 -200zM445 129v69
c-31 3 -64 5 -99 5c-37 0 -61 -3 -72 -8c-10 -5 -15 -16 -15 -34c0 -36 11 -43 83 -43c31 0 65 4 103 11z" />
    <glyph glyph-name="afii10066" unicode="&#x431;" horiz-adv-x="714" 
d="M258 248c0 -51 7 -83 20 -97c13 -13 39 -20 78 -20c45 0 62 1 82 16c20 16 25 45 25 102c0 44 -7 72 -21 85s-43 19 -87 19c-41 0 -68 -7 -80 -20c-11 -13 -17 -42 -17 -85zM258 446c41 39 105 59 191 59c65 0 110 -12 150 -48c41 -35 62 -103 62 -203
c0 -102 -24 -172 -72 -211c-48 -38 -128 -57 -241 -57c-77 0 -126 7 -178 32c-73 39 -108 121 -111 290c0 171 25 265 74 323c16 19 37 34 64 45c53 23 105 31 190 36c115 7 196 17 243 30v-153c-49 -15 -125 -25 -228 -29c-107 -4 -137 -37 -144 -114z" />
    <glyph glyph-name="afii10067" unicode="&#x432;" horiz-adv-x="743" 
d="M280 132h154c36 0 52 7 52 32c0 28 -12 34 -52 34h-154v-66zM434 382h-154v-60h154c31 0 40 4 40 29s-9 31 -40 31zM529 268c63 -1 105 -12 128 -33s34 -54 34 -99c0 -100 -64 -136 -187 -136h-422v514h422c67 0 113 -10 138 -29s37 -50 37 -95c0 -41 -10 -70 -31 -89
s-60 -30 -119 -33z" />
    <glyph glyph-name="afii10068" unicode="&#x433;" horiz-adv-x="540" 
d="M538 358h-258v-358h-198v514h456v-156z" />
    <glyph glyph-name="afii10069" unicode="&#x434;" horiz-adv-x="881" 
d="M205 514h542v-358h132l-51 -310h-157v154h-460v-154h-158l-51 310h126c44 141 70 261 77 358zM548 358h-167c-4 -59 -18 -126 -42 -202h209v202z" />
    <glyph glyph-name="afii10070" unicode="&#x435;" horiz-adv-x="680" 
d="M568 157l31 -146c-65 -17 -144 -25 -237 -25c-206 0 -309 91 -309 274c0 99 25 168 76 208c51 41 124 61 219 61c104 0 165 -11 216 -47c52 -36 73 -102 73 -206c0 -27 -1 -52 -4 -77h-377c3 -52 34 -63 137 -63c59 0 118 7 175 21zM350 394c-67 0 -85 -15 -92 -64h184
c-1 52 -23 64 -92 64z" />
    <glyph glyph-name="afii10072" unicode="&#x436;" horiz-adv-x="1140" 
d="M239 0h-232c43 100 81 169 112 206c32 37 65 61 100 72c-19 15 -47 42 -85 83c-37 41 -77 92 -118 153h234c83 -129 156 -215 221 -260v260h198v-260c67 47 140 133 220 260h235c-41 -61 -81 -112 -119 -153c-37 -41 -65 -68 -84 -83c35 -11 68 -35 99 -72
c32 -37 69 -106 112 -206h-232c-37 77 -71 132 -103 163c-31 32 -74 53 -128 63v-226h-198v226c-55 -10 -98 -31 -129 -62s-66 -86 -103 -164z" />
    <glyph glyph-name="afii10073" unicode="&#x437;" horiz-adv-x="647" 
d="M289 198h-86v129h86c72 0 88 4 88 23c0 11 -6 19 -18 22c-11 4 -39 6 -82 6c-83 0 -154 -9 -213 -27l-32 153l40 6c21 4 36 7 46 8c34 5 101 11 164 11c84 0 147 -4 189 -12c85 -15 117 -50 117 -126c0 -80 -38 -116 -137 -123c108 -5 151 -47 151 -134
c0 -58 -23 -97 -68 -118c-45 -20 -129 -30 -252 -30c-57 0 -141 7 -252 21l31 159c85 -19 156 -28 215 -28c48 0 79 2 92 6c13 5 20 13 20 26s-6 20 -17 23s-39 5 -82 5z" />
    <glyph glyph-name="afii10074" unicode="&#x438;" horiz-adv-x="773" 
d="M82 514h198v-267c35 35 74 80 117 135c44 55 76 99 97 132h197v-514h-199v266c-100 -134 -171 -223 -212 -266h-198v514z" />
    <glyph glyph-name="afii10075" unicode="&#x439;" horiz-adv-x="773" 
d="M82 514h198v-267c35 35 74 80 117 135c44 55 76 99 97 132h197v-514h-199v266c-100 -134 -171 -223 -212 -266h-198v514zM189 697h113c0 -36 25 -46 86 -46c59 0 84 10 84 46h103c0 -99 -64 -148 -193 -148c-123 0 -193 48 -193 148z" />
    <glyph glyph-name="afii10076" unicode="&#x43a;" horiz-adv-x="764" 
d="M756 0h-234c-38 79 -74 135 -108 166c-34 32 -79 53 -134 63v-229h-198v514h198v-264c69 56 146 144 231 264h237c-95 -128 -175 -216 -204 -236c23 -7 43 -17 60 -31c36 -27 89 -107 152 -247z" />
    <glyph glyph-name="afii10077" unicode="&#x43b;" horiz-adv-x="756" 
d="M476 0v358h-155c-9 -92 -19 -151 -46 -219c-13 -34 -29 -61 -48 -82c-39 -41 -100 -71 -183 -71l-44 182c25 0 45 9 62 26c33 36 62 139 77 320h535v-514h-198z" />
    <glyph glyph-name="afii10078" unicode="&#x43c;" horiz-adv-x="1014" 
d="M511 255c43 84 91 170 146 259h275v-514h-195v332c-68 -112 -123 -215 -165 -308h-135c-32 83 -85 186 -159 308v-332h-196v514h289c46 -67 93 -154 140 -259z" />
    <glyph glyph-name="afii10079" unicode="&#x43d;" horiz-adv-x="756" 
d="M82 514h198v-172h196v172h198v-514h-198v186h-196v-186h-198v514z" />
    <glyph glyph-name="afii10080" unicode="&#x43e;" 
d="M360 -14c-106 0 -184 20 -233 60c-49 41 -74 112 -74 214c0 101 25 171 74 210c50 39 128 59 233 59c107 0 185 -20 234 -59c50 -39 75 -109 75 -210c0 -102 -25 -173 -75 -214c-49 -40 -127 -60 -234 -60zM251 257c0 -57 7 -93 21 -108s43 -23 88 -23s74 8 88 23
s21 51 21 108c0 58 -7 94 -21 109c-13 15 -43 23 -88 23s-75 -8 -89 -23c-13 -15 -20 -51 -20 -109z" />
    <glyph glyph-name="afii10081" unicode="&#x43f;" horiz-adv-x="756" 
d="M476 358h-196v-358h-198v514h592v-514h-198v358z" />
    <glyph glyph-name="afii10082" unicode="&#x440;" horiz-adv-x="737" 
d="M280 368v-202c0 -15 44 -29 97 -29c47 0 76 7 89 21c13 15 20 45 20 90c0 58 -7 94 -20 108s-45 21 -95 21c-31 0 -62 -3 -91 -9zM280 -192h-198v689c76 21 172 32 289 32c113 0 193 -19 240 -57c48 -37 72 -107 72 -209c0 -200 -75 -277 -228 -277
c-65 0 -123 12 -175 36v-214z" />
    <glyph glyph-name="afii10083" unicode="&#x441;" horiz-adv-x="572" 
d="M527 159l24 -151c-50 -15 -112 -22 -186 -22c-99 0 -176 21 -231 62c-54 42 -81 113 -81 212c0 101 31 173 88 213c59 40 128 56 224 56c77 0 139 -6 186 -19l-25 -153c-48 11 -94 16 -138 16c-57 0 -78 -1 -105 -17c-25 -15 -32 -44 -32 -99c0 -49 9 -81 28 -94
s55 -20 109 -20c56 0 102 5 139 16z" />
    <glyph glyph-name="afii10084" unicode="&#x442;" horiz-adv-x="591" 
d="M589 358h-194v-358h-199v358h-194v156h587v-156z" />
    <glyph glyph-name="afii10085" unicode="&#x443;" horiz-adv-x="622" 
d="M445 514h197c-88 -247 -199 -483 -334 -706h-225c38 52 74 107 107 166h1c-55 160 -129 340 -220 540h202c63 -139 110 -259 139 -361c56 127 100 247 133 361z" />
    <glyph glyph-name="afii10086" unicode="&#x444;" horiz-adv-x="1014" 
d="M613 -14v-178h-198v178c-151 1 -245 22 -301 69c-56 48 -74 108 -74 205c0 65 10 115 30 152c41 73 146 114 345 117v193h198v-193c151 -1 245 -21 301 -68c56 -45 75 -105 75 -201c0 -65 -10 -116 -31 -154c-40 -75 -146 -117 -345 -120zM238 257c0 -51 11 -84 32 -99
c22 -15 70 -23 145 -24v247c-75 0 -123 -8 -145 -23c-21 -15 -32 -49 -32 -101zM790 257c0 51 -11 85 -33 100c-21 16 -69 24 -144 24v-247c74 0 122 8 144 24s33 49 33 99z" />
    <glyph glyph-name="afii10087" unicode="&#x445;" horiz-adv-x="630" 
d="M438 514h222c-61 -77 -134 -161 -219 -253c65 -72 139 -159 221 -261h-225c-15 21 -52 65 -111 132c-35 -41 -77 -85 -127 -132h-226c80 77 162 162 245 256h1c-73 83 -153 169 -242 258h237c36 -37 75 -81 116 -132c39 45 75 89 108 132z" />
    <glyph glyph-name="afii10088" unicode="&#x446;" horiz-adv-x="848" 
d="M674 156h172l-53 -310h-156v154h-555v514h198v-358h196v358h198v-358z" />
    <glyph glyph-name="afii10089" unicode="&#x447;" horiz-adv-x="714" 
d="M40 370v144h199v-136c0 -49 36 -74 108 -74c58 0 87 6 87 19v191h198v-514h-198v182c-67 -26 -129 -39 -186 -39c-65 0 -107 9 -148 40c-40 31 -60 92 -60 187z" />
    <glyph glyph-name="afii10090" unicode="&#x448;" horiz-adv-x="1150" 
d="M869 514h199v-514h-986v514h198v-358h196v358h198v-358h195v358z" />
    <glyph glyph-name="afii10091" unicode="&#x449;" horiz-adv-x="1241" 
d="M1068 156h171l-52 -310h-156v154h-949v514h198v-358h196v358h198v-358h195v358h199v-358z" />
    <glyph glyph-name="afii10092" unicode="&#x44a;" horiz-adv-x="769" 
d="M306 347h224c115 0 186 -64 186 -176c0 -124 -66 -171 -186 -171h-423v358h-92v156h291v-167zM306 125h154c34 0 51 15 51 44c0 32 -11 44 -51 44h-154v-88z" />
    <glyph glyph-name="afii10093" unicode="&#x44b;" horiz-adv-x="1051" 
d="M280 125h154c35 0 52 14 52 43c0 32 -12 45 -52 45h-154v-88zM280 347h224c116 0 187 -64 187 -176c0 -124 -66 -171 -187 -171h-422v514h198v-167zM771 514h198v-514h-198v514z" />
    <glyph glyph-name="afii10094" unicode="&#x44c;" horiz-adv-x="743" 
d="M280 125h154c35 0 52 15 52 44c0 32 -12 44 -52 44h-154v-88zM280 347h224c116 0 187 -64 187 -176c0 -124 -66 -171 -187 -171h-422v514h198v-167z" />
    <glyph glyph-name="afii10095" unicode="&#x44d;" horiz-adv-x="578" 
d="M19 8l28 138c33 -9 83 -13 149 -13c41 0 71 4 88 13c18 9 30 26 37 53h-219v131h216c-16 43 -42 52 -122 52c-63 0 -112 -5 -148 -14l-29 142c47 13 122 19 224 19c143 1 283 -61 283 -269c0 -101 -33 -176 -90 -217c-56 -40 -121 -57 -204 -57c-93 0 -164 7 -213 22z
" />
    <glyph glyph-name="afii10096" unicode="&#x44e;" horiz-adv-x="1099" 
d="M737 -14c-184 0 -279 53 -302 200h-155v-186h-198v514h198v-172h156c27 139 122 187 301 187c107 0 185 -20 234 -59c50 -39 75 -109 75 -210c0 -102 -25 -173 -75 -214c-49 -40 -127 -60 -234 -60zM737 389c-45 0 -75 -8 -89 -23c-13 -15 -20 -51 -20 -109
c0 -57 7 -93 21 -108s43 -23 88 -23s74 8 88 23c15 15 22 51 22 108c-5 123 -19 129 -110 132z" />
    <glyph glyph-name="afii10097" unicode="&#x44f;" horiz-adv-x="779" 
d="M335 289h164v84h-164c-33 0 -46 -11 -46 -42c0 -28 15 -42 46 -42zM238 213c-119 8 -166 67 -166 150c0 92 59 151 192 151h433v-514h-198v150h-94c-40 0 -70 -10 -91 -30c-21 -19 -41 -59 -61 -120h-233c34 81 65 135 94 163s71 45 124 50z" />
    <glyph glyph-name="afii10071" unicode="&#x451;" horiz-adv-x="680" 
d="M568 157l31 -146c-65 -17 -144 -25 -237 -25c-206 0 -309 91 -309 274c0 99 25 168 76 208c51 41 124 61 219 61c104 0 165 -11 216 -47c52 -36 73 -102 73 -206c0 -27 -1 -52 -4 -77h-377c3 -52 34 -63 137 -63c59 0 118 7 175 21zM350 394c-67 0 -85 -15 -92 -64h184
c-1 52 -23 64 -92 64zM294 634c0 -65 -18 -80 -82 -80c-63 0 -81 15 -81 80c0 60 17 72 81 72s82 -12 82 -72zM494 706c64 0 81 -12 81 -72c0 -65 -18 -80 -81 -80c-33 0 -55 5 -66 15s-16 32 -16 65c0 60 17 72 82 72z" />
    <glyph glyph-name="afii10099" unicode="&#x452;" horiz-adv-x="740" 
d="M386 567h-106v-100c61 26 123 39 186 39c73 0 120 -14 160 -55c41 -40 61 -118 61 -235c0 -103 -15 -192 -45 -265c-29 -74 -66 -121 -109 -142l-173 114c77 42 116 137 116 285c0 54 -8 89 -24 104c-15 15 -44 23 -85 23c-48 0 -87 -12 -87 -33v-302h-198v567h-50v122
h50v33h198v-33h106v-122z" />
    <glyph glyph-name="afii10100" unicode="&#x453;" horiz-adv-x="540" 
d="M538 358h-258v-358h-198v514h456v-156zM545 697l-198 -129h-170l157 129h211z" />
    <glyph glyph-name="afii10101" unicode="&#x454;" horiz-adv-x="578" 
d="M532 146l28 -138c-49 -15 -120 -22 -213 -22c-83 0 -148 17 -205 57c-56 41 -89 116 -89 217c0 208 140 270 283 269c102 0 177 -6 224 -19l-29 -142c-36 9 -85 14 -148 14c-80 0 -106 -9 -122 -52h216v-131h-219c7 -27 19 -44 36 -53c18 -9 48 -13 89 -13
c66 0 116 4 149 13z" />
    <glyph glyph-name="afii10102" unicode="&#x455;" horiz-adv-x="577" 
d="M313 529c81 0 154 -8 217 -23l-28 -142c-59 16 -127 24 -204 24c-57 0 -71 -3 -71 -28c0 -17 8 -24 120 -32c137 -11 198 -53 198 -160c0 -137 -94 -182 -279 -182c-88 0 -163 7 -224 22l29 143c45 -14 107 -21 185 -21c46 0 74 1 85 4s17 12 17 25c0 17 -18 26 -137 34
s-181 50 -181 155c0 69 22 116 67 142s113 39 206 39z" />
    <glyph glyph-name="afii10103" unicode="&#x456;" horiz-adv-x="360" 
d="M181 746c44 0 74 -5 89 -16c15 -10 23 -33 23 -68c0 -39 -8 -64 -24 -76c-15 -12 -45 -18 -88 -18c-44 0 -74 6 -90 18c-15 12 -23 37 -23 76c0 35 8 58 23 68c15 11 45 16 90 16zM280 514v-514h-198v514h198z" />
    <glyph glyph-name="afii10104" unicode="&#x457;" horiz-adv-x="360" 
d="M122 634c0 -65 -18 -80 -82 -80c-63 0 -81 15 -81 80c0 60 17 72 81 72s82 -12 82 -72zM322 706c64 0 81 -12 81 -72c0 -65 -18 -80 -81 -80c-33 0 -55 5 -66 15s-16 32 -16 65c0 60 17 72 82 72zM82 514h198v-514h-198v514z" />
    <glyph glyph-name="afii10105" unicode="&#x458;" horiz-adv-x="360" 
d="M181 746c44 0 74 -5 89 -16c15 -10 23 -33 23 -68c0 -39 -8 -64 -24 -76c-15 -12 -45 -18 -88 -18c-44 0 -74 6 -90 18c-15 12 -23 37 -23 76c0 35 8 58 23 68c15 11 45 16 90 16zM82 514h198v-507c0 -79 -19 -133 -57 -164s-109 -46 -214 -46c-11 0 -28 1 -51 2v146
c11 -1 28 -2 51 -2c49 0 73 19 73 58v513z" />
    <glyph glyph-name="afii10106" unicode="&#x459;" horiz-adv-x="1137" 
d="M476 0v358h-155c-9 -92 -19 -151 -46 -219c-13 -34 -29 -61 -48 -82c-39 -41 -100 -71 -183 -71l-44 182c25 0 45 9 62 26c33 36 62 139 77 320h535v-167h224c115 0 186 -64 186 -176c0 -124 -66 -171 -186 -171h-422zM674 125h154c35 0 52 15 52 44c0 31 -12 44 -52 44
h-154v-88z" />
    <glyph glyph-name="afii10107" unicode="&#x45a;" horiz-adv-x="1137" 
d="M674 347h224c115 0 186 -64 186 -176c0 -124 -66 -171 -186 -171h-422v213h-196v-213h-198v514h198v-167h196v167h198v-167zM674 125h154c35 0 52 15 52 45c0 31 -12 43 -52 43h-154v-88z" />
    <glyph glyph-name="afii10108" unicode="&#x45b;" horiz-adv-x="747" 
d="M82 567h-50v122h50v33h198v-33h106v-122h-106v-77c65 26 127 39 186 39c65 0 108 -9 148 -40s60 -92 60 -187v-302h-198v294c0 49 -36 74 -109 74c-49 0 -87 -10 -87 -29v-339h-198v567z" />
    <glyph glyph-name="afii10109" unicode="&#x45c;" horiz-adv-x="764" 
d="M756 0h-234c-38 79 -74 135 -108 166c-34 32 -79 53 -134 63v-229h-198v514h198v-264c69 56 146 144 231 264h237c-95 -128 -175 -216 -204 -236c23 -7 43 -17 60 -31c36 -27 89 -107 152 -247zM649 697l-198 -129h-170l157 129h211z" />
    <glyph glyph-name="afii10110" unicode="&#x45e;" horiz-adv-x="622" 
d="M445 514h197c-88 -247 -199 -483 -334 -706h-225c38 52 74 107 107 166h1c-55 160 -129 340 -220 540h202c63 -139 110 -259 139 -361c56 127 100 247 133 361zM115 697h113c0 -36 25 -46 86 -46c59 0 84 10 84 46h103c0 -99 -64 -148 -193 -148c-123 0 -193 48 -193 148
z" />
    <glyph glyph-name="afii10193" unicode="&#x45f;" horiz-adv-x="756" 
d="M82 514h198v-358h196v358h198v-514h-207l-27 -192h-122l-26 192h-210v514z" />
    <glyph glyph-name="afii10050" unicode="&#x490;" horiz-adv-x="676" 
d="M307 0h-208v697h435l54 192h123v-360h-404v-529z" />
    <glyph glyph-name="afii10098" unicode="&#x491;" horiz-adv-x="540" 
d="M82 0v514h305l53 183h98v-339h-258v-358h-198z" />
    <glyph glyph-name="Wgrave" unicode="&#x1e80;" horiz-adv-x="1298" 
d="M651 384c-38 -125 -83 -253 -136 -384h-280c-87 289 -170 521 -247 697h231c25 -59 56 -138 92 -239c36 -100 63 -182 81 -245c76 191 131 353 164 484h188c23 -59 54 -142 91 -247c38 -105 65 -184 81 -237c27 69 57 152 89 249s55 175 70 235h222
c-25 -87 -63 -200 -114 -339c-50 -139 -95 -259 -136 -358h-279c-33 133 -72 261 -117 384zM637 876l158 -129h-171l-198 129h211z" />
    <glyph glyph-name="wgrave" unicode="&#x1e81;" horiz-adv-x="1046" 
d="M515 270c-19 -75 -52 -165 -98 -270h-239c-57 159 -126 331 -207 514h202c63 -137 109 -255 140 -354c46 113 88 231 127 354h169c55 -132 98 -250 129 -354c63 153 107 271 132 354h196c-77 -201 -151 -373 -224 -514h-241c-15 57 -43 147 -86 270zM520 697l157 -129
h-170l-198 129h211z" />
    <glyph glyph-name="Wacute" unicode="&#x1e82;" horiz-adv-x="1298" 
d="M651 384c-38 -125 -83 -253 -136 -384h-280c-87 289 -170 521 -247 697h231c25 -59 56 -138 92 -239c36 -100 63 -182 81 -245c76 191 131 353 164 484h188c23 -59 54 -142 91 -247c38 -105 65 -184 81 -237c27 69 57 152 89 249s55 175 70 235h222
c-25 -87 -63 -200 -114 -339c-50 -139 -95 -259 -136 -358h-279c-33 133 -72 261 -117 384zM867 876l-198 -129h-171l158 129h211z" />
    <glyph glyph-name="wacute" unicode="&#x1e83;" horiz-adv-x="1046" 
d="M515 270c-19 -75 -52 -165 -98 -270h-239c-57 159 -126 331 -207 514h202c63 -137 109 -255 140 -354c46 113 88 231 127 354h169c55 -132 98 -250 129 -354c63 153 107 271 132 354h196c-77 -201 -151 -373 -224 -514h-241c-15 57 -43 147 -86 270zM737 697l-198 -129
h-170l157 129h211z" />
    <glyph glyph-name="Wdieresis" unicode="&#x1e84;" horiz-adv-x="1298" 
d="M651 384c-38 -125 -83 -253 -136 -384h-280c-87 289 -170 521 -247 697h231c25 -59 56 -138 92 -239c36 -100 63 -182 81 -245c76 191 131 353 164 484h188c23 -59 54 -142 91 -247c38 -105 65 -184 81 -237c27 69 57 152 89 249s55 175 70 235h222
c-25 -87 -63 -200 -114 -339c-50 -139 -95 -259 -136 -358h-279c-33 133 -72 261 -117 384zM598 809c0 -65 -18 -80 -82 -80c-63 0 -81 15 -81 80c0 60 17 72 81 72s82 -12 82 -72zM798 881c64 0 81 -12 81 -72c0 -65 -18 -80 -81 -80c-33 0 -55 5 -66 15s-16 32 -16 65
c0 60 17 72 82 72z" />
    <glyph glyph-name="wdieresis" unicode="&#x1e85;" horiz-adv-x="1046" 
d="M467 634c0 -65 -18 -80 -82 -80c-63 0 -81 15 -81 80c0 60 17 72 81 72s82 -12 82 -72zM667 706c64 0 81 -12 81 -72c0 -65 -18 -80 -81 -80c-33 0 -55 5 -66 15s-16 32 -16 65c0 60 17 72 82 72zM515 270c-19 -75 -52 -165 -98 -270h-239c-57 159 -126 331 -207 514h202
c63 -137 109 -255 140 -354c46 113 88 231 127 354h169c55 -132 98 -250 129 -354c63 153 107 271 132 354h196c-77 -201 -151 -373 -224 -514h-241c-15 57 -43 147 -86 270z" />
    <glyph glyph-name="Ygrave" unicode="&#x1ef2;" horiz-adv-x="820" 
d="M321 0v266c-48 57 -114 129 -197 216s-156 158 -217 215h298c89 -89 163 -171 223 -246c97 111 164 193 201 246h274c-129 -159 -254 -302 -374 -430v-267h-208zM407 876l158 -129h-171l-198 129h211z" />
    <glyph glyph-name="ygrave" unicode="&#x1ef3;" horiz-adv-x="622" 
d="M445 514h197c-88 -247 -199 -483 -334 -706h-225c38 52 74 107 107 166h1c-55 160 -129 340 -220 540h202c63 -139 110 -259 139 -361c56 127 100 247 133 361zM318 697l157 -129h-170l-198 129h211z" />
    <glyph glyph-name="endash" unicode="&#x2013;" horiz-adv-x="749" 
d="M689 200h-630v176h630v-176z" />
    <glyph glyph-name="emdash" unicode="&#x2014;" horiz-adv-x="1104" 
d="M1045 200h-986v176h986v-176z" />
    <glyph glyph-name="quoteleft" unicode="&#x2018;" horiz-adv-x="345" 
d="M217 505h-187l139 267h147z" />
    <glyph glyph-name="quoteright" unicode="&#x2019;" horiz-adv-x="345" 
d="M129 762h186l-138 -267h-147z" />
    <glyph glyph-name="quotesinglbase" unicode="&#x201a;" horiz-adv-x="319" 
d="M117 108h186l-139 -267h-146z" />
    <glyph glyph-name="quotedblleft" unicode="&#x201c;" horiz-adv-x="634" 
d="M217 505h-187l139 267h147zM504 505h-187l139 267h147z" />
    <glyph glyph-name="quotedblright" unicode="&#x201d;" horiz-adv-x="634" 
d="M418 764h186l-139 -267h-147zM131 764h186l-139 -267h-147z" />
    <glyph glyph-name="quotedblbase" unicode="&#x201e;" horiz-adv-x="634" 
d="M418 98h186l-139 -267h-147zM131 98h186l-139 -267h-147z" />
    <glyph glyph-name="dagger" unicode="&#x2020;" horiz-adv-x="571" 
d="M209 440h-169v147h169v133h151v-133h171v-147h-171v-203h-151v203z" />
    <glyph glyph-name="daggerdbl" unicode="&#x2021;" horiz-adv-x="571" 
d="M209 231h-169v147h169v62h-169v147h169v133h151v-133h171v-147h-171v-62h171v-147h-171v-133h-151v133z" />
    <glyph glyph-name="bullet" unicode="&#x2022;" 
d="M360 56c-106 0 -184 20 -233 60c-49 41 -74 112 -74 214c0 101 25 171 74 210c50 39 128 59 233 59c107 0 185 -20 234 -59c50 -39 75 -109 75 -210c0 -102 -25 -173 -75 -214c-49 -40 -127 -60 -234 -60z" />
    <glyph glyph-name="ellipsis" unicode="&#x2026;" horiz-adv-x="1330" 
d="M219 184c46 0 77 -6 93 -18c16 -11 24 -36 24 -74c0 -41 -8 -69 -24 -82s-47 -19 -93 -19c-45 0 -75 6 -91 19s-24 41 -24 82c0 38 8 63 24 74c16 12 46 18 91 18zM662 184c46 0 77 -6 93 -18c17 -11 25 -36 25 -74c0 -42 -8 -69 -25 -82c-16 -13 -47 -19 -93 -19
c-45 0 -75 6 -91 19s-24 41 -24 82c0 38 8 63 24 74c16 12 46 18 91 18zM1109 184c46 0 77 -6 93 -18c17 -11 25 -36 25 -74c0 -42 -8 -69 -25 -82c-16 -13 -47 -19 -93 -19c-45 0 -75 6 -91 19s-24 41 -24 82c0 38 8 63 24 74c16 12 46 18 91 18z" />
    <glyph glyph-name="perthousand" unicode="&#x2030;" horiz-adv-x="1875" 
d="M474 0h-231l586 697h233zM528 484c0 -91 -18 -154 -55 -189c-37 -34 -102 -51 -196 -51s-159 17 -196 51c-36 35 -54 98 -54 189c0 89 18 150 54 182s101 48 196 48s160 -16 196 -48c37 -32 55 -93 55 -182zM360 484c0 48 -5 78 -14 89c-9 12 -32 18 -69 18
s-60 -6 -70 -18c-9 -11 -14 -41 -14 -89c0 -51 5 -83 14 -96c10 -13 33 -19 70 -19s60 6 69 18c9 13 14 45 14 97zM1285 226c0 -91 -18 -154 -55 -189c-37 -34 -102 -51 -196 -51s-159 17 -196 51c-36 35 -54 98 -54 189c0 89 18 150 54 182s101 48 196 48s160 -16 196 -48
c37 -32 55 -93 55 -182zM1117 226c0 48 -5 78 -14 89c-9 12 -32 18 -69 18s-60 -6 -70 -18c-9 -11 -14 -41 -14 -89c0 -51 5 -83 14 -96c10 -13 33 -19 70 -19s60 6 69 18c9 13 14 45 14 97zM1848 226c0 -91 -18 -154 -55 -189c-37 -34 -102 -51 -196 -51s-159 17 -196 51
c-36 34 -54 97 -54 189c0 90 18 151 54 182c36 32 101 48 196 48s160 -16 196 -48c37 -32 55 -93 55 -182zM1597 111c37 0 60 6 69 18c9 13 14 45 14 97c0 48 -5 78 -14 89c-9 12 -32 18 -69 18s-61 -6 -71 -18c-9 -11 -14 -41 -14 -89c0 -51 5 -83 14 -96
c10 -13 34 -19 71 -19z" />
    <glyph glyph-name="guilsinglleft" unicode="&#x2039;" horiz-adv-x="498" 
d="M357 608l120 -94l-175 -187l174 -190l-119 -95l-336 283z" />
    <glyph glyph-name="guilsinglright" unicode="&#x203a;" horiz-adv-x="498" 
d="M141 42l-120 94l175 187l-174 190l119 95l336 -283z" />
    <glyph glyph-name="fraction" unicode="&#x2044;" horiz-adv-x="806" 
d="M15 0l612 697h181l-614 -697h-179z" />
    <glyph glyph-name="fraction" unicode="&#x2215;" horiz-adv-x="806" 
d="M15 0l612 697h181l-614 -697h-179z" />
    <glyph glyph-name="Euro" unicode="&#x20ac;" horiz-adv-x="731" 
d="M30 328h59v50h-75l20 111h66c17 85 54 143 112 176c59 33 147 49 264 49c88 0 166 -7 235 -21l-33 -170c-43 11 -103 16 -181 16c-112 0 -159 -9 -172 -50h233l-20 -111h-234v-50h224l-20 -111h-183c11 -44 58 -54 171 -54c78 0 138 5 181 16l33 -174
c-68 -13 -146 -19 -234 -19c-115 0 -202 17 -261 51c-59 35 -97 95 -114 180h-91z" />
    <glyph glyph-name="afii61352" unicode="&#x2116;" horiz-adv-x="1559" 
d="M997 61v136h518v-136h-518zM1005 484c0 89 18 150 54 182s101 48 196 48s160 -16 196 -48c37 -32 55 -93 55 -182c0 -91 -18 -154 -55 -189c-37 -34 -102 -51 -196 -51s-159 17 -196 51c-36 35 -54 98 -54 189zM1171 484c0 -51 5 -83 14 -96c10 -13 33 -19 70 -19
s60 6 69 18c9 13 14 45 14 97c0 48 -5 78 -14 89c-9 12 -32 18 -69 18s-60 -6 -70 -18c-9 -11 -14 -41 -14 -89zM99 0v697h282c95 -121 203 -269 323 -445v445h206v-697h-275c-99 157 -211 311 -334 463v-463h-202z" />
    <glyph glyph-name="trademark" unicode="&#x2122;" horiz-adv-x="1140" 
d="M277 588v-260h-121v260h-154v109h428v-109h-153zM511 697h157l128 -213l127 213h151v-369h-116v236l-130 -208h-74l-127 208v-236h-116v369z" />
    <glyph glyph-name="estimated" unicode="&#x212e;" horiz-adv-x="900" 
d="M711 175l28 -170c-69 -13 -151 -19 -245 -19c-144 0 -244 22 -321 78s-115 153 -115 294c0 139 34 232 106 284s160 72 292 72c271 0 394 -121 394 -388c0 -13 -1 -33 -2 -58h-563c5 -46 21 -75 48 -88s81 -19 161 -19c29 0 69 1 120 4s84 7 97 10zM456 537
c-65 0 -109 -5 -130 -16s-34 -36 -39 -77h337c-5 41 -18 67 -37 77c-19 11 -63 16 -131 16z" />
    <glyph glyph-name="arrowleft" unicode="&#x2190;" horiz-adv-x="762" 
d="M532 98l-134 -129l-403 388l403 389l134 -129l-179 -172h414v-175h-414z" />
    <glyph glyph-name="arrowup" unicode="&#x2191;" horiz-adv-x="767" 
d="M124 206l-129 134l388 403l389 -403l-129 -134l-172 179v-414h-175v414z" />
    <glyph glyph-name="arrowright" unicode="&#x2192;" horiz-adv-x="762" 
d="M230 616l134 129l403 -388l-403 -389l-134 129l179 172h-414v175h414z" />
    <glyph glyph-name="arrowdown" unicode="&#x2193;" horiz-adv-x="767" 
d="M643 508l129 -134l-388 -403l-389 403l129 134l172 -179v414h175v-414z" />
    <glyph glyph-name="partialdiff" unicode="&#x2202;" horiz-adv-x="770" 
d="M190 697h269c176 -147 265 -291 265 -475c0 -63 -9 -110 -26 -143c-35 -65 -124 -96 -309 -96c-127 0 -214 17 -261 50s-70 97 -70 190c0 81 22 138 67 170c45 33 127 49 247 49c8 0 20 -1 36 -2s26 -2 30 -2c-43 65 -126 152 -248 259zM383 282c-47 0 -76 -4 -89 -12
c-13 -7 -19 -24 -19 -51c0 -25 7 -41 21 -49c15 -7 46 -11 93 -11s77 5 90 15s20 31 20 64c0 17 -1 30 -3 39c-35 3 -72 5 -113 5z" />
    <glyph glyph-name="product" unicode="&#x220f;" horiz-adv-x="934" 
d="M628 529h-321v-529h-208v697h736v-697h-207v529z" />
    <glyph glyph-name="summation" unicode="&#x2211;" horiz-adv-x="778" 
d="M268 346c-114 143 -192 250 -233 321v30h719v-168h-363c29 -45 75 -107 136 -184c-52 -68 -100 -127 -145 -177h372v-168h-735v30c60 71 143 176 249 316z" />
    <glyph glyph-name="minus" unicode="&#x2212;" horiz-adv-x="660" 
d="M626 278h-592v176h592v-176z" />
    <glyph glyph-name="radical" unicode="&#x221a;" horiz-adv-x="751" 
d="M2 330v184h226c38 -85 81 -201 128 -346c30 54 71 142 122 264s85 210 101 265h196c-30 -83 -78 -200 -144 -352s-119 -267 -158 -345h-241c-43 123 -86 233 -127 330h-103z" />
    <glyph glyph-name="infinity" unicode="&#x221e;" horiz-adv-x="954" 
d="M405 352c0 44 -24 62 -100 62c-41 0 -67 -5 -79 -14s-18 -25 -18 -48c0 -24 6 -41 18 -50s38 -13 79 -13c76 0 100 18 100 63zM482 253c-17 -103 -88 -133 -221 -133c-85 0 -134 9 -174 42c-39 35 -53 93 -53 190s14 156 53 189c40 33 89 42 174 42
c133 0 204 -30 221 -133c11 103 79 133 212 133c85 0 133 -9 172 -42c40 -33 54 -92 54 -189s-14 -157 -54 -190c-39 -33 -87 -42 -172 -42c-132 0 -201 30 -212 133zM550 351c0 -44 23 -62 99 -62c41 0 67 4 79 13s18 26 18 49c0 24 -6 40 -18 49s-38 14 -79 14
c-76 0 -99 -18 -99 -63z" />
    <glyph glyph-name="integral" unicode="&#x222b;" horiz-adv-x="381" 
d="M96 0l1 534c0 131 81 196 244 196c82 0 152 -8 209 -25l-37 -146c-35 9 -75 14 -119 14c-75 0 -101 -15 -101 -56v-517c0 -156 -138 -203 -274 -203c-83 0 -154 7 -213 22l32 141c40 -13 90 -20 150 -20c72 0 108 20 108 60z" />
    <glyph glyph-name="approxequal" unicode="&#x2248;" horiz-adv-x="660" 
d="M541 313l113 -76c-35 -73 -112 -131 -208 -131c-30 0 -72 14 -125 41s-95 41 -126 41c-44 0 -67 -9 -84 -41l-103 85c54 73 115 109 183 109c38 0 84 -13 139 -40s96 -40 123 -40c51 0 69 11 88 52zM541 553l113 -76c-35 -73 -112 -131 -208 -131c-30 0 -72 14 -125 41
s-95 41 -126 41c-44 0 -67 -9 -84 -41l-103 85c54 73 115 109 183 109c38 0 84 -13 139 -40s96 -40 123 -40c51 0 69 11 88 52z" />
    <glyph glyph-name="notequal" unicode="&#x2260;" horiz-adv-x="660" 
d="M393 620l42 67h190l-42 -67h43v-176h-153l-96 -153h249v-176h-359l-44 -71h-190l45 71h-44v176h154l95 153h-249v176h359z" />
    <glyph glyph-name="lessequal" unicode="&#x2264;" horiz-adv-x="660" 
d="M626 -2h-592v176h592v-176zM492 730l113 -109l-272 -159l272 -162l-112 -110l-439 228v85z" />
    <glyph glyph-name="greaterequal" unicode="&#x2265;" horiz-adv-x="660" 
d="M35 174h592v-176h-592v176zM56 300l272 162l-272 159l113 109l438 -227v-85l-439 -228z" />
    <glyph glyph-name="lozenge" unicode="&#x25ca;" horiz-adv-x="854" 
d="M11 252c88 171 173 319 256 445h341c57 -124 136 -272 238 -445c-101 -169 -180 -317 -238 -444h-341c-81 124 -167 272 -256 444zM393 -59h63c63 121 119 225 168 311c-62 102 -118 206 -168 312h-63c-73 -124 -129 -228 -169 -312c49 -101 106 -204 169 -311z" />
    <glyph glyph-name="dotlessj" unicode="&#xf6be;" horiz-adv-x="360" 
d="M181 746c44 0 74 -5 89 -16c15 -10 23 -33 23 -68c0 -39 -8 -64 -24 -76c-15 -12 -45 -18 -88 -18c-44 0 -74 6 -90 18c-15 12 -23 37 -23 76c0 35 8 58 23 68c15 11 45 16 90 16zM82 514h198v-507c0 -79 -19 -133 -57 -164s-109 -46 -214 -46c-11 0 -28 1 -51 2v146
c11 -1 28 -2 51 -2c49 0 73 19 73 58v513z" />
    <glyph glyph-name="commaaccent" unicode="&#xf6c3;" horiz-adv-x="294" 
d="M148 -51h205l-104 -167h-153z" />
    <glyph glyph-name="Acute" unicode="&#xf6c9;" horiz-adv-x="566" 
d="M497 876l-198 -129h-171l158 129h211z" />
    <glyph glyph-name="Caron" unicode="&#xf6ca;" horiz-adv-x="784" 
d="M175 876h171l89 -74l86 74h165l-154 -129h-197z" />
    <glyph glyph-name="Dieresis" unicode="&#xf6cb;" horiz-adv-x="638" 
d="M260 809c0 -65 -18 -80 -82 -80c-63 0 -81 15 -81 80c0 60 17 72 81 72s82 -12 82 -72zM460 881c64 0 81 -12 81 -72c0 -65 -18 -80 -81 -80c-33 0 -55 5 -66 15s-16 32 -16 65c0 60 17 72 82 72z" />
    <glyph glyph-name="Grave" unicode="&#xf6ce;" horiz-adv-x="566" 
d="M337 876l158 -129h-171l-198 129h211z" />
    <glyph glyph-name="Hungarumlaut" unicode="&#xf6cf;" horiz-adv-x="740" 
d="M469 876l-155 -129h-127l124 129h158zM711 876l-155 -129h-127l123 129h159z" />
    <glyph glyph-name="Macron" unicode="&#xf6d0;" horiz-adv-x="369" 
d="M495 737h-353v122h353v-122z" />
    <glyph glyph-name="Lslashsmall" unicode="&#xf6f9;" horiz-adv-x="559" 
d="M388 319l-108 -69v-88h284v-162h-482v117l-46 -23v133l46 29v258h198v-131l108 70v-134z" />
    <glyph glyph-name="OEsmall" unicode="&#xf6fa;" horiz-adv-x="989" 
d="M507 514h441v-142h-295c5 -12 9 -27 12 -45h198v-134h-198c-2 -16 -7 -33 -15 -51h298v-142h-446c-39 -9 -87 -14 -142 -14c-106 0 -184 20 -233 60c-49 41 -74 112 -74 214c0 101 25 171 74 210c50 39 128 59 233 59c55 0 104 -5 147 -15zM251 257c0 -39 3 -68 10 -85
c15 -35 35 -39 99 -39c32 0 55 2 68 6c27 9 41 39 41 118c0 41 -4 70 -11 87c-13 35 -33 39 -98 39c-33 0 -56 -2 -69 -7c-25 -8 -40 -38 -40 -119z" />
    <glyph glyph-name="Scaronsmall" unicode="&#xf6fd;" horiz-adv-x="577" 
d="M313 529c81 0 154 -8 217 -23l-28 -142c-59 16 -127 24 -204 24c-57 0 -71 -3 -71 -28c0 -17 8 -24 120 -32c137 -11 198 -53 198 -160c0 -137 -94 -182 -279 -182c-88 0 -163 7 -224 22l29 143c45 -14 107 -21 185 -21c46 0 74 1 85 4s17 12 17 25c0 17 -18 26 -137 34
s-181 50 -181 155c0 69 22 116 67 142s113 39 206 39zM38 697h171l89 -74l85 74h166l-155 -129h-196z" />
    <glyph glyph-name="Zcaronsmall" unicode="&#xf6ff;" horiz-adv-x="604" 
d="M26 358v156h572v-29c-77 -105 -167 -215 -269 -329h249v-156h-575v28c45 49 95 108 152 177c57 70 97 121 120 153h-249zM56 697h171l89 -74l85 74h166l-155 -129h-196z" />
    <glyph glyph-name="exclamsmall" unicode="&#xf721;" horiz-adv-x="381" 
d="M121 243l-39 271h216l-44 -271h-133zM189 179c46 0 77 -6 93 -18c17 -11 25 -36 25 -74c0 -42 -8 -69 -25 -82c-16 -13 -47 -19 -93 -19c-45 0 -75 6 -91 19s-24 41 -24 82c0 38 8 63 24 74c16 12 46 18 91 18z" />
    <glyph glyph-name="ampersandsmall" unicode="&#xf726;" horiz-adv-x="920" 
d="M672 299h220c0 -67 -39 -126 -118 -179c37 -29 78 -69 122 -120h-258c-9 15 -24 29 -43 41c-54 -19 -101 -32 -140 -41s-81 -14 -126 -14c-247 4 -282 25 -288 148c0 84 52 124 163 131c-79 8 -109 47 -109 126c0 60 6 87 46 110s103 28 228 28s188 -5 228 -28
s46 -50 46 -110c0 -76 -49 -112 -154 -119c40 -7 86 -25 137 -55c31 29 46 57 46 82zM337 118c56 0 103 9 142 28c-49 30 -98 45 -147 45c-68 0 -81 -6 -81 -37c0 -16 5 -26 15 -30c11 -4 34 -6 71 -6zM454 366c0 28 -14 35 -81 35c-68 0 -81 -7 -81 -35
c0 -27 17 -34 81 -34s81 7 81 34z" />
    <glyph glyph-name="zerooldstyle" unicode="&#xf730;" horiz-adv-x="770" 
d="M384 -14c-102 0 -176 20 -222 60c-46 41 -69 112 -69 214c0 101 23 171 69 210c47 39 121 59 222 59c103 0 178 -20 224 -59c47 -39 70 -109 70 -210c0 -103 -23 -174 -70 -214c-46 -40 -121 -60 -224 -60zM384 374c-35 0 -57 -6 -68 -19c-10 -13 -15 -45 -15 -98
c0 -51 5 -84 16 -97s33 -19 67 -19c36 0 59 6 69 19c11 13 16 45 16 97c-5 112 -14 115 -85 117z" />
    <glyph glyph-name="oneoldstyle" unicode="&#xf731;" horiz-adv-x="770" 
d="M567 530v-530h-209v279l-186 -52l-47 179z" />
    <glyph glyph-name="twooldstyle" unicode="&#xf732;" horiz-adv-x="770" 
d="M126 327l-32 178c81 16 180 24 296 24c105 0 176 -12 215 -35s58 -64 58 -124s-6 -91 -37 -127c-29 -36 -79 -61 -174 -96h232v-147h-582v152c99 35 172 63 218 82s77 35 92 47c16 12 24 25 24 40c0 13 -6 21 -17 26s-38 8 -81 8c-79 0 -150 -9 -212 -28z" />
    <glyph glyph-name="threeoldstyle" unicode="&#xf733;" horiz-adv-x="770" 
d="M361 91h-133v165h127c75 0 94 9 94 50c0 21 -10 34 -30 39c-20 6 -67 9 -140 9c-67 0 -132 -6 -196 -18l-33 171c85 15 183 22 294 22c127 0 213 -13 260 -40c47 -26 71 -74 71 -145c0 -53 -13 -93 -38 -119s-71 -41 -138 -46c141 -8 193 -63 193 -179
c0 -73 -26 -125 -79 -154c-52 -30 -142 -45 -269 -45c-113 0 -211 7 -296 20l34 174c58 -11 124 -17 197 -17c160 2 178 9 182 56c0 47 -25 57 -100 57z" />
    <glyph glyph-name="fouroldstyle" unicode="&#xf734;" horiz-adv-x="770" 
d="M440 0h-430v69c150 199 269 348 356 445h269v-367h110v-147h-110v-192h-195v192zM272 147h168v205c-71 -75 -127 -143 -168 -205z" />
    <glyph glyph-name="fiveoldstyle" unicode="&#xf735;" horiz-adv-x="770" 
d="M107 94v420h563v-168h-369v-85c43 1 71 2 85 2c119 0 201 -16 244 -49c44 -32 66 -89 66 -171c0 -94 -24 -158 -72 -193s-135 -53 -262 -53s-226 6 -295 19l33 170c55 -8 120 -12 197 -12c155 3 161 5 167 64c-6 57 -7 59 -172 62c-81 0 -143 -2 -185 -6z" />
    <glyph glyph-name="sixoldstyle" unicode="&#xf736;" horiz-adv-x="770" 
d="M694 693l-23 -175c-63 14 -137 21 -224 21c-59 0 -99 -6 -121 -19c-21 -12 -35 -39 -40 -82c56 5 97 8 122 8c121 0 203 -16 248 -49c45 -32 67 -89 67 -170c0 -93 -24 -157 -71 -191c-47 -33 -133 -50 -260 -50c-125 0 -213 26 -262 79s-73 149 -73 290
c0 145 20 230 83 286s151 73 307 73c96 0 178 -7 247 -21zM505 222c-2 52 -3 59 -132 63c-33 0 -64 -2 -91 -6c3 -52 10 -84 23 -97s42 -19 87 -19c49 0 80 4 93 11c13 8 20 24 20 48z" />
    <glyph glyph-name="sevenoldstyle" unicode="&#xf737;" horiz-adv-x="770" 
d="M57 514h698v-58c-52 -65 -121 -167 -206 -308s-144 -254 -179 -340h-244c45 97 100 200 167 309c67 110 123 186 168 229h-404v168z" />
    <glyph glyph-name="eightoldstyle" unicode="&#xf738;" horiz-adv-x="770" 
d="M388 141c49 0 80 4 93 13c14 9 21 27 21 54c0 29 -7 49 -21 60c-13 11 -44 17 -93 17c-50 0 -82 -6 -96 -17c-13 -11 -20 -31 -20 -60c0 -27 7 -45 21 -54s46 -13 95 -13zM388 432c84 0 107 14 107 63c0 26 -7 43 -21 50s-43 11 -86 11c-45 0 -75 -4 -89 -11
s-21 -24 -21 -50c0 -49 23 -63 110 -63zM388 -14c-268 3 -332 52 -335 199c0 116 50 171 191 179c-135 9 -177 58 -177 165c0 47 8 82 23 107c31 51 119 78 296 78c89 0 157 -7 204 -20s78 -33 93 -58s23 -60 23 -107c0 -107 -42 -156 -177 -165c141 -8 191 -63 191 -179
c-2 -147 -67 -196 -332 -199z" />
    <glyph glyph-name="nineoldstyle" unicode="&#xf739;" horiz-adv-x="770" 
d="M452 -192h-268c137 121 224 210 262 267c-17 -3 -42 -5 -73 -5c-121 0 -203 16 -248 48c-44 33 -66 90 -66 171c0 93 23 157 70 190s134 50 261 50c93 0 163 -8 211 -24c48 -15 81 -39 98 -72s26 -80 26 -143c0 -184 -96 -334 -273 -482zM409 231c17 0 46 1 87 4
c2 14 3 27 3 39c0 33 -6 54 -19 64s-43 15 -90 15c-51 0 -82 -4 -95 -11s-19 -23 -19 -49c0 -27 7 -45 21 -52c15 -7 52 -10 112 -10z" />
    <glyph glyph-name="questionsmall" unicode="&#xf73f;" horiz-adv-x="604" 
d="M389 232h-190c113 63 152 96 152 121c0 24 -18 35 -102 35c-83 0 -149 -6 -198 -17l-21 146c98 13 180 20 245 20c115 0 194 -10 237 -31c44 -21 66 -56 66 -107c0 -68 -57 -116 -189 -167zM297 179c46 0 77 -6 93 -18c17 -11 25 -36 25 -74c0 -42 -8 -69 -25 -82
c-16 -13 -47 -19 -93 -19c-45 0 -75 6 -91 19s-24 41 -24 82c0 38 8 63 24 74c16 12 46 18 91 18z" />
    <glyph glyph-name="Asmall" unicode="&#xf761;" 
d="M203 514h311c29 -77 65 -165 108 -264c44 -99 83 -183 118 -250h-212c-9 16 -24 47 -43 94h-269c-16 -41 -27 -72 -32 -94h-207c23 65 58 149 103 251c46 103 87 190 123 263zM373 374h-46c-18 -36 -38 -86 -61 -149h163c-9 21 -27 70 -56 149z" />
    <glyph glyph-name="Bsmall" unicode="&#xf762;" horiz-adv-x="743" 
d="M280 132h158c35 0 48 7 48 32c0 29 -9 34 -48 34h-158v-66zM438 382h-158v-60h158c29 0 36 4 36 29s-7 31 -36 31zM529 268h1c63 -1 105 -12 127 -33c23 -21 34 -54 34 -99c0 -100 -64 -136 -187 -136h-422v514h422c67 0 113 -10 138 -29s37 -50 37 -95
c0 -41 -10 -70 -31 -89s-60 -30 -119 -33z" />
    <glyph glyph-name="Csmall" unicode="&#xf763;" horiz-adv-x="572" 
d="M527 162l24 -154c-50 -15 -112 -22 -186 -22c-99 0 -176 21 -231 62c-54 42 -81 113 -81 212c0 101 31 173 88 213c59 40 128 56 224 56c77 0 139 -6 186 -19l-25 -156c-48 11 -94 16 -138 16c-22 0 -38 0 -49 -1c-20 0 -52 -5 -61 -14c-18 -16 -27 -41 -27 -98
c0 -50 8 -81 25 -93s54 -18 112 -18c56 0 102 5 139 16z" />
    <glyph glyph-name="Dsmall" unicode="&#xf764;" horiz-adv-x="747" 
d="M82 0v514h312c106 0 182 -18 229 -55s71 -103 71 -200s-24 -164 -71 -202s-123 -57 -229 -57h-312zM362 372h-82v-230h82c56 0 76 1 101 16s32 44 32 99c0 46 -6 79 -23 93c-13 11 -19 16 -43 19c-23 3 -34 3 -67 3z" />
    <glyph glyph-name="Esmall" unicode="&#xf765;" horiz-adv-x="629" 
d="M82 514h507v-142h-309v-45h224v-134h-224v-51h309v-142h-507v514z" />
    <glyph glyph-name="Fsmall" unicode="&#xf766;" horiz-adv-x="597" 
d="M82 514h507v-142h-309v-72h224v-137h-224v-163h-198v514z" />
    <glyph glyph-name="Gsmall" unicode="&#xf767;" horiz-adv-x="715" 
d="M378 318h259v-300c-90 -21 -185 -32 -285 -32c-95 0 -168 21 -221 62c-52 42 -78 113 -78 212c0 179 109 269 328 269c83 0 159 -6 228 -19l-28 -146c-58 13 -121 19 -189 19c-53 0 -90 -8 -111 -24c-20 -15 -30 -49 -30 -102c0 -50 9 -83 28 -100c19 -16 51 -24 96 -24
c22 0 55 3 98 9v37h-95v139z" />
    <glyph glyph-name="Hsmall" unicode="&#xf768;" horiz-adv-x="756" 
d="M82 514h198v-172h196v172h198v-514h-198v186h-196v-186h-198v514z" />
    <glyph glyph-name="Ismall" unicode="&#xf769;" horiz-adv-x="360" 
d="M82 514h198v-514h-198v514z" />
    <glyph glyph-name="Jsmall" unicode="&#xf76a;" horiz-adv-x="568" 
d="M290 514h199v-322c0 -159 -140 -207 -275 -206c-82 0 -153 7 -213 22l30 152c45 -10 95 -15 151 -15c79 0 108 20 108 64v305z" />
    <glyph glyph-name="Ksmall" unicode="&#xf76b;" horiz-adv-x="764" 
d="M82 514h198v-514h-198v514zM791 0h-264c-117 163 -207 257 -243 272c18 10 48 37 91 80c43 44 88 98 136 162h263c-115 -130 -190 -206 -227 -229c18 -11 50 -43 96 -95c46 -51 95 -115 148 -190z" />
    <glyph glyph-name="Lsmall" unicode="&#xf76c;" horiz-adv-x="559" 
d="M82 514h198v-352h284v-162h-482v514z" />
    <glyph glyph-name="Msmall" unicode="&#xf76d;" horiz-adv-x="1014" 
d="M511 255c43 84 91 170 146 259h275v-514h-195v332c-68 -112 -123 -215 -165 -308h-135c-32 83 -85 186 -159 308v-332h-196v514h289c46 -67 93 -154 140 -259z" />
    <glyph glyph-name="Nsmall" unicode="&#xf76e;" horiz-adv-x="773" 
d="M280 256v-256h-198v514h206c81 -79 149 -159 204 -239v239h199v-514h-209c-21 34 -54 79 -99 136s-79 97 -103 120z" />
    <glyph glyph-name="Osmall" unicode="&#xf76f;" 
d="M360 -14c-106 0 -184 20 -233 60c-49 41 -74 112 -74 214c0 101 25 171 74 210c50 39 128 59 233 59c107 0 185 -20 234 -59c50 -39 75 -109 75 -210c0 -102 -25 -173 -75 -214c-49 -40 -127 -60 -234 -60zM251 257c0 -60 3 -89 23 -106c20 -16 37 -17 86 -17s66 1 86 17
c20 17 23 46 23 106c0 41 -4 70 -11 87c-13 35 -33 39 -98 39c-33 0 -56 -2 -69 -7c-25 -8 -40 -38 -40 -119z" />
    <glyph glyph-name="Psmall" unicode="&#xf770;" horiz-adv-x="707" 
d="M679 338c0 -104 -52 -178 -168 -178h-231v-160h-198v514h403c129 0 194 -59 194 -176zM433 378h-153v-88h153c27 0 41 14 41 43c0 30 -14 45 -41 45z" />
    <glyph glyph-name="Qsmall" unicode="&#xf771;" 
d="M334 -14c-89 0 -159 21 -208 62c-49 42 -73 113 -73 212c0 101 25 171 74 210c50 39 128 59 233 59c107 0 185 -20 234 -59c50 -39 75 -109 75 -210c0 -121 -38 -202 -115 -243c25 -7 51 -23 78 -49c28 -27 71 -77 130 -150h-218c-83 113 -146 168 -210 168zM251 257
c0 -39 3 -68 10 -85c15 -35 35 -40 99 -40c32 0 55 2 68 7c27 9 41 39 41 118c0 41 -4 70 -11 87c-13 36 -34 40 -98 40c-32 0 -55 -2 -68 -7c-27 -8 -41 -39 -41 -120z" />
    <glyph glyph-name="Rsmall" unicode="&#xf772;" horiz-adv-x="745" 
d="M440 373h-160v-84h160c31 0 46 14 46 42c0 31 -13 42 -46 42zM538 213c32 -7 61 -24 87 -50c27 -26 67 -80 121 -163h-238c-36 59 -65 98 -87 119c-21 21 -43 31 -64 31h-77v-150h-198v514h429c131 0 180 -56 180 -151c0 -87 -38 -143 -153 -150z" />
    <glyph glyph-name="Ssmall" unicode="&#xf773;" horiz-adv-x="577" 
d="M313 529c81 0 154 -8 217 -23l-28 -142c-59 16 -127 24 -204 24c-57 0 -71 -3 -71 -28c0 -17 8 -24 120 -32c137 -11 198 -53 198 -160c0 -137 -94 -182 -279 -182c-88 0 -163 7 -224 22l29 143c45 -14 107 -21 185 -21c46 0 74 1 85 4s17 12 17 25c0 17 -18 26 -137 34
s-181 50 -181 155c0 69 22 116 67 142s113 39 206 39z" />
    <glyph glyph-name="Tsmall" unicode="&#xf774;" horiz-adv-x="591" 
d="M589 358h-194v-358h-199v358h-194v156h587v-156z" />
    <glyph glyph-name="Usmall" unicode="&#xf775;" horiz-adv-x="740" 
d="M371 147c76 0 97 21 97 76v291h197v-283c0 -91 -22 -155 -66 -191c-43 -36 -119 -54 -228 -54s-186 18 -231 54c-44 37 -66 100 -66 191v283h198v-291c0 -55 22 -76 99 -76z" />
    <glyph glyph-name="Vsmall" unicode="&#xf776;" horiz-adv-x="651" 
d="M-8 514h204c45 -99 89 -214 130 -346c61 119 108 234 142 346h197c-73 -193 -147 -364 -224 -514h-241c-53 154 -122 325 -208 514z" />
    <glyph glyph-name="Wsmall" unicode="&#xf777;" horiz-adv-x="1046" 
d="M519 270c-26 -87 -60 -177 -102 -270h-239c-57 159 -126 331 -207 514h202c54 -118 99 -235 136 -350c54 126 98 243 131 350h169c57 -146 99 -263 125 -350c60 130 105 247 136 350h196c-77 -201 -151 -373 -224 -514h-241c-16 70 -43 160 -82 270z" />
    <glyph glyph-name="Xsmall" unicode="&#xf778;" horiz-adv-x="630" 
d="M438 514h222c-65 -83 -138 -168 -219 -253c97 -108 170 -195 221 -261h-225c-28 39 -66 85 -113 139c-33 -43 -74 -90 -125 -139h-226c41 39 123 124 245 256h1c-100 112 -181 198 -242 258h241c41 -45 77 -90 110 -134c47 49 84 94 110 134z" />
    <glyph glyph-name="Ysmall" unicode="&#xf779;" horiz-adv-x="608" 
d="M318 357c51 55 93 108 128 157h217c-94 -123 -177 -218 -249 -287v-227h-199v227c-127 138 -218 234 -273 287h237c39 -39 85 -91 139 -157z" />
    <glyph glyph-name="Zsmall" unicode="&#xf77a;" horiz-adv-x="604" 
d="M26 358v156h572v-29c-77 -105 -167 -215 -269 -329h249v-156h-575v28c45 49 95 108 152 177c57 70 97 121 120 153h-249z" />
    <glyph glyph-name="exclamdownsmall" unicode="&#xf7a1;" horiz-adv-x="381" 
d="M260 272l39 -272h-216l45 272h132zM192 336c-46 0 -77 6 -94 17c-16 12 -24 37 -24 75c0 42 8 69 24 82c17 13 48 19 94 19c45 0 75 -7 91 -20s24 -40 24 -81c0 -38 -8 -63 -24 -75c-16 -11 -46 -17 -91 -17z" />
    <glyph glyph-name="questiondownsmall" unicode="&#xf7bf;" horiz-adv-x="604" 
d="M219 289h190c-113 -63 -152 -96 -152 -121c0 -24 18 -35 102 -35c83 0 149 6 198 17l21 -146c-98 -13 -180 -20 -245 -20c-115 0 -194 10 -238 31c-43 21 -65 56 -65 107c0 68 57 116 189 167zM311 342c-46 0 -77 6 -94 17c-16 12 -24 37 -24 75c0 42 8 69 24 82
c17 13 48 19 94 19c45 0 75 -7 91 -20s24 -40 24 -81c0 -38 -8 -63 -24 -75c-16 -11 -46 -17 -91 -17z" />
    <glyph glyph-name="Agravesmall" unicode="&#xf7e0;" 
d="M203 514h311c29 -77 65 -165 108 -264c44 -99 83 -183 118 -250h-212c-9 16 -24 47 -43 94h-269c-16 -41 -27 -72 -32 -94h-207c23 65 58 149 103 251c46 103 87 190 123 263zM373 374h-46c-18 -36 -38 -86 -61 -149h163c-9 21 -27 70 -56 149zM351 697l157 -129h-170
l-198 129h211z" />
    <glyph glyph-name="Aacutesmall" unicode="&#xf7e1;" 
d="M203 514h311c29 -77 65 -165 108 -264c44 -99 83 -183 118 -250h-212c-9 16 -24 47 -43 94h-269c-16 -41 -27 -72 -32 -94h-207c23 65 58 149 103 251c46 103 87 190 123 263zM373 374h-46c-18 -36 -38 -86 -61 -149h163c-9 21 -27 70 -56 149zM576 697l-198 -129h-170
l157 129h211z" />
    <glyph glyph-name="Acircumflexsmall" unicode="&#xf7e2;" 
d="M203 514h311c29 -77 65 -165 108 -264c44 -99 83 -183 118 -250h-212c-9 16 -24 47 -43 94h-269c-16 -41 -27 -72 -32 -94h-207c23 65 58 149 103 251c46 103 87 190 123 263zM373 374h-46c-18 -36 -38 -86 -61 -149h163c-9 21 -27 70 -56 149zM609 568h-171l-89 73
l-85 -73h-166l155 129h196z" />
    <glyph glyph-name="Atildesmall" unicode="&#xf7e3;" 
d="M203 514h311c29 -77 65 -165 108 -264c44 -99 83 -183 118 -250h-212c-9 16 -24 47 -43 94h-269c-16 -41 -27 -72 -32 -94h-207c23 65 58 149 103 251c46 103 87 190 123 263zM373 374h-46c-18 -36 -38 -86 -61 -149h163c-9 21 -27 70 -56 149zM519 703l72 -52
c-27 -56 -78 -98 -146 -98c-25 0 -58 8 -101 23s-75 23 -96 23c-31 0 -52 -11 -63 -32l-66 59c39 52 74 81 127 81c27 0 63 -7 107 -22c45 -15 77 -22 98 -22c37 0 53 11 68 40z" />
    <glyph glyph-name="Adieresissmall" unicode="&#xf7e4;" 
d="M296 634c0 -65 -18 -80 -82 -80c-63 0 -81 15 -81 80c0 60 17 72 81 72s82 -12 82 -72zM496 706c64 0 81 -12 81 -72c0 -65 -18 -80 -81 -80c-33 0 -55 5 -66 15s-16 32 -16 65c0 60 17 72 82 72zM203 514h311c29 -77 65 -165 108 -264c44 -99 83 -183 118 -250h-212
c-9 16 -24 47 -43 94h-269c-16 -41 -27 -72 -32 -94h-207c23 65 58 149 103 251c46 103 87 190 123 263zM373 374h-46c-18 -36 -38 -86 -61 -149h163c-9 21 -27 70 -56 149z" />
    <glyph glyph-name="Aringsmall" unicode="&#xf7e5;" 
d="M354 744c57 0 96 -7 118 -21s33 -41 33 -81s-11 -67 -33 -81s-61 -21 -118 -21c-115 0 -153 22 -153 102s38 102 153 102zM354 605c57 0 66 8 66 36c0 15 -4 24 -12 29c-7 5 -25 8 -54 8s-47 -3 -55 -8c-7 -5 -11 -14 -11 -29c0 -29 7 -36 66 -36zM203 514h311
c29 -77 65 -165 108 -264c44 -99 83 -183 118 -250h-212c-9 16 -24 47 -43 94h-269c-16 -41 -27 -72 -32 -94h-207c23 65 58 149 103 251c46 103 87 190 123 263zM373 374h-46c-18 -36 -38 -86 -61 -149h163c-9 21 -27 70 -56 149z" />
    <glyph glyph-name="AEsmall" unicode="&#xf7e6;" horiz-adv-x="1057" 
d="M362 514h655v-142h-309v-45h224v-134h-224v-51h309v-142h-507v99h-299c-16 -20 -41 -53 -74 -99h-215c49 63 117 146 206 249s167 192 234 265zM317 230h193v160h-62z" />
    <glyph glyph-name="Ccedillasmall" unicode="&#xf7e7;" horiz-adv-x="572" 
d="M527 162l24 -154c-42 -12 -92 -19 -149 -21v-23c51 0 85 -6 102 -17c17 -12 25 -33 25 -64c0 -63 -60 -86 -192 -86c-42 0 -75 3 -100 9l33 68c19 -5 44 -7 75 -7c26 0 39 6 39 19c0 19 -7 22 -42 22c-26 0 -44 -1 -55 -2l39 81c-175 9 -273 88 -273 273
c0 101 31 173 88 213c59 40 128 56 224 56c77 0 139 -6 186 -19l-25 -156c-48 11 -94 16 -138 16c-22 0 -38 0 -49 -1c-20 0 -52 -5 -61 -14c-18 -16 -27 -41 -27 -98c0 -50 8 -81 25 -93s54 -18 112 -18c56 0 102 5 139 16z" />
    <glyph glyph-name="Egravesmall" unicode="&#xf7e8;" horiz-adv-x="629" 
d="M82 514h507v-142h-309v-45h224v-134h-224v-51h309v-142h-507v514zM335 697l157 -129h-170l-198 129h211z" />
    <glyph glyph-name="Eacutesmall" unicode="&#xf7e9;" horiz-adv-x="629" 
d="M82 514h507v-142h-309v-45h224v-134h-224v-51h309v-142h-507v514zM568 697l-198 -129h-170l157 129h211z" />
    <glyph glyph-name="Ecircumflexsmall" unicode="&#xf7ea;" horiz-adv-x="629" 
d="M82 514h507v-142h-309v-45h224v-134h-224v-51h309v-142h-507v514zM609 568h-171l-89 73l-85 -73h-166l155 129h196z" />
    <glyph glyph-name="Edieresissmall" unicode="&#xf7eb;" horiz-adv-x="629" 
d="M289 634c0 -65 -18 -80 -82 -80c-63 0 -81 15 -81 80c0 60 17 72 81 72s82 -12 82 -72zM489 706c64 0 81 -12 81 -72c0 -65 -18 -80 -81 -80c-33 0 -55 5 -66 15s-16 32 -16 65c0 60 17 72 82 72zM82 514h507v-142h-309v-45h224v-134h-224v-51h309v-142h-507v514z" />
    <glyph glyph-name="Igravesmall" unicode="&#xf7ec;" horiz-adv-x="360" 
d="M82 514h198v-514h-198v514zM160 697l157 -129h-170l-198 129h211z" />
    <glyph glyph-name="Iacutesmall" unicode="&#xf7ed;" horiz-adv-x="360" 
d="M82 514h198v-514h-198v514zM411 697l-198 -129h-170l157 129h211z" />
    <glyph glyph-name="Icircumflexsmall" unicode="&#xf7ee;" horiz-adv-x="360" 
d="M82 514h198v-514h-198v514zM436 568h-171l-89 73l-85 -73h-166l155 129h196z" />
    <glyph glyph-name="Idieresissmall" unicode="&#xf7ef;" horiz-adv-x="360" 
d="M82 514h198v-514h-198v514zM121 634c0 -65 -18 -80 -82 -80c-63 0 -81 15 -81 80c0 60 17 72 81 72s82 -12 82 -72zM321 706c64 0 81 -12 81 -72c0 -65 -18 -80 -81 -80c-33 0 -55 5 -66 15s-16 32 -16 65c0 60 17 72 82 72z" />
    <glyph glyph-name="Ethsmall" unicode="&#xf7f0;" horiz-adv-x="747" 
d="M82 200h-47v122h47v192h312c106 0 182 -18 229 -55s71 -103 71 -200s-24 -164 -71 -202s-123 -57 -229 -57h-312v200zM362 372h-82v-50h64v-122h-64v-58h82c56 0 76 1 101 16s32 44 32 99c0 46 -6 79 -23 93c-13 11 -19 16 -43 19c-23 3 -34 3 -67 3z" />
    <glyph glyph-name="Ntildesmall" unicode="&#xf7f1;" horiz-adv-x="773" 
d="M280 256v-256h-198v514h206c81 -79 149 -159 204 -239v239h199v-514h-209c-21 34 -54 79 -99 136s-79 97 -103 120zM559 703l72 -52c-27 -56 -78 -98 -146 -98c-25 0 -58 8 -101 23s-75 23 -96 23c-31 0 -52 -11 -63 -32l-66 59c39 52 74 81 127 81c27 0 63 -7 107 -22
c45 -15 77 -22 98 -22c37 0 53 11 68 40z" />
    <glyph glyph-name="Ogravesmall" unicode="&#xf7f2;" 
d="M360 -14c-106 0 -184 20 -233 60c-49 41 -74 112 -74 214c0 101 25 171 74 210c50 39 128 59 233 59c107 0 185 -20 234 -59c50 -39 75 -109 75 -210c0 -102 -25 -173 -75 -214c-49 -40 -127 -60 -234 -60zM251 257c0 -60 3 -89 23 -106c20 -16 37 -17 86 -17s66 1 86 17
c20 17 23 46 23 106c0 41 -4 70 -11 87c-13 35 -33 39 -98 39c-33 0 -56 -2 -69 -7c-25 -8 -40 -38 -40 -119zM352 697l157 -129h-170l-198 129h211z" />
    <glyph glyph-name="Oacutesmall" unicode="&#xf7f3;" 
d="M360 -14c-106 0 -184 20 -233 60c-49 41 -74 112 -74 214c0 101 25 171 74 210c50 39 128 59 233 59c107 0 185 -20 234 -59c50 -39 75 -109 75 -210c0 -102 -25 -173 -75 -214c-49 -40 -127 -60 -234 -60zM251 257c0 -60 3 -89 23 -106c20 -16 37 -17 86 -17s66 1 86 17
c20 17 23 46 23 106c0 41 -4 70 -11 87c-13 35 -33 39 -98 39c-33 0 -56 -2 -69 -7c-25 -8 -40 -38 -40 -119zM548 697l-198 -129h-170l157 129h211z" />
    <glyph glyph-name="Ocircumflexsmall" unicode="&#xf7f4;" 
d="M360 -14c-106 0 -184 20 -233 60c-49 41 -74 112 -74 214c0 101 25 171 74 210c50 39 128 59 233 59c107 0 185 -20 234 -59c50 -39 75 -109 75 -210c0 -102 -25 -173 -75 -214c-49 -40 -127 -60 -234 -60zM251 257c0 -60 3 -89 23 -106c20 -16 37 -17 86 -17s66 1 86 17
c20 17 23 46 23 106c0 41 -4 70 -11 87c-13 35 -33 39 -98 39c-33 0 -56 -2 -69 -7c-25 -8 -40 -38 -40 -119zM617 568h-171l-89 73l-85 -73h-166l155 129h196z" />
    <glyph glyph-name="Otildesmall" unicode="&#xf7f5;" 
d="M360 -14c-106 0 -184 20 -233 60c-49 41 -74 112 -74 214c0 101 25 171 74 210c50 39 128 59 233 59c107 0 185 -20 234 -59c50 -39 75 -109 75 -210c0 -102 -25 -173 -75 -214c-49 -40 -127 -60 -234 -60zM251 257c0 -60 3 -89 23 -106c20 -16 37 -17 86 -17s66 1 86 17
c20 17 23 46 23 106c0 41 -4 70 -11 87c-13 35 -33 39 -98 39c-33 0 -56 -2 -69 -7c-25 -8 -40 -38 -40 -119zM525 703l72 -52c-27 -56 -78 -98 -146 -98c-25 0 -58 8 -101 23s-75 23 -96 23c-31 0 -52 -11 -63 -32l-66 59c39 52 74 81 127 81c27 0 63 -7 107 -22
c45 -15 77 -22 98 -22c37 0 53 11 68 40z" />
    <glyph glyph-name="Odieresissmall" unicode="&#xf7f6;" 
d="M360 -14c-106 0 -184 20 -233 60c-49 41 -74 112 -74 214c0 101 25 171 74 210c50 39 128 59 233 59c107 0 185 -20 234 -59c50 -39 75 -109 75 -210c0 -102 -25 -173 -75 -214c-49 -40 -127 -60 -234 -60zM251 257c0 -60 3 -89 23 -106c20 -16 37 -17 86 -17s66 1 86 17
c20 17 23 46 23 106c0 41 -4 70 -11 87c-13 35 -33 39 -98 39c-33 0 -56 -2 -69 -7c-25 -8 -40 -38 -40 -119zM302 634c0 -65 -18 -80 -82 -80c-63 0 -81 15 -81 80c0 60 17 72 81 72s82 -12 82 -72zM502 706c64 0 81 -12 81 -72c0 -65 -18 -80 -81 -80c-33 0 -55 5 -66 15
s-16 32 -16 65c0 60 17 72 82 72z" />
    <glyph glyph-name="Oslashsmall" unicode="&#xf7f8;" 
d="M360 -14c-77 0 -138 10 -183 29l-18 -15h-177l106 93c-23 41 -35 97 -35 167c0 101 25 171 74 210c50 39 128 59 233 59c83 0 146 -10 189 -31l18 16h175l-107 -94c23 -41 34 -95 34 -160c0 -102 -25 -173 -75 -214c-49 -40 -127 -60 -234 -60zM360 383
c-33 0 -56 -2 -69 -7c-25 -8 -40 -38 -40 -119v-21l163 144c-14 2 -32 3 -54 3zM360 134c49 0 66 1 86 17c20 17 23 46 23 106v16l-156 -138c9 -1 24 -1 47 -1z" />
    </font>
</defs>
</svg>
